  0
SECTION
  2
HEADER
  9
$ACADVER
  1
AC1009
  9
$INSBASE
 10
0.0
 20
0.0
 30
0.0
  9
$EXTMIN
 10
0.0
 20
0.0
 30
0.0
  9
$EXTMAX
 10
0.0
 20
0.0
 30
0.0
  0
ENDSEC
  0
SECTION
  2
TABLES
  0
TABLE
  2
VPORT
 70
0
  0
ENDTAB
  0
TABLE
  2
LTYPE
 70
1
  0
LTYPE
  2
CONTINUOUS
 70
0
  3
Solid line
 72
65
 73
0
 40
0.0
  0
ENDTAB
  0
TABLE
  2
LAYER
 70
1
  0
LAYER
  2
0
 70
64
 62
7
  6
continuous
  0
ENDTAB
  0
TABLE
  2
STYLE
 70
1
  0
STYLE
  2
STANDARD
 70
0
 40
0
 41
1.0
 50
0.0
 71
0
 42
1
 3
ARIAL.TTF
 4

  0
ENDTAB
  0
TABLE
  2
VIEW
 70
0
  0
ENDTAB
  0
ENDSEC
  0
SECTION
  2
BLOCKS
  0
BLOCK
  8
0
  2
SKETCH
 70
0
 10
0.0
 20
0.0
 30
0.0
  3
SKETCH
  0
LINE
  8
0
 62
7
 10
-59.0
 20
68.2
 30
0.0
 11
-59.0
 21
110.0
 31
0.0
  0
LINE
  8
0
 62
7
 10
-59.0
 20
110.0
 30
0.0
 11
-35.0
 21
110.0
 31
0.0
  0
LINE
  8
0
 62
7
 10
-35.0
 20
92.0
 30
0.0
 11
-35.0
 21
110.0
 31
0.0
  0
LINE
  8
0
 62
7
 10
35.0
 20
92.0
 30
0.0
 11
-35.0
 21
92.0
 31
0.0
  0
LINE
  8
0
 62
7
 10
35.0
 20
110.0
 30
0.0
 11
35.0
 21
92.0
 31
0.0
  0
LINE
  8
0
 62
7
 10
35.0
 20
110.0
 30
0.0
 11
59.0
 21
110.0
 31
0.0
  0
LINE
  8
0
 62
7
 10
59.0
 20
110.0
 30
0.0
 11
59.0
 21
68.2
 31
0.0
  0
LINE
  8
0
 62
7
 10
19.0
 20
68.2
 30
0.0
 11
59.0
 21
68.2
 31
0.0
  0
LINE
  8
0
 62
7
 10
19.0
 20
50.5
 30
0.0
 11
19.0
 21
68.2
 31
0.0
  0
LINE
  8
0
 62
7
 10
59.0
 20
50.5
 30
0.0
 11
19.0
 21
50.5
 31
0.0
  0
LINE
  8
0
 62
7
 10
59.0
 20
50.5
 30
0.0
 11
59.0
 21
8.7
 31
0.0
  0
LINE
  8
0
 62
7
 10
19.0
 20
8.7
 30
0.0
 11
59.0
 21
8.7
 31
0.0
  0
LINE
  8
0
 62
7
 10
19.0
 20
-8.9
 30
0.0
 11
19.0
 21
8.7
 31
0.0
  0
LINE
  8
0
 62
7
 10
59.0
 20
-8.9
 30
0.0
 11
19.0
 21
-8.9
 31
0.0
  0
LINE
  8
0
 62
7
 10
59.0
 20
-8.9
 30
0.0
 11
59.0
 21
-50.7
 31
0.0
  0
LINE
  8
0
 62
7
 10
19.0
 20
-50.7
 30
0.0
 11
59.0
 21
-50.7
 31
0.0
  0
LINE
  8
0
 62
7
 10
19.0
 20
-68.2
 30
0.0
 11
19.0
 21
-50.7
 31
0.0
  0
LINE
  8
0
 62
7
 10
59.0
 20
-68.2
 30
0.0
 11
19.0
 21
-68.2
 31
0.0
  0
LINE
  8
0
 62
7
 10
59.0
 20
-68.2
 30
0.0
 11
59.0
 21
-110.0
 31
0.0
  0
LINE
  8
0
 62
7
 10
59.0
 20
-110.0
 30
0.0
 11
-59.0
 21
-110.0
 31
0.0
  0
LINE
  8
0
 62
7
 10
-59.0
 20
-110.0
 30
0.0
 11
-59.0
 21
-68.2
 31
0.0
  0
LINE
  8
0
 62
7
 10
-19.0
 20
-68.2
 30
0.0
 11
-59.0
 21
-68.2
 31
0.0
  0
LINE
  8
0
 62
7
 10
-19.0
 20
-50.8
 30
0.0
 11
-19.0
 21
-68.2
 31
0.0
  0
LINE
  8
0
 62
7
 10
-59.0
 20
-50.8
 30
0.0
 11
-19.0
 21
-50.8
 31
0.0
  0
LINE
  8
0
 62
7
 10
-59.0
 20
-50.8
 30
0.0
 11
-59.0
 21
-9.0
 31
0.0
  0
LINE
  8
0
 62
7
 10
-19.0
 20
-9.0
 30
0.0
 11
-59.0
 21
-9.0
 31
0.0
  0
LINE
  8
0
 62
7
 10
-19.0
 20
8.4
 30
0.0
 11
-19.0
 21
-9.0
 31
0.0
  0
LINE
  8
0
 62
7
 10
-59.0
 20
8.4
 30
0.0
 11
-19.0
 21
8.4
 31
0.0
  0
LINE
  8
0
 62
7
 10
-59.0
 20
8.4
 30
0.0
 11
-59.0
 21
50.2
 31
0.0
  0
LINE
  8
0
 62
7
 10
-19.0
 20
50.2
 30
0.0
 11
-59.0
 21
50.2
 31
0.0
  0
LINE
  8
0
 62
7
 10
-19.0
 20
68.2
 30
0.0
 11
-19.0
 21
50.2
 31
0.0
  0
LINE
  8
0
 62
7
 10
-59.0
 20
68.2
 30
0.0
 11
-19.0
 21
68.2
 31
0.0
  0
LINE
  8
0
 62
7
 10
-34.8
 20
-82.4
 30
0.0
 11
34.8
 21
-82.4
 31
0.0
  0
LINE
  8
0
 62
7
 10
34.8
 20
-82.4
 30
0.0
 11
34.8
 21
-100.0
 31
0.0
  0
LINE
  8
0
 62
7
 10
34.8
 20
-100.0
 30
0.0
 11
-34.8
 21
-100.0
 31
0.0
  0
LINE
  8
0
 62
7
 10
-34.8
 20
-100.0
 30
0.0
 11
-34.8
 21
-82.4
 31
0.0
  0
ENDBLK
  0
ENDSEC
  0
SECTION
  2
ENTITIES
  0
INSERT
  2
SKETCH
  8
0
 62
7
 10
0.0
 20
0.0
 30
0.0
  0
ENDSEC
  0
EOF
