999
dxflib 3.12.2.0
  0
SECTION
  2
HEADER
  9
$ACADVER
  1
AC1015
  9
$HANDSEED
  5
FFFF
  9
$DIMADEC
 70
0
  9
$DIMASZ
 40
0.18
  9
$DIMAUNIT
 70
0
  9
$DIMAZIN
 70
0
  9
$DIMDEC
 70
4
  9
$DIMEXE
 40
0.18
  9
$DIMEXO
 40
0.0625
  9
$DIMGAP
 40
0.09
  9
$DIMLUNIT
 70
2
  9
$DIMSCALE
 40
1.0
  9
$DIMTSZ
 40
0.0
  9
$DIMTXT
 40
0.18
  9
$DIMZIN
 70
0
  9
$DWGCODEPAGE
  3
ANSI_1252
  9
$EXTMAX
 10
0.0
 20
0.0
 30
0.0
  9
$EXTMIN
 10
0.0
 20
0.0
 30
0.0
  9
$INSBASE
 10
0.0
 20
0.0
 30
0.0
  9
$INSUNITS
 70
0
  9
$LTSCALE
 40
1.0
  9
$MAXACTVP
 70
32
  9
$MEASUREMENT
 70
1
  9
$PDMODE
 70
0
  9
$PDSIZE
 40
0
  0
ENDSEC
  0
SECTION
  2
TABLES
  0
TABLE
  2
VPORT
  5
8
100
AcDbSymbolTable
 70
1
  0
VPORT
  5
30
100
AcDbSymbolTableRecord
100
AcDbViewportTableRecord
  2
*Active
 70
0
 10
0.0
 20
0.0
 11
1.0
 21
1.0
 12
286.3055555555554861
 22
148.5
 13
0.0
 23
0.0
 14
10.0
 24
10.0
 15
10.0
 25
10.0
 16
0.0
 26
0.0
 36
1.0
 17
0.0
 27
0.0
 37
0.0
 40
297.0
 41
1.92798353909465
 42
50.0
 43
0.0
 44
0.0
 50
0.0
 51
0.0
 71
0
 72
100
 73
1
 74
3
 75
1
 76
1
 77
0
 78
0
281
0
 65
1
110
0.0
120
0.0
130
0.0
111
1.0
121
0.0
131
0.0
112
0.0
122
1.0
132
0.0
 79
0
146
0.0
  0
ENDTAB
  0
TABLE
  2
LTYPE
  5
5
100
AcDbSymbolTable
 70
41
  0
LTYPE
  5
16
100
AcDbSymbolTableRecord
100
AcDbLinetypeTableRecord
  2
CONTINUOUS
 70
0
  3
Solid line
 72
65
 73
0
 40
0.0
  0
LTYPE
  5
31
100
AcDbSymbolTableRecord
100
AcDbLinetypeTableRecord
  2
ACAD_ISO15W100
 70
0
  3
ISO double-dash triple-dot __ __ . . . __ __ . .
 72
65
 73
10
 40
39.0
 49
12.0
 74
0
 49
-3.0
 74
0
 49
12.0
 74
0
 49
-3.0
 74
0
 49
0.0
 74
0
 49
-3.0
 74
0
 49
0.0
 74
0
 49
-3.0
 74
0
 49
0.0
 74
0
 49
-3.0
 74
0
  0
LTYPE
  5
32
100
AcDbSymbolTableRecord
100
AcDbLinetypeTableRecord
  2
DIVIDE
 70
0
  3
Divide ____ . . ____ . . ____ . . ____ . . ____
 72
65
 73
6
 40
31.75
 49
12.6999999999999993
 74
0
 49
-6.3499999999999996
 74
0
 49
0.0
 74
0
 49
-6.3499999999999996
 74
0
 49
0.0
 74
0
 49
-6.3499999999999996
 74
0
  0
LTYPE
  5
33
100
AcDbSymbolTableRecord
100
AcDbLinetypeTableRecord
  2
ACAD_ISO10W100
 70
0
  3
ISO dash dot __ . __ . __ . __ . __ . __ . __ . 
 72
65
 73
4
 40
18.0
 49
12.0
 74
0
 49
-3.0
 74
0
 49
0.0
 74
0
 49
-3.0
 74
0
  0
LTYPE
  5
34
100
AcDbSymbolTableRecord
100
AcDbLinetypeTableRecord
  2
ACAD_ISO04W100
 70
0
  3
ISO long-dash dot ____ . ____ . ____ . ____ . _
 72
65
 73
4
 40
30.0
 49
24.0
 74
0
 49
-3.0
 74
0
 49
0.0
 74
0
 49
-3.0
 74
0
  0
LTYPE
  5
35
100
AcDbSymbolTableRecord
100
AcDbLinetypeTableRecord
  2
CENTER2
 70
0
  3
Center (.5x) ___ _ ___ _ ___ _ ___ _ ___ _ ___
 72
65
 73
4
 40
28.5750000000000028
 49
19.0500000000000007
 74
0
 49
-3.1749999999999998
 74
0
 49
3.1749999999999998
 74
0
 49
-3.1749999999999998
 74
0
  0
LTYPE
  5
36
100
AcDbSymbolTableRecord
100
AcDbLinetypeTableRecord
  2
ACAD_ISO11W100
 70
0
  3
ISO double-dash dot __ __ . __ __ . __ __ . __ _
 72
65
 73
6
 40
33.0
 49
12.0
 74
0
 49
-3.0
 74
0
 49
12.0
 74
0
 49
-3.0
 74
0
 49
0.0
 74
0
 49
-3.0
 74
0
  0
LTYPE
  5
37
100
AcDbSymbolTableRecord
100
AcDbLinetypeTableRecord
  2
HIDDEN2
 70
0
  3
Hidden (.5x) _ _ _ _ _ _ _ _ _ _ _ _ _ _ _ _ _ 
 72
65
 73
2
 40
4.7624999999999993
 49
3.1749999999999998
 74
0
 49
-1.5874999999999999
 74
0
  0
LTYPE
  5
38
100
AcDbSymbolTableRecord
100
AcDbLinetypeTableRecord
  2
BORDERX2
 70
0
  3
Border (2x) ____  ____  .  ____  ____  .  ___
 72
65
 73
6
 40
88.8999999999999915
 49
25.3999999999999986
 74
0
 49
-12.6999999999999993
 74
0
 49
25.3999999999999986
 74
0
 49
-12.6999999999999993
 74
0
 49
0.0
 74
0
 49
-12.6999999999999993
 74
0
  0
LTYPE
  5
39
100
AcDbSymbolTableRecord
100
AcDbLinetypeTableRecord
  2
ACAD_ISO05W100
 70
0
  3
ISO long-dash double-dot ____ .. ____ .. ____ . 
 72
65
 73
6
 40
33.0
 49
24.0
 74
0
 49
-3.0
 74
0
 49
0.0
 74
0
 49
-3.0
 74
0
 49
0.0
 74
0
 49
-3.0
 74
0
  0
LTYPE
  5
3A
100
AcDbSymbolTableRecord
100
AcDbLinetypeTableRecord
  2
DASHDOTX2
 70
0
  3
Dash dot (2x) ____  .  ____  .  ____  .  ___
 72
65
 73
4
 40
50.7999999999999972
 49
25.3999999999999986
 74
0
 49
-12.6999999999999993
 74
0
 49
0.0
 74
0
 49
-12.6999999999999993
 74
0
  0
LTYPE
  5
3B
100
AcDbSymbolTableRecord
100
AcDbLinetypeTableRecord
  2
HIDDENX2
 70
0
  3
Hidden (2x) ____ ____ ____ ____ ____ ____ ____ 
 72
65
 73
2
 40
19.0499999999999972
 49
12.6999999999999993
 74
0
 49
-6.3499999999999996
 74
0
  0
LTYPE
  5
3C
100
AcDbSymbolTableRecord
100
AcDbLinetypeTableRecord
  2
CENTERX2
 70
0
  3
Center (2x) ________  __  ________  __  _____
 72
65
 73
4
 40
101.6000000000000085
 49
63.5
 74
0
 49
-12.6999999999999993
 74
0
 49
12.6999999999999993
 74
0
 49
-12.6999999999999993
 74
0
  0
LTYPE
  5
3D
100
AcDbSymbolTableRecord
100
AcDbLinetypeTableRecord
  2
BORDER2
 70
0
  3
Border (.5x) __.__.__.__.__.__.__.__.__.__.__.
 72
65
 73
6
 40
22.2249999999999979
 49
6.3499999999999996
 74
0
 49
-3.1749999999999998
 74
0
 49
6.3499999999999996
 74
0
 49
-3.1749999999999998
 74
0
 49
0.0
 74
0
 49
-3.1749999999999998
 74
0
  0
LTYPE
  5
3E
100
AcDbSymbolTableRecord
100
AcDbLinetypeTableRecord
  2
DASHDOT2
 70
0
  3
Dash dot (.5x) _._._._._._._._._._._._._._._.
 72
65
 73
4
 40
12.6999999999999993
 49
6.3499999999999996
 74
0
 49
-3.1749999999999998
 74
0
 49
0.0
 74
0
 49
-3.1749999999999998
 74
0
  0
LTYPE
  5
3F
100
AcDbSymbolTableRecord
100
AcDbLinetypeTableRecord
  2
ACAD_ISO12W100
 70
0
  3
ISO dash double-dot __ . . __ . . __ . . __ . . 
 72
65
 73
6
 40
21.0
 49
12.0
 74
0
 49
-3.0
 74
0
 49
0.0
 74
0
 49
-3.0
 74
0
 49
0.0
 74
0
 49
-3.0
 74
0
  0
LTYPE
  5
40
100
AcDbSymbolTableRecord
100
AcDbLinetypeTableRecord
  2
ACAD_ISO07W100
 70
0
  3
ISO dot . . . . . . . . . . . . . . . . . . . . 
 72
65
 73
2
 40
3.0
 49
0.0
 74
0
 49
-3.0
 74
0
  0
LTYPE
  5
41
100
AcDbSymbolTableRecord
100
AcDbLinetypeTableRecord
  2
HIDDEN
 70
0
  3
Hidden __ __ __ __ __ __ __ __ __ __ __ __ __ __
 72
65
 73
2
 40
9.5249999999999986
 49
6.3499999999999996
 74
0
 49
-3.1749999999999998
 74
0
  0
LTYPE
  5
42
100
AcDbSymbolTableRecord
100
AcDbLinetypeTableRecord
  2
ACAD_ISO06W100
 70
0
  3
ISO long-dash triple-dot ____ ... ____ ... ____
 72
65
 73
8
 40
36.0
 49
24.0
 74
0
 49
-3.0
 74
0
 49
0.0
 74
0
 49
-3.0
 74
0
 49
0.0
 74
0
 49
-3.0
 74
0
 49
0.0
 74
0
 49
-3.0
 74
0
  0
LTYPE
  5
43
100
AcDbSymbolTableRecord
100
AcDbLinetypeTableRecord
  2
CENTER
 70
0
  3
Center ____ _ ____ _ ____ _ ____ _ ____ _ ____
 72
65
 73
4
 40
50.8000000000000043
 49
31.75
 74
0
 49
-6.3499999999999996
 74
0
 49
6.3499999999999996
 74
0
 49
-6.3499999999999996
 74
0
  0
LTYPE
  5
44
100
AcDbSymbolTableRecord
100
AcDbLinetypeTableRecord
  2
DOTX2
 70
0
  3
Dot (2x) .  .  .  .  .  .  .  .  .  .  .  .  .  .
 72
65
 73
2
 40
12.6999999999999993
 49
0.0
 74
0
 49
-12.6999999999999993
 74
0
  0
LTYPE
  5
45
100
AcDbSymbolTableRecord
100
AcDbLinetypeTableRecord
  2
PHANTOM
 70
0
  3
Phantom ______  __  __  ______  __  __  ______ 
 72
65
 73
6
 40
63.5000000000000071
 49
31.75
 74
0
 49
-6.3499999999999996
 74
0
 49
6.3499999999999996
 74
0
 49
-6.3499999999999996
 74
0
 49
6.3499999999999996
 74
0
 49
-6.3499999999999996
 74
0
  0
LTYPE
  5
46
100
AcDbSymbolTableRecord
100
AcDbLinetypeTableRecord
  2
ACAD_ISO08W100
 70
0
  3
ISO long-dash short-dash ____ __ ____ __ ____ _
 72
65
 73
4
 40
36.0
 49
24.0
 74
0
 49
-3.0
 74
0
 49
6.0
 74
0
 49
-3.0
 74
0
  0
LTYPE
  5
47
100
AcDbSymbolTableRecord
100
AcDbLinetypeTableRecord
  2
DASHEDX2
 70
0
  3
Dashed (2x) ____  ____  ____  ____  ____  ___
 72
65
 73
2
 40
38.0999999999999943
 49
25.3999999999999986
 74
0
 49
-12.6999999999999993
 74
0
  0
LTYPE
  5
48
100
AcDbSymbolTableRecord
100
AcDbLinetypeTableRecord
  2
ACAD_ISO02W100
 70
0
  3
ISO dash __ __ __ __ __ __ __ __ __ __ __ __ __
 72
65
 73
2
 40
15.0
 49
12.0
 74
0
 49
-3.0
 74
0
  0
LTYPE
  5
49
100
AcDbSymbolTableRecord
100
AcDbLinetypeTableRecord
  2
PHANTOM2
 70
0
  3
Phantom (.5x) ___ _ _ ___ _ _ ___ _ _ ___ _ _
 72
65
 73
6
 40
31.7500000000000036
 49
15.875
 74
0
 49
-3.1749999999999998
 74
0
 49
3.1749999999999998
 74
0
 49
-3.1749999999999998
 74
0
 49
3.1749999999999998
 74
0
 49
-3.1749999999999998
 74
0
  0
LTYPE
  5
4A
100
AcDbSymbolTableRecord
100
AcDbLinetypeTableRecord
  2
DASHED2
 70
0
  3
Dashed (.5x) _ _ _ _ _ _ _ _ _ _ _ _ _ _ _ _ _ 
 72
65
 73
2
 40
9.5249999999999986
 49
6.3499999999999996
 74
0
 49
-3.1749999999999998
 74
0
  0
LTYPE
  5
4B
100
AcDbSymbolTableRecord
100
AcDbLinetypeTableRecord
  2
ACAD_ISO09W100
 70
0
  3
ISO long-dash double-short-dash ____ __ __ ____
 72
65
 73
6
 40
45.0
 49
24.0
 74
0
 49
-3.0
 74
0
 49
6.0
 74
0
 49
-3.0
 74
0
 49
6.0
 74
0
 49
-3.0
 74
0
  0
LTYPE
  5
4C
100
AcDbSymbolTableRecord
100
AcDbLinetypeTableRecord
  2
ACAD_ISO13W100
 70
0
  3
ISO double-dash double-dot __ __ . . __ __ . . _
 72
65
 73
8
 40
36.0
 49
12.0
 74
0
 49
-3.0
 74
0
 49
12.0
 74
0
 49
-3.0
 74
0
 49
0.0
 74
0
 49
-3.0
 74
0
 49
0.0
 74
0
 49
-3.0
 74
0
  0
LTYPE
  5
4D
100
AcDbSymbolTableRecord
100
AcDbLinetypeTableRecord
  2
DOT2
 70
0
  3
Dot (.5x) ........................................
 72
65
 73
2
 40
3.1749999999999998
 49
0.0
 74
0
 49
-3.1749999999999998
 74
0
  0
LTYPE
  5
4E
100
AcDbSymbolTableRecord
100
AcDbLinetypeTableRecord
  2
DASHED
 70
0
  3
Dashed __ __ __ __ __ __ __ __ __ __ __ __ __ _
 72
65
 73
2
 40
19.0499999999999972
 49
12.6999999999999993
 74
0
 49
-6.3499999999999996
 74
0
  0
LTYPE
  5
4F
100
AcDbSymbolTableRecord
100
AcDbLinetypeTableRecord
  2
ACAD_ISO14W100
 70
0
  3
ISO dash triple-dot __ . . . __ . . . __ . . . _
 72
65
 73
8
 40
24.0
 49
12.0
 74
0
 49
-3.0
 74
0
 49
0.0
 74
0
 49
-3.0
 74
0
 49
0.0
 74
0
 49
-3.0
 74
0
 49
0.0
 74
0
 49
-3.0
 74
0
  0
LTYPE
  5
15
100
AcDbSymbolTableRecord
100
AcDbLinetypeTableRecord
  2
BYLAYER
 70
0
  3

 72
65
 73
0
 40
0.0
  0
LTYPE
  5
50
100
AcDbSymbolTableRecord
100
AcDbLinetypeTableRecord
  2
PHANTOMX2
 70
0
  3
Phantom (2x) ____________    ____    ____   _
 72
65
 73
6
 40
127.0000000000000142
 49
63.5
 74
0
 49
-12.6999999999999993
 74
0
 49
12.6999999999999993
 74
0
 49
-12.6999999999999993
 74
0
 49
12.6999999999999993
 74
0
 49
-12.6999999999999993
 74
0
  0
LTYPE
  5
14
100
AcDbSymbolTableRecord
100
AcDbLinetypeTableRecord
  2
BYBLOCK
 70
0
  3

 72
65
 73
0
 40
0.0
  0
LTYPE
  5
51
100
AcDbSymbolTableRecord
100
AcDbLinetypeTableRecord
  2
DIVIDEX2
 70
0
  3
Divide (2x) ________  .  .  ________  .  .  _
 72
65
 73
6
 40
63.5
 49
25.3999999999999986
 74
0
 49
-12.6999999999999993
 74
0
 49
0.0
 74
0
 49
-12.6999999999999993
 74
0
 49
0.0
 74
0
 49
-12.6999999999999993
 74
0
  0
LTYPE
  5
52
100
AcDbSymbolTableRecord
100
AcDbLinetypeTableRecord
  2
BORDER
 70
0
  3
Border __ __ . __ __ . __ __ . __ __ . __ __ .
 72
65
 73
6
 40
44.4499999999999957
 49
12.6999999999999993
 74
0
 49
-6.3499999999999996
 74
0
 49
12.6999999999999993
 74
0
 49
-6.3499999999999996
 74
0
 49
0.0
 74
0
 49
-6.3499999999999996
 74
0
  0
LTYPE
  5
53
100
AcDbSymbolTableRecord
100
AcDbLinetypeTableRecord
  2
DIVIDE2
 70
0
  3
Divide (.5x) __..__..__..__..__..__..__..__.._
 72
65
 73
6
 40
15.875
 49
6.3499999999999996
 74
0
 49
-3.1749999999999998
 74
0
 49
0.0
 74
0
 49
-3.1749999999999998
 74
0
 49
0.0
 74
0
 49
-3.1749999999999998
 74
0
  0
LTYPE
  5
54
100
AcDbSymbolTableRecord
100
AcDbLinetypeTableRecord
  2
DOT
 70
0
  3
Dot . . . . . . . . . . . . . . . . . . . . . . . .
 72
65
 73
2
 40
6.3499999999999996
 49
0.0
 74
0
 49
-6.3499999999999996
 74
0
  0
LTYPE
  5
55
100
AcDbSymbolTableRecord
100
AcDbLinetypeTableRecord
  2
DASHDOT
 70
0
  3
Dash dot __ . __ . __ . __ . __ . __ . __ . __
 72
65
 73
4
 40
25.3999999999999986
 49
12.6999999999999993
 74
0
 49
-6.3499999999999996
 74
0
 49
0.0
 74
0
 49
-6.3499999999999996
 74
0
  0
LTYPE
  5
56
100
AcDbSymbolTableRecord
100
AcDbLinetypeTableRecord
  2
ACAD_ISO03W100
 70
0
  3
ISO dash space __    __    __    __    __    __
 72
65
 73
2
 40
30.0
 49
12.0
 74
0
 49
-18.0
 74
0
  0
ENDTAB
  0
TABLE
  2
LAYER
  5
2
100
AcDbSymbolTable
 70
1
  0
LAYER
  5
10
100
AcDbSymbolTableRecord
100
AcDbLayerTableRecord
  2
0
 70
0
 62
7
420
16777215
  6
CONTINUOUS
370
5
390
F
  0
ENDTAB
  0
TABLE
  2
STYLE
  5
3
100
AcDbSymbolTable
 70
1
  0
STYLE
  5
57
100
AcDbSymbolTableRecord
100
AcDbTextStyleTableRecord
  2
Standard
 70
0
 40
0.0
 41
1.0
 50
0.0
 71
0
 42
2.5
  3

  4

1001
ACAD
1000
txt
1071
0
  0
ENDTAB
  0
TABLE
  2
VIEW
  5
6
100
AcDbSymbolTable
 70
0
  0
ENDTAB
  0
TABLE
  2
UCS
  5
7
100
AcDbSymbolTable
 70
0
  0
ENDTAB
  0
TABLE
  2
APPID
  5
9
100
AcDbSymbolTable
 70
1
  0
APPID
  5
12
100
AcDbSymbolTableRecord
100
AcDbRegAppTableRecord
  2
ACAD
 70
0
  0
APPID
  5
58
100
AcDbSymbolTableRecord
100
AcDbRegAppTableRecord
  2
QCAD
 70
0
  0
ENDTAB
  0
TABLE
  2
DIMSTYLE
  5
A
100
AcDbSymbolTable
 70
1
100
AcDbDimStyleTable
 71
0
  0
DIMSTYLE
105
27
100
AcDbSymbolTableRecord
100
AcDbDimStyleTableRecord
  2
Standard
 41
0.18
 42
0.0625
 43
3.75
 44
0.18
 70
0
 73
0
 74
0
 77
1
 78
8
140
0.18
141
2.5
143
0.03937007874016
147
0.09
171
3
172
1
271
2
272
2
274
3
278
44
283
0
284
8
340
57
  0
ENDTAB
  0
TABLE
  2
BLOCK_RECORD
  5
1
100
AcDbSymbolTable
 70
1
  0
BLOCK_RECORD
  5
1F
100
AcDbSymbolTableRecord
100
AcDbBlockTableRecord
  2
*Model_Space
340
22
  0
BLOCK_RECORD
  5
1B
100
AcDbSymbolTableRecord
100
AcDbBlockTableRecord
  2
*Paper_Space
340
1E
  0
BLOCK_RECORD
  5
23
100
AcDbSymbolTableRecord
100
AcDbBlockTableRecord
  2
*Paper_Space0
340
26
  0
BLOCK_RECORD
  5
59
100
AcDbSymbolTableRecord
100
AcDbBlockTableRecord
  2
SHAPE2DVIEW002
340
0
  0
ENDTAB
  0
ENDSEC
  0
SECTION
  2
BLOCKS
  0
BLOCK
  5
20
100
AcDbEntity
  8
0
100
AcDbBlockBegin
  2
*Model_Space
 70
0
 10
0.0
 20
0.0
 30
0.0
  3
*Model_Space
  1

  0
ENDBLK
  5
21
100
AcDbEntity
  8
0
100
AcDbBlockEnd
  0
BLOCK
  5
1C
100
AcDbEntity
 67
1
  8
0
100
AcDbBlockBegin
  2
*Paper_Space
 70
0
 10
0.0
 20
0.0
 30
0.0
  3
*Paper_Space
  1

  0
ENDBLK
  5
1D
100
AcDbEntity
 67
1
  8
0
100
AcDbBlockEnd
  0
BLOCK
  5
24
100
AcDbEntity
  8
0
100
AcDbBlockBegin
  2
*Paper_Space0
 70
0
 10
0.0
 20
0.0
 30
0.0
  3
*Paper_Space0
  1

  0
ENDBLK
  5
25
100
AcDbEntity
  8
0
100
AcDbBlockEnd
  0
BLOCK
  5
5A
100
AcDbEntity
  8
0
100
AcDbBlockBegin
  2
SHAPE2DVIEW002
 70
0
 10
0.0
 20
0.0
 30
0.0
  3
SHAPE2DVIEW002
  1

  0
LWPOLYLINE
  5
5B
100
AcDbEntity
  8
0
 62
256
370
-1
 48
1.0
  6
BYLAYER
100
AcDbPolyline
 90
166
 70
0
 10
-184.2551117069999975
 20
0.0801457422795
 30
0.0
 10
-184.3051109490000101
 20
0.0799074166708
 30
0.0
 10
-184.3551056480000057
 20
0.0791924615035
 30
0.0
 10
-184.4050912589999882
 20
0.0780009417523
 30
0.0
 10
-184.4550632410000048
 20
0.0763329657014
 30
0.0
 10
-184.50501705100001
 20
0.0741886849353
 30
0.0
 10
-184.5549481490000119
 20
0.0715682943247
 30
0.0
 10
-184.6048519990000045
 20
0.0684720320086
 30
0.0
 10
-184.6547240650000106
 20
0.0649001793731
 30
0.0
 10
-184.7045598139999925
 20
0.0608530610253
 30
0.0
 10
-184.7543547180000019
 20
0.0563310447643
 30
0.0
 10
-184.8041042510000125
 20
0.0513345415475
 30
0.0
 10
-184.853803892000002
 20
0.0458640054534
 30
0.0
 10
-184.9034491239999909
 20
0.03991993364
 30
0.0
 10
-184.9530354359999933
 20
0.0335028663003
 30
0.0
 10
-185.0025583210000093
 20
0.0266133866123
 30
0.0
 10
-185.052013278000004
 20
0.0192521206867
 30
0.0
 10
-185.101395814
 20
0.0114197375099
 30
0.0
 10
-185.150701440000006
 20
0.00311694888278
 30
0.0
 10
-185.1999256759999923
 20
-0.00565549064341
 30
0.0
 10
-185.2490640469999903
 20
-0.0148967838361
 30
0.0
 10
-185.298112089
 20
-0.0246060908535
 30
0.0
 10
-185.3470653439999865
 20
-0.0347825293211
 30
0.0
 10
-185.3959193629999902
 20
-0.0454251744121
 30
0.0
 10
-185.4446697060000133
 20
-0.0565330589308
 30
0.0
 10
-185.4933119439999984
 20
-0.0681051734012
 30
0.0
 10
-185.5418416539999953
 20
-0.0801404661582
 30
0.0
 10
-185.5902544269999908
 20
-0.0926378434437
 30
0.0
 10
-185.6385458640000081
 20
-0.105596169505
 30
0.0
 10
-185.6867115750000039
 20
-0.1190142667
 30
0.0
 10
-185.7347471840000139
 20
-0.132890915602
 30
0.0
 10
-185.7826483240000073
 20
-0.147224855112
 30
0.0
 10
-185.8304106429999933
 20
-0.162014782571
 30
0.0
 10
-185.8780298000000073
 20
-0.177259353883
 30
0.0
 10
-185.9255014670000037
 20
-0.192957183633
 30
0.0
 10
-185.9728213310000058
 20
-0.209106845213
 30
0.0
 10
-186.0199850909999952
 20
-0.225706870955
 30
0.0
 10
-186.0669884600000046
 20
-0.242755752261
 30
0.0
 10
-186.1138271670000108
 20
-0.260251939741
 30
0.0
 10
-186.1604969550000135
 20
-0.278193843356
 30
0.0
 10
-186.2069935840000028
 20
-0.296579832558
 30
0.0
 10
-186.253312827000002
 20
-0.315408236443
 30
0.0
 10
-186.2994504749999862
 20
-0.3346773439
 30
0.0
 10
-186.3454023349999886
 20
-0.354385403768
 30
0.0
 10
-186.3911642310000047
 20
-0.374530624991
 30
0.0
 10
-186.4367320039999925
 20
-0.395111176789
 30
0.0
 10
-186.4821015139999929
 20
-0.416125188816
 30
0.0
 10
-186.5272686360000023
 20
-0.437570751334
 30
0.0
 10
-186.5722292659999937
 20
-0.459445915388
 30
0.0
 10
-186.6169793180000056
 20
-0.481748692978
 30
0.0
 10
-186.6615147260000072
 20
-0.504477057246
 30
0.0
 10
-186.7058314409999866
 20
-0.527628942655
 30
0.0
 10
-186.7499254370000017
 20
-0.551202245178
 30
0.0
 10
-186.793792706000005
 20
-0.575194822493
 30
0.0
 10
-186.8374292620000006
 20
-0.599604494172
 30
0.0
 10
-186.8808311379999907
 20
-0.624429041883
 30
0.0
 10
-186.9239943919999973
 20
-0.649666209589
 30
0.0
 10
-186.9669150990000048
 20
-0.675313703756
 30
0.0
 10
-187.0095893600000068
 20
-0.701369193558
 30
0.0
 10
-187.0520132949999947
 20
-0.727830311094
 30
0.0
 10
-187.0941830509999875
 20
-0.754694651596
 30
0.0
 10
-187.1360947940000017
 20
-0.781959773654
 30
0.0
 10
-187.1777447149999887
 20
-0.809623199434
 30
0.0
 10
-187.219129028999987
 20
-0.837682414905
 30
0.0
 10
-187.2602439759999982
 20
-0.866134870066
 30
0.0
 10
-187.3010858190000079
 20
-0.894977979181
 30
0.0
 10
-187.3416508459999932
 20
-0.924209121009
 30
0.0
 10
-187.3819353709999973
 20
-0.953825639046
 30
0.0
 10
-187.4219357320000086
 20
-0.983824841766
 30
0.0
 10
-187.4616482950000034
 20
-1.0142040028599999
 30
0.0
 10
-187.5010694499999886
 20
-1.0449603615
 30
0.0
 10
-187.5401956149999876
 20
-1.0760911225700001
 30
0.0
 10
-187.5790232340000045
 20
-1.1075934569300001
 30
0.0
 10
-187.617548778000014
 20
-1.13946450166
 30
0.0
 10
-187.6557687469999962
 20
-1.1717013603599999
 30
0.0
 10
-187.6936796669999978
 20
-1.20430110337
 30
0.0
 10
-187.7312780919999966
 20
-1.2372607680300001
 30
0.0
 10
-187.7685606050000047
 20
-1.27057735901
 30
0.0
 10
-187.8055238199999906
 20
-1.30424784851
 30
0.0
 10
-187.8421643750000101
 20
-1.3382691766000001
 30
0.0
 10
-187.8784789419999868
 20
-1.37263825142
 30
0.0
 10
-187.9144642200000135
 20
-1.40735194956
 30
0.0
 10
-187.9501169389999973
 20
-1.4424071162500001
 30
0.0
 10
-187.9854338579999933
 20
-1.47780056572
 30
0.0
 10
-188.0204117689999919
 20
-1.51352908142
 30
0.0
 10
-188.0550474919999999
 20
-1.5495894163699999
 30
0.0
 10
-188.0893378789999986
 20
-1.58597829346
 30
0.0
 10
-188.1232798160000073
 20
-1.6226924056700001
 30
0.0
 10
-188.1568702159999873
 20
-1.6597284164499999
 30
0.0
 10
-188.190106027000013
 20
-1.6970829600099999
 30
0.0
 10
-188.2229842289999908
 20
-1.7347526416000001
 30
0.0
 10
-188.2555018330000109
 20
-1.7727340378100001
 30
0.0
 10
-188.2876558849999924
 20
-1.81102369693
 30
0.0
 10
-188.3194434629999989
 20
-1.84961813922
 30
0.0
 10
-188.3508616770000117
 20
-1.88851385726
 30
0.0
 10
-188.3819076730000006
 20
-1.92770731621
 30
0.0
 10
-188.4125786280000057
 20
-1.96719495423
 30
0.0
 10
-188.4428717559999882
 20
-2.0069731826899999
 30
0.0
 10
-188.4727843039999868
 20
-2.0470383865800001
 30
0.0
 10
-188.5023135529999934
 20
-2.0873869248200001
 30
0.0
 10
-188.5314568189999989
 20
-2.1280151305400001
 30
0.0
 10
-188.5602114540000116
 20
-2.1689193114999998
 30
0.0
 10
-188.5885748450000108
 20
-2.2100957503399998
 30
0.0
 10
-188.6165444140000034
 20
-2.251540705
 30
0.0
 10
-188.6441176200000029
 20
-2.2932504089800001
 30
0.0
 10
-188.6712919560000046
 20
-2.3352210717299999
 30
0.0
 10
-188.6980649529999994
 20
-2.3774488789900001
 30
0.0
 10
-188.7244341770000062
 20
-2.4199299931399998
 30
0.0
 10
-188.7503972330000011
 20
-2.4626605535200001
 30
0.0
 10
-188.7759517609999875
 20
-2.50563667681
 30
0.0
 10
-188.8010954380000044
 20
-2.54885445737
 30
0.0
 10
-188.8258259799999905
 20
-2.5923099676099999
 30
0.0
 10
-188.8501411389999873
 20
-2.63599925831
 30
0.0
 10
-188.8740387050000038
 20
-2.6799183590400002
 30
0.0
 10
-188.8975165059999881
 20
-2.7240632784500001
 30
0.0
 10
-188.9205724089999876
 20
-2.7684300046899999
 30
0.0
 10
-188.9432043189999888
 20
-2.81301450574
 30
0.0
 10
-188.9654101780000133
 20
-2.8578127298
 30
0.0
 10
-188.9871879689999901
 20
-2.9028206056500001
 30
0.0
 10
-189.0085357129999863
 20
-2.9480340429899998
 30
0.0
 10
-189.0294514690000085
 20
-2.9934489328599998
 30
0.0
 10
-189.0499333360000094
 20
-3.039061148
 30
0.0
 10
-189.0699794539999914
 20
-3.0848665432
 30
0.0
 10
-189.089587999999992
 20
-3.1308609557099998
 30
0.0
 10
-189.1087571930000024
 20
-3.17704020557
 30
0.0
 10
-189.1274852900000099
 20
-3.2234000960700002
 30
0.0
 10
-189.1457705889999943
 20
-3.26993641404
 30
0.0
 10
-189.1636114290000137
 20
-3.3166449303099999
 30
0.0
 10
-189.1810061889999872
 20
-3.3635214000300002
 30
0.0
 10
-189.19795328699999
 20
-3.4105615631199999
 30
0.0
 10
-189.2144511829999942
 20
-3.4577611445900001
 30
0.0
 10
-189.230498377999993
 20
-3.5051158549800001
 30
0.0
 10
-189.2460934140000006
 20
-3.5526213907300002
 30
0.0
 10
-189.2612348730000065
 20
-3.60027343458
 30
0.0
 10
-189.2759213790000103
 20
-3.6480676559499998
 30
0.0
 10
-189.2901515979999942
 20
-3.6959997113299998
 30
0.0
 10
-189.3039242369999897
 20
-3.7440652446799998
 30
0.0
 10
-189.3172380430000032
 20
-3.7922598878699998
 30
0.0
 10
-189.3300918070000023
 20
-3.8405792609799998
 30
0.0
 10
-189.3424843599999861
 20
-3.8890189728000002
 30
0.0
 10
-189.354414577
 20
-3.93757462115
 30
0.0
 10
-189.3658813739999971
 20
-3.9862417933500001
 30
0.0
 10
-189.3768837069999904
 20
-4.0350160665499999
 30
0.0
 10
-189.3874205779999897
 20
-4.0838930081799996
 30
0.0
 10
-189.3974910279999904
 20
-4.1328681763399997
 30
0.0
 10
-189.4070941429999948
 20
-4.1819371202099997
 30
0.0
 10
-189.4162290499999983
 20
-4.2310953804500002
 30
0.0
 10
-189.4248949180000068
 20
-4.2803384895700001
 30
0.0
 10
-189.433090959999987
 20
-4.3296619724200003
 30
0.0
 10
-189.4408164310000018
 20
-4.3790613465000003
 30
0.0
 10
-189.4480706290000001
 20
-4.4285321224400001
 30
0.0
 10
-189.4548528960000056
 20
-4.4780698043799996
 30
0.0
 10
-189.4611626129999991
 20
-4.5276698903600003
 30
0.0
 10
-189.4669992089999937
 20
-4.5773278727699998
 30
0.0
 10
-189.4723621530000059
 20
-4.6270392387200001
 30
0.0
 10
-189.477250956000006
 20
-4.6767994704999998
 30
0.0
 10
-189.481665176000007
 20
-4.7266040459100003
 30
0.0
 10
-189.4856044100000076
 20
-4.7764484387700001
 30
0.0
 10
-189.4890683010000032
 20
-4.8263281192600003
 30
0.0
 10
-189.4920565339999996
 20
-4.8762385543300004
 30
0.0
 10
-189.4945688379999922
 20
-4.9261752081800001
 30
0.0
 10
-189.4966049829999974
 20
-4.9761335426000004
 30
0.0
 10
-189.4981647859999896
 20
-5.0261090174099996
 30
0.0
 10
-189.499248104000003
 20
-5.0760970908700003
 30
0.0
 10
-189.4998548389999939
 20
-5.1260932201199996
 30
0.0
 10
-189.4999972230000083
 20
-5.1647397743000001
 30
0.0
  0
LWPOLYLINE
  5
5C
100
AcDbEntity
  8
0
 62
256
370
-1
 48
1.0
  6
BYLAYER
100
AcDbPolyline
 90
76
 70
0
 10
-148.3831919200000016
 20
-2.29699573661
 30
0.0
 10
-148.3837177419999875
 20
-2.2469994233200001
 30
0.0
 10
-148.3852949770000009
 20
-2.1970252283399998
 30
0.0
 10
-148.387922924999998
 20
-2.14709526019
 30
0.0
 10
-148.3916004250000071
 20
-2.09723160784
 30
0.0
 10
-148.396325848999993
 20
-2.0474563308899998
 30
0.0
 10
-148.4020971079999924
 20
-1.99779144988
 30
0.0
 10
-148.4089116469999965
 20
-1.94825893648
 30
0.0
 10
-148.4167664530000081
 20
-1.89888070382
 30
0.0
 10
-148.4256580500000098
 20
-1.84967859677
 30
0.0
 10
-148.4355825039999957
 20
-1.80067438229
 30
0.0
 10
-148.4465354250000075
 20
-1.75188973978
 30
0.0
 10
-148.4585119680000105
 20
-1.70334625151
 30
0.0
 10
-148.4715068339999959
 20
-1.6550653930500001
 30
0.0
 10
-148.4855142739999962
 20
-1.6070685238
 30
0.0
 10
-148.5005280910000067
 20
-1.5593768775200001
 30
0.0
 10
-148.5165416440000001
 20
-1.51201155294
 30
0.0
 10
-148.5335478469999941
 20
-1.46499350442
 30
0.0
 10
-148.5515391769999951
 20
-1.41834353268
 30
0.0
 10
-148.5705076749999876
 20
-1.37208227562
 30
0.0
 10
-148.5904449500000055
 20
-1.3262301991600001
 30
0.0
 10
-148.6113421800000083
 20
-1.2808075882100001
 30
0.0
 10
-148.633190122000002
 20
-1.23583453767
 30
0.0
 10
-148.6559791089999862
 20
-1.1913309435699999
 30
0.0
 10
-148.679699061000008
 20
-1.14731649424
 30
0.0
 10
-148.7043394819999946
 20
-1.1038106616300001
 30
0.0
 10
-148.7298894719999964
 20
-1.06083269265
 30
0.0
 10
-148.7563377289999949
 20
-1.0184016007200001
 30
0.0
 10
-148.7836725500000057
 20
-0.9765361573
 30
0.0
 10
-148.8118818449999878
 20
-0.935254883605
 30
0.0
 10
-148.840953130999992
 20
-0.894576042424
 30
0.0
 10
-148.8708735499999989
 20
-0.854517630028
 30
0.0
 10
-148.9016298630000108
 20
-0.815097368211
 30
0.0
 10
-148.9332084639999891
 20
-0.776332696448
 30
0.0
 10
-148.965595382999993
 20
-0.738240764183
 30
0.0
 10
-148.9987762920000023
 20
-0.7008384232430001
 30
0.0
 10
-149.0327365120000138
 20
-0.664142220377
 30
0.0
 10
-149.0674610179999888
 20
-0.628168389941
 30
0.0
 10
-149.1029344490000028
 20
-0.592932846715
 30
0.0
 10
-149.1391411120000043
 20
-0.55845117886
 30
0.0
 10
-149.1760649880000074
 20
-0.524738641026
 30
0.0
 10
-149.2136897430000033
 20
-0.491810147597
 30
0.0
 10
-149.2519987299999968
 20
-0.459680266101
 30
0.0
 10
-149.2909750039999892
 20
-0.428363210757
 30
0.0
 10
-149.3306013190000101
 20
-0.397872836194
 30
0.0
 10
-149.3708601470000019
 20
-0.368222631316
 30
0.0
 10
-149.4117336749999936
 20
-0.339425713339
 30
0.0
 10
-149.4532038229999955
 20
-0.311494821984
 30
0.0
 10
-149.4952522430000101
 20
-0.284442313843
 30
0.0
 10
-149.537860333999987
 20
-0.258280156915
 30
0.0
 10
-149.58100924499999
 20
-0.233019925306
 30
0.0
 10
-149.6246798870000134
 20
-0.208672794112
 30
0.0
 10
-149.6688529420000009
 20
-0.185249534473
 30
0.0
 10
-149.7135088660000122
 20
-0.162760508814
 30
0.0
 10
-149.7586279040000079
 20
-0.14121566625
 30
0.0
 10
-149.8041900949999956
 20
-0.120624538195
 30
0.0
 10
-149.8501752829999987
 20
-0.100996234138
 30
0.0
 10
-149.8965631240000107
 20
-0.0823394376186
 30
0.0
 10
-149.9433330960000035
 20
-0.0646624023804
 30
0.0
 10
-149.9904645070000129
 20
-0.0479729487224
 30
0.0
 10
-150.0379365080000014
 20
-0.032278460039
 30
0.0
 10
-150.0857280959999969
 20
-0.0175858795531
 30
0.0
 10
-150.1338181289999909
 20
-0.00390170724457
 30
0.0
 10
-150.1821853319999889
 20
0.00876800302523
 30
0.0
 10
-150.2308083060000001
 20
0.0204176461917
 30
0.0
 10
-150.2796655420000036
 20
0.0310420684668
 30
0.0
 10
-150.3287354249999908
 20
0.0406365696187
 30
0.0
 10
-150.3779962460000093
 20
0.0491969050519
 30
0.0
 10
-150.4274262120000003
 20
0.0567192876841
 30
0.0
 10
-150.4770034560000056
 20
0.0632003896225
 30
0.0
 10
-150.5267060459999868
 20
0.0686373436351
 30
0.0
 10
-150.5765119909999896
 20
0.0730277444202
 30
0.0
 10
-150.62639925900001
 20
0.0763696496698
 30
0.0
 10
-150.6763457790000018
 20
0.0786615809289
 30
0.0
 10
-150.7263294550000126
 20
0.07990252425
 30
0.0
 10
-150.7603333989999896
 20
0.0801457422794
 30
0.0
  0
LWPOLYLINE
  5
5D
100
AcDbEntity
  8
0
 62
256
370
-1
 48
1.0
  6
BYLAYER
100
AcDbPolyline
 90
76
 70
0
 10
-88.4117705823999955
 20
0.0801457422792
 30
0.0
 10
-88.461766895699995
 20
0.0796199200146
 30
0.0
 10
-88.5117410906999993
 20
0.0780426858438
 30
0.0
 10
-88.5616710588000018
 20
0.0754147375335
 30
0.0
 10
-88.6115347111999938
 20
0.0717372376846
 30
0.0
 10
-88.6613099881000011
 20
0.0670118132189
 30
0.0
 10
-88.7109748692000011
 20
0.0612405546583
 30
0.0
 10
-88.7605073825999966
 20
0.0544260152006
 30
0.0
 10
-88.8098856152000025
 20
0.0465712095901
 30
0.0
 10
-88.8590877223000035
 20
0.0376796127831
 30
0.0
 10
-88.9080919367000035
 20
0.0277551584114
 30
0.0
 10
-88.9568765793000011
 20
0.0168022370418
 30
0.0
 10
-89.0054200674999976
 20
0.00482569423332
 30
0.0
 10
-89.0537009260000048
 20
-0.00816917160578
 30
0.0
 10
-89.1016977951999962
 20
-0.0221766115625
 30
0.0
 10
-89.1493894415000057
 20
-0.0371904287623
 30
0.0
 10
-89.1967547660999998
 20
-0.0532039811105
 30
0.0
 10
-89.2437728146000069
 20
-0.0702101842309
 30
0.0
 10
-89.2904227864000006
 20
-0.0882015145996
 30
0.0
 10
-89.3366840433999982
 20
-0.107170012874
 30
0.0
 10
-89.3825361198999957
 20
-0.127107287412
 30
0.0
 10
-89.4279587308000004
 20
-0.148004517989
 30
0.0
 10
-89.4729317814000069
 20
-0.169852459695
 30
0.0
 10
-89.5174353754999999
 20
-0.192641447027
 30
0.0
 10
-89.5614498247999933
 20
-0.216361398163
 30
0.0
 10
-89.6049556573999979
 20
-0.241001819427
 30
0.0
 10
-89.647933626400004
 20
-0.266551809925
 30
0.0
 10
-89.6903647183000032
 20
-0.293000066372
 30
0.0
 10
-89.7322301617000022
 20
-0.320334888092
 30
0.0
 10
-89.7735114353999961
 20
-0.348544182193
 30
0.0
 10
-89.8141902766000015
 20
-0.377615468916
 30
0.0
 10
-89.8542486890000021
 20
-0.407535887159
 30
0.0
 10
-89.8936689508000057
 20
-0.438292200166
 30
0.0
 10
-89.9324336226000014
 20
-0.46987080138
 30
0.0
 10
-89.9705255548000054
 20
-0.502257720467
 30
0.0
 10
-90.0079278957999946
 20
-0.5354386294920001
 30
0.0
 10
-90.0446240986999982
 20
-0.569398849261
 30
0.0
 10
-90.0805979290999943
 20
-0.604123355813
 30
0.0
 10
-90.1158334722999967
 20
-0.63959678707
 30
0.0
 10
-90.1503151401999929
 20
-0.675803449627
 30
0.0
 10
-90.1840276780000067
 20
-0.7127273257
 30
0.0
 10
-90.2169561713999997
 20
-0.7503520802119999
 30
0.0
 10
-90.2490860528999974
 20
-0.788661068016
 30
0.0
 10
-90.2804031083000069
 20
-0.8276373412619999
 30
0.0
 10
-90.3108934827999974
 20
-0.867263656894
 30
0.0
 10
-90.3405436877000056
 20
-0.907522484277
 30
0.0
 10
-90.3693406057000033
 20
-0.948396012954
 30
0.0
 10
-90.3972714970000055
 20
-0.989866160526
 30
0.0
 10
-90.4243240052000061
 20
-1.0319145806500001
 30
0.0
 10
-90.450486162100006
 20
-1.07452267115
 30
0.0
 10
-90.4757463937000068
 20
-1.1176715822700001
 30
0.0
 10
-90.5000935248999951
 20
-1.1613422249700001
 30
0.0
 10
-90.5235167846000053
 20
-1.2055152794199999
 30
0.0
 10
-90.5460058102000005
 20
-1.2501712035200001
 30
0.0
 10
-90.5675506527999943
 20
-1.2952902415200001
 30
0.0
 10
-90.5881417808000009
 20
-1.34085243283
 30
0.0
 10
-90.6077700848999967
 20
-1.3868376207899999
 30
0.0
 10
-90.6264268813999934
 20
-1.4332254616
 30
0.0
 10
-90.6441039167000042
 20
-1.4799954333400001
 30
0.0
 10
-90.6607933702999986
 20
-1.52712684503
 30
0.0
 10
-90.6764878590000052
 20
-1.5745988458
 30
0.0
 10
-90.6911804395000019
 20
-1.6223904340799999
 30
0.0
 10
-90.704864611800005
 20
-1.67048046693
 30
0.0
 10
-90.7175343220999935
 20
-1.7188476693800001
 30
0.0
 10
-90.7291839651999936
 20
-1.7674706438500001
 30
0.0
 10
-90.7398083875000054
 20
-1.81632787957
 30
0.0
 10
-90.7494028887000042
 20
-1.86539776218
 30
0.0
 10
-90.7579632240999956
 20
-1.91465858321
 30
0.0
 10
-90.7654856066999969
 20
-1.96408854974
 30
0.0
 10
-90.7719667087000062
 20
-2.01366579401
 30
0.0
 10
-90.7774036626999958
 20
-2.0633683830999998
 30
0.0
 10
-90.7817940635000014
 20
-2.11317432866
 30
0.0
 10
-90.7851359687000041
 20
-2.16306159658
 30
0.0
 10
-90.7874278999999973
 20
-2.2130081168100002
 30
0.0
 10
-90.7886688433000018
 20
-2.2629917930499999
 30
0.0
 10
-90.788912061299996
 20
-2.29699573661
 30
0.0
  0
LWPOLYLINE
  5
5E
100
AcDbEntity
  8
0
 62
256
370
-1
 48
1.0
  6
BYLAYER
100
AcDbPolyline
 90
179
 70
0
 10
-49.0668365368999986
 20
-5.4501603249799997
 30
0.0
 10
-49.0698577945000025
 20
-5.4002518404100002
 30
0.0
 10
-49.0733048203999971
 20
-5.3503709538699997
 30
0.0
 10
-49.0771773637999971
 20
-5.3005212975199996
 30
0.0
 10
-49.0814751424999969
 20
-5.2507065012499998
 30
0.0
 10
-49.0861978436999991
 20
-5.2009301923900004
 30
0.0
 10
-49.0913451233999965
 20
-5.1511959954900002
 30
0.0
 10
-49.0969166069000025
 20
-5.1015075320200003
 30
0.0
 10
-49.1029118884000013
 20
-5.0518684201299999
 30
0.0
 10
-49.1093305313999977
 20
-5.0022822743599997
 30
0.0
 10
-49.1161720684999992
 20
-4.95275270542
 30
0.0
 10
-49.1234360014999965
 20
-4.9032833198699999
 30
0.0
 10
-49.1311218016000026
 20
-4.8538777199099998
 30
0.0
 10
-49.1392289089000016
 20
-4.80453950308
 30
0.0
 10
-49.1477567332999996
 20
-4.7552722620300001
 30
0.0
 10
-49.1567046537999985
 20
-4.7060795842200003
 30
0.0
 10
-49.1660720186999995
 20
-4.6569650517100003
 30
0.0
 10
-49.175858146000003
 20
-4.6079322408400003
 30
0.0
 10
-49.1860623231000034
 20
-4.5589847220099999
 30
0.0
 10
-49.1966838069999994
 20
-4.5101260594100001
 30
0.0
 10
-49.2077218242000001
 20
-4.4613598107800003
 30
0.0
 10
-49.219175571000001
 20
-4.4126895270900004
 30
0.0
 10
-49.231044213399997
 20
-4.3641187523599996
 30
0.0
 10
-49.2433268870999967
 20
-4.3156510233400001
 30
0.0
 10
-49.2560226976999971
 20
-4.2672898692799999
 30
0.0
 10
-49.2691307207999998
 20
-4.2190388116799999
 30
0.0
 10
-49.2826500019999969
 20
-4.1709013640199997
 30
0.0
 10
-49.2965795567000029
 20
-4.1228810315000004
 30
0.0
 10
-49.3109183707000014
 20
-4.0749813108000001
 30
0.0
 10
-49.3256653998000019
 20
-4.0272056898099997
 30
0.0
 10
-49.340819570299999
 20
-3.9795576473900001
 30
0.0
 10
-49.3563797787000027
 20
-3.9320406531100001
 30
0.0
 10
-49.3723448918999992
 20
-3.884658167
 30
0.0
 10
-49.3887137473999971
 20
-3.8374136392799998
 30
0.0
 10
-49.405485153299999
 20
-3.7903105101299999
 30
0.0
 10
-49.4226578883000016
 20
-3.7433522094599998
 30
0.0
 10
-49.4402307020000009
 20
-3.6965421566000001
 30
0.0
 10
-49.4582023147000029
 20
-3.6498837600999998
 30
0.0
 10
-49.4765714179999989
 20
-3.6033804174599999
 30
0.0
 10
-49.4953366741000025
 20
-3.5570355149099999
 30
0.0
 10
-49.5144967166000001
 20
-3.5108524271100001
 30
0.0
 10
-49.5340501505000006
 20
-3.4648345169599999
 30
0.0
 10
-49.5539955517999999
 20
-3.4189851353399998
 30
0.0
 10
-49.5743314683000023
 20
-3.3733076208299999
 30
0.0
 10
-49.595056419099997
 20
-3.32780529952
 30
0.0
 10
-49.6161688951000031
 20
-3.2824814847199999
 30
0.0
 10
-49.6376673589000035
 20
-3.2373394767699999
 30
0.0
 10
-49.6595502452000019
 20
-3.1923825627600002
 30
0.0
 10
-49.6818159605000034
 20
-3.1476140162799999
 30
0.0
 10
-49.704462883399998
 20
-3.1030370972400001
 30
0.0
 10
-49.7274893649999967
 20
-3.0586550515700002
 30
0.0
 10
-49.7508937284000012
 20
-3.0144711110300002
 30
0.0
 10
-49.7746742694999966
 20
-2.9704884929299999
 30
0.0
 10
-49.7988292566000013
 20
-2.9267103999400002
 30
0.0
 10
-49.8233569308999975
 20
-2.8831400198399999
 30
0.0
 10
-49.848255506400001
 20
-2.8397805252600001
 30
0.0
 10
-49.8735231699999986
 20
-2.7966350735000001
 30
0.0
 10
-49.8991580818000031
 20
-2.7537068062599999
 30
0.0
 10
-49.925158375099997
 20
-2.7109988494400001
 30
0.0
 10
-49.9515221567000012
 20
-2.6685143128700002
 30
0.0
 10
-49.978247506999999
 20
-2.6262562901500002
 30
0.0
 10
-50.0053324798000034
 20
-2.5842278583499998
 30
0.0
 10
-50.0327751028000023
 20
-2.54243207784
 30
0.0
 10
-50.0605733778999991
 20
-2.50087199205
 30
0.0
 10
-50.0887252809000003
 20
-2.4595506272400001
 30
0.0
 10
-50.1172287617999999
 20
-2.4184709922900001
 30
0.0
 10
-50.1460817450999983
 20
-2.3776360784900001
 30
0.0
 10
-50.1752821298000029
 20
-2.3370488592799998
 30
0.0
 10
-50.204827789600003
 20
-2.2967122900999999
 30
0.0
 10
-50.2347165731999965
 20
-2.25662930811
 30
0.0
 10
-50.2649463041000004
 20
-2.2168028320199999
 30
0.0
 10
-50.2955147811999979
 20
-2.17723576185
 30
0.0
 10
-50.3264197784000018
 20
-2.13793097876
 30
0.0
 10
-50.3576590455000002
 20
-2.0988913447700002
 30
0.0
 10
-50.3892303076999966
 20
-2.0601197026200002
 30
0.0
 10
-50.4211312660000033
 20
-2.0216188755400002
 30
0.0
 10
-50.4533595975999987
 20
-1.983391667
 30
0.0
 10
-50.4859129557000017
 20
-1.94544086061
 30
0.0
 10
-50.518788969900001
 20
-1.90776921979
 30
0.0
 10
-50.5519852461999974
 20
-1.87037948767
 30
0.0
 10
-50.5854993674999989
 20
-1.8332743868500001
 30
0.0
 10
-50.6193288933000005
 20
-1.79645661919
 30
0.0
 10
-50.6534713602000011
 20
-1.7599288656300001
 30
0.0
 10
-50.6879242822000009
 20
-1.7236937859999999
 30
0.0
 10
-50.7226851504999985
 20
-1.68775401882
 30
0.0
 10
-50.7577514338999976
 20
-1.6521121810999999
 30
0.0
 10
-50.7931205790999982
 20
-1.6167708681499999
 30
0.0
 10
-50.8287900105000006
 20
-1.58173265341
 30
0.0
 10
-50.8647571309000028
 20
-1.5470000882399999
 30
0.0
 10
-50.9010193212000033
 20
-1.5125757017499999
 30
0.0
 10
-50.9375739409000019
 20
-1.4784620006
 30
0.0
 10
-50.974418328299997
 20
-1.4446614688399999
 30
0.0
 10
-51.0115498004999992
 20
-1.4111765677100001
 30
0.0
 10
-51.0489656535999998
 20
-1.3780097354600001
 30
0.0
 10
-51.0866631633000026
 20
-1.3451633871899999
 30
0.0
 10
-51.1246395845000023
 20
-1.3126399146500001
 30
0.0
 10
-51.1628921518000013
 20
-1.2804416861000001
 30
0.0
 10
-51.2014180799000016
 20
-1.2485710461099999
 30
0.0
 10
-51.2402145634000021
 20
-1.2170303153799999
 30
0.0
 10
-51.2792787774000018
 20
-1.1858217905899999
 30
0.0
 10
-51.3186078772000016
 20
-1.15494774426
 30
0.0
 10
-51.3581989990999972
 20
-1.12441042452
 30
0.0
 10
-51.398049260199997
 20
-1.0942120549900001
 30
0.0
 10
-51.4381557586999989
 20
-1.06435483462
 30
0.0
 10
-51.4785155742000029
 20
-1.0348409375100001
 30
0.0
 10
-51.5191257677999985
 20
-1.0056725127599999
 30
0.0
 10
-51.5599833825000005
 20
-0.976851684312
 30
0.0
 10
-51.601085443099997
 20
-0.9483805508050001
 30
0.0
 10
-51.6424289567000017
 20
-0.920261185407
 30
0.0
 10
-51.6840109128999998
 20
-0.892495635675
 30
0.0
 10
-51.7258282836999967
 20
-0.865085923402
 30
0.0
 10
-51.7678780242000016
 20
-0.838034044469
 30
0.0
 10
-51.8101570724999974
 20
-0.811341968702
 30
0.0
 10
-51.852662349900001
 20
-0.7850116397270001
 30
0.0
 10
-51.8953907612999998
 20
-0.759044974828
 30
0.0
 10
-51.9383391953999975
 20
-0.73344386481
 30
0.0
 10
-51.9815045248999965
 20
-0.708210173857
 30
0.0
 10
-52.0248836065999996
 20
-0.6833457394020001
 30
0.0
 10
-52.0684732818000029
 20
-0.658852371986
 30
0.0
 10
-52.1122703763999979
 20
-0.634731855135
 30
0.0
 10
-52.1562717012999997
 20
-0.610985945221
 30
0.0
 10
-52.2004740524999988
 20
-0.587616371341
 30
0.0
 10
-52.2448742111999991
 20
-0.564624835186
 30
0.0
 10
-52.2894689443999994
 20
-0.542013010924
 30
0.0
 10
-52.3342550050000028
 20
-0.519782545068
 30
0.0
 10
-52.3792291315999989
 20
-0.497935056367
 30
0.0
 10
-52.4243880495000028
 20
-0.476472135679
 30
0.0
 10
-52.469728470299998
 20
-0.455395345861
 30
0.0
 10
-52.5152470925999992
 20
-0.434706221653
 30
0.0
 10
-52.5609406016999969
 20
-0.414406269567
 30
0.0
 10
-52.6068056704
 20
-0.394496967776
 30
0.0
 10
-52.6528389591000021
 20
-0.374979766006
 30
0.0
 10
-52.6990371157000013
 20
-0.355856085435
 30
0.0
 10
-52.7453967762000033
 20
-0.337127318583
 30
0.0
 10
-52.7919145648000026
 20
-0.318794829215
 30
0.0
 10
-52.8385870943999976
 20
-0.300859952241
 30
0.0
 10
-52.8854109664000021
 20
-0.283323993617
 30
0.0
 10
-52.9323827711999968
 20
-0.266188230252
 30
0.0
 10
-52.9794990883999972
 20
-0.249453909913
 30
0.0
 10
-53.0267564872999984
 20
-0.233122251136
 30
0.0
 10
-53.0741515268000015
 20
-0.217194443138
 30
0.0
 10
-53.1216807556000035
 20
-0.201671645727
 30
0.0
 10
-53.1693407128000004
 20
-0.18655498922
 30
0.0
 10
-53.2171279280999983
 20
-0.171845574361
 30
0.0
 10
-53.2650389216999969
 20
-0.157544472238
 30
0.0
 10
-53.3130702049000007
 20
-0.143652724209
 30
0.0
 10
-53.3612182801999992
 20
-0.130171341824
 30
0.0
 10
-53.4094796417000026
 20
-0.117101306752
 30
0.0
 10
-53.4578507752000007
 20
-0.104443570706
 30
0.0
 10
-53.5063281583000006
 20
-0.0921990553819
 30
0.0
 10
-53.5549082611000031
 20
-0.0803686523819
 30
0.0
 10
-53.6035875462999982
 20
-0.0689532231559
 30
0.0
 10
-53.6523624690999981
 20
-0.0579535989366
 30
0.0
 10
-53.7012294780000019
 20
-0.047370580679
 30
0.0
 10
-53.7501850145999995
 20
-0.0372049390024
 30
0.0
 10
-53.7992255139999997
 20
-0.0274574141342
 30
0.0
 10
-53.8483474055000002
 20
-0.0181287158558
 30
0.0
 10
-53.897547111999998
 20
-0.00921952345122
 30
0.0
 10
-53.9468210510000006
 20
-0.000730485657436
 30
0.0
 10
-53.996165634599997
 20
0.00733777938278
 30
0.0
 10
-54.0455772696000025
 20
0.0149846841659
 30
0.0
 10
-54.0950523580999985
 20
0.0222096718704
 30
0.0
 10
-54.1445872975000029
 20
0.0290122163974
 30
0.0
 10
-54.1941784807000033
 20
0.0353918224088
 30
0.0
 10
-54.2438222967999977
 20
0.0413480253634
 30
0.0
 10
-54.2935151308999977
 20
0.0468803915508
 30
0.0
 10
-54.3432533643999989
 20
0.0519885181231
 30
0.0
 10
-54.3930333755999982
 20
0.0566720331239
 30
0.0
 10
-54.4428515397000012
 20
0.0609305955156
 30
0.0
 10
-54.4927042290999992
 20
0.0647638952042
 30
0.0
 10
-54.5425878137999973
 20
0.068171653062
 30
0.0
 10
-54.5924986612999987
 20
0.0711536209476
 30
0.0
 10
-54.642433137300003
 20
0.0737095817243
 30
0.0
 10
-54.6923876058000005
 20
0.0758393492758
 30
0.0
 10
-54.7423584292000029
 20
0.0775427685196
 30
0.0
 10
-54.7923419688000024
 20
0.0788197154187
 30
0.0
 10
-54.8423345850999979
 20
0.07967009699
 30
0.0
 10
-54.8923326377000009
 20
0.0800938513117
 30
0.0
 10
-54.9169922748999966
 20
0.0801457422791
 30
0.0
  0
LINE
  5
5F
100
AcDbEntity
  8
0
 62
0
370
-1
 48
1.0
  6
BYLAYER
100
AcDbLine
 10
-49.0668365368999986
 20
-5.4501603249799997
 30
0.0
 11
-14.4999972230999994
 21
-619.9198542579999867
 31
0.0
  0
LINE
  5
60
100
AcDbEntity
  8
0
 62
0
370
-1
 48
1.0
  6
BYLAYER
100
AcDbLine
 10
-14.4999972230999994
 20
-619.9198542579999867
 30
0.0
 11
-14.4999972230999994
 21
-749.9198542579999867
 31
0.0
  0
LINE
  5
61
100
AcDbEntity
  8
0
 62
0
370
-1
 48
1.0
  6
BYLAYER
100
AcDbLine
 10
-14.4999972230999994
 20
-749.9198542579999867
 30
0.0
 11
-64.4999972230999958
 21
-749.9198542579999867
 31
0.0
  0
LINE
  5
62
100
AcDbEntity
  8
0
 62
0
370
-1
 48
1.0
  6
BYLAYER
100
AcDbLine
 10
-64.4999972230999958
 20
-749.9198542579999867
 30
0.0
 11
-64.4999972230999958
 21
-732.4198542579999867
 31
0.0
  0
LINE
  5
63
100
AcDbEntity
  8
0
 62
0
370
-1
 48
1.0
  6
BYLAYER
100
AcDbLine
 10
-64.4999972230999958
 20
-732.4198542579999867
 30
0.0
 11
-139.4999972230000083
 21
-732.4198542579999867
 31
0.0
  0
LINE
  5
64
100
AcDbEntity
  8
0
 62
0
370
-1
 48
1.0
  6
BYLAYER
100
AcDbLine
 10
-139.4999972230000083
 20
-732.4198542579999867
 30
0.0
 11
-139.4999972230000083
 21
-749.9198542579999867
 31
0.0
  0
LINE
  5
65
100
AcDbEntity
  8
0
 62
0
370
-1
 48
1.0
  6
BYLAYER
100
AcDbLine
 10
-139.4999972230000083
 20
-749.9198542579999867
 30
0.0
 11
-189.4999972230000083
 21
-749.9198542579999867
 31
0.0
  0
LINE
  5
66
100
AcDbEntity
  8
0
 62
0
370
-1
 48
1.0
  6
BYLAYER
100
AcDbLine
 10
-189.4999972230000083
 20
-749.9198542579999867
 30
0.0
 11
-189.4999972230000083
 21
-5.1647397743000001
 31
0.0
  0
LINE
  5
67
100
AcDbEntity
  8
0
 62
0
370
-1
 48
1.0
  6
BYLAYER
100
AcDbLine
 10
-184.2551117069999975
 20
0.0801457422795
 30
0.0
 11
-150.7603333989999896
 21
0.0801457422794
 31
0.0
  0
LINE
  5
68
100
AcDbEntity
  8
0
 62
0
370
-1
 48
1.0
  6
BYLAYER
100
AcDbLine
 10
-148.3831919200000016
 20
-17.2969957365999996
 30
0.0
 11
-148.3831919200000016
 21
-2.29699573661
 31
0.0
  0
LINE
  5
69
100
AcDbEntity
  8
0
 62
0
370
-1
 48
1.0
  6
BYLAYER
100
AcDbLine
 10
-90.788912061299996
 20
-17.2969957365999996
 30
0.0
 11
-148.3831919200000016
 21
-17.2969957365999996
 31
0.0
  0
LINE
  5
6A
100
AcDbEntity
  8
0
 62
0
370
-1
 48
1.0
  6
BYLAYER
100
AcDbLine
 10
-90.788912061299996
 20
-2.29699573661
 30
0.0
 11
-90.788912061299996
 21
-17.2969957365999996
 31
0.0
  0
LINE
  5
6B
100
AcDbEntity
  8
0
 62
0
370
-1
 48
1.0
  6
BYLAYER
100
AcDbLine
 10
-88.4117705823999955
 20
0.0801457422792
 30
0.0
 11
-54.9169922748999966
 21
0.0801457422791
 31
0.0
  0
ENDBLK
  5
6C
100
AcDbEntity
  8
0
100
AcDbBlockEnd
  0
ENDSEC
  0
SECTION
  2
ENTITIES
  0
INSERT
  5
6D
100
AcDbEntity
  8
0
 62
0
370
-1
 48
1.0
  6
BYLAYER
100
AcDbBlockReference
  2
SHAPE2DVIEW002
 10
0.0
 20
40.0
 30
0.0
 41
1.0
 42
-1.0
 43
1.0
 50
360.0
  0
LWPOLYLINE
  5
6E
100
AcDbEntity
  8
0
 62
256
370
-1
 48
1.0
  6
BYLAYER
100
AcDbPolyline
 90
4
 70
129
 10
-210.0
 20
20.0
 30
0.0
 10
2227.0
 20
20.0
 30
0.0
 10
2227.0
 20
1239.0
 30
0.0
 10
-210.0
 20
1239.0
 30
0.0
  0
ENDSEC
  0
SECTION
  2
OBJECTS
  0
DICTIONARY
  5
C
100
AcDbDictionary
280
0
281
1
  3
ACAD_GROUP
350
D
  3
ACAD_LAYOUT
350
1A
  3
ACAD_MLINESTYLE
350
17
  3
ACAD_PLOTSETTINGS
350
19
  3
ACAD_PLOTSTYLENAME
350
E
  3
AcDbVariableDictionary
350
6F
  3
QCAD_OBJECTS
350
70
  0
DICTIONARY
  5
D
100
AcDbDictionary
280
0
281
1
  0
ACDBDICTIONARYWDFLT
  5
E
100
AcDbDictionary
281
1
  3
Normal
350
F
100
AcDbDictionaryWithDefault
340
F
  0
ACDBPLACEHOLDER
  5
F
  0
DICTIONARY
  5
17
100
AcDbDictionary
280
0
281
1
  3
Standard
350
18
  0
MLINESTYLE
  5
18
100
AcDbMlineStyle
  2
STANDARD
 70
0
  3

 62
256
 51
90.0
 52
90.0
 71
2
 49
0.5
 62
256
  6
BYLAYER
 49
-0.5
 62
256
  6
BYLAYER
  0
DICTIONARY
  5
19
100
AcDbDictionary
280
0
281
1
  0
DICTIONARY
  5
1A
100
AcDbDictionary
281
1
  3
Layout1
350
1E
  3
Layout2
350
26
  3
Model
350
22
  0
LAYOUT
  5
1E
100
AcDbPlotSettings
  1

  2
none_device
  4

  6

 40
0.0
 41
0.0
 42
0.0
 43
0.0
 44
0.0
 45
0.0
 46
0.0
 47
0.0
 48
0.0
 49
0.0
140
0.0
141
0.0
142
1.0
143
1.0
 70
688
 72
0
 73
0
 74
5
  7

 75
16
147
1.0
148
0.0
149
0.0
100
AcDbLayout
  1
Layout1
 70
1
 71
1
 10
0.0
 20
0.0
 11
420.0
 21
297.0
 12
0.0
 22
0.0
 32
0.0
 14
100000000000000000000.0
 24
100000000000000000000.0
 34
100000000000000000000.0
 15
-100000000000000000000.0
 25
-100000000000000000000.0
 35
-100000000000000000000.0
146
0.0
 13
0.0
 23
0.0
 33
0.0
 16
1.0
 26
0.0
 36
0.0
 17
0.0
 27
1.0
 37
0.0
 76
0
330
1B
  0
LAYOUT
  5
22
100
AcDbPlotSettings
  1

  2
none_device
  4

  6

 40
0.0
 41
0.0
 42
0.0
 43
0.0
 44
0.0
 45
0.0
 46
0.0
 47
0.0
 48
0.0
 49
0.0
140
0.0
141
0.0
142
1.0
143
1.0
 70
1712
 72
0
 73
0
 74
0
  7

 75
0
147
1.0
148
0.0
149
0.0
100
AcDbLayout
  1
Model
 70
1
 71
0
 10
0.0
 20
0.0
 11
12.0
 21
9.0
 12
0.0
 22
0.0
 32
0.0
 14
0.0
 24
0.0
 34
0.0
 15
0.0
 25
0.0
 35
0.0
146
0.0
 13
0.0
 23
0.0
 33
0.0
 16
1.0
 26
0.0
 36
0.0
 17
0.0
 27
1.0
 37
0.0
 76
0
330
1F
  0
LAYOUT
  5
26
100
AcDbPlotSettings
  1

  2
none_device
  4

  6

 40
0.0
 41
0.0
 42
0.0
 43
0.0
 44
0.0
 45
0.0
 46
0.0
 47
0.0
 48
0.0
 49
0.0
140
0.0
141
0.0
142
1.0
143
1.0
 70
688
 72
0
 73
0
 74
5
  7

 75
16
147
1.0
148
0.0
149
0.0
100
AcDbLayout
  1
Layout2
 70
1
 71
2
 10
0.0
 20
0.0
 11
12.0
 21
9.0
 12
0.0
 22
0.0
 32
0.0
 14
0.0
 24
0.0
 34
0.0
 15
0.0
 25
0.0
 35
0.0
146
0.0
 13
0.0
 23
0.0
 33
0.0
 16
1.0
 26
0.0
 36
0.0
 17
0.0
 27
1.0
 37
0.0
 76
0
330
23
  0
DICTIONARY
  5
6F
100
AcDbDictionary
281
1
  3
DIMASSOC
350
72
  3
HIDETEXT
350
71
  0
DICTIONARYVAR
  5
71
100
DictionaryVariables
280
0
  1
2
  0
DICTIONARYVAR
  5
72
100
DictionaryVariables
280
0
  1
1
  0
DICTIONARY
  5
70
100
AcDbDictionary
281
1
  3
ColorSettings/BackgroundColor
350
73
  3
ColorSettings/ColorMode
350
74
  3
Grid/DisplayGrid00
350
75
  3
Grid/DisplayGrid01
350
76
  3
Grid/DisplayGrid02
350
77
  3
Grid/DisplayGrid03
350
78
  3
Grid/GridSpacingX00
350
79
  3
Grid/GridSpacingX01
350
7A
  3
Grid/GridSpacingX02
350
7B
  3
Grid/GridSpacingX03
350
7C
  3
Grid/GridSpacingY00
350
7D
  3
Grid/GridSpacingY01
350
7E
  3
Grid/GridSpacingY02
350
7F
  3
Grid/GridSpacingY03
350
80
  3
Grid/IsometricGrid00
350
81
  3
Grid/IsometricGrid01
350
82
  3
Grid/IsometricGrid02
350
83
  3
Grid/IsometricGrid03
350
84
  3
Grid/IsometricProjection00
350
85
  3
Grid/IsometricProjection01
350
86
  3
Grid/IsometricProjection02
350
87
  3
Grid/IsometricProjection03
350
88
  3
Grid/MetaGridSpacingX00
350
89
  3
Grid/MetaGridSpacingX01
350
8A
  3
Grid/MetaGridSpacingX02
350
8B
  3
Grid/MetaGridSpacingX03
350
8C
  3
Grid/MetaGridSpacingY00
350
8D
  3
Grid/MetaGridSpacingY01
350
8E
  3
Grid/MetaGridSpacingY02
350
8F
  3
Grid/MetaGridSpacingY03
350
90
  3
MultiPageSettings/Columns
350
91
  3
MultiPageSettings/GlueMarginsBottom
350
92
  3
MultiPageSettings/GlueMarginsLeft
350
93
  3
MultiPageSettings/GlueMarginsRight
350
94
  3
MultiPageSettings/GlueMarginsTop
350
95
  3
MultiPageSettings/PrintCropMarks
350
96
  3
MultiPageSettings/Rows
350
97
  3
PageSettings/OffsetX
350
98
  3
PageSettings/OffsetY
350
99
  3
PageSettings/PageOrientation
350
9A
  3
PageSettings/PaperHeight
350
9B
  3
PageSettings/PaperWidth
350
9C
  3
PageSettings/Scale
350
9D
  3
PageSettings/ShowPaperBorders
350
9E
  3
QCADVersion
350
9F
  3
UnitSettings/PaperUnit
350
A0
  3
ViewportCenter
350
A1
  3
ViewportHeight
350
A2
  3
ViewportWidth
350
A3
  0
XRECORD
  5
73
330
70
100
AcDbXrecord
280
1
1000
White
  0
XRECORD
  5
74
330
70
100
AcDbXrecord
280
1
1000
FullColor
  0
XRECORD
  5
75
330
70
100
AcDbXrecord
280
1
290
1
  0
XRECORD
  5
76
330
70
100
AcDbXrecord
280
1
290
1
  0
XRECORD
  5
77
330
70
100
AcDbXrecord
280
1
290
1
  0
XRECORD
  5
78
330
70
100
AcDbXrecord
280
1
290
1
  0
XRECORD
  5
79
330
70
100
AcDbXrecord
280
1
1000
auto
  0
XRECORD
  5
7A
330
70
100
AcDbXrecord
280
1
1000
auto
  0
XRECORD
  5
7B
330
70
100
AcDbXrecord
280
1
1000
auto
  0
XRECORD
  5
7C
330
70
100
AcDbXrecord
280
1
1000
auto
  0
XRECORD
  5
7D
330
70
100
AcDbXrecord
280
1
1000
auto
  0
XRECORD
  5
7E
330
70
100
AcDbXrecord
280
1
1000
auto
  0
XRECORD
  5
7F
330
70
100
AcDbXrecord
280
1
1000
auto
  0
XRECORD
  5
80
330
70
100
AcDbXrecord
280
1
1000
auto
  0
XRECORD
  5
81
330
70
100
AcDbXrecord
280
1
290
0
  0
XRECORD
  5
82
330
70
100
AcDbXrecord
280
1
290
0
  0
XRECORD
  5
83
330
70
100
AcDbXrecord
280
1
290
0
  0
XRECORD
  5
84
330
70
100
AcDbXrecord
280
1
290
0
  0
XRECORD
  5
85
330
70
100
AcDbXrecord
280
1
 90
0
  0
XRECORD
  5
86
330
70
100
AcDbXrecord
280
1
 90
0
  0
XRECORD
  5
87
330
70
100
AcDbXrecord
280
1
 90
0
  0
XRECORD
  5
88
330
70
100
AcDbXrecord
280
1
 90
0
  0
XRECORD
  5
89
330
70
100
AcDbXrecord
280
1
1000
auto
  0
XRECORD
  5
8A
330
70
100
AcDbXrecord
280
1
1000
auto
  0
XRECORD
  5
8B
330
70
100
AcDbXrecord
280
1
1000
auto
  0
XRECORD
  5
8C
330
70
100
AcDbXrecord
280
1
1000
auto
  0
XRECORD
  5
8D
330
70
100
AcDbXrecord
280
1
1000
auto
  0
XRECORD
  5
8E
330
70
100
AcDbXrecord
280
1
1000
auto
  0
XRECORD
  5
8F
330
70
100
AcDbXrecord
280
1
1000
auto
  0
XRECORD
  5
90
330
70
100
AcDbXrecord
280
1
1000
auto
  0
XRECORD
  5
91
330
70
100
AcDbXrecord
280
1
 90
1
  0
XRECORD
  5
92
330
70
100
AcDbXrecord
280
1
 40
10.0
  0
XRECORD
  5
93
330
70
100
AcDbXrecord
280
1
 40
10.0
  0
XRECORD
  5
94
330
70
100
AcDbXrecord
280
1
 40
10.0
  0
XRECORD
  5
95
330
70
100
AcDbXrecord
280
1
 40
10.0
  0
XRECORD
  5
96
330
70
100
AcDbXrecord
280
1
290
0
  0
XRECORD
  5
97
330
70
100
AcDbXrecord
280
1
 90
1
  0
XRECORD
  5
98
330
70
100
AcDbXrecord
280
1
 40
0.0
  0
XRECORD
  5
99
330
70
100
AcDbXrecord
280
1
 40
0.0
  0
XRECORD
  5
9A
330
70
100
AcDbXrecord
280
1
1000
Portrait
  0
XRECORD
  5
9B
330
70
100
AcDbXrecord
280
1
 40
297.0
  0
XRECORD
  5
9C
330
70
100
AcDbXrecord
280
1
 40
210.0
  0
XRECORD
  5
9D
330
70
100
AcDbXrecord
280
1
1000
1:1
  0
XRECORD
  5
9E
330
70
100
AcDbXrecord
280
1
290
1
  0
XRECORD
  5
9F
330
70
100
AcDbXrecord
280
1
1000
3.16.5
  0
XRECORD
  5
A0
330
70
100
AcDbXrecord
280
1
 90
4
  0
XRECORD
  5
A2
330
70
100
AcDbXrecord
280
1
 40
851.134905660694244
  0
XRECORD
  5
A3
330
70
100
AcDbXrecord
280
1
 40
1898.3745283025932622
  0
ENDSEC
  0
EOF
