  0
SECTION
  2
HEADER
  9
$ACADVER
  1
AC1009
  9
$INSBASE
 10
0.0
 20
0.0
 30
0.0
  9
$EXTMIN
 10
0.0
 20
0.0
 30
0.0
  9
$EXTMAX
 10
0.0
 20
0.0
 30
0.0
  0
ENDSEC
  0
SECTION
  2
TABLES
  0
TABLE
  2
VPORT
 70
0
  0
ENDTAB
  0
TABLE
  2
LTYPE
 70
1
  0
LTYPE
  2
CONTINUOUS
 70
0
  3
Solid line
 72
65
 73
0
 40
0.0
  0
ENDTAB
  0
TABLE
  2
LAYER
 70
1
  0
LAYER
  2
0
 70
64
 62
7
  6
continuous
  0
ENDTAB
  0
TABLE
  2
STYLE
 70
1
  0
STYLE
  2
STANDARD
 70
0
 40
0
 41
1.0
 50
0.0
 71
0
 42
1
 3
ARIAL.TTF
 4

  0
ENDTAB
  0
TABLE
  2
VIEW
 70
0
  0
ENDTAB
  0
ENDSEC
  0
SECTION
  2
BLOCKS
  0
BLOCK
  8
0
  2
CUT004_CS001
 70
0
 10
0.0
 20
0.0
 30
0.0
  3
CUT004_CS001
  0
ARC
  8
0
 62
0
 10
270.0
 20
570.0
 30
0.0
 40
30.0
 50
0.0
 51
90.0
  0
LINE
  8
0
 62
0
 10
270.0
 20
600.0
 30
0.0
 11
-270.0
 21
600.0
 31
0.0
  0
ARC
  8
0
 62
0
 10
-270.0
 20
570.0
 30
0.0
 40
30.0
 50
90.0
 51
-180.0
  0
LINE
  8
0
 62
0
 10
-300.0
 20
570.0
 30
0.0
 11
-300.0
 21
-570.0
 31
0.0
  0
ARC
  8
0
 62
0
 10
-270.0
 20
-570.0
 30
0.0
 40
30.0
 50
-180.0
 51
-90.0
  0
LINE
  8
0
 62
0
 10
-270.0
 20
-600.0
 30
0.0
 11
270.0
 21
-600.0
 31
0.0
  0
ARC
  8
0
 62
0
 10
270.0
 20
-570.0
 30
0.0
 40
30.0
 50
-90.0
 51
0.0
  0
LINE
  8
0
 62
0
 10
300.0
 20
-570.0
 30
0.0
 11
300.0
 21
570.0
 31
0.0
  0
LINE
  8
0
 62
0
 10
69.2820323028
 20
-384.0
 30
0.0
 11
112.583302492
 21
-409.0
 31
0.0
  0
LINE
  8
0
 62
0
 10
112.583302492
 20
-409.0
 30
0.0
 11
102.783302492
 21
-425.974097914
 31
0.0
  0
LINE
  8
0
 62
0
 10
59.4820323028
 20
-400.974097914
 30
0.0
 11
102.783302492
 21
-425.974097914
 31
0.0
  0
LINE
  8
0
 62
0
 10
59.4820323028
 20
-400.974097914
 30
0.0
 11
69.2820323028
 21
-384.0
 31
0.0
  0
LINE
  8
0
 62
0
 10
-177.535207776
 20
-446.5
 30
0.0
 11
-220.836477965
 21
-471.5
 31
0.0
  0
LINE
  8
0
 62
0
 10
-167.735207776
 20
-463.474097914
 30
0.0
 11
-177.535207776
 21
-446.5
 31
0.0
  0
LINE
  8
0
 62
0
 10
-167.735207776
 20
-463.474097914
 30
0.0
 11
-211.036477965
 21
-488.474097914
 31
0.0
  0
LINE
  8
0
 62
0
 10
-220.836477965
 20
-471.5
 30
0.0
 11
-211.036477965
 21
-488.474097914
 31
0.0
  0
LINE
  8
0
 62
0
 10
167.735207776
 20
463.474097914
 30
0.0
 11
177.535207776
 21
446.5
 31
0.0
  0
LINE
  8
0
 62
0
 10
167.735207776
 20
463.474097914
 30
0.0
 11
211.036477965
 21
488.474097914
 31
0.0
  0
LINE
  8
0
 62
0
 10
220.836477965
 20
471.5
 30
0.0
 11
211.036477965
 21
488.474097914
 31
0.0
  0
LINE
  8
0
 62
0
 10
177.535207776
 20
446.5
 30
0.0
 11
220.836477965
 21
471.5
 31
0.0
  0
LINE
  8
0
 62
0
 10
69.2820323028
 20
384.0
 30
0.0
 11
112.583302492
 21
409.0
 31
0.0
  0
LINE
  8
0
 62
0
 10
59.4820323028
 20
400.974097914
 30
0.0
 11
69.2820323028
 21
384.0
 31
0.0
  0
LINE
  8
0
 62
0
 10
59.4820323028
 20
400.974097914
 30
0.0
 11
102.783302492
 21
425.974097914
 31
0.0
  0
LINE
  8
0
 62
0
 10
112.583302492
 20
409.0
 30
0.0
 11
102.783302492
 21
425.974097914
 31
0.0
  0
LINE
  8
0
 62
0
 10
177.535207776
 20
-446.5
 30
0.0
 11
220.836477965
 21
-471.5
 31
0.0
  0
LINE
  8
0
 62
0
 10
220.836477965
 20
-471.5
 30
0.0
 11
211.036477965
 21
-488.474097914
 31
0.0
  0
LINE
  8
0
 62
0
 10
167.735207776
 20
-463.474097914
 30
0.0
 11
211.036477965
 21
-488.474097914
 31
0.0
  0
LINE
  8
0
 62
0
 10
167.735207776
 20
-463.474097914
 30
0.0
 11
177.535207776
 21
-446.5
 31
0.0
  0
LINE
  8
0
 62
0
 10
-167.735207776
 20
463.474097914
 30
0.0
 11
-211.036477965
 21
488.474097914
 31
0.0
  0
LINE
  8
0
 62
0
 10
-167.735207776
 20
463.474097914
 30
0.0
 11
-177.535207776
 21
446.5
 31
0.0
  0
LINE
  8
0
 62
0
 10
-177.535207776
 20
446.5
 30
0.0
 11
-220.836477965
 21
471.5
 31
0.0
  0
LINE
  8
0
 62
0
 10
-220.836477965
 20
471.5
 30
0.0
 11
-211.036477965
 21
488.474097914
 31
0.0
  0
LINE
  8
0
 62
0
 10
-59.4820323028
 20
400.974097914
 30
0.0
 11
-69.2820323028
 21
384.0
 31
0.0
  0
LINE
  8
0
 62
0
 10
-69.2820323028
 20
384.0
 30
0.0
 11
-112.583302492
 21
409.0
 31
0.0
  0
LINE
  8
0
 62
0
 10
-112.583302492
 20
409.0
 30
0.0
 11
-102.783302492
 21
425.974097914
 31
0.0
  0
LINE
  8
0
 62
0
 10
-59.4820323028
 20
400.974097914
 30
0.0
 11
-102.783302492
 21
425.974097914
 31
0.0
  0
LINE
  8
0
 62
0
 10
-59.4820323028
 20
-400.974097914
 30
0.0
 11
-69.2820323028
 21
-384.0
 31
0.0
  0
LINE
  8
0
 62
0
 10
-59.4820323028
 20
-400.974097914
 30
0.0
 11
-102.783302492
 21
-425.974097914
 31
0.0
  0
LINE
  8
0
 62
0
 10
-112.583302492
 20
-409.0
 30
0.0
 11
-102.783302492
 21
-425.974097914
 31
0.0
  0
LINE
  8
0
 62
0
 10
-69.2820323028
 20
-384.0
 30
0.0
 11
-112.583302492
 21
-409.0
 31
0.0
  0
ENDBLK
  0
ENDSEC
  0
SECTION
  2
ENTITIES
  0
INSERT
  2
CUT004_CS001
  8
0
 62
0
 10
0.0
 20
0.0
 30
0.0
  0
ENDSEC
  0
EOF
