  0
SECTION
  2
HEADER
  9
$ACADVER
  1
AC1009
  9
$INSBASE
 10
0.0
 20
0.0
 30
0.0
  9
$EXTMIN
 10
0.0
 20
0.0
 30
0.0
  9
$EXTMAX
 10
0.0
 20
0.0
 30
0.0
  0
ENDSEC
  0
SECTION
  2
TABLES
  0
TABLE
  2
VPORT
 70
0
  0
ENDTAB
  0
TABLE
  2
LTYPE
 70
1
  0
LTYPE
  2
CONTINUOUS
 70
0
  3
Solid line
 72
65
 73
0
 40
0.0
  0
ENDTAB
  0
TABLE
  2
LAYER
 70
1
  0
LAYER
  2
0
 70
64
 62
7
  6
continuous
  0
ENDTAB
  0
TABLE
  2
STYLE
 70
1
  0
STYLE
  2
STANDARD
 70
0
 40
0
 41
1.0
 50
0.0
 71
0
 42
1
 3
ARIAL.TTF
 4

  0
ENDTAB
  0
TABLE
  2
VIEW
 70
0
  0
ENDTAB
  0
ENDSEC
  0
SECTION
  2
BLOCKS
  0
BLOCK
  8
0
  2
FILLET003
 70
0
 10
0.0
 20
0.0
 30
0.0
  3
FILLET003
  0
POLYLINE
  8
0
 62
0
 70
0
 66
1
 10
0.0
 20
0.0
 30
0.0
  0
VERTEX
  8
0
 10
38.6716708156
 20
-38.6716708155
 30
0.0
  0
VERTEX
  8
0
 10
38.7070261546
 20
-38.7070261545
 30
0.0
  0
VERTEX
  8
0
 10
38.7423814937
 20
-38.7423814936
 30
0.0
  0
VERTEX
  8
0
 10
38.7777368327
 20
-38.7777368327
 30
0.0
  0
VERTEX
  8
0
 10
38.8130921718
 20
-38.8130921717
 30
0.0
  0
VERTEX
  8
0
 10
38.8484475109
 20
-38.8484475108
 30
0.0
  0
VERTEX
  8
0
 10
38.8838028499
 20
-38.8838028498
 30
0.0
  0
VERTEX
  8
0
 10
38.919158189
 20
-38.9191581889
 30
0.0
  0
VERTEX
  8
0
 10
38.954513528
 20
-38.954513528
 30
0.0
  0
VERTEX
  8
0
 10
38.9898688671
 20
-38.989868867
 30
0.0
  0
VERTEX
  8
0
 10
38.9904392629
 20
-38.9904392628
 30
0.0
  0
SEQEND
  8
0
  0
POLYLINE
  8
0
 62
0
 70
0
 66
1
 10
0.0
 20
0.0
 30
0.0
  0
VERTEX
  8
0
 10
38.6716708156
 20
-38.6716708155
 30
0.0
  0
VERTEX
  8
0
 10
38.6363154765
 20
-38.6363154764
 30
0.0
  0
VERTEX
  8
0
 10
38.6009601374
 20
-38.6009601374
 30
0.0
  0
VERTEX
  8
0
 10
38.5781073441
 20
-38.5781073441
 30
0.0
  0
SEQEND
  8
0
  0
POLYLINE
  8
0
 62
0
 70
0
 66
1
 10
0.0
 20
0.0
 30
0.0
  0
VERTEX
  8
0
 10
38.5781073441
 20
-38.5781073441
 30
0.0
  0
VERTEX
  8
0
 10
38.5427520051
 20
-38.542752005
 30
0.0
  0
VERTEX
  8
0
 10
38.507396666
 20
-38.507396666
 30
0.0
  0
VERTEX
  8
0
 10
38.472041327
 20
-38.4720413269
 30
0.0
  0
VERTEX
  8
0
 10
38.4366859879
 20
-38.4366859879
 30
0.0
  0
VERTEX
  8
0
 10
38.4013306488
 20
-38.4013306488
 30
0.0
  0
VERTEX
  8
0
 10
38.3659753098
 20
-38.3659753097
 30
0.0
  0
VERTEX
  8
0
 10
38.3306199707
 20
-38.3306199707
 30
0.0
  0
VERTEX
  8
0
 10
38.2952646317
 20
-38.2952646316
 30
0.0
  0
VERTEX
  8
0
 10
38.2599092926
 20
-38.2599092926
 30
0.0
  0
VERTEX
  8
0
 10
38.2245539535
 20
-38.2245539535
 30
0.0
  0
VERTEX
  8
0
 10
38.1891986145
 20
-38.1891986145
 30
0.0
  0
VERTEX
  8
0
 10
38.1538432754
 20
-38.1538432754
 30
0.0
  0
VERTEX
  8
0
 10
38.1184879364
 20
-38.1184879363
 30
0.0
  0
VERTEX
  8
0
 10
38.0831325973
 20
-38.0831325973
 30
0.0
  0
VERTEX
  8
0
 10
38.0477772582
 20
-38.0477772582
 30
0.0
  0
VERTEX
  8
0
 10
38.0124219192
 20
-38.0124219192
 30
0.0
  0
VERTEX
  8
0
 10
37.9770665801
 20
-37.9770665801
 30
0.0
  0
VERTEX
  8
0
 10
37.9417112411
 20
-37.941711241
 30
0.0
  0
VERTEX
  8
0
 10
37.906355902
 20
-37.906355902
 30
0.0
  0
VERTEX
  8
0
 10
37.8710005629
 20
-37.8710005629
 30
0.0
  0
VERTEX
  8
0
 10
37.8356452239
 20
-37.8356452239
 30
0.0
  0
VERTEX
  8
0
 10
37.8002898848
 20
-37.8002898848
 30
0.0
  0
VERTEX
  8
0
 10
37.7649345458
 20
-37.7649345457
 30
0.0
  0
VERTEX
  8
0
 10
37.7295792067
 20
-37.7295792067
 30
0.0
  0
VERTEX
  8
0
 10
37.6942238676
 20
-37.6942238676
 30
0.0
  0
VERTEX
  8
0
 10
37.6588685286
 20
-37.6588685286
 30
0.0
  0
VERTEX
  8
0
 10
37.6235131895
 20
-37.6235131895
 30
0.0
  0
VERTEX
  8
0
 10
37.5881578505
 20
-37.5881578505
 30
0.0
  0
VERTEX
  8
0
 10
37.5528025114
 20
-37.5528025114
 30
0.0
  0
VERTEX
  8
0
 10
37.5174471723
 20
-37.5174471723
 30
0.0
  0
VERTEX
  8
0
 10
37.4820918333
 20
-37.4820918333
 30
0.0
  0
VERTEX
  8
0
 10
37.4467364942
 20
-37.4467364942
 30
0.0
  0
VERTEX
  8
0
 10
37.4113811552
 20
-37.4113811552
 30
0.0
  0
VERTEX
  8
0
 10
37.3760258161
 20
-37.3760258161
 30
0.0
  0
VERTEX
  8
0
 10
37.340670477
 20
-37.340670477
 30
0.0
  0
VERTEX
  8
0
 10
37.305315138
 20
-37.305315138
 30
0.0
  0
VERTEX
  8
0
 10
37.2699597989
 20
-37.2699597989
 30
0.0
  0
VERTEX
  8
0
 10
37.2346044599
 20
-37.2346044599
 30
0.0
  0
VERTEX
  8
0
 10
37.1992491208
 20
-37.1992491208
 30
0.0
  0
VERTEX
  8
0
 10
37.1638937817
 20
-37.1638937817
 30
0.0
  0
VERTEX
  8
0
 10
37.1285384427
 20
-37.1285384427
 30
0.0
  0
VERTEX
  8
0
 10
37.0931831036
 20
-37.0931831036
 30
0.0
  0
VERTEX
  8
0
 10
37.0578277646
 20
-37.0578277646
 30
0.0
  0
VERTEX
  8
0
 10
37.0224724255
 20
-37.0224724255
 30
0.0
  0
VERTEX
  8
0
 10
36.9871170864
 20
-36.9871170864
 30
0.0
  0
VERTEX
  8
0
 10
36.9517617474
 20
-36.9517617474
 30
0.0
  0
VERTEX
  8
0
 10
36.9164064083
 20
-36.9164064083
 30
0.0
  0
VERTEX
  8
0
 10
36.8810510693
 20
-36.8810510693
 30
0.0
  0
VERTEX
  8
0
 10
36.8456957302
 20
-36.8456957302
 30
0.0
  0
VERTEX
  8
0
 10
36.8103403911
 20
-36.8103403912
 30
0.0
  0
VERTEX
  8
0
 10
36.7749850521
 20
-36.7749850521
 30
0.0
  0
VERTEX
  8
0
 10
36.739629713
 20
-36.739629713
 30
0.0
  0
VERTEX
  8
0
 10
36.704274374
 20
-36.704274374
 30
0.0
  0
VERTEX
  8
0
 10
36.6689190349
 20
-36.6689190349
 30
0.0
  0
VERTEX
  8
0
 10
36.6335636958
 20
-36.6335636959
 30
0.0
  0
VERTEX
  8
0
 10
36.5982083568
 20
-36.5982083568
 30
0.0
  0
VERTEX
  8
0
 10
36.5628530177
 20
-36.5628530177
 30
0.0
  0
VERTEX
  8
0
 10
36.5274976787
 20
-36.5274976787
 30
0.0
  0
VERTEX
  8
0
 10
36.4921423396
 20
-36.4921423396
 30
0.0
  0
VERTEX
  8
0
 10
36.4567870005
 20
-36.4567870006
 30
0.0
  0
SEQEND
  8
0
  0
POLYLINE
  8
0
 62
0
 70
0
 66
1
 10
0.0
 20
0.0
 30
0.0
  0
VERTEX
  8
0
 10
33.7726264354
 20
-33.7726264353
 30
0.0
  0
VERTEX
  8
0
 10
33.7372710963
 20
-33.7372710963
 30
0.0
  0
VERTEX
  8
0
 10
33.7019157573
 20
-33.7019157572
 30
0.0
  0
VERTEX
  8
0
 10
33.6665604182
 20
-33.6665604182
 30
0.0
  0
VERTEX
  8
0
 10
33.6312050791
 20
-33.6312050791
 30
0.0
  0
VERTEX
  8
0
 10
33.5958497401
 20
-33.5958497401
 30
0.0
  0
VERTEX
  8
0
 10
33.560494401
 20
-33.560494401
 30
0.0
  0
VERTEX
  8
0
 10
33.525139062
 20
-33.5251390619
 30
0.0
  0
VERTEX
  8
0
 10
33.4897837229
 20
-33.4897837229
 30
0.0
  0
VERTEX
  8
0
 10
33.4544283838
 20
-33.4544283838
 30
0.0
  0
VERTEX
  8
0
 10
33.4190730448
 20
-33.4190730448
 30
0.0
  0
VERTEX
  8
0
 10
33.3837177057
 20
-33.3837177057
 30
0.0
  0
VERTEX
  8
0
 10
33.3483623667
 20
-33.3483623666
 30
0.0
  0
VERTEX
  8
0
 10
33.3130070276
 20
-33.3130070276
 30
0.0
  0
VERTEX
  8
0
 10
33.2776516885
 20
-33.2776516885
 30
0.0
  0
VERTEX
  8
0
 10
33.2422963495
 20
-33.2422963495
 30
0.0
  0
VERTEX
  8
0
 10
33.2381039515
 20
-33.2381039515
 30
0.0
  0
SEQEND
  8
0
  0
POLYLINE
  8
0
 62
0
 70
0
 66
1
 10
0.0
 20
0.0
 30
0.0
  0
VERTEX
  8
0
 10
49.4974746831
 20
-49.497474683
 30
0.0
  0
VERTEX
  8
0
 10
49.462119344
 20
-49.462119344
 30
0.0
  0
VERTEX
  8
0
 10
49.426764005
 20
-49.4267640049
 30
0.0
  0
VERTEX
  8
0
 10
49.3914086659
 20
-49.3914086659
 30
0.0
  0
VERTEX
  8
0
 10
49.3560533268
 20
-49.3560533268
 30
0.0
  0
VERTEX
  8
0
 10
49.3206979878
 20
-49.3206979877
 30
0.0
  0
VERTEX
  8
0
 10
49.2853426487
 20
-49.2853426487
 30
0.0
  0
VERTEX
  8
0
 10
49.2499873097
 20
-49.2499873096
 30
0.0
  0
VERTEX
  8
0
 10
49.2146319706
 20
-49.2146319706
 30
0.0
  0
VERTEX
  8
0
 10
49.1792766315
 20
-49.1792766315
 30
0.0
  0
VERTEX
  8
0
 10
49.1439212925
 20
-49.1439212924
 30
0.0
  0
VERTEX
  8
0
 10
49.1085659534
 20
-49.1085659534
 30
0.0
  0
VERTEX
  8
0
 10
49.0732106144
 20
-49.0732106143
 30
0.0
  0
VERTEX
  8
0
 10
49.0378552753
 20
-49.0378552753
 30
0.0
  0
VERTEX
  8
0
 10
49.0024999363
 20
-49.0024999362
 30
0.0
  0
VERTEX
  8
0
 10
48.9671445972
 20
-48.9671445971
 30
0.0
  0
VERTEX
  8
0
 10
48.9317892581
 20
-48.9317892581
 30
0.0
  0
VERTEX
  8
0
 10
48.8964339191
 20
-48.896433919
 30
0.0
  0
VERTEX
  8
0
 10
48.86107858
 20
-48.86107858
 30
0.0
  0
VERTEX
  8
0
 10
48.825723241
 20
-48.8257232409
 30
0.0
  0
VERTEX
  8
0
 10
48.7903679019
 20
-48.7903679018
 30
0.0
  0
VERTEX
  8
0
 10
48.7550125628
 20
-48.7550125628
 30
0.0
  0
VERTEX
  8
0
 10
48.7196572238
 20
-48.7196572237
 30
0.0
  0
VERTEX
  8
0
 10
48.6843018847
 20
-48.6843018847
 30
0.0
  0
VERTEX
  8
0
 10
48.6489465457
 20
-48.6489465456
 30
0.0
  0
VERTEX
  8
0
 10
48.6135912066
 20
-48.6135912066
 30
0.0
  0
VERTEX
  8
0
 10
48.5782358675
 20
-48.5782358675
 30
0.0
  0
VERTEX
  8
0
 10
48.5428805285
 20
-48.5428805284
 30
0.0
  0
VERTEX
  8
0
 10
48.5075251894
 20
-48.5075251894
 30
0.0
  0
VERTEX
  8
0
 10
48.4721698504
 20
-48.4721698503
 30
0.0
  0
VERTEX
  8
0
 10
48.4368145113
 20
-48.4368145113
 30
0.0
  0
VERTEX
  8
0
 10
48.4014591722
 20
-48.4014591722
 30
0.0
  0
VERTEX
  8
0
 10
48.3661038332
 20
-48.3661038331
 30
0.0
  0
VERTEX
  8
0
 10
48.3307484941
 20
-48.3307484941
 30
0.0
  0
VERTEX
  8
0
 10
48.2953931551
 20
-48.295393155
 30
0.0
  0
VERTEX
  8
0
 10
48.260037816
 20
-48.260037816
 30
0.0
  0
VERTEX
  8
0
 10
48.2246824769
 20
-48.2246824769
 30
0.0
  0
VERTEX
  8
0
 10
48.1893271379
 20
-48.1893271378
 30
0.0
  0
VERTEX
  8
0
 10
48.1539717988
 20
-48.1539717988
 30
0.0
  0
VERTEX
  8
0
 10
48.1186164598
 20
-48.1186164597
 30
0.0
  0
VERTEX
  8
0
 10
48.0832611207
 20
-48.0832611207
 30
0.0
  0
VERTEX
  8
0
 10
48.0479057816
 20
-48.0479057816
 30
0.0
  0
VERTEX
  8
0
 10
48.0125504426
 20
-48.0125504425
 30
0.0
  0
VERTEX
  8
0
 10
47.9771951035
 20
-47.9771951035
 30
0.0
  0
VERTEX
  8
0
 10
47.9418397645
 20
-47.9418397644
 30
0.0
  0
VERTEX
  8
0
 10
47.9064844254
 20
-47.9064844254
 30
0.0
  0
VERTEX
  8
0
 10
47.8711290864
 20
-47.8711290863
 30
0.0
  0
VERTEX
  8
0
 10
47.8357737473
 20
-47.8357737472
 30
0.0
  0
VERTEX
  8
0
 10
47.8004184082
 20
-47.8004184082
 30
0.0
  0
VERTEX
  8
0
 10
47.7650630692
 20
-47.7650630691
 30
0.0
  0
VERTEX
  8
0
 10
47.7297077301
 20
-47.7297077301
 30
0.0
  0
VERTEX
  8
0
 10
47.6943523911
 20
-47.694352391
 30
0.0
  0
VERTEX
  8
0
 10
47.658997052
 20
-47.658997052
 30
0.0
  0
VERTEX
  8
0
 10
47.6236417129
 20
-47.6236417129
 30
0.0
  0
VERTEX
  8
0
 10
47.5882863739
 20
-47.5882863738
 30
0.0
  0
VERTEX
  8
0
 10
47.5529310348
 20
-47.5529310348
 30
0.0
  0
VERTEX
  8
0
 10
47.5175756958
 20
-47.5175756957
 30
0.0
  0
VERTEX
  8
0
 10
47.4822203567
 20
-47.4822203567
 30
0.0
  0
VERTEX
  8
0
 10
47.4468650176
 20
-47.4468650176
 30
0.0
  0
VERTEX
  8
0
 10
47.4115096786
 20
-47.4115096785
 30
0.0
  0
VERTEX
  8
0
 10
47.3761543395
 20
-47.3761543395
 30
0.0
  0
SEQEND
  8
0
  0
POLYLINE
  8
0
 62
0
 70
0
 66
1
 10
0.0
 20
0.0
 30
0.0
  0
VERTEX
  8
0
 10
30.2628288035
 20
-30.2628288034
 30
0.0
  0
VERTEX
  8
0
 10
30.2981841425
 20
-30.2981841425
 30
0.0
  0
VERTEX
  8
0
 10
30.3335394816
 20
-30.3335394816
 30
0.0
  0
VERTEX
  8
0
 10
30.3688948206
 20
-30.3688948206
 30
0.0
  0
VERTEX
  8
0
 10
30.4042501597
 20
-30.4042501597
 30
0.0
  0
VERTEX
  8
0
 10
30.4396054988
 20
-30.4396054987
 30
0.0
  0
VERTEX
  8
0
 10
30.4749608378
 20
-30.4749608378
 30
0.0
  0
VERTEX
  8
0
 10
30.5103161769
 20
-30.5103161769
 30
0.0
  0
VERTEX
  8
0
 10
30.5456715159
 20
-30.5456715159
 30
0.0
  0
VERTEX
  8
0
 10
30.581026855
 20
-30.581026855
 30
0.0
  0
VERTEX
  8
0
 10
30.6163821941
 20
-30.616382194
 30
0.0
  0
VERTEX
  8
0
 10
30.6517375331
 20
-30.6517375331
 30
0.0
  0
VERTEX
  8
0
 10
30.6870928722
 20
-30.6870928722
 30
0.0
  0
VERTEX
  8
0
 10
30.7224482112
 20
-30.7224482112
 30
0.0
  0
VERTEX
  8
0
 10
30.7578035503
 20
-30.7578035503
 30
0.0
  0
VERTEX
  8
0
 10
30.7931588894
 20
-30.7931588893
 30
0.0
  0
VERTEX
  8
0
 10
30.8285142284
 20
-30.8285142284
 30
0.0
  0
VERTEX
  8
0
 10
30.8638695675
 20
-30.8638695675
 30
0.0
  0
VERTEX
  8
0
 10
30.8992249065
 20
-30.8992249065
 30
0.0
  0
VERTEX
  8
0
 10
30.9345802456
 20
-30.9345802456
 30
0.0
  0
VERTEX
  8
0
 10
30.9699355847
 20
-30.9699355846
 30
0.0
  0
VERTEX
  8
0
 10
31.0052909237
 20
-31.0052909237
 30
0.0
  0
VERTEX
  8
0
 10
31.0406462628
 20
-31.0406462627
 30
0.0
  0
VERTEX
  8
0
 10
31.0760016018
 20
-31.0760016018
 30
0.0
  0
VERTEX
  8
0
 10
31.1113569409
 20
-31.1113569409
 30
0.0
  0
VERTEX
  8
0
 10
31.14671228
 20
-31.1467122799
 30
0.0
  0
VERTEX
  8
0
 10
31.182067619
 20
-31.182067619
 30
0.0
  0
VERTEX
  8
0
 10
31.2174229581
 20
-31.217422958
 30
0.0
  0
VERTEX
  8
0
 10
31.2527782971
 20
-31.2527782971
 30
0.0
  0
VERTEX
  8
0
 10
31.2881336362
 20
-31.2881336362
 30
0.0
  0
VERTEX
  8
0
 10
31.3234889752
 20
-31.3234889752
 30
0.0
  0
VERTEX
  8
0
 10
31.3582739185
 20
-31.3582739185
 30
0.0
  0
SEQEND
  8
0
  0
POLYLINE
  8
0
 62
0
 70
0
 66
1
 10
0.0
 20
0.0
 30
0.0
  0
VERTEX
  8
0
 10
9.47341119709
 20
-9.47341119706
 30
0.0
  0
VERTEX
  8
0
 10
9.50876653615
 20
-9.50876653611
 30
0.0
  0
VERTEX
  8
0
 10
9.54412187521
 20
-9.54412187517
 30
0.0
  0
VERTEX
  8
0
 10
9.57947721427
 20
-9.57947721423
 30
0.0
  0
VERTEX
  8
0
 10
9.61483255333
 20
-9.61483255329
 30
0.0
  0
VERTEX
  8
0
 10
9.65018789239
 20
-9.65018789235
 30
0.0
  0
VERTEX
  8
0
 10
9.68554323145
 20
-9.68554323141
 30
0.0
  0
VERTEX
  8
0
 10
9.72089857051
 20
-9.72089857047
 30
0.0
  0
VERTEX
  8
0
 10
9.75625390957
 20
-9.75625390953
 30
0.0
  0
VERTEX
  8
0
 10
9.79160924863
 20
-9.79160924858
 30
0.0
  0
VERTEX
  8
0
 10
9.82696458769
 20
-9.82696458764
 30
0.0
  0
VERTEX
  8
0
 10
9.86231992675
 20
-9.8623199267
 30
0.0
  0
VERTEX
  8
0
 10
9.89767526581
 20
-9.89767526576
 30
0.0
  0
VERTEX
  8
0
 10
9.93303060487
 20
-9.93303060482
 30
0.0
  0
VERTEX
  8
0
 10
9.96838594393
 20
-9.96838594388
 30
0.0
  0
VERTEX
  8
0
 10
10.003741283
 20
-10.0037412829
 30
0.0
  0
VERTEX
  8
0
 10
10.039096622
 20
-10.039096622
 30
0.0
  0
VERTEX
  8
0
 10
10.0744519611
 20
-10.0744519611
 30
0.0
  0
VERTEX
  8
0
 10
10.1098073002
 20
-10.1098073001
 30
0.0
  0
VERTEX
  8
0
 10
10.1451626392
 20
-10.1451626392
 30
0.0
  0
VERTEX
  8
0
 10
10.1805179783
 20
-10.1805179782
 30
0.0
  0
VERTEX
  8
0
 10
10.2158733173
 20
-10.2158733173
 30
0.0
  0
VERTEX
  8
0
 10
10.2512286564
 20
-10.2512286563
 30
0.0
  0
VERTEX
  8
0
 10
10.2865839955
 20
-10.2865839954
 30
0.0
  0
VERTEX
  8
0
 10
10.3219393345
 20
-10.3219393345
 30
0.0
  0
VERTEX
  8
0
 10
10.3572946736
 20
-10.3572946735
 30
0.0
  0
VERTEX
  8
0
 10
10.3926500126
 20
-10.3926500126
 30
0.0
  0
VERTEX
  8
0
 10
10.4280053517
 20
-10.4280053516
 30
0.0
  0
VERTEX
  8
0
 10
10.4633606908
 20
-10.4633606907
 30
0.0
  0
VERTEX
  8
0
 10
10.4987160298
 20
-10.4987160298
 30
0.0
  0
VERTEX
  8
0
 10
10.5340713689
 20
-10.5340713688
 30
0.0
  0
VERTEX
  8
0
 10
10.5694267079
 20
-10.5694267079
 30
0.0
  0
VERTEX
  8
0
 10
10.604782047
 20
-10.6047820469
 30
0.0
  0
VERTEX
  8
0
 10
10.6401373861
 20
-10.640137386
 30
0.0
  0
VERTEX
  8
0
 10
10.6754927251
 20
-10.6754927251
 30
0.0
  0
VERTEX
  8
0
 10
10.7108480642
 20
-10.7108480641
 30
0.0
  0
VERTEX
  8
0
 10
10.7462034032
 20
-10.7462034032
 30
0.0
  0
VERTEX
  8
0
 10
10.7815587423
 20
-10.7815587422
 30
0.0
  0
VERTEX
  8
0
 10
10.8169140814
 20
-10.8169140813
 30
0.0
  0
VERTEX
  8
0
 10
10.8522694204
 20
-10.8522694203
 30
0.0
  0
VERTEX
  8
0
 10
10.8876247595
 20
-10.8876247594
 30
0.0
  0
VERTEX
  8
0
 10
10.9229800985
 20
-10.9229800985
 30
0.0
  0
VERTEX
  8
0
 10
10.9583354376
 20
-10.9583354375
 30
0.0
  0
VERTEX
  8
0
 10
10.9936907767
 20
-10.9936907766
 30
0.0
  0
VERTEX
  8
0
 10
11.0290461157
 20
-11.0290461156
 30
0.0
  0
VERTEX
  8
0
 10
11.0644014548
 20
-11.0644014547
 30
0.0
  0
VERTEX
  8
0
 10
11.0997567938
 20
-11.0997567938
 30
0.0
  0
VERTEX
  8
0
 10
11.1165788696
 20
-11.1165788696
 30
0.0
  0
SEQEND
  8
0
  0
POLYLINE
  8
0
 62
0
 70
0
 66
1
 10
0.0
 20
0.0
 30
0.0
  0
VERTEX
  8
0
 10
-1.58140167628e-11
 20
-1.58095758707e-11
 30
0.0
  0
VERTEX
  8
0
 10
0.0353553390438
 20
-0.0353553390749
 30
0.0
  0
VERTEX
  8
0
 10
0.0707106781034
 20
-0.0707106781339
 30
0.0
  0
VERTEX
  8
0
 10
0.106066017163
 20
-0.106066017193
 30
0.0
  0
VERTEX
  8
0
 10
0.141421356223
 20
-0.141421356252
 30
0.0
  0
VERTEX
  8
0
 10
0.176776695282
 20
-0.176776695311
 30
0.0
  0
VERTEX
  8
0
 10
0.212132034342
 20
-0.21213203437
 30
0.0
  0
VERTEX
  8
0
 10
0.247487373401
 20
-0.247487373429
 30
0.0
  0
VERTEX
  8
0
 10
0.282842712461
 20
-0.282842712488
 30
0.0
  0
VERTEX
  8
0
 10
0.318198051521
 20
-0.318198051547
 30
0.0
  0
VERTEX
  8
0
 10
0.35355339058
 20
-0.353553390606
 30
0.0
  0
VERTEX
  8
0
 10
0.38890872964
 20
-0.388908729665
 30
0.0
  0
VERTEX
  8
0
 10
0.424264068699
 20
-0.424264068724
 30
0.0
  0
VERTEX
  8
0
 10
0.459619407759
 20
-0.459619407783
 30
0.0
  0
VERTEX
  8
0
 10
0.494974746819
 20
-0.494974746842
 30
0.0
  0
VERTEX
  8
0
 10
0.530330085878
 20
-0.530330085902
 30
0.0
  0
VERTEX
  8
0
 10
0.565685424938
 20
-0.565685424961
 30
0.0
  0
VERTEX
  8
0
 10
0.601040763998
 20
-0.60104076402
 30
0.0
  0
VERTEX
  8
0
 10
0.636396103057
 20
-0.636396103079
 30
0.0
  0
VERTEX
  8
0
 10
0.671751442117
 20
-0.671751442138
 30
0.0
  0
VERTEX
  8
0
 10
0.707106781176
 20
-0.707106781197
 30
0.0
  0
VERTEX
  8
0
 10
0.742462120236
 20
-0.742462120256
 30
0.0
  0
VERTEX
  8
0
 10
0.777817459296
 20
-0.777817459315
 30
0.0
  0
VERTEX
  8
0
 10
0.813172798355
 20
-0.813172798374
 30
0.0
  0
VERTEX
  8
0
 10
0.848528137415
 20
-0.848528137433
 30
0.0
  0
VERTEX
  8
0
 10
0.883883476474
 20
-0.883883476492
 30
0.0
  0
VERTEX
  8
0
 10
0.919238815534
 20
-0.919238815551
 30
0.0
  0
VERTEX
  8
0
 10
0.954594154594
 20
-0.95459415461
 30
0.0
  0
VERTEX
  8
0
 10
0.989949493653
 20
-0.989949493669
 30
0.0
  0
VERTEX
  8
0
 10
1.02530483271
 20
-1.02530483273
 30
0.0
  0
VERTEX
  8
0
 10
1.06066017177
 20
-1.06066017179
 30
0.0
  0
VERTEX
  8
0
 10
1.09601551083
 20
-1.09601551085
 30
0.0
  0
VERTEX
  8
0
 10
1.13137084989
 20
-1.13137084991
 30
0.0
  0
VERTEX
  8
0
 10
1.16672618895
 20
-1.16672618896
 30
0.0
  0
VERTEX
  8
0
 10
1.20208152801
 20
-1.20208152802
 30
0.0
  0
VERTEX
  8
0
 10
1.23743686707
 20
-1.23743686708
 30
0.0
  0
VERTEX
  8
0
 10
1.27279220613
 20
-1.27279220614
 30
0.0
  0
VERTEX
  8
0
 10
1.30814754519
 20
-1.3081475452
 30
0.0
  0
VERTEX
  8
0
 10
1.34350288425
 20
-1.34350288426
 30
0.0
  0
VERTEX
  8
0
 10
1.37885822331
 20
-1.37885822332
 30
0.0
  0
VERTEX
  8
0
 10
1.41421356237
 20
-1.41421356238
 30
0.0
  0
VERTEX
  8
0
 10
1.44956890143
 20
-1.44956890144
 30
0.0
  0
VERTEX
  8
0
 10
1.48492424049
 20
-1.4849242405
 30
0.0
  0
VERTEX
  8
0
 10
1.52027957955
 20
-1.52027957955
 30
0.0
  0
VERTEX
  8
0
 10
1.55563491861
 20
-1.55563491861
 30
0.0
  0
VERTEX
  8
0
 10
1.59099025767
 20
-1.59099025767
 30
0.0
  0
VERTEX
  8
0
 10
1.62634559673
 20
-1.62634559673
 30
0.0
  0
VERTEX
  8
0
 10
1.66170093579
 20
-1.66170093579
 30
0.0
  0
VERTEX
  8
0
 10
1.69705627485
 20
-1.69705627485
 30
0.0
  0
VERTEX
  8
0
 10
1.7324116139
 20
-1.73241161391
 30
0.0
  0
VERTEX
  8
0
 10
1.76776695296
 20
-1.76776695297
 30
0.0
  0
VERTEX
  8
0
 10
1.80312229202
 20
-1.80312229203
 30
0.0
  0
VERTEX
  8
0
 10
1.83847763108
 20
-1.83847763109
 30
0.0
  0
VERTEX
  8
0
 10
1.87383297014
 20
-1.87383297015
 30
0.0
  0
VERTEX
  8
0
 10
1.9091883092
 20
-1.9091883092
 30
0.0
  0
VERTEX
  8
0
 10
1.94454364826
 20
-1.94454364826
 30
0.0
  0
VERTEX
  8
0
 10
1.97989898732
 20
-1.97989898732
 30
0.0
  0
VERTEX
  8
0
 10
2.01525432638
 20
-2.01525432638
 30
0.0
  0
VERTEX
  8
0
 10
2.05060966544
 20
-2.05060966544
 30
0.0
  0
VERTEX
  8
0
 10
2.0859650045
 20
-2.0859650045
 30
0.0
  0
VERTEX
  8
0
 10
2.12132034356
 20
-2.12132034356
 30
0.0
  0
SEQEND
  8
0
  0
POLYLINE
  8
0
 62
0
 70
0
 66
1
 10
0.0
 20
0.0
 30
0.0
  0
VERTEX
  8
0
 10
35.8432436908
 20
-41.5000979403
 30
0.0
  0
VERTEX
  8
0
 10
35.8785990299
 20
-41.5354532793
 30
0.0
  0
VERTEX
  8
0
 10
35.913954369
 20
-41.5708086184
 30
0.0
  0
VERTEX
  8
0
 10
35.949309708
 20
-41.6061639574
 30
0.0
  0
VERTEX
  8
0
 10
35.9846650471
 20
-41.6415192965
 30
0.0
  0
VERTEX
  8
0
 10
36.0200203861
 20
-41.6768746356
 30
0.0
  0
VERTEX
  8
0
 10
36.0553757252
 20
-41.7122299746
 30
0.0
  0
VERTEX
  8
0
 10
36.0907310643
 20
-41.7475853137
 30
0.0
  0
VERTEX
  8
0
 10
36.1260864033
 20
-41.7829406527
 30
0.0
  0
VERTEX
  8
0
 10
36.1614417424
 20
-41.8182959918
 30
0.0
  0
VERTEX
  8
0
 10
36.1620121382
 20
-41.8188663876
 30
0.0
  0
SEQEND
  8
0
  0
POLYLINE
  8
0
 62
0
 70
0
 66
1
 10
0.0
 20
0.0
 30
0.0
  0
VERTEX
  8
0
 10
35.8432436908
 20
-41.5000979403
 30
0.0
  0
VERTEX
  8
0
 10
35.8078883518
 20
-41.4647426012
 30
0.0
  0
VERTEX
  8
0
 10
35.7725330127
 20
-41.4293872622
 30
0.0
  0
VERTEX
  8
0
 10
35.7496802194
 20
-41.4065344689
 30
0.0
  0
SEQEND
  8
0
  0
POLYLINE
  8
0
 62
0
 70
0
 66
1
 10
0.0
 20
0.0
 30
0.0
  0
VERTEX
  8
0
 10
35.7496802194
 20
-41.4065344689
 30
0.0
  0
VERTEX
  8
0
 10
35.7143248804
 20
-41.3711791298
 30
0.0
  0
VERTEX
  8
0
 10
35.6789695413
 20
-41.3358237908
 30
0.0
  0
VERTEX
  8
0
 10
35.6436142022
 20
-41.3004684517
 30
0.0
  0
VERTEX
  8
0
 10
35.6082588632
 20
-41.2651131126
 30
0.0
  0
VERTEX
  8
0
 10
35.5729035241
 20
-41.2297577736
 30
0.0
  0
VERTEX
  8
0
 10
35.5375481851
 20
-41.1944024345
 30
0.0
  0
VERTEX
  8
0
 10
35.502192846
 20
-41.1590470955
 30
0.0
  0
VERTEX
  8
0
 10
35.4668375069
 20
-41.1236917564
 30
0.0
  0
VERTEX
  8
0
 10
35.4314821679
 20
-41.0883364174
 30
0.0
  0
VERTEX
  8
0
 10
35.3961268288
 20
-41.0529810783
 30
0.0
  0
VERTEX
  8
0
 10
35.3607714898
 20
-41.0176257392
 30
0.0
  0
VERTEX
  8
0
 10
35.3254161507
 20
-40.9822704002
 30
0.0
  0
VERTEX
  8
0
 10
35.2900608116
 20
-40.9469150611
 30
0.0
  0
VERTEX
  8
0
 10
35.2547054726
 20
-40.9115597221
 30
0.0
  0
VERTEX
  8
0
 10
35.2193501335
 20
-40.876204383
 30
0.0
  0
VERTEX
  8
0
 10
35.1839947945
 20
-40.8408490439
 30
0.0
  0
VERTEX
  8
0
 10
35.1486394554
 20
-40.8054937049
 30
0.0
  0
VERTEX
  8
0
 10
35.1132841163
 20
-40.7701383658
 30
0.0
  0
VERTEX
  8
0
 10
35.0779287773
 20
-40.7347830268
 30
0.0
  0
VERTEX
  8
0
 10
35.0425734382
 20
-40.6994276877
 30
0.0
  0
VERTEX
  8
0
 10
35.0072180992
 20
-40.6640723486
 30
0.0
  0
VERTEX
  8
0
 10
34.9718627601
 20
-40.6287170096
 30
0.0
  0
VERTEX
  8
0
 10
34.936507421
 20
-40.5933616705
 30
0.0
  0
VERTEX
  8
0
 10
34.901152082
 20
-40.5580063315
 30
0.0
  0
VERTEX
  8
0
 10
34.8657967429
 20
-40.5226509924
 30
0.0
  0
VERTEX
  8
0
 10
34.8304414039
 20
-40.4872956534
 30
0.0
  0
VERTEX
  8
0
 10
34.7950860648
 20
-40.4519403143
 30
0.0
  0
VERTEX
  8
0
 10
34.7597307258
 20
-40.4165849752
 30
0.0
  0
VERTEX
  8
0
 10
34.7243753867
 20
-40.3812296362
 30
0.0
  0
VERTEX
  8
0
 10
34.6890200476
 20
-40.3458742971
 30
0.0
  0
VERTEX
  8
0
 10
34.6536647086
 20
-40.3105189581
 30
0.0
  0
VERTEX
  8
0
 10
34.6183093695
 20
-40.275163619
 30
0.0
  0
VERTEX
  8
0
 10
34.5829540305
 20
-40.2398082799
 30
0.0
  0
VERTEX
  8
0
 10
34.5475986914
 20
-40.2044529409
 30
0.0
  0
VERTEX
  8
0
 10
34.5122433523
 20
-40.1690976018
 30
0.0
  0
VERTEX
  8
0
 10
34.4768880133
 20
-40.1337422628
 30
0.0
  0
VERTEX
  8
0
 10
34.4415326742
 20
-40.0983869237
 30
0.0
  0
VERTEX
  8
0
 10
34.4061773352
 20
-40.0630315846
 30
0.0
  0
VERTEX
  8
0
 10
34.3708219961
 20
-40.0276762456
 30
0.0
  0
VERTEX
  8
0
 10
34.335466657
 20
-39.9923209065
 30
0.0
  0
VERTEX
  8
0
 10
34.300111318
 20
-39.9569655675
 30
0.0
  0
VERTEX
  8
0
 10
34.2647559789
 20
-39.9216102284
 30
0.0
  0
VERTEX
  8
0
 10
34.2294006399
 20
-39.8862548894
 30
0.0
  0
VERTEX
  8
0
 10
34.1940453008
 20
-39.8508995503
 30
0.0
  0
VERTEX
  8
0
 10
34.1586899617
 20
-39.8155442112
 30
0.0
  0
VERTEX
  8
0
 10
34.1233346227
 20
-39.7801888722
 30
0.0
  0
VERTEX
  8
0
 10
34.0879792836
 20
-39.7448335331
 30
0.0
  0
VERTEX
  8
0
 10
34.0526239446
 20
-39.7094781941
 30
0.0
  0
VERTEX
  8
0
 10
34.0172686055
 20
-39.674122855
 30
0.0
  0
VERTEX
  8
0
 10
33.9819132664
 20
-39.6387675159
 30
0.0
  0
VERTEX
  8
0
 10
33.9465579274
 20
-39.6034121769
 30
0.0
  0
VERTEX
  8
0
 10
33.9112025883
 20
-39.5680568378
 30
0.0
  0
VERTEX
  8
0
 10
33.8758472493
 20
-39.5327014988
 30
0.0
  0
VERTEX
  8
0
 10
33.8404919102
 20
-39.4973461597
 30
0.0
  0
VERTEX
  8
0
 10
33.8051365711
 20
-39.4619908206
 30
0.0
  0
VERTEX
  8
0
 10
33.7697812321
 20
-39.4266354816
 30
0.0
  0
VERTEX
  8
0
 10
33.734425893
 20
-39.3912801425
 30
0.0
  0
VERTEX
  8
0
 10
33.699070554
 20
-39.3559248035
 30
0.0
  0
VERTEX
  8
0
 10
33.6637152149
 20
-39.3205694644
 30
0.0
  0
VERTEX
  8
0
 10
33.6283598758
 20
-39.2852141254
 30
0.0
  0
SEQEND
  8
0
  0
POLYLINE
  8
0
 62
0
 70
0
 66
1
 10
0.0
 20
0.0
 30
0.0
  0
VERTEX
  8
0
 10
46.6690475583
 20
-52.3259018078
 30
0.0
  0
VERTEX
  8
0
 10
46.6336922193
 20
-52.2905464687
 30
0.0
  0
VERTEX
  8
0
 10
46.5983368802
 20
-52.2551911297
 30
0.0
  0
VERTEX
  8
0
 10
46.5629815412
 20
-52.2198357906
 30
0.0
  0
VERTEX
  8
0
 10
46.5276262021
 20
-52.1844804515
 30
0.0
  0
VERTEX
  8
0
 10
46.492270863
 20
-52.1491251125
 30
0.0
  0
VERTEX
  8
0
 10
46.456915524
 20
-52.1137697734
 30
0.0
  0
VERTEX
  8
0
 10
46.4215601849
 20
-52.0784144344
 30
0.0
  0
VERTEX
  8
0
 10
46.3862048459
 20
-52.0430590953
 30
0.0
  0
VERTEX
  8
0
 10
46.3508495068
 20
-52.0077037562
 30
0.0
  0
VERTEX
  8
0
 10
46.3154941677
 20
-51.9723484172
 30
0.0
  0
VERTEX
  8
0
 10
46.2801388287
 20
-51.9369930781
 30
0.0
  0
VERTEX
  8
0
 10
46.2447834896
 20
-51.9016377391
 30
0.0
  0
VERTEX
  8
0
 10
46.2094281506
 20
-51.8662824
 30
0.0
  0
VERTEX
  8
0
 10
46.1740728115
 20
-51.830927061
 30
0.0
  0
VERTEX
  8
0
 10
46.1387174724
 20
-51.7955717219
 30
0.0
  0
VERTEX
  8
0
 10
46.1033621334
 20
-51.7602163828
 30
0.0
  0
VERTEX
  8
0
 10
46.0680067943
 20
-51.7248610438
 30
0.0
  0
VERTEX
  8
0
 10
46.0326514553
 20
-51.6895057047
 30
0.0
  0
VERTEX
  8
0
 10
45.9972961162
 20
-51.6541503657
 30
0.0
  0
VERTEX
  8
0
 10
45.9619407771
 20
-51.6187950266
 30
0.0
  0
VERTEX
  8
0
 10
45.9265854381
 20
-51.5834396875
 30
0.0
  0
VERTEX
  8
0
 10
45.891230099
 20
-51.5480843485
 30
0.0
  0
VERTEX
  8
0
 10
45.85587476
 20
-51.5127290094
 30
0.0
  0
VERTEX
  8
0
 10
45.8205194209
 20
-51.4773736704
 30
0.0
  0
VERTEX
  8
0
 10
45.7851640819
 20
-51.4420183313
 30
0.0
  0
VERTEX
  8
0
 10
45.7498087428
 20
-51.4066629922
 30
0.0
  0
VERTEX
  8
0
 10
45.7144534037
 20
-51.3713076532
 30
0.0
  0
VERTEX
  8
0
 10
45.6790980647
 20
-51.3359523141
 30
0.0
  0
VERTEX
  8
0
 10
45.6437427256
 20
-51.3005969751
 30
0.0
  0
VERTEX
  8
0
 10
45.6083873866
 20
-51.265241636
 30
0.0
  0
VERTEX
  8
0
 10
45.5730320475
 20
-51.2298862969
 30
0.0
  0
VERTEX
  8
0
 10
45.5376767084
 20
-51.1945309579
 30
0.0
  0
VERTEX
  8
0
 10
45.5023213694
 20
-51.1591756188
 30
0.0
  0
VERTEX
  8
0
 10
45.4669660303
 20
-51.1238202798
 30
0.0
  0
VERTEX
  8
0
 10
45.4316106913
 20
-51.0884649407
 30
0.0
  0
VERTEX
  8
0
 10
45.3962553522
 20
-51.0531096016
 30
0.0
  0
VERTEX
  8
0
 10
45.3609000131
 20
-51.0177542626
 30
0.0
  0
VERTEX
  8
0
 10
45.3255446741
 20
-50.9823989235
 30
0.0
  0
VERTEX
  8
0
 10
45.290189335
 20
-50.9470435845
 30
0.0
  0
VERTEX
  8
0
 10
45.254833996
 20
-50.9116882454
 30
0.0
  0
VERTEX
  8
0
 10
45.2194786569
 20
-50.8763329064
 30
0.0
  0
VERTEX
  8
0
 10
45.1841233178
 20
-50.8409775673
 30
0.0
  0
VERTEX
  8
0
 10
45.1487679788
 20
-50.8056222282
 30
0.0
  0
VERTEX
  8
0
 10
45.1134126397
 20
-50.7702668892
 30
0.0
  0
VERTEX
  8
0
 10
45.0780573007
 20
-50.7349115501
 30
0.0
  0
VERTEX
  8
0
 10
45.0427019616
 20
-50.6995562111
 30
0.0
  0
VERTEX
  8
0
 10
45.0073466225
 20
-50.664200872
 30
0.0
  0
VERTEX
  8
0
 10
44.9719912835
 20
-50.6288455329
 30
0.0
  0
VERTEX
  8
0
 10
44.9366359444
 20
-50.5934901939
 30
0.0
  0
VERTEX
  8
0
 10
44.9012806054
 20
-50.5581348548
 30
0.0
  0
VERTEX
  8
0
 10
44.8659252663
 20
-50.5227795158
 30
0.0
  0
VERTEX
  8
0
 10
44.8305699273
 20
-50.4874241767
 30
0.0
  0
VERTEX
  8
0
 10
44.7952145882
 20
-50.4520688376
 30
0.0
  0
VERTEX
  8
0
 10
44.7598592491
 20
-50.4167134986
 30
0.0
  0
VERTEX
  8
0
 10
44.7245039101
 20
-50.3813581595
 30
0.0
  0
VERTEX
  8
0
 10
44.689148571
 20
-50.3460028205
 30
0.0
  0
VERTEX
  8
0
 10
44.653793232
 20
-50.3106474814
 30
0.0
  0
VERTEX
  8
0
 10
44.6184378929
 20
-50.2752921423
 30
0.0
  0
VERTEX
  8
0
 10
44.5830825538
 20
-50.2399368033
 30
0.0
  0
VERTEX
  8
0
 10
44.5477272148
 20
-50.2045814642
 30
0.0
  0
SEQEND
  8
0
  0
POLYLINE
  8
0
 62
0
 70
0
 66
1
 10
0.0
 20
0.0
 30
0.0
  0
VERTEX
  8
0
 10
6.6449840724
 20
-12.3018383219
 30
0.0
  0
VERTEX
  8
0
 10
6.68033941146
 20
-12.3371936609
 30
0.0
  0
VERTEX
  8
0
 10
6.71569475052
 20
-12.372549
 30
0.0
  0
VERTEX
  8
0
 10
6.75105008958
 20
-12.407904339
 30
0.0
  0
VERTEX
  8
0
 10
6.78640542864
 20
-12.4432596781
 30
0.0
  0
VERTEX
  8
0
 10
6.8217607677
 20
-12.4786150172
 30
0.0
  0
VERTEX
  8
0
 10
6.85711610676
 20
-12.5139703562
 30
0.0
  0
VERTEX
  8
0
 10
6.89247144582
 20
-12.5493256953
 30
0.0
  0
VERTEX
  8
0
 10
6.92782678488
 20
-12.5846810343
 30
0.0
  0
VERTEX
  8
0
 10
6.96318212394
 20
-12.6200363734
 30
0.0
  0
VERTEX
  8
0
 10
6.998537463
 20
-12.6553917124
 30
0.0
  0
VERTEX
  8
0
 10
7.03389280206
 20
-12.6907470515
 30
0.0
  0
VERTEX
  8
0
 10
7.06924814112
 20
-12.7261023906
 30
0.0
  0
VERTEX
  8
0
 10
7.10460348018
 20
-12.7614577296
 30
0.0
  0
VERTEX
  8
0
 10
7.13995881924
 20
-12.7968130687
 30
0.0
  0
VERTEX
  8
0
 10
7.1753141583
 20
-12.8321684077
 30
0.0
  0
VERTEX
  8
0
 10
7.21066949736
 20
-12.8675237468
 30
0.0
  0
VERTEX
  8
0
 10
7.24602483642
 20
-12.9028790859
 30
0.0
  0
VERTEX
  8
0
 10
7.28138017548
 20
-12.9382344249
 30
0.0
  0
VERTEX
  8
0
 10
7.31673551454
 20
-12.973589764
 30
0.0
  0
VERTEX
  8
0
 10
7.3520908536
 20
-13.008945103
 30
0.0
  0
VERTEX
  8
0
 10
7.38744619266
 20
-13.0443004421
 30
0.0
  0
VERTEX
  8
0
 10
7.42280153172
 20
-13.0796557811
 30
0.0
  0
VERTEX
  8
0
 10
7.45815687078
 20
-13.1150111202
 30
0.0
  0
VERTEX
  8
0
 10
7.49351220984
 20
-13.1503664593
 30
0.0
  0
VERTEX
  8
0
 10
7.5288675489
 20
-13.1857217983
 30
0.0
  0
VERTEX
  8
0
 10
7.56422288796
 20
-13.2210771374
 30
0.0
  0
VERTEX
  8
0
 10
7.59957822702
 20
-13.2564324764
 30
0.0
  0
VERTEX
  8
0
 10
7.63493356608
 20
-13.2917878155
 30
0.0
  0
VERTEX
  8
0
 10
7.67028890514
 20
-13.3271431546
 30
0.0
  0
VERTEX
  8
0
 10
7.7056442442
 20
-13.3624984936
 30
0.0
  0
VERTEX
  8
0
 10
7.74099958326
 20
-13.3978538327
 30
0.0
  0
VERTEX
  8
0
 10
7.77635492232
 20
-13.4332091717
 30
0.0
  0
VERTEX
  8
0
 10
7.81171026138
 20
-13.4685645108
 30
0.0
  0
VERTEX
  8
0
 10
7.84706560044
 20
-13.5039198499
 30
0.0
  0
VERTEX
  8
0
 10
7.8824209395
 20
-13.5392751889
 30
0.0
  0
VERTEX
  8
0
 10
7.91777627856
 20
-13.574630528
 30
0.0
  0
VERTEX
  8
0
 10
7.95313161762
 20
-13.609985867
 30
0.0
  0
VERTEX
  8
0
 10
7.98848695668
 20
-13.6453412061
 30
0.0
  0
VERTEX
  8
0
 10
8.02384229574
 20
-13.6806965451
 30
0.0
  0
VERTEX
  8
0
 10
8.05919763479
 20
-13.7160518842
 30
0.0
  0
VERTEX
  8
0
 10
8.09455297385
 20
-13.7514072233
 30
0.0
  0
VERTEX
  8
0
 10
8.12990831291
 20
-13.7867625623
 30
0.0
  0
VERTEX
  8
0
 10
8.16526365197
 20
-13.8221179014
 30
0.0
  0
VERTEX
  8
0
 10
8.20061899103
 20
-13.8574732404
 30
0.0
  0
VERTEX
  8
0
 10
8.23597433009
 20
-13.8928285795
 30
0.0
  0
VERTEX
  8
0
 10
8.27132966915
 20
-13.9281839186
 30
0.0
  0
VERTEX
  8
0
 10
8.28815174495
 20
-13.9450059944
 30
0.0
  0
SEQEND
  8
0
  0
POLYLINE
  8
0
 62
0
 70
0
 66
1
 10
0.0
 20
0.0
 30
0.0
  0
VERTEX
  8
0
 10
-10.6066017177
 20
10.6066017179
 30
0.0
  0
VERTEX
  8
0
 10
-10.5712463787
 20
10.5712463788
 30
0.0
  0
VERTEX
  8
0
 10
-10.5358910396
 20
10.5358910398
 30
0.0
  0
VERTEX
  8
0
 10
-10.5005357006
 20
10.5005357007
 30
0.0
  0
VERTEX
  8
0
 10
-10.4651803615
 20
10.4651803616
 30
0.0
  0
VERTEX
  8
0
 10
-10.4298250224
 20
10.4298250226
 30
0.0
  0
VERTEX
  8
0
 10
-10.3944696834
 20
10.3944696835
 30
0.0
  0
VERTEX
  8
0
 10
-10.3591143443
 20
10.3591143445
 30
0.0
  0
VERTEX
  8
0
 10
-10.3237590053
 20
10.3237590054
 30
0.0
  0
VERTEX
  8
0
 10
-10.2884036662
 20
10.2884036663
 30
0.0
  0
VERTEX
  8
0
 10
-10.2530483272
 20
10.2530483273
 30
0.0
  0
VERTEX
  8
0
 10
-10.2176929881
 20
10.2176929882
 30
0.0
  0
VERTEX
  8
0
 10
-10.182337649
 20
10.1823376492
 30
0.0
  0
VERTEX
  8
0
 10
-10.14698231
 20
10.1469823101
 30
0.0
  0
VERTEX
  8
0
 10
-10.1116269709
 20
10.111626971
 30
0.0
  0
VERTEX
  8
0
 10
-10.0762716319
 20
10.076271632
 30
0.0
  0
VERTEX
  8
0
 10
-10.0409162928
 20
10.0409162929
 30
0.0
  0
VERTEX
  8
0
 10
-10.0055609537
 20
10.0055609539
 30
0.0
  0
VERTEX
  8
0
 10
-9.97020561468
 20
9.97020561481
 30
0.0
  0
VERTEX
  8
0
 10
-9.93485027562
 20
9.93485027575
 30
0.0
  0
VERTEX
  8
0
 10
-9.89949493656
 20
9.89949493669
 30
0.0
  0
VERTEX
  8
0
 10
-9.8641395975
 20
9.86413959763
 30
0.0
  0
VERTEX
  8
0
 10
-9.82878425844
 20
9.82878425857
 30
0.0
  0
VERTEX
  8
0
 10
-9.79342891938
 20
9.79342891951
 30
0.0
  0
VERTEX
  8
0
 10
-9.75807358032
 20
9.75807358045
 30
0.0
  0
VERTEX
  8
0
 10
-9.72271824126
 20
9.72271824139
 30
0.0
  0
VERTEX
  8
0
 10
-9.6873629022
 20
9.68736290233
 30
0.0
  0
VERTEX
  8
0
 10
-9.65200756314
 20
9.65200756327
 30
0.0
  0
VERTEX
  8
0
 10
-9.61665222408
 20
9.61665222422
 30
0.0
  0
VERTEX
  8
0
 10
-9.58129688502
 20
9.58129688516
 30
0.0
  0
VERTEX
  8
0
 10
-9.54594154596
 20
9.5459415461
 30
0.0
  0
VERTEX
  8
0
 10
-9.5105862069
 20
9.51058620704
 30
0.0
  0
VERTEX
  8
0
 10
-9.47523086784
 20
9.47523086798
 30
0.0
  0
VERTEX
  8
0
 10
-9.43987552879
 20
9.43987552892
 30
0.0
  0
VERTEX
  8
0
 10
-9.40452018973
 20
9.40452018986
 30
0.0
  0
VERTEX
  8
0
 10
-9.36916485067
 20
9.3691648508
 30
0.0
  0
VERTEX
  8
0
 10
-9.33380951161
 20
9.33380951174
 30
0.0
  0
VERTEX
  8
0
 10
-9.29845417255
 20
9.29845417268
 30
0.0
  0
VERTEX
  8
0
 10
-9.26309883349
 20
9.26309883362
 30
0.0
  0
VERTEX
  8
0
 10
-9.22774349443
 20
9.22774349456
 30
0.0
  0
VERTEX
  8
0
 10
-9.19238815537
 20
9.1923881555
 30
0.0
  0
VERTEX
  8
0
 10
-9.15703281631
 20
9.15703281644
 30
0.0
  0
VERTEX
  8
0
 10
-9.12167747725
 20
9.12167747739
 30
0.0
  0
VERTEX
  8
0
 10
-9.08632213819
 20
9.08632213833
 30
0.0
  0
VERTEX
  8
0
 10
-9.05096679913
 20
9.05096679927
 30
0.0
  0
VERTEX
  8
0
 10
-9.01561146007
 20
9.01561146021
 30
0.0
  0
VERTEX
  8
0
 10
-8.98025612101
 20
8.98025612115
 30
0.0
  0
VERTEX
  8
0
 10
-8.94490078195
 20
8.94490078209
 30
0.0
  0
VERTEX
  8
0
 10
-8.9095454429
 20
8.90954544303
 30
0.0
  0
VERTEX
  8
0
 10
-8.87419010384
 20
8.87419010397
 30
0.0
  0
VERTEX
  8
0
 10
-8.83883476478
 20
8.83883476491
 30
0.0
  0
VERTEX
  8
0
 10
-8.80347942572
 20
8.80347942585
 30
0.0
  0
VERTEX
  8
0
 10
-8.76812408666
 20
8.76812408679
 30
0.0
  0
VERTEX
  8
0
 10
-8.7327687476
 20
8.73276874773
 30
0.0
  0
VERTEX
  8
0
 10
-8.69741340854
 20
8.69741340867
 30
0.0
  0
VERTEX
  8
0
 10
-8.66205806948
 20
8.66205806961
 30
0.0
  0
VERTEX
  8
0
 10
-8.62670273042
 20
8.62670273055
 30
0.0
  0
VERTEX
  8
0
 10
-8.59134739136
 20
8.5913473915
 30
0.0
  0
VERTEX
  8
0
 10
-8.5559920523
 20
8.55599205244
 30
0.0
  0
VERTEX
  8
0
 10
-8.52063671324
 20
8.52063671338
 30
0.0
  0
VERTEX
  8
0
 10
-8.48528137418
 20
8.48528137432
 30
0.0
  0
SEQEND
  8
0
  0
POLYLINE
  8
0
 62
0
 70
0
 66
1
 10
0.0
 20
0.0
 30
0.0
  0
VERTEX
  8
0
 10
-2.82842712471
 20
2.82842712478
 30
0.0
  0
VERTEX
  8
0
 10
-2.86378246377
 20
2.86378246384
 30
0.0
  0
VERTEX
  8
0
 10
-2.89913780283
 20
2.8991378029
 30
0.0
  0
VERTEX
  8
0
 10
-2.93449314189
 20
2.93449314196
 30
0.0
  0
VERTEX
  8
0
 10
-2.96984848095
 20
2.96984848102
 30
0.0
  0
VERTEX
  8
0
 10
-3.00520382
 20
3.00520382008
 30
0.0
  0
VERTEX
  8
0
 10
-3.04055915906
 20
3.04055915914
 30
0.0
  0
VERTEX
  8
0
 10
-3.07591449812
 20
3.0759144982
 30
0.0
  0
VERTEX
  8
0
 10
-3.11126983718
 20
3.11126983726
 30
0.0
  0
VERTEX
  8
0
 10
-3.14662517624
 20
3.14662517632
 30
0.0
  0
VERTEX
  8
0
 10
-3.1819805153
 20
3.18198051538
 30
0.0
  0
VERTEX
  8
0
 10
-3.21733585436
 20
3.21733585444
 30
0.0
  0
VERTEX
  8
0
 10
-3.25269119342
 20
3.2526911935
 30
0.0
  0
VERTEX
  8
0
 10
-3.28804653248
 20
3.28804653256
 30
0.0
  0
VERTEX
  8
0
 10
-3.32340187154
 20
3.32340187162
 30
0.0
  0
VERTEX
  8
0
 10
-3.3587572106
 20
3.35875721067
 30
0.0
  0
VERTEX
  8
0
 10
-3.39411254966
 20
3.39411254973
 30
0.0
  0
VERTEX
  8
0
 10
-3.42946788872
 20
3.42946788879
 30
0.0
  0
VERTEX
  8
0
 10
-3.46482322778
 20
3.46482322785
 30
0.0
  0
VERTEX
  8
0
 10
-3.50017856683
 20
3.50017856691
 30
0.0
  0
VERTEX
  8
0
 10
-3.53553390589
 20
3.53553390597
 30
0.0
  0
VERTEX
  8
0
 10
-3.57088924495
 20
3.57088924503
 30
0.0
  0
VERTEX
  8
0
 10
-3.60624458401
 20
3.60624458409
 30
0.0
  0
VERTEX
  8
0
 10
-3.64159992307
 20
3.64159992315
 30
0.0
  0
VERTEX
  8
0
 10
-3.67695526213
 20
3.67695526221
 30
0.0
  0
VERTEX
  8
0
 10
-3.71231060119
 20
3.71231060127
 30
0.0
  0
VERTEX
  8
0
 10
-3.74766594025
 20
3.74766594033
 30
0.0
  0
VERTEX
  8
0
 10
-3.78302127931
 20
3.78302127939
 30
0.0
  0
VERTEX
  8
0
 10
-3.81837661837
 20
3.81837661845
 30
0.0
  0
VERTEX
  8
0
 10
-3.85373195743
 20
3.85373195751
 30
0.0
  0
VERTEX
  8
0
 10
-3.88908729649
 20
3.88908729656
 30
0.0
  0
VERTEX
  8
0
 10
-3.92444263555
 20
3.92444263562
 30
0.0
  0
VERTEX
  8
0
 10
-3.95979797461
 20
3.95979797468
 30
0.0
  0
VERTEX
  8
0
 10
-3.99515331367
 20
3.99515331374
 30
0.0
  0
VERTEX
  8
0
 10
-4.03050865272
 20
4.0305086528
 30
0.0
  0
VERTEX
  8
0
 10
-4.06586399178
 20
4.06586399186
 30
0.0
  0
VERTEX
  8
0
 10
-4.10121933084
 20
4.10121933092
 30
0.0
  0
VERTEX
  8
0
 10
-4.1365746699
 20
4.13657466998
 30
0.0
  0
VERTEX
  8
0
 10
-4.17193000896
 20
4.17193000904
 30
0.0
  0
VERTEX
  8
0
 10
-4.20728534802
 20
4.2072853481
 30
0.0
  0
VERTEX
  8
0
 10
-4.24264068708
 20
4.24264068716
 30
0.0
  0
VERTEX
  8
0
 10
-4.27799602614
 20
4.27799602622
 30
0.0
  0
VERTEX
  8
0
 10
-4.3133513652
 20
4.31335136528
 30
0.0
  0
VERTEX
  8
0
 10
-4.34870670426
 20
4.34870670434
 30
0.0
  0
VERTEX
  8
0
 10
-4.38406204332
 20
4.3840620434
 30
0.0
  0
VERTEX
  8
0
 10
-4.41941738238
 20
4.41941738245
 30
0.0
  0
VERTEX
  8
0
 10
-4.45477272144
 20
4.45477272151
 30
0.0
  0
VERTEX
  8
0
 10
-4.4901280605
 20
4.49012806057
 30
0.0
  0
VERTEX
  8
0
 10
-4.52548339955
 20
4.52548339963
 30
0.0
  0
VERTEX
  8
0
 10
-4.56083873861
 20
4.56083873869
 30
0.0
  0
VERTEX
  8
0
 10
-4.59619407767
 20
4.59619407775
 30
0.0
  0
VERTEX
  8
0
 10
-4.63154941673
 20
4.63154941681
 30
0.0
  0
VERTEX
  8
0
 10
-4.66690475579
 20
4.66690475587
 30
0.0
  0
VERTEX
  8
0
 10
-4.70226009485
 20
4.70226009493
 30
0.0
  0
VERTEX
  8
0
 10
-4.73761543391
 20
4.73761543399
 30
0.0
  0
VERTEX
  8
0
 10
-4.77297077297
 20
4.77297077305
 30
0.0
  0
VERTEX
  8
0
 10
-4.80832611203
 20
4.80832611211
 30
0.0
  0
VERTEX
  8
0
 10
-4.84368145109
 20
4.84368145117
 30
0.0
  0
VERTEX
  8
0
 10
-4.87903679015
 20
4.87903679023
 30
0.0
  0
VERTEX
  8
0
 10
-4.91439212921
 20
4.91439212929
 30
0.0
  0
VERTEX
  8
0
 10
-4.94974746827
 20
4.94974746834
 30
0.0
  0
SEQEND
  8
0
  0
POLYLINE
  8
0
 62
0
 70
0
 66
1
 10
0.0
 20
0.0
 30
0.0
  0
VERTEX
  8
0
 10
-2.82842712474
 20
-2.82842712478
 30
0.0
  0
VERTEX
  8
0
 10
-2.79307178568
 20
-2.86378246384
 30
0.0
  0
VERTEX
  8
0
 10
-2.75771644662
 20
-2.8991378029
 30
0.0
  0
VERTEX
  8
0
 10
-2.72236110756
 20
-2.93449314196
 30
0.0
  0
VERTEX
  8
0
 10
-2.6870057685
 20
-2.96984848102
 30
0.0
  0
VERTEX
  8
0
 10
-2.65165042944
 20
-3.00520382008
 30
0.0
  0
VERTEX
  8
0
 10
-2.61629509038
 20
-3.04055915914
 30
0.0
  0
VERTEX
  8
0
 10
-2.58093975132
 20
-3.0759144982
 30
0.0
  0
VERTEX
  8
0
 10
-2.54558441226
 20
-3.11126983726
 30
0.0
  0
VERTEX
  8
0
 10
-2.5102290732
 20
-3.14662517632
 30
0.0
  0
VERTEX
  8
0
 10
-2.47487373414
 20
-3.18198051537
 30
0.0
  0
VERTEX
  8
0
 10
-2.43951839508
 20
-3.21733585443
 30
0.0
  0
VERTEX
  8
0
 10
-2.40416305602
 20
-3.25269119349
 30
0.0
  0
VERTEX
  8
0
 10
-2.36880771696
 20
-3.28804653255
 30
0.0
  0
VERTEX
  8
0
 10
-2.33345237791
 20
-3.32340187161
 30
0.0
  0
VERTEX
  8
0
 10
-2.29809703885
 20
-3.35875721067
 30
0.0
  0
VERTEX
  8
0
 10
-2.26274169979
 20
-3.39411254973
 30
0.0
  0
VERTEX
  8
0
 10
-2.22738636073
 20
-3.42946788879
 30
0.0
  0
VERTEX
  8
0
 10
-2.19203102167
 20
-3.46482322785
 30
0.0
  0
VERTEX
  8
0
 10
-2.15667568261
 20
-3.50017856691
 30
0.0
  0
VERTEX
  8
0
 10
-2.12132034355
 20
-3.53553390597
 30
0.0
  0
VERTEX
  8
0
 10
-2.08596500449
 20
-3.57088924502
 30
0.0
  0
VERTEX
  8
0
 10
-2.05060966543
 20
-3.60624458408
 30
0.0
  0
VERTEX
  8
0
 10
-2.01525432637
 20
-3.64159992314
 30
0.0
  0
VERTEX
  8
0
 10
-1.97989898731
 20
-3.6769552622
 30
0.0
  0
VERTEX
  8
0
 10
-1.94454364825
 20
-3.71231060126
 30
0.0
  0
VERTEX
  8
0
 10
-1.90918830919
 20
-3.74766594032
 30
0.0
  0
VERTEX
  8
0
 10
-1.87383297013
 20
-3.78302127938
 30
0.0
  0
VERTEX
  8
0
 10
-1.83847763107
 20
-3.81837661844
 30
0.0
  0
VERTEX
  8
0
 10
-1.80312229201
 20
-3.8537319575
 30
0.0
  0
VERTEX
  8
0
 10
-1.76776695295
 20
-3.88908729656
 30
0.0
  0
VERTEX
  8
0
 10
-1.73241161389
 20
-3.92444263561
 30
0.0
  0
VERTEX
  8
0
 10
-1.69705627483
 20
-3.95979797467
 30
0.0
  0
VERTEX
  8
0
 10
-1.66170093577
 20
-3.99515331373
 30
0.0
  0
VERTEX
  8
0
 10
-1.62634559671
 20
-4.03050865279
 30
0.0
  0
VERTEX
  8
0
 10
-1.59099025765
 20
-4.06586399185
 30
0.0
  0
VERTEX
  8
0
 10
-1.55563491859
 20
-4.10121933091
 30
0.0
  0
VERTEX
  8
0
 10
-1.52027957953
 20
-4.13657466997
 30
0.0
  0
VERTEX
  8
0
 10
-1.48492424047
 20
-4.17193000903
 30
0.0
  0
VERTEX
  8
0
 10
-1.44956890141
 20
-4.20728534809
 30
0.0
  0
VERTEX
  8
0
 10
-1.41421356236
 20
-4.24264068715
 30
0.0
  0
VERTEX
  8
0
 10
-1.3788582233
 20
-4.27799602621
 30
0.0
  0
VERTEX
  8
0
 10
-1.34350288424
 20
-4.31335136526
 30
0.0
  0
VERTEX
  8
0
 10
-1.30814754518
 20
-4.34870670432
 30
0.0
  0
VERTEX
  8
0
 10
-1.27279220612
 20
-4.38406204338
 30
0.0
  0
VERTEX
  8
0
 10
-1.23743686706
 20
-4.41941738244
 30
0.0
  0
VERTEX
  8
0
 10
-1.202081528
 20
-4.4547727215
 30
0.0
  0
VERTEX
  8
0
 10
-1.16672618894
 20
-4.49012806056
 30
0.0
  0
VERTEX
  8
0
 10
-1.13137084988
 20
-4.52548339962
 30
0.0
  0
VERTEX
  8
0
 10
-1.09601551082
 20
-4.56083873868
 30
0.0
  0
VERTEX
  8
0
 10
-1.06066017176
 20
-4.59619407774
 30
0.0
  0
VERTEX
  8
0
 10
-1.0253048327
 20
-4.6315494168
 30
0.0
  0
VERTEX
  8
0
 10
-0.98994949364
 20
-4.66690475585
 30
0.0
  0
VERTEX
  8
0
 10
-0.954594154581
 20
-4.70226009491
 30
0.0
  0
VERTEX
  8
0
 10
-0.919238815521
 20
-4.73761543397
 30
0.0
  0
VERTEX
  8
0
 10
-0.883883476461
 20
-4.77297077303
 30
0.0
  0
VERTEX
  8
0
 10
-0.848528137402
 20
-4.80832611209
 30
0.0
  0
VERTEX
  8
0
 10
-0.813172798342
 20
-4.84368145115
 30
0.0
  0
VERTEX
  8
0
 10
-0.777817459282
 20
-4.87903679021
 30
0.0
  0
VERTEX
  8
0
 10
-0.742462120223
 20
-4.91439212927
 30
0.0
  0
VERTEX
  8
0
 10
-0.707106781163
 20
-4.94974746833
 30
0.0
  0
SEQEND
  8
0
  0
POLYLINE
  8
0
 62
0
 70
0
 66
1
 10
0.0
 20
0.0
 30
0.0
  0
VERTEX
  8
0
 10
30.9441993107
 20
-36.6010535602
 30
0.0
  0
VERTEX
  8
0
 10
30.9088439716
 20
-36.5656982211
 30
0.0
  0
VERTEX
  8
0
 10
30.8734886326
 20
-36.530342882
 30
0.0
  0
VERTEX
  8
0
 10
30.8381332935
 20
-36.494987543
 30
0.0
  0
VERTEX
  8
0
 10
30.8027779545
 20
-36.4596322039
 30
0.0
  0
VERTEX
  8
0
 10
30.7674226154
 20
-36.4242768649
 30
0.0
  0
VERTEX
  8
0
 10
30.7320672763
 20
-36.3889215258
 30
0.0
  0
VERTEX
  8
0
 10
30.6967119373
 20
-36.3535661867
 30
0.0
  0
VERTEX
  8
0
 10
30.6613565982
 20
-36.3182108477
 30
0.0
  0
VERTEX
  8
0
 10
30.6260012592
 20
-36.2828555086
 30
0.0
  0
VERTEX
  8
0
 10
30.5906459201
 20
-36.2475001696
 30
0.0
  0
VERTEX
  8
0
 10
30.555290581
 20
-36.2121448305
 30
0.0
  0
VERTEX
  8
0
 10
30.519935242
 20
-36.1767894914
 30
0.0
  0
VERTEX
  8
0
 10
30.4845799029
 20
-36.1414341524
 30
0.0
  0
VERTEX
  8
0
 10
30.4492245639
 20
-36.1060788133
 30
0.0
  0
VERTEX
  8
0
 10
30.4138692248
 20
-36.0707234743
 30
0.0
  0
VERTEX
  8
0
 10
30.4096768269
 20
-36.0665310763
 30
0.0
  0
SEQEND
  8
0
  0
POLYLINE
  8
0
 62
0
 70
0
 66
1
 10
0.0
 20
0.0
 30
0.0
  0
VERTEX
  8
0
 10
27.4344016788
 20
-33.0912559282
 30
0.0
  0
VERTEX
  8
0
 10
27.4697570178
 20
-33.1266112673
 30
0.0
  0
VERTEX
  8
0
 10
27.5051123569
 20
-33.1619666064
 30
0.0
  0
VERTEX
  8
0
 10
27.540467696
 20
-33.1973219454
 30
0.0
  0
VERTEX
  8
0
 10
27.575823035
 20
-33.2326772845
 30
0.0
  0
VERTEX
  8
0
 10
27.6111783741
 20
-33.2680326235
 30
0.0
  0
VERTEX
  8
0
 10
27.6465337131
 20
-33.3033879626
 30
0.0
  0
VERTEX
  8
0
 10
27.6818890522
 20
-33.3387433017
 30
0.0
  0
VERTEX
  8
0
 10
27.7172443913
 20
-33.3740986407
 30
0.0
  0
VERTEX
  8
0
 10
27.7525997303
 20
-33.4094539798
 30
0.0
  0
VERTEX
  8
0
 10
27.7879550694
 20
-33.4448093188
 30
0.0
  0
VERTEX
  8
0
 10
27.8233104084
 20
-33.4801646579
 30
0.0
  0
VERTEX
  8
0
 10
27.8586657475
 20
-33.515519997
 30
0.0
  0
VERTEX
  8
0
 10
27.8940210865
 20
-33.550875336
 30
0.0
  0
VERTEX
  8
0
 10
27.9293764256
 20
-33.5862306751
 30
0.0
  0
VERTEX
  8
0
 10
27.9647317647
 20
-33.6215860141
 30
0.0
  0
VERTEX
  8
0
 10
28.0000871037
 20
-33.6569413532
 30
0.0
  0
VERTEX
  8
0
 10
28.0354424428
 20
-33.6922966923
 30
0.0
  0
VERTEX
  8
0
 10
28.0707977818
 20
-33.7276520313
 30
0.0
  0
VERTEX
  8
0
 10
28.1061531209
 20
-33.7630073704
 30
0.0
  0
VERTEX
  8
0
 10
28.14150846
 20
-33.7983627094
 30
0.0
  0
VERTEX
  8
0
 10
28.176863799
 20
-33.8337180485
 30
0.0
  0
VERTEX
  8
0
 10
28.2122191381
 20
-33.8690733875
 30
0.0
  0
VERTEX
  8
0
 10
28.2475744771
 20
-33.9044287266
 30
0.0
  0
VERTEX
  8
0
 10
28.2829298162
 20
-33.9397840657
 30
0.0
  0
VERTEX
  8
0
 10
28.3182851553
 20
-33.9751394047
 30
0.0
  0
VERTEX
  8
0
 10
28.3536404943
 20
-34.0104947438
 30
0.0
  0
VERTEX
  8
0
 10
28.3889958334
 20
-34.0458500828
 30
0.0
  0
VERTEX
  8
0
 10
28.4243511724
 20
-34.0812054219
 30
0.0
  0
VERTEX
  8
0
 10
28.4597065115
 20
-34.116560761
 30
0.0
  0
VERTEX
  8
0
 10
28.4950618506
 20
-34.1519161
 30
0.0
  0
VERTEX
  8
0
 10
28.5298467938
 20
-34.1867010433
 30
0.0
  0
SEQEND
  8
0
  0
POLYLINE
  8
0
 62
0
 70
0
 66
1
 10
0.0
 20
0.0
 30
0.0
  0
VERTEX
  8
0
 10
-13.4350288426
 20
7.77817459306
 30
0.0
  0
VERTEX
  8
0
 10
-13.3996735035
 20
7.742819254
 30
0.0
  0
VERTEX
  8
0
 10
-13.3643181644
 20
7.70746391494
 30
0.0
  0
VERTEX
  8
0
 10
-13.3289628254
 20
7.67210857588
 30
0.0
  0
VERTEX
  8
0
 10
-13.2936074863
 20
7.63675323682
 30
0.0
  0
VERTEX
  8
0
 10
-13.2582521473
 20
7.60139789776
 30
0.0
  0
VERTEX
  8
0
 10
-13.2228968082
 20
7.5660425587
 30
0.0
  0
VERTEX
  8
0
 10
-13.1875414691
 20
7.53068721964
 30
0.0
  0
VERTEX
  8
0
 10
-13.1521861301
 20
7.49533188058
 30
0.0
  0
VERTEX
  8
0
 10
-13.116830791
 20
7.45997654152
 30
0.0
  0
VERTEX
  8
0
 10
-13.081475452
 20
7.42462120246
 30
0.0
  0
VERTEX
  8
0
 10
-13.0461201129
 20
7.38926586341
 30
0.0
  0
VERTEX
  8
0
 10
-13.0107647738
 20
7.35391052435
 30
0.0
  0
VERTEX
  8
0
 10
-12.9754094348
 20
7.31855518529
 30
0.0
  0
VERTEX
  8
0
 10
-12.9400540957
 20
7.28319984623
 30
0.0
  0
VERTEX
  8
0
 10
-12.9046987567
 20
7.24784450717
 30
0.0
  0
VERTEX
  8
0
 10
-12.8693434176
 20
7.21248916811
 30
0.0
  0
VERTEX
  8
0
 10
-12.8339880786
 20
7.17713382905
 30
0.0
  0
VERTEX
  8
0
 10
-12.7986327395
 20
7.14177848999
 30
0.0
  0
VERTEX
  8
0
 10
-12.7632774004
 20
7.10642315093
 30
0.0
  0
VERTEX
  8
0
 10
-12.7279220614
 20
7.07106781187
 30
0.0
  0
VERTEX
  8
0
 10
-12.6925667223
 20
7.03571247281
 30
0.0
  0
VERTEX
  8
0
 10
-12.6572113833
 20
7.00035713375
 30
0.0
  0
VERTEX
  8
0
 10
-12.6218560442
 20
6.96500179469
 30
0.0
  0
VERTEX
  8
0
 10
-12.5865007051
 20
6.92964645563
 30
0.0
  0
VERTEX
  8
0
 10
-12.5511453661
 20
6.89429111658
 30
0.0
  0
VERTEX
  8
0
 10
-12.515790027
 20
6.85893577752
 30
0.0
  0
VERTEX
  8
0
 10
-12.480434688
 20
6.82358043846
 30
0.0
  0
VERTEX
  8
0
 10
-12.4450793489
 20
6.7882250994
 30
0.0
  0
VERTEX
  8
0
 10
-12.4097240098
 20
6.75286976034
 30
0.0
  0
VERTEX
  8
0
 10
-12.3743686708
 20
6.71751442128
 30
0.0
  0
VERTEX
  8
0
 10
-12.3390133317
 20
6.68215908222
 30
0.0
  0
VERTEX
  8
0
 10
-12.3036579927
 20
6.64680374316
 30
0.0
  0
VERTEX
  8
0
 10
-12.2683026536
 20
6.6114484041
 30
0.0
  0
VERTEX
  8
0
 10
-12.2329473145
 20
6.57609306504
 30
0.0
  0
VERTEX
  8
0
 10
-12.1975919755
 20
6.54073772598
 30
0.0
  0
VERTEX
  8
0
 10
-12.1622366364
 20
6.50538238692
 30
0.0
  0
VERTEX
  8
0
 10
-12.1268812974
 20
6.47002704786
 30
0.0
  0
VERTEX
  8
0
 10
-12.0915259583
 20
6.4346717088
 30
0.0
  0
VERTEX
  8
0
 10
-12.0561706192
 20
6.39931636974
 30
0.0
  0
VERTEX
  8
0
 10
-12.0208152802
 20
6.36396103069
 30
0.0
  0
VERTEX
  8
0
 10
-11.9854599411
 20
6.32860569163
 30
0.0
  0
VERTEX
  8
0
 10
-11.9501046021
 20
6.29325035257
 30
0.0
  0
VERTEX
  8
0
 10
-11.914749263
 20
6.25789501351
 30
0.0
  0
VERTEX
  8
0
 10
-11.8793939239
 20
6.22253967445
 30
0.0
  0
VERTEX
  8
0
 10
-11.8440385849
 20
6.18718433539
 30
0.0
  0
VERTEX
  8
0
 10
-11.8086832458
 20
6.15182899633
 30
0.0
  0
VERTEX
  8
0
 10
-11.7733279068
 20
6.11647365727
 30
0.0
  0
VERTEX
  8
0
 10
-11.7379725677
 20
6.08111831821
 30
0.0
  0
VERTEX
  8
0
 10
-11.7026172287
 20
6.04576297915
 30
0.0
  0
VERTEX
  8
0
 10
-11.6672618896
 20
6.01040764009
 30
0.0
  0
VERTEX
  8
0
 10
-11.6319065505
 20
5.97505230103
 30
0.0
  0
VERTEX
  8
0
 10
-11.5965512115
 20
5.93969696197
 30
0.0
  0
VERTEX
  8
0
 10
-11.5611958724
 20
5.90434162291
 30
0.0
  0
VERTEX
  8
0
 10
-11.5258405334
 20
5.86898628385
 30
0.0
  0
VERTEX
  8
0
 10
-11.4904851943
 20
5.8336309448
 30
0.0
  0
VERTEX
  8
0
 10
-11.4551298552
 20
5.79827560574
 30
0.0
  0
VERTEX
  8
0
 10
-11.4197745162
 20
5.76292026668
 30
0.0
  0
VERTEX
  8
0
 10
-11.3844191771
 20
5.72756492762
 30
0.0
  0
VERTEX
  8
0
 10
-11.3490638381
 20
5.69220958856
 30
0.0
  0
VERTEX
  8
0
 10
-11.313708499
 20
5.6568542495
 30
0.0
  0
SEQEND
  8
0
  0
POLYLINE
  8
0
 62
0
 70
0
 66
1
 10
0.0
 20
0.0
 30
0.0
  0
VERTEX
  8
0
 10
-5.6568542495
 20
-1.90469862105e-12
 30
0.0
  0
VERTEX
  8
0
 10
-5.69220958856
 20
0.0353553390574
 30
0.0
  0
VERTEX
  8
0
 10
-5.72756492762
 20
0.0707106781168
 30
0.0
  0
VERTEX
  8
0
 10
-5.76292026667
 20
0.106066017176
 30
0.0
  0
VERTEX
  8
0
 10
-5.79827560573
 20
0.141421356235
 30
0.0
  0
VERTEX
  8
0
 10
-5.83363094479
 20
0.176776695295
 30
0.0
  0
VERTEX
  8
0
 10
-5.86898628385
 20
0.212132034354
 30
0.0
  0
VERTEX
  8
0
 10
-5.90434162291
 20
0.247487373413
 30
0.0
  0
VERTEX
  8
0
 10
-5.93969696197
 20
0.282842712473
 30
0.0
  0
VERTEX
  8
0
 10
-5.97505230103
 20
0.318198051532
 30
0.0
  0
VERTEX
  8
0
 10
-6.01040764009
 20
0.353553390592
 30
0.0
  0
VERTEX
  8
0
 10
-6.04576297915
 20
0.388908729651
 30
0.0
  0
VERTEX
  8
0
 10
-6.08111831821
 20
0.42426406871
 30
0.0
  0
VERTEX
  8
0
 10
-6.11647365727
 20
0.45961940777
 30
0.0
  0
VERTEX
  8
0
 10
-6.15182899633
 20
0.494974746829
 30
0.0
  0
VERTEX
  8
0
 10
-6.18718433539
 20
0.530330085888
 30
0.0
  0
VERTEX
  8
0
 10
-6.22253967445
 20
0.565685424948
 30
0.0
  0
VERTEX
  8
0
 10
-6.25789501351
 20
0.601040764007
 30
0.0
  0
VERTEX
  8
0
 10
-6.29325035256
 20
0.636396103066
 30
0.0
  0
VERTEX
  8
0
 10
-6.32860569162
 20
0.671751442126
 30
0.0
  0
VERTEX
  8
0
 10
-6.36396103068
 20
0.707106781185
 30
0.0
  0
VERTEX
  8
0
 10
-6.39931636974
 20
0.742462120244
 30
0.0
  0
VERTEX
  8
0
 10
-6.4346717088
 20
0.777817459304
 30
0.0
  0
VERTEX
  8
0
 10
-6.47002704786
 20
0.813172798363
 30
0.0
  0
VERTEX
  8
0
 10
-6.50538238692
 20
0.848528137422
 30
0.0
  0
VERTEX
  8
0
 10
-6.54073772598
 20
0.883883476482
 30
0.0
  0
VERTEX
  8
0
 10
-6.57609306504
 20
0.919238815541
 30
0.0
  0
VERTEX
  8
0
 10
-6.6114484041
 20
0.9545941546
 30
0.0
  0
VERTEX
  8
0
 10
-6.64680374316
 20
0.98994949366
 30
0.0
  0
VERTEX
  8
0
 10
-6.68215908222
 20
1.02530483272
 30
0.0
  0
VERTEX
  8
0
 10
-6.71751442128
 20
1.06066017178
 30
0.0
  0
VERTEX
  8
0
 10
-6.75286976034
 20
1.09601551084
 30
0.0
  0
VERTEX
  8
0
 10
-6.78822509939
 20
1.1313708499
 30
0.0
  0
VERTEX
  8
0
 10
-6.82358043845
 20
1.16672618896
 30
0.0
  0
VERTEX
  8
0
 10
-6.85893577751
 20
1.20208152802
 30
0.0
  0
VERTEX
  8
0
 10
-6.89429111657
 20
1.23743686708
 30
0.0
  0
VERTEX
  8
0
 10
-6.92964645563
 20
1.27279220613
 30
0.0
  0
VERTEX
  8
0
 10
-6.96500179469
 20
1.30814754519
 30
0.0
  0
VERTEX
  8
0
 10
-7.00035713375
 20
1.34350288425
 30
0.0
  0
VERTEX
  8
0
 10
-7.03571247281
 20
1.37885822331
 30
0.0
  0
VERTEX
  8
0
 10
-7.07106781187
 20
1.41421356237
 30
0.0
  0
VERTEX
  8
0
 10
-7.10642315093
 20
1.44956890143
 30
0.0
  0
VERTEX
  8
0
 10
-7.14177848999
 20
1.48492424049
 30
0.0
  0
VERTEX
  8
0
 10
-7.17713382905
 20
1.52027957955
 30
0.0
  0
VERTEX
  8
0
 10
-7.21248916811
 20
1.55563491861
 30
0.0
  0
VERTEX
  8
0
 10
-7.24784450717
 20
1.59099025767
 30
0.0
  0
VERTEX
  8
0
 10
-7.28319984623
 20
1.62634559673
 30
0.0
  0
VERTEX
  8
0
 10
-7.31855518528
 20
1.66170093579
 30
0.0
  0
VERTEX
  8
0
 10
-7.35391052434
 20
1.69705627485
 30
0.0
  0
VERTEX
  8
0
 10
-7.3892658634
 20
1.73241161391
 30
0.0
  0
VERTEX
  8
0
 10
-7.42462120246
 20
1.76776695297
 30
0.0
  0
VERTEX
  8
0
 10
-7.45997654152
 20
1.80312229202
 30
0.0
  0
VERTEX
  8
0
 10
-7.49533188058
 20
1.83847763108
 30
0.0
  0
VERTEX
  8
0
 10
-7.53068721964
 20
1.87383297014
 30
0.0
  0
VERTEX
  8
0
 10
-7.5660425587
 20
1.9091883092
 30
0.0
  0
VERTEX
  8
0
 10
-7.60139789776
 20
1.94454364826
 30
0.0
  0
VERTEX
  8
0
 10
-7.63675323682
 20
1.97989898732
 30
0.0
  0
VERTEX
  8
0
 10
-7.67210857588
 20
2.01525432638
 30
0.0
  0
VERTEX
  8
0
 10
-7.70746391494
 20
2.05060966544
 30
0.0
  0
VERTEX
  8
0
 10
-7.742819254
 20
2.0859650045
 30
0.0
  0
VERTEX
  8
0
 10
-7.77817459306
 20
2.12132034356
 30
0.0
  0
SEQEND
  8
0
  0
POLYLINE
  8
0
 62
0
 70
0
 66
1
 10
0.0
 20
0.0
 30
0.0
  0
VERTEX
  8
0
 10
30.9441993109
 20
-36.60105356
 30
0.0
  0
VERTEX
  8
0
 10
30.9795546499
 20
-36.5656982209
 30
0.0
  0
VERTEX
  8
0
 10
31.014909989
 20
-36.5303428819
 30
0.0
  0
VERTEX
  8
0
 10
31.050265328
 20
-36.4949875428
 30
0.0
  0
VERTEX
  8
0
 10
31.0856206671
 20
-36.4596322037
 30
0.0
  0
VERTEX
  8
0
 10
31.1209760062
 20
-36.4242768647
 30
0.0
  0
VERTEX
  8
0
 10
31.1563313452
 20
-36.3889215256
 30
0.0
  0
VERTEX
  8
0
 10
31.1916866843
 20
-36.3535661866
 30
0.0
  0
VERTEX
  8
0
 10
31.2217550826
 20
-36.3234977882
 30
0.0
  0
SEQEND
  8
0
  0
POLYLINE
  8
0
 62
0
 70
0
 66
1
 10
0.0
 20
0.0
 30
0.0
  0
VERTEX
  8
0
 10
31.2217550826
 20
-36.3234977882
 30
0.0
  0
VERTEX
  8
0
 10
31.1863997436
 20
-36.2881424491
 30
0.0
  0
VERTEX
  8
0
 10
31.1510444045
 20
-36.2527871101
 30
0.0
  0
VERTEX
  8
0
 10
31.1156890655
 20
-36.217431771
 30
0.0
  0
VERTEX
  8
0
 10
31.0803337264
 20
-36.182076432
 30
0.0
  0
VERTEX
  8
0
 10
31.0449783873
 20
-36.1467210929
 30
0.0
  0
VERTEX
  8
0
 10
31.0096230483
 20
-36.1113657538
 30
0.0
  0
VERTEX
  8
0
 10
30.9742677092
 20
-36.0760104148
 30
0.0
  0
VERTEX
  8
0
 10
30.9389123702
 20
-36.0406550757
 30
0.0
  0
VERTEX
  8
0
 10
30.9035570311
 20
-36.0052997367
 30
0.0
  0
VERTEX
  8
0
 10
30.868201692
 20
-35.9699443976
 30
0.0
  0
VERTEX
  8
0
 10
30.832846353
 20
-35.9345890585
 30
0.0
  0
VERTEX
  8
0
 10
30.7974910139
 20
-35.8992337195
 30
0.0
  0
VERTEX
  8
0
 10
30.7621356749
 20
-35.8638783804
 30
0.0
  0
VERTEX
  8
0
 10
30.7267803358
 20
-35.8285230414
 30
0.0
  0
VERTEX
  8
0
 10
30.6914249967
 20
-35.7931677023
 30
0.0
  0
VERTEX
  8
0
 10
30.6872325988
 20
-35.7889753044
 30
0.0
  0
SEQEND
  8
0
  0
POLYLINE
  8
0
 62
0
 70
0
 66
1
 10
0.0
 20
0.0
 30
0.0
  0
VERTEX
  8
0
 10
30.6872325988
 20
-32.0293152382
 30
0.0
  0
VERTEX
  8
0
 10
30.7225879379
 20
-31.9939598991
 30
0.0
  0
VERTEX
  8
0
 10
30.7579432769
 20
-31.95860456
 30
0.0
  0
VERTEX
  8
0
 10
30.793298616
 20
-31.923249221
 30
0.0
  0
VERTEX
  8
0
 10
30.828653955
 20
-31.8878938819
 30
0.0
  0
VERTEX
  8
0
 10
30.8640092941
 20
-31.8525385429
 30
0.0
  0
VERTEX
  8
0
 10
30.8993646332
 20
-31.8171832038
 30
0.0
  0
VERTEX
  8
0
 10
30.9347199722
 20
-31.7818278647
 30
0.0
  0
VERTEX
  8
0
 10
30.9700753113
 20
-31.7464725257
 30
0.0
  0
VERTEX
  8
0
 10
31.0054306503
 20
-31.7111171866
 30
0.0
  0
VERTEX
  8
0
 10
31.0407859894
 20
-31.6757618476
 30
0.0
  0
VERTEX
  8
0
 10
31.0761413284
 20
-31.6404065085
 30
0.0
  0
VERTEX
  8
0
 10
31.1114966675
 20
-31.6050511694
 30
0.0
  0
VERTEX
  8
0
 10
31.1468520066
 20
-31.5696958304
 30
0.0
  0
VERTEX
  8
0
 10
31.1822073456
 20
-31.5343404913
 30
0.0
  0
VERTEX
  8
0
 10
31.2175626847
 20
-31.4989851523
 30
0.0
  0
VERTEX
  8
0
 10
31.2529180237
 20
-31.4636298132
 30
0.0
  0
VERTEX
  8
0
 10
31.2882733628
 20
-31.4282744741
 30
0.0
  0
VERTEX
  8
0
 10
31.3236287019
 20
-31.3929191351
 30
0.0
  0
VERTEX
  8
0
 10
31.3582739185
 20
-31.3582739185
 30
0.0
  0
SEQEND
  8
0
  0
POLYLINE
  8
0
 62
0
 70
0
 66
1
 10
0.0
 20
0.0
 30
0.0
  0
VERTEX
  8
0
 10
29.5917874838
 20
-30.9338701232
 30
0.0
  0
VERTEX
  8
0
 10
29.6271428228
 20
-30.9692254622
 30
0.0
  0
VERTEX
  8
0
 10
29.6624981619
 20
-31.0045808013
 30
0.0
  0
VERTEX
  8
0
 10
29.6978535009
 20
-31.0399361403
 30
0.0
  0
VERTEX
  8
0
 10
29.73320884
 20
-31.0752914794
 30
0.0
  0
VERTEX
  8
0
 10
29.7685641791
 20
-31.1106468185
 30
0.0
  0
VERTEX
  8
0
 10
29.8039195181
 20
-31.1460021575
 30
0.0
  0
VERTEX
  8
0
 10
29.8392748572
 20
-31.1813574966
 30
0.0
  0
VERTEX
  8
0
 10
29.8746301962
 20
-31.2167128356
 30
0.0
  0
VERTEX
  8
0
 10
29.9099855353
 20
-31.2520681747
 30
0.0
  0
VERTEX
  8
0
 10
29.9453408744
 20
-31.2874235138
 30
0.0
  0
VERTEX
  8
0
 10
29.9806962134
 20
-31.3227788528
 30
0.0
  0
VERTEX
  8
0
 10
30.0160515525
 20
-31.3581341919
 30
0.0
  0
VERTEX
  8
0
 10
30.0514068915
 20
-31.3934895309
 30
0.0
  0
VERTEX
  8
0
 10
30.0867622306
 20
-31.42884487
 30
0.0
  0
VERTEX
  8
0
 10
30.1221175697
 20
-31.464200209
 30
0.0
  0
VERTEX
  8
0
 10
30.1574729087
 20
-31.4995555481
 30
0.0
  0
VERTEX
  8
0
 10
30.1928282478
 20
-31.5349108872
 30
0.0
  0
VERTEX
  8
0
 10
30.2281835868
 20
-31.5702662262
 30
0.0
  0
VERTEX
  8
0
 10
30.2635389259
 20
-31.6056215653
 30
0.0
  0
VERTEX
  8
0
 10
30.298894265
 20
-31.6409769043
 30
0.0
  0
VERTEX
  8
0
 10
30.334249604
 20
-31.6763322434
 30
0.0
  0
VERTEX
  8
0
 10
30.3696049431
 20
-31.7116875825
 30
0.0
  0
VERTEX
  8
0
 10
30.4049602821
 20
-31.7470429215
 30
0.0
  0
VERTEX
  8
0
 10
30.4403156212
 20
-31.7823982606
 30
0.0
  0
VERTEX
  8
0
 10
30.4756709603
 20
-31.8177535996
 30
0.0
  0
VERTEX
  8
0
 10
30.5110262993
 20
-31.8531089387
 30
0.0
  0
VERTEX
  8
0
 10
30.5463816384
 20
-31.8884642778
 30
0.0
  0
VERTEX
  8
0
 10
30.5817369774
 20
-31.9238196168
 30
0.0
  0
VERTEX
  8
0
 10
30.6170923165
 20
-31.9591749559
 30
0.0
  0
VERTEX
  8
0
 10
30.6524476556
 20
-31.9945302949
 30
0.0
  0
VERTEX
  8
0
 10
30.6872325988
 20
-32.0293152382
 30
0.0
  0
SEQEND
  8
0
  0
POLYLINE
  8
0
 62
0
 70
0
 66
1
 10
0.0
 20
0.0
 30
0.0
  0
VERTEX
  8
0
 10
29.5917874838
 20
-30.9338701232
 30
0.0
  0
VERTEX
  8
0
 10
29.6271428228
 20
-30.8985147841
 30
0.0
  0
VERTEX
  8
0
 10
29.6624981619
 20
-30.863159445
 30
0.0
  0
VERTEX
  8
0
 10
29.6978535009
 20
-30.827804106
 30
0.0
  0
VERTEX
  8
0
 10
29.73320884
 20
-30.7924487669
 30
0.0
  0
VERTEX
  8
0
 10
29.7685641791
 20
-30.7570934279
 30
0.0
  0
VERTEX
  8
0
 10
29.8039195181
 20
-30.7217380888
 30
0.0
  0
VERTEX
  8
0
 10
29.8392748572
 20
-30.6863827497
 30
0.0
  0
VERTEX
  8
0
 10
29.8746301962
 20
-30.6510274107
 30
0.0
  0
VERTEX
  8
0
 10
29.9099855353
 20
-30.6156720716
 30
0.0
  0
VERTEX
  8
0
 10
29.9453408744
 20
-30.5803167326
 30
0.0
  0
VERTEX
  8
0
 10
29.9806962134
 20
-30.5449613935
 30
0.0
  0
VERTEX
  8
0
 10
30.0160515525
 20
-30.5096060544
 30
0.0
  0
VERTEX
  8
0
 10
30.0514068915
 20
-30.4742507154
 30
0.0
  0
VERTEX
  8
0
 10
30.0867622306
 20
-30.4388953763
 30
0.0
  0
VERTEX
  8
0
 10
30.1221175696
 20
-30.4035400373
 30
0.0
  0
VERTEX
  8
0
 10
30.1574729087
 20
-30.3681846982
 30
0.0
  0
VERTEX
  8
0
 10
30.1928282478
 20
-30.3328293591
 30
0.0
  0
VERTEX
  8
0
 10
30.2281835868
 20
-30.2974740201
 30
0.0
  0
VERTEX
  8
0
 10
30.2628288035
 20
-30.2628288035
 30
0.0
  0
SEQEND
  8
0
  0
POLYLINE
  8
0
 62
0
 70
0
 66
1
 10
0.0
 20
0.0
 30
0.0
  0
VERTEX
  8
0
 10
27.4344016791
 20
-33.091255928
 30
0.0
  0
VERTEX
  8
0
 10
27.4697570181
 20
-33.0559005889
 30
0.0
  0
VERTEX
  8
0
 10
27.5051123572
 20
-33.0205452498
 30
0.0
  0
VERTEX
  8
0
 10
27.5404676962
 20
-32.9851899108
 30
0.0
  0
VERTEX
  8
0
 10
27.5758230353
 20
-32.9498345717
 30
0.0
  0
VERTEX
  8
0
 10
27.6111783743
 20
-32.9144792327
 30
0.0
  0
VERTEX
  8
0
 10
27.6465337134
 20
-32.8791238936
 30
0.0
  0
VERTEX
  8
0
 10
27.6818890525
 20
-32.8437685545
 30
0.0
  0
VERTEX
  8
0
 10
27.7172443915
 20
-32.8084132155
 30
0.0
  0
VERTEX
  8
0
 10
27.7525997306
 20
-32.7730578764
 30
0.0
  0
VERTEX
  8
0
 10
27.7879550696
 20
-32.7377025374
 30
0.0
  0
VERTEX
  8
0
 10
27.8233104087
 20
-32.7023471983
 30
0.0
  0
VERTEX
  8
0
 10
27.8586657478
 20
-32.6669918592
 30
0.0
  0
VERTEX
  8
0
 10
27.8940210868
 20
-32.6316365202
 30
0.0
  0
VERTEX
  8
0
 10
27.9293764259
 20
-32.5962811811
 30
0.0
  0
VERTEX
  8
0
 10
27.9647317649
 20
-32.5609258421
 30
0.0
  0
VERTEX
  8
0
 10
28.000087104
 20
-32.525570503
 30
0.0
  0
VERTEX
  8
0
 10
28.0354424431
 20
-32.4902151639
 30
0.0
  0
VERTEX
  8
0
 10
28.0707977821
 20
-32.4548598249
 30
0.0
  0
VERTEX
  8
0
 10
28.1061531212
 20
-32.4195044858
 30
0.0
  0
VERTEX
  8
0
 10
28.1415084602
 20
-32.3841491468
 30
0.0
  0
VERTEX
  8
0
 10
28.1768637993
 20
-32.3487938077
 30
0.0
  0
VERTEX
  8
0
 10
28.2122191383
 20
-32.3134384686
 30
0.0
  0
VERTEX
  8
0
 10
28.2475744774
 20
-32.2780831296
 30
0.0
  0
VERTEX
  8
0
 10
28.2829298165
 20
-32.2427277905
 30
0.0
  0
VERTEX
  8
0
 10
28.3182851555
 20
-32.2073724515
 30
0.0
  0
VERTEX
  8
0
 10
28.3536404946
 20
-32.1720171124
 30
0.0
  0
VERTEX
  8
0
 10
28.3889958336
 20
-32.1366617733
 30
0.0
  0
VERTEX
  8
0
 10
28.4243511727
 20
-32.1013064343
 30
0.0
  0
VERTEX
  8
0
 10
28.4597065118
 20
-32.0659510952
 30
0.0
  0
VERTEX
  8
0
 10
28.4950618508
 20
-32.0305957562
 30
0.0
  0
VERTEX
  8
0
 10
28.5304171899
 20
-31.9952404171
 30
0.0
  0
VERTEX
  8
0
 10
28.5657725289
 20
-31.959885078
 30
0.0
  0
VERTEX
  8
0
 10
28.601127868
 20
-31.924529739
 30
0.0
  0
VERTEX
  8
0
 10
28.636483207
 20
-31.8891743999
 30
0.0
  0
VERTEX
  8
0
 10
28.6718385461
 20
-31.8538190609
 30
0.0
  0
VERTEX
  8
0
 10
28.7071938852
 20
-31.8184637218
 30
0.0
  0
VERTEX
  8
0
 10
28.7425492242
 20
-31.7831083827
 30
0.0
  0
VERTEX
  8
0
 10
28.7779045633
 20
-31.7477530437
 30
0.0
  0
VERTEX
  8
0
 10
28.8132599023
 20
-31.7123977046
 30
0.0
  0
VERTEX
  8
0
 10
28.8486152414
 20
-31.6770423656
 30
0.0
  0
VERTEX
  8
0
 10
28.8839705805
 20
-31.6416870265
 30
0.0
  0
VERTEX
  8
0
 10
28.9193259195
 20
-31.6063316874
 30
0.0
  0
VERTEX
  8
0
 10
28.9546812586
 20
-31.5709763484
 30
0.0
  0
VERTEX
  8
0
 10
28.9900365976
 20
-31.5356210093
 30
0.0
  0
VERTEX
  8
0
 10
29.0253919367
 20
-31.5002656703
 30
0.0
  0
VERTEX
  8
0
 10
29.0607472758
 20
-31.4649103312
 30
0.0
  0
VERTEX
  8
0
 10
29.0961026148
 20
-31.4295549921
 30
0.0
  0
VERTEX
  8
0
 10
29.1314579539
 20
-31.3941996531
 30
0.0
  0
VERTEX
  8
0
 10
29.1668132929
 20
-31.358844314
 30
0.0
  0
VERTEX
  8
0
 10
29.202168632
 20
-31.323488975
 30
0.0
  0
VERTEX
  8
0
 10
29.237523971
 20
-31.2881336359
 30
0.0
  0
VERTEX
  8
0
 10
29.2728793101
 20
-31.2527782968
 30
0.0
  0
VERTEX
  8
0
 10
29.3082346492
 20
-31.2174229578
 30
0.0
  0
VERTEX
  8
0
 10
29.3435899882
 20
-31.1820676187
 30
0.0
  0
VERTEX
  8
0
 10
29.3789453273
 20
-31.1467122797
 30
0.0
  0
VERTEX
  8
0
 10
29.4143006663
 20
-31.1113569406
 30
0.0
  0
VERTEX
  8
0
 10
29.4496560054
 20
-31.0760016015
 30
0.0
  0
VERTEX
  8
0
 10
29.4850113445
 20
-31.0406462625
 30
0.0
  0
VERTEX
  8
0
 10
29.5203666835
 20
-31.0052909234
 30
0.0
  0
VERTEX
  8
0
 10
29.5557220226
 20
-30.9699355844
 30
0.0
  0
VERTEX
  8
0
 10
29.5910773616
 20
-30.9345802453
 30
0.0
  0
VERTEX
  8
0
 10
29.5917874838
 20
-30.9338701232
 30
0.0
  0
SEQEND
  8
0
  0
POLYLINE
  8
0
 62
0
 70
0
 66
1
 10
0.0
 20
0.0
 30
0.0
  0
VERTEX
  8
0
 10
30.409676827
 20
-36.0665310762
 30
0.0
  0
VERTEX
  8
0
 10
30.4450321661
 20
-36.0311757371
 30
0.0
  0
VERTEX
  8
0
 10
30.4803875051
 20
-35.995820398
 30
0.0
  0
VERTEX
  8
0
 10
30.5157428442
 20
-35.960465059
 30
0.0
  0
VERTEX
  8
0
 10
30.5510981833
 20
-35.9251097199
 30
0.0
  0
VERTEX
  8
0
 10
30.5864535223
 20
-35.8897543809
 30
0.0
  0
VERTEX
  8
0
 10
30.6218088614
 20
-35.8543990418
 30
0.0
  0
VERTEX
  8
0
 10
30.6571642004
 20
-35.8190437027
 30
0.0
  0
VERTEX
  8
0
 10
30.6872325988
 20
-35.7889753044
 30
0.0
  0
SEQEND
  8
0
  0
POLYLINE
  8
0
 62
0
 70
0
 66
1
 10
0.0
 20
0.0
 30
0.0
  0
VERTEX
  8
0
 10
28.5298467941
 20
-34.186701043
 30
0.0
  0
VERTEX
  8
0
 10
28.5652021331
 20
-34.1513457039
 30
0.0
  0
VERTEX
  8
0
 10
28.6005574722
 20
-34.1159903648
 30
0.0
  0
VERTEX
  8
0
 10
28.6359128113
 20
-34.0806350258
 30
0.0
  0
VERTEX
  8
0
 10
28.6712681503
 20
-34.0452796867
 30
0.0
  0
VERTEX
  8
0
 10
28.7066234894
 20
-34.0099243477
 30
0.0
  0
VERTEX
  8
0
 10
28.7419788284
 20
-33.9745690086
 30
0.0
  0
VERTEX
  8
0
 10
28.7773341675
 20
-33.9392136695
 30
0.0
  0
VERTEX
  8
0
 10
28.8126895066
 20
-33.9038583305
 30
0.0
  0
VERTEX
  8
0
 10
28.8480448456
 20
-33.8685029914
 30
0.0
  0
VERTEX
  8
0
 10
28.8834001847
 20
-33.8331476524
 30
0.0
  0
VERTEX
  8
0
 10
28.9187555237
 20
-33.7977923133
 30
0.0
  0
VERTEX
  8
0
 10
28.9541108628
 20
-33.7624369742
 30
0.0
  0
VERTEX
  8
0
 10
28.9894662018
 20
-33.7270816352
 30
0.0
  0
VERTEX
  8
0
 10
29.0248215409
 20
-33.6917262961
 30
0.0
  0
VERTEX
  8
0
 10
29.06017688
 20
-33.6563709571
 30
0.0
  0
VERTEX
  8
0
 10
29.095532219
 20
-33.621015618
 30
0.0
  0
VERTEX
  8
0
 10
29.1308875581
 20
-33.5856602789
 30
0.0
  0
VERTEX
  8
0
 10
29.1662428971
 20
-33.5503049399
 30
0.0
  0
VERTEX
  8
0
 10
29.2015982362
 20
-33.5149496008
 30
0.0
  0
VERTEX
  8
0
 10
29.2369535753
 20
-33.4795942618
 30
0.0
  0
VERTEX
  8
0
 10
29.2723089143
 20
-33.4442389227
 30
0.0
  0
VERTEX
  8
0
 10
29.3076642534
 20
-33.4088835836
 30
0.0
  0
VERTEX
  8
0
 10
29.3430195924
 20
-33.3735282446
 30
0.0
  0
VERTEX
  8
0
 10
29.3783749315
 20
-33.3381729055
 30
0.0
  0
VERTEX
  8
0
 10
29.4137302706
 20
-33.3028175665
 30
0.0
  0
VERTEX
  8
0
 10
29.4490856096
 20
-33.2674622274
 30
0.0
  0
VERTEX
  8
0
 10
29.4844409487
 20
-33.2321068883
 30
0.0
  0
VERTEX
  8
0
 10
29.5197962877
 20
-33.1967515493
 30
0.0
  0
VERTEX
  8
0
 10
29.5551516268
 20
-33.1613962102
 30
0.0
  0
VERTEX
  8
0
 10
29.5905069658
 20
-33.1260408712
 30
0.0
  0
VERTEX
  8
0
 10
29.6258623049
 20
-33.0906855321
 30
0.0
  0
VERTEX
  8
0
 10
29.661217644
 20
-33.055330193
 30
0.0
  0
VERTEX
  8
0
 10
29.696572983
 20
-33.019974854
 30
0.0
  0
VERTEX
  8
0
 10
29.7319283221
 20
-32.9846195149
 30
0.0
  0
VERTEX
  8
0
 10
29.7672836611
 20
-32.9492641759
 30
0.0
  0
VERTEX
  8
0
 10
29.8026390002
 20
-32.9139088368
 30
0.0
  0
VERTEX
  8
0
 10
29.8379943393
 20
-32.8785534977
 30
0.0
  0
VERTEX
  8
0
 10
29.8733496783
 20
-32.8431981587
 30
0.0
  0
VERTEX
  8
0
 10
29.9087050174
 20
-32.8078428196
 30
0.0
  0
VERTEX
  8
0
 10
29.9440603564
 20
-32.7724874806
 30
0.0
  0
VERTEX
  8
0
 10
29.9794156955
 20
-32.7371321415
 30
0.0
  0
VERTEX
  8
0
 10
30.0147710346
 20
-32.7017768024
 30
0.0
  0
VERTEX
  8
0
 10
30.0501263736
 20
-32.6664214634
 30
0.0
  0
VERTEX
  8
0
 10
30.0854817127
 20
-32.6310661243
 30
0.0
  0
VERTEX
  8
0
 10
30.1208370517
 20
-32.5957107853
 30
0.0
  0
VERTEX
  8
0
 10
30.1561923908
 20
-32.5603554462
 30
0.0
  0
VERTEX
  8
0
 10
30.1915477298
 20
-32.5250001071
 30
0.0
  0
VERTEX
  8
0
 10
30.2269030689
 20
-32.4896447681
 30
0.0
  0
VERTEX
  8
0
 10
30.262258408
 20
-32.454289429
 30
0.0
  0
VERTEX
  8
0
 10
30.297613747
 20
-32.41893409
 30
0.0
  0
VERTEX
  8
0
 10
30.3329690861
 20
-32.3835787509
 30
0.0
  0
VERTEX
  8
0
 10
30.3683244251
 20
-32.3482234118
 30
0.0
  0
VERTEX
  8
0
 10
30.4036797642
 20
-32.3128680728
 30
0.0
  0
VERTEX
  8
0
 10
30.4390351033
 20
-32.2775127337
 30
0.0
  0
VERTEX
  8
0
 10
30.4743904423
 20
-32.2421573947
 30
0.0
  0
VERTEX
  8
0
 10
30.5097457814
 20
-32.2068020556
 30
0.0
  0
VERTEX
  8
0
 10
30.5451011204
 20
-32.1714467165
 30
0.0
  0
VERTEX
  8
0
 10
30.5804564595
 20
-32.1360913775
 30
0.0
  0
VERTEX
  8
0
 10
30.6158117985
 20
-32.1007360384
 30
0.0
  0
VERTEX
  8
0
 10
30.6511671376
 20
-32.0653806994
 30
0.0
  0
VERTEX
  8
0
 10
30.6865224767
 20
-32.0300253603
 30
0.0
  0
VERTEX
  8
0
 10
30.6872325988
 20
-32.0293152382
 30
0.0
  0
SEQEND
  8
0
  0
LINE
  8
0
 62
0
 10
33.7726264358
 20
-33.772626435
 30
0.0
 11
38.1107481848
 21
-38.1107481839
 31
0.0
  0
LINE
  8
0
 62
0
 10
38.5781073441
 20
-38.5781073441
 30
0.0
 11
47.3761543395
 21
-47.3761543395
 31
0.0
  0
LINE
  8
0
 62
0
 10
31.3582739185
 20
-31.3582739185
 30
0.0
 11
33.2381039516
 21
-33.2381039515
 31
0.0
  0
LINE
  8
0
 62
0
 10
30.2628288037
 20
-30.2628288036
 30
0.0
 11
11.1165788697
 21
-11.1165788697
 31
0.0
  0
LINE
  8
0
 62
0
 10
2.12132034356
 20
-2.12132034356
 30
0.0
 11
9.47341119708
 21
-9.47341119707
 31
0.0
  0
LINE
  8
0
 62
0
 10
30.9441993107
 20
-36.6010535602
 30
0.0
 11
35.2823210597
 21
-40.9391753092
 31
0.0
  0
LINE
  8
0
 62
0
 10
44.5477272153
 20
-50.2045814637
 30
0.0
 11
35.7496802198
 21
-41.4065344685
 31
0.0
  0
LINE
  8
0
 62
0
 10
49.4974746831
 20
-49.497474683
 30
0.0
 11
46.6690475583
 21
-52.3259018078
 31
0.0
  0
LINE
  8
0
 62
0
 10
30.6872325988
 20
-32.0293152382
 30
0.0
 11
30.6872325988
 21
-35.7889753044
 31
0.0
  0
LINE
  8
0
 62
0
 10
49.4974746831
 20
-49.497474683
 30
0.0
 11
46.6690475583
 21
-52.3259018078
 31
0.0
  0
LINE
  8
0
 62
0
 10
27.4344016791
 20
-33.091255928
 30
0.0
 11
8.28815174495
 21
-13.9450059944
 31
0.0
  0
LINE
  8
0
 62
0
 10
-2.82842712472
 20
2.82842712477
 30
0.0
 11
-2.22044604925e-15
 21
2.22044604925e-15
 31
0.0
  0
LINE
  8
0
 62
0
 10
-8.48528137418
 20
8.48528137432
 30
0.0
 11
-4.94974746827
 21
4.94974746834
 31
0.0
  0
LINE
  8
0
 62
0
 10
6.64498407239
 20
-12.3018383219
 30
0.0
 11
-0.707106781163
 21
-4.94974746833
 31
0.0
  0
LINE
  8
0
 62
0
 10
-2.22044604927e-15
 20
2.22044604923e-15
 30
0.0
 11
-2.82842712472
 21
-2.82842712477
 31
0.0
  0
LINE
  8
0
 62
0
 10
30.4096768272
 20
-36.066531076
 30
0.0
 11
28.5298467941
 21
-34.186701043
 31
0.0
  0
LINE
  8
0
 62
0
 10
-7.77817459306
 20
2.12132034356
 30
0.0
 11
-11.313708499
 21
5.6568542495
 31
0.0
  0
LINE
  8
0
 62
0
 10
-2.82842712472
 20
-2.82842712477
 30
0.0
 11
-5.65685424949
 21
-2.22044604925e-15
 31
0.0
  0
LINE
  8
0
 62
0
 10
-13.4350288426
 20
7.77817459306
 30
0.0
 11
-10.6066017177
 21
10.6066017179
 31
0.0
  0
LINE
  8
0
 62
0
 10
-5.65685424949
 20
-2.35051676736e-15
 30
0.0
 11
-2.82842712472
 21
2.82842712477
 31
0.0
  0
LINE
  8
0
 62
0
 10
35.7496802194
 20
-41.4065344689
 30
0.0
 11
38.5781073441
 21
-38.5781073441
 31
0.0
  0
LINE
  8
0
 62
0
 10
31.2217550826
 20
-36.3234977882
 30
0.0
 11
33.7726264354
 21
-33.7726264354
 31
0.0
  0
LINE
  8
0
 62
0
 10
47.3761543395
 20
-47.3761543395
 30
0.0
 11
44.5477272148
 21
-50.2045814642
 31
0.0
  0
LINE
  8
0
 62
0
 10
30.6872325988
 20
-35.7889753044
 30
0.0
 11
33.2381039516
 21
-33.2381039515
 31
0.0
  0
LINE
  8
0
 62
0
 10
8.28815174491
 20
-13.9450059944
 30
0.0
 11
11.1165788696
 21
-11.1165788696
 31
0.0
  0
LINE
  8
0
 62
0
 10
6.64498407239
 20
-12.3018383219
 30
0.0
 11
9.47341119708
 21
-9.47341119707
 31
0.0
  0
LINE
  8
0
 62
0
 10
2.12132034356
 20
-2.12132034356
 30
0.0
 11
-0.707106781163
 21
-4.94974746833
 31
0.0
  0
LINE
  8
0
 62
0
 10
-11.313708499
 20
5.6568542495
 30
0.0
 11
-8.48528137418
 21
8.48528137432
 31
0.0
  0
LINE
  8
0
 62
0
 10
-7.77817459306
 20
2.12132034356
 30
0.0
 11
-4.94974746827
 21
4.94974746834
 31
0.0
  0
LINE
  8
0
 62
0
 10
33.6283598758
 20
-39.2852141254
 30
0.0
 11
36.4567870005
 21
-36.4567870006
 31
0.0
  0
ENDBLK
  0
ENDSEC
  0
SECTION
  2
ENTITIES
  0
INSERT
  2
FILLET003
  8
0
 62
0
 10
0.0
 20
0.0
 30
0.0
  0
ENDSEC
  0
EOF
