  0
SECTION
  2
HEADER
  9
$ACADVER
  1
AC1009
  9
$INSBASE
 10
0.0
 20
0.0
 30
0.0
  9
$EXTMIN
 10
0.0
 20
0.0
 30
0.0
  9
$EXTMAX
 10
0.0
 20
0.0
 30
0.0
  0
ENDSEC
  0
SECTION
  2
TABLES
  0
TABLE
  2
VPORT
 70
0
  0
ENDTAB
  0
TABLE
  2
LTYPE
 70
1
  0
LTYPE
  2
CONTINUOUS
 70
0
  3
Solid line
 72
65
 73
0
 40
0.0
  0
ENDTAB
  0
TABLE
  2
LAYER
 70
1
  0
LAYER
  2
0
 70
64
 62
7
  6
continuous
  0
ENDTAB
  0
TABLE
  2
STYLE
 70
1
  0
STYLE
  2
STANDARD
 70
0
 40
0
 41
1.0
 50
0.0
 71
0
 42
1
 3
ARIAL.TTF
 4

  0
ENDTAB
  0
TABLE
  2
VIEW
 70
0
  0
ENDTAB
  0
ENDSEC
  0
SECTION
  2
BLOCKS
  0
BLOCK
  8
0
  2
SKETCH
 70
0
 10
0.0
 20
0.0
 30
0.0
  3
SKETCH
  0
POLYLINE
  8
0
 62
7
 70
0
 66
1
 10
0.0
 20
0.0
 30
0.0
  0
VERTEX
  8
0
 10
-541.1116675
 20
89.8843297442
 30
0.0
  0
VERTEX
  8
0
 10
-541.161656327
 20
89.8832729099
 30
0.0
  0
VERTEX
  8
0
 10
-541.211643852
 20
89.8821562034
 30
0.0
  0
VERTEX
  8
0
 10
-541.261630004
 20
89.8809796263
 30
0.0
  0
VERTEX
  8
0
 10
-541.311614711
 20
89.8797431801
 30
0.0
  0
VERTEX
  8
0
 10
-541.361597901
 20
89.8784468669
 30
0.0
  0
VERTEX
  8
0
 10
-541.411579502
 20
89.8770906882
 30
0.0
  0
VERTEX
  8
0
 10
-541.461559443
 20
89.8756746463
 30
0.0
  0
VERTEX
  8
0
 10
-541.511537653
 20
89.8741987429
 30
0.0
  0
VERTEX
  8
0
 10
-541.561514058
 20
89.8726629803
 30
0.0
  0
VERTEX
  8
0
 10
-541.611488589
 20
89.8710673607
 30
0.0
  0
VERTEX
  8
0
 10
-541.661461172
 20
89.8694118864
 30
0.0
  0
VERTEX
  8
0
 10
-541.711431737
 20
89.8676965597
 30
0.0
  0
VERTEX
  8
0
 10
-541.761400212
 20
89.8659213831
 30
0.0
  0
VERTEX
  8
0
 10
-541.811366524
 20
89.8640863592
 30
0.0
  0
VERTEX
  8
0
 10
-541.861330603
 20
89.8621914905
 30
0.0
  0
VERTEX
  8
0
 10
-541.911292377
 20
89.8602367798
 30
0.0
  0
VERTEX
  8
0
 10
-541.961251773
 20
89.8582222299
 30
0.0
  0
VERTEX
  8
0
 10
-542.011208721
 20
89.8561478437
 30
0.0
  0
VERTEX
  8
0
 10
-542.061163148
 20
89.8540136242
 30
0.0
  0
VERTEX
  8
0
 10
-542.111114983
 20
89.8518195744
 30
0.0
  0
VERTEX
  8
0
 10
-542.161064155
 20
89.8495656975
 30
0.0
  0
VERTEX
  8
0
 10
-542.211010591
 20
89.8472519967
 30
0.0
  0
VERTEX
  8
0
 10
-542.26095422
 20
89.8448784753
 30
0.0
  0
VERTEX
  8
0
 10
-542.310894971
 20
89.8424451367
 30
0.0
  0
VERTEX
  8
0
 10
-542.360832771
 20
89.8399519845
 30
0.0
  0
VERTEX
  8
0
 10
-542.410767549
 20
89.8373990221
 30
0.0
  0
VERTEX
  8
0
 10
-542.460699234
 20
89.8347862533
 30
0.0
  0
VERTEX
  8
0
 10
-542.510627754
 20
89.8321136819
 30
0.0
  0
VERTEX
  8
0
 10
-542.560553036
 20
89.8293813115
 30
0.0
  0
VERTEX
  8
0
 10
-542.610475011
 20
89.8265891463
 30
0.0
  0
VERTEX
  8
0
 10
-542.660393605
 20
89.8237371901
 30
0.0
  0
VERTEX
  8
0
 10
-542.710308747
 20
89.8208254471
 30
0.0
  0
VERTEX
  8
0
 10
-542.760220367
 20
89.8178539214
 30
0.0
  0
VERTEX
  8
0
 10
-542.810128391
 20
89.8148226173
 30
0.0
  0
VERTEX
  8
0
 10
-542.860032749
 20
89.8117315391
 30
0.0
  0
VERTEX
  8
0
 10
-542.909933369
 20
89.8085806913
 30
0.0
  0
VERTEX
  8
0
 10
-542.959830179
 20
89.8053700785
 30
0.0
  0
VERTEX
  8
0
 10
-543.009723108
 20
89.8020997051
 30
0.0
  0
VERTEX
  8
0
 10
-543.059612084
 20
89.798769576
 30
0.0
  0
VERTEX
  8
0
 10
-543.109497036
 20
89.7953796958
 30
0.0
  0
VERTEX
  8
0
 10
-543.159377892
 20
89.7919300695
 30
0.0
  0
VERTEX
  8
0
 10
-543.20925458
 20
89.7884207019
 30
0.0
  0
VERTEX
  8
0
 10
-543.259127029
 20
89.7848515982
 30
0.0
  0
VERTEX
  8
0
 10
-543.308995168
 20
89.7812227634
 30
0.0
  0
VERTEX
  8
0
 10
-543.358858925
 20
89.7775342028
 30
0.0
  0
VERTEX
  8
0
 10
-543.408718228
 20
89.7737859216
 30
0.0
  0
VERTEX
  8
0
 10
-543.458573005
 20
89.7699779252
 30
0.0
  0
VERTEX
  8
0
 10
-543.508423186
 20
89.7661102191
 30
0.0
  0
VERTEX
  8
0
 10
-543.558268699
 20
89.7621828088
 30
0.0
  0
VERTEX
  8
0
 10
-543.608109472
 20
89.7581957
 30
0.0
  0
VERTEX
  8
0
 10
-543.657945434
 20
89.7541488984
 30
0.0
  0
VERTEX
  8
0
 10
-543.707776513
 20
89.7500424098
 30
0.0
  0
VERTEX
  8
0
 10
-543.757602638
 20
89.74587624
 30
0.0
  0
VERTEX
  8
0
 10
-543.807423738
 20
89.7416503951
 30
0.0
  0
VERTEX
  8
0
 10
-543.85723974
 20
89.7373648811
 30
0.0
  0
VERTEX
  8
0
 10
-543.907050573
 20
89.7330197042
 30
0.0
  0
VERTEX
  8
0
 10
-543.956856167
 20
89.7286148706
 30
0.0
  0
VERTEX
  8
0
 10
-544.006656449
 20
89.7241503866
 30
0.0
  0
VERTEX
  8
0
 10
-544.056451348
 20
89.7196262586
 30
0.0
  0
VERTEX
  8
0
 10
-544.106240792
 20
89.7150424932
 30
0.0
  0
VERTEX
  8
0
 10
-544.156024711
 20
89.7103990968
 30
0.0
  0
VERTEX
  8
0
 10
-544.205803033
 20
89.7056960762
 30
0.0
  0
VERTEX
  8
0
 10
-544.255575686
 20
89.700933438
 30
0.0
  0
VERTEX
  8
0
 10
-544.305342599
 20
89.6961111892
 30
0.0
  0
VERTEX
  8
0
 10
-544.3551037
 20
89.6912293367
 30
0.0
  0
VERTEX
  8
0
 10
-544.404858919
 20
89.6862878874
 30
0.0
  0
VERTEX
  8
0
 10
-544.454608183
 20
89.6812868484
 30
0.0
  0
VERTEX
  8
0
 10
-544.504351422
 20
89.676226227
 30
0.0
  0
VERTEX
  8
0
 10
-544.554088564
 20
89.6711060303
 30
0.0
  0
VERTEX
  8
0
 10
-544.603819538
 20
89.6659262657
 30
0.0
  0
VERTEX
  8
0
 10
-544.653544272
 20
89.6606869407
 30
0.0
  0
VERTEX
  8
0
 10
-544.703262695
 20
89.6553880627
 30
0.0
  0
VERTEX
  8
0
 10
-544.752974735
 20
89.6500296394
 30
0.0
  0
VERTEX
  8
0
 10
-544.802680323
 20
89.6446116785
 30
0.0
  0
VERTEX
  8
0
 10
-544.852379385
 20
89.6391341877
 30
0.0
  0
VERTEX
  8
0
 10
-544.902071851
 20
89.6335971749
 30
0.0
  0
VERTEX
  8
0
 10
-544.95175765
 20
89.628000648
 30
0.0
  0
VERTEX
  8
0
 10
-545.00143671
 20
89.622344615
 30
0.0
  0
VERTEX
  8
0
 10
-545.05110896
 20
89.6166290841
 30
0.0
  0
VERTEX
  8
0
 10
-545.100774328
 20
89.6108540635
 30
0.0
  0
VERTEX
  8
0
 10
-545.150432744
 20
89.6050195615
 30
0.0
  0
VERTEX
  8
0
 10
-545.200084137
 20
89.5991255863
 30
0.0
  0
VERTEX
  8
0
 10
-545.249728434
 20
89.5931721465
 30
0.0
  0
VERTEX
  8
0
 10
-545.299365565
 20
89.5871592507
 30
0.0
  0
VERTEX
  8
0
 10
-545.348995459
 20
89.5810869074
 30
0.0
  0
VERTEX
  8
0
 10
-545.398618044
 20
89.5749551254
 30
0.0
  0
VERTEX
  8
0
 10
-545.448233249
 20
89.5687639134
 30
0.0
  0
VERTEX
  8
0
 10
-545.497841003
 20
89.5625132803
 30
0.0
  0
VERTEX
  8
0
 10
-545.547441235
 20
89.5562032351
 30
0.0
  0
VERTEX
  8
0
 10
-545.597033874
 20
89.5498337869
 30
0.0
  0
VERTEX
  8
0
 10
-545.646618849
 20
89.5434049448
 30
0.0
  0
VERTEX
  8
0
 10
-545.696196088
 20
89.536916718
 30
0.0
  0
VERTEX
  8
0
 10
-545.74576552
 20
89.5303691158
 30
0.0
  0
VERTEX
  8
0
 10
-545.795327074
 20
89.5237621476
 30
0.0
  0
VERTEX
  8
0
 10
-545.84488068
 20
89.5170958229
 30
0.0
  0
VERTEX
  8
0
 10
-545.894426265
 20
89.5103701513
 30
0.0
  0
VERTEX
  8
0
 10
-545.94396376
 20
89.5035851423
 30
0.0
  0
VERTEX
  8
0
 10
-545.993493092
 20
89.4967408058
 30
0.0
  0
VERTEX
  8
0
 10
-546.043014191
 20
89.4898371516
 30
0.0
  0
VERTEX
  8
0
 10
-546.092526986
 20
89.4828741895
 30
0.0
  0
VERTEX
  8
0
 10
-546.142031406
 20
89.4758519295
 30
0.0
  0
VERTEX
  8
0
 10
-546.191527379
 20
89.4687703818
 30
0.0
  0
VERTEX
  8
0
 10
-546.241014835
 20
89.4616295564
 30
0.0
  0
VERTEX
  8
0
 10
-546.290493703
 20
89.4544294637
 30
0.0
  0
VERTEX
  8
0
 10
-546.339963912
 20
89.4471701139
 30
0.0
  0
VERTEX
  8
0
 10
-546.38942539
 20
89.4398515175
 30
0.0
  0
VERTEX
  8
0
 10
-546.438878067
 20
89.432473685
 30
0.0
  0
VERTEX
  8
0
 10
-546.488321873
 20
89.4250366269
 30
0.0
  0
VERTEX
  8
0
 10
-546.537756735
 20
89.4175403539
 30
0.0
  0
VERTEX
  8
0
 10
-546.587182583
 20
89.4099848768
 30
0.0
  0
VERTEX
  8
0
 10
-546.636599346
 20
89.4023702064
 30
0.0
  0
VERTEX
  8
0
 10
-546.686006954
 20
89.3946963536
 30
0.0
  0
VERTEX
  8
0
 10
-546.735405335
 20
89.3869633295
 30
0.0
  0
VERTEX
  8
0
 10
-546.784794418
 20
89.3791711451
 30
0.0
  0
VERTEX
  8
0
 10
-546.834174133
 20
89.3713198116
 30
0.0
  0
VERTEX
  8
0
 10
-546.883544409
 20
89.3634093403
 30
0.0
  0
VERTEX
  8
0
 10
-546.932905175
 20
89.3554397425
 30
0.0
  0
VERTEX
  8
0
 10
-546.98225636
 20
89.3474110297
 30
0.0
  0
VERTEX
  8
0
 10
-547.031597894
 20
89.3393232133
 30
0.0
  0
VERTEX
  8
0
 10
-547.080929705
 20
89.331176305
 30
0.0
  0
VERTEX
  8
0
 10
-547.130251723
 20
89.3229703165
 30
0.0
  0
VERTEX
  8
0
 10
-547.179563877
 20
89.3147052596
 30
0.0
  0
VERTEX
  8
0
 10
-547.228866096
 20
89.306381146
 30
0.0
  0
VERTEX
  8
0
 10
-547.27815831
 20
89.2979979877
 30
0.0
  0
VERTEX
  8
0
 10
-547.327440448
 20
89.2895557969
 30
0.0
  0
VERTEX
  8
0
 10
-547.376712439
 20
89.2810545854
 30
0.0
  0
VERTEX
  8
0
 10
-547.425974213
 20
89.2724943657
 30
0.0
  0
VERTEX
  8
0
 10
-547.475225698
 20
89.2638751499
 30
0.0
  0
VERTEX
  8
0
 10
-547.524466825
 20
89.2551969504
 30
0.0
  0
VERTEX
  8
0
 10
-547.573697522
 20
89.2464597797
 30
0.0
  0
VERTEX
  8
0
 10
-547.622917719
 20
89.2376636502
 30
0.0
  0
VERTEX
  8
0
 10
-547.672127346
 20
89.2288085747
 30
0.0
  0
VERTEX
  8
0
 10
-547.721326331
 20
89.2198945658
 30
0.0
  0
VERTEX
  8
0
 10
-547.770514604
 20
89.2109216363
 30
0.0
  0
VERTEX
  8
0
 10
-547.819692095
 20
89.2018897991
 30
0.0
  0
VERTEX
  8
0
 10
-547.868858733
 20
89.1927990671
 30
0.0
  0
VERTEX
  8
0
 10
-547.918014448
 20
89.1836494534
 30
0.0
  0
VERTEX
  8
0
 10
-547.967159168
 20
89.174440971
 30
0.0
  0
VERTEX
  8
0
 10
-548.016292824
 20
89.1651736333
 30
0.0
  0
VERTEX
  8
0
 10
-548.065415345
 20
89.1558474535
 30
0.0
  0
VERTEX
  8
0
 10
-548.114526661
 20
89.146462445
 30
0.0
  0
VERTEX
  8
0
 10
-548.1636267
 20
89.1370186212
 30
0.0
  0
VERTEX
  8
0
 10
-548.212715394
 20
89.1275159957
 30
0.0
  0
VERTEX
  8
0
 10
-548.26179267
 20
89.1179545822
 30
0.0
  0
VERTEX
  8
0
 10
-548.31085846
 20
89.1083343943
 30
0.0
  0
VERTEX
  8
0
 10
-548.359912691
 20
89.0986554458
 30
0.0
  0
VERTEX
  8
0
 10
-548.408955295
 20
89.0889177506
 30
0.0
  0
VERTEX
  8
0
 10
-548.457986201
 20
89.0791213228
 30
0.0
  0
VERTEX
  8
0
 10
-548.507005338
 20
89.0692661763
 30
0.0
  0
VERTEX
  8
0
 10
-548.556012636
 20
89.0593523253
 30
0.0
  0
VERTEX
  8
0
 10
-548.605008025
 20
89.049379784
 30
0.0
  0
VERTEX
  8
0
 10
-548.653991434
 20
89.0393485667
 30
0.0
  0
VERTEX
  8
0
 10
-548.702962793
 20
89.0292586878
 30
0.0
  0
VERTEX
  8
0
 10
-548.751922033
 20
89.0191101618
 30
0.0
  0
VERTEX
  8
0
 10
-548.800869082
 20
89.0089030032
 30
0.0
  0
VERTEX
  8
0
 10
-548.84980387
 20
88.9986372268
 30
0.0
  0
VERTEX
  8
0
 10
-548.898726328
 20
88.9883128471
 30
0.0
  0
VERTEX
  8
0
 10
-548.947636385
 20
88.9779298791
 30
0.0
  0
VERTEX
  8
0
 10
-548.996533971
 20
88.9674883375
 30
0.0
  0
VERTEX
  8
0
 10
-549.045419016
 20
88.9569882375
 30
0.0
  0
VERTEX
  8
0
 10
-549.094291449
 20
88.946429594
 30
0.0
  0
VERTEX
  8
0
 10
-549.143151201
 20
88.9358124222
 30
0.0
  0
VERTEX
  8
0
 10
-549.191998202
 20
88.9251367374
 30
0.0
  0
VERTEX
  8
0
 10
-549.240832381
 20
88.9144025548
 30
0.0
  0
VERTEX
  8
0
 10
-549.289653668
 20
88.9036098898
 30
0.0
  0
VERTEX
  8
0
 10
-549.338461993
 20
88.892758758
 30
0.0
  0
VERTEX
  8
0
 10
-549.387257287
 20
88.8818491749
 30
0.0
  0
VERTEX
  8
0
 10
-549.436039479
 20
88.8708811561
 30
0.0
  0
VERTEX
  8
0
 10
-549.4848085
 20
88.8598547174
 30
0.0
  0
VERTEX
  8
0
 10
-549.533564278
 20
88.8487698746
 30
0.0
  0
VERTEX
  8
0
 10
-549.582306746
 20
88.8376266436
 30
0.0
  0
VERTEX
  8
0
 10
-549.631035831
 20
88.8264250404
 30
0.0
  0
VERTEX
  8
0
 10
-549.679751465
 20
88.8151650811
 30
0.0
  0
VERTEX
  8
0
 10
-549.728453578
 20
88.8038467817
 30
0.0
  0
VERTEX
  8
0
 10
-549.7771421
 20
88.7924701587
 30
0.0
  0
VERTEX
  8
0
 10
-549.825816961
 20
88.7810352281
 30
0.0
  0
VERTEX
  8
0
 10
-549.874478091
 20
88.7695420066
 30
0.0
  0
VERTEX
  8
0
 10
-549.92312542
 20
88.7579905105
 30
0.0
  0
VERTEX
  8
0
 10
-549.971758879
 20
88.7463807564
 30
0.0
  0
VERTEX
  8
0
 10
-550.020378397
 20
88.734712761
 30
0.0
  0
VERTEX
  8
0
 10
-550.068983906
 20
88.7229865411
 30
0.0
  0
VERTEX
  8
0
 10
-550.117575335
 20
88.7112021133
 30
0.0
  0
VERTEX
  8
0
 10
-550.166152614
 20
88.6993594948
 30
0.0
  0
VERTEX
  8
0
 10
-550.214715675
 20
88.6874587023
 30
0.0
  0
VERTEX
  8
0
 10
-550.263264446
 20
88.6754997531
 30
0.0
  0
VERTEX
  8
0
 10
-550.31179886
 20
88.6634826643
 30
0.0
  0
VERTEX
  8
0
 10
-550.360318845
 20
88.651407453
 30
0.0
  0
VERTEX
  8
0
 10
-550.408824333
 20
88.6392741367
 30
0.0
  0
VERTEX
  8
0
 10
-550.457315253
 20
88.6270827327
 30
0.0
  0
VERTEX
  8
0
 10
-550.505791537
 20
88.6148332586
 30
0.0
  0
VERTEX
  8
0
 10
-550.554253114
 20
88.6025257318
 30
0.0
  0
VERTEX
  8
0
 10
-550.602699916
 20
88.5901601701
 30
0.0
  0
VERTEX
  8
0
 10
-550.651131872
 20
88.5777365912
 30
0.0
  0
VERTEX
  8
0
 10
-550.699548914
 20
88.5652550129
 30
0.0
  0
VERTEX
  8
0
 10
-550.747950971
 20
88.5527154531
 30
0.0
  0
VERTEX
  8
0
 10
-550.796337974
 20
88.5401179298
 30
0.0
  0
VERTEX
  8
0
 10
-550.844709855
 20
88.5274624611
 30
0.0
  0
VERTEX
  8
0
 10
-550.893066543
 20
88.5147490651
 30
0.0
  0
VERTEX
  8
0
 10
-550.941407969
 20
88.5019777601
 30
0.0
  0
VERTEX
  8
0
 10
-550.989734064
 20
88.4891485644
 30
0.0
  0
VERTEX
  8
0
 10
-551.038044758
 20
88.4762614964
 30
0.0
  0
VERTEX
  8
0
 10
-551.086339982
 20
88.4633165746
 30
0.0
  0
VERTEX
  8
0
 10
-551.134619667
 20
88.4503138175
 30
0.0
  0
VERTEX
  8
0
 10
-551.182883744
 20
88.4372532438
 30
0.0
  0
VERTEX
  8
0
 10
-551.231132144
 20
88.4241348723
 30
0.0
  0
VERTEX
  8
0
 10
-551.279364796
 20
88.4109587218
 30
0.0
  0
VERTEX
  8
0
 10
-551.327581632
 20
88.3977248111
 30
0.0
  0
VERTEX
  8
0
 10
-551.375782583
 20
88.3844331592
 30
0.0
  0
VERTEX
  8
0
 10
-551.42396758
 20
88.3710837853
 30
0.0
  0
VERTEX
  8
0
 10
-551.472136554
 20
88.3576767084
 30
0.0
  0
VERTEX
  8
0
 10
-551.520289434
 20
88.3442119479
 30
0.0
  0
VERTEX
  8
0
 10
-551.568426153
 20
88.3306895229
 30
0.0
  0
VERTEX
  8
0
 10
-551.616546642
 20
88.317109453
 30
0.0
  0
VERTEX
  8
0
 10
-551.66465083
 20
88.3034717576
 30
0.0
  0
VERTEX
  8
0
 10
-551.71273865
 20
88.2897764562
 30
0.0
  0
VERTEX
  8
0
 10
-551.760810033
 20
88.2760235685
 30
0.0
  0
VERTEX
  8
0
 10
-551.808864908
 20
88.2622131143
 30
0.0
  0
VERTEX
  8
0
 10
-551.856903208
 20
88.2483451133
 30
0.0
  0
VERTEX
  8
0
 10
-551.904924863
 20
88.2344195855
 30
0.0
  0
VERTEX
  8
0
 10
-551.952929805
 20
88.2204365508
 30
0.0
  0
VERTEX
  8
0
 10
-552.000917964
 20
88.2063960292
 30
0.0
  0
VERTEX
  8
0
 10
-552.048889273
 20
88.192298041
 30
0.0
  0
VERTEX
  8
0
 10
-552.096843661
 20
88.1781426063
 30
0.0
  0
VERTEX
  8
0
 10
-552.144781061
 20
88.1639297455
 30
0.0
  0
VERTEX
  8
0
 10
-552.192701403
 20
88.1496594789
 30
0.0
  0
VERTEX
  8
0
 10
-552.240604619
 20
88.135331827
 30
0.0
  0
VERTEX
  8
0
 10
-552.28849064
 20
88.1209468104
 30
0.0
  0
VERTEX
  8
0
 10
-552.336359397
 20
88.1065044497
 30
0.0
  0
VERTEX
  8
0
 10
-552.384210822
 20
88.0920047656
 30
0.0
  0
VERTEX
  8
0
 10
-552.432044846
 20
88.077447779
 30
0.0
  0
VERTEX
  8
0
 10
-552.4798614
 20
88.0628335106
 30
0.0
  0
VERTEX
  8
0
 10
-552.527660416
 20
88.0481619815
 30
0.0
  0
VERTEX
  8
0
 10
-552.575441825
 20
88.0334332127
 30
0.0
  0
VERTEX
  8
0
 10
-552.623205559
 20
88.0186472254
 30
0.0
  0
VERTEX
  8
0
 10
-552.67095155
 20
88.0038040407
 30
0.0
  0
VERTEX
  8
0
 10
-552.718679727
 20
87.98890368
 30
0.0
  0
VERTEX
  8
0
 10
-552.766390024
 20
87.9739461646
 30
0.0
  0
VERTEX
  8
0
 10
-552.814082372
 20
87.958931516
 30
0.0
  0
VERTEX
  8
0
 10
-552.861756702
 20
87.9438597557
 30
0.0
  0
VERTEX
  8
0
 10
-552.909412946
 20
87.9287309053
 30
0.0
  0
VERTEX
  8
0
 10
-552.957051035
 20
87.9135449866
 30
0.0
  0
VERTEX
  8
0
 10
-553.004670902
 20
87.8983020213
 30
0.0
  0
VERTEX
  8
0
 10
-553.052272478
 20
87.8830020313
 30
0.0
  0
VERTEX
  8
0
 10
-553.099855694
 20
87.8676450386
 30
0.0
  0
VERTEX
  8
0
 10
-553.147420483
 20
87.8522310651
 30
0.0
  0
VERTEX
  8
0
 10
-553.194966776
 20
87.8367601331
 30
0.0
  0
VERTEX
  8
0
 10
-553.242494504
 20
87.8212322646
 30
0.0
  0
VERTEX
  8
0
 10
-553.290003601
 20
87.8056474819
 30
0.0
  0
VERTEX
  8
0
 10
-553.337493997
 20
87.7900058075
 30
0.0
  0
VERTEX
  8
0
 10
-553.384965625
 20
87.7743072638
 30
0.0
  0
VERTEX
  8
0
 10
-553.432418416
 20
87.7585518732
 30
0.0
  0
VERTEX
  8
0
 10
-553.479852302
 20
87.7427396584
 30
0.0
  0
VERTEX
  8
0
 10
-553.527267215
 20
87.726870642
 30
0.0
  0
VERTEX
  8
0
 10
-553.574663088
 20
87.7109448469
 30
0.0
  0
VERTEX
  8
0
 10
-553.622039852
 20
87.6949622958
 30
0.0
  0
VERTEX
  8
0
 10
-553.669397439
 20
87.6789230117
 30
0.0
  0
VERTEX
  8
0
 10
-553.716735782
 20
87.6628270177
 30
0.0
  0
VERTEX
  8
0
 10
-553.764054812
 20
87.6466743367
 30
0.0
  0
VERTEX
  8
0
 10
-553.811354461
 20
87.6304649921
 30
0.0
  0
VERTEX
  8
0
 10
-553.858634663
 20
87.6141990069
 30
0.0
  0
VERTEX
  8
0
 10
-553.905895348
 20
87.5978764046
 30
0.0
  0
VERTEX
  8
0
 10
-553.953136449
 20
87.5814972086
 30
0.0
  0
VERTEX
  8
0
 10
-554.000357898
 20
87.5650614423
 30
0.0
  0
VERTEX
  8
0
 10
-554.047559628
 20
87.5485691294
 30
0.0
  0
VERTEX
  8
0
 10
-554.094741571
 20
87.5320202935
 30
0.0
  0
VERTEX
  8
0
 10
-554.141903659
 20
87.5154149583
 30
0.0
  0
VERTEX
  8
0
 10
-554.189045825
 20
87.4987531478
 30
0.0
  0
VERTEX
  8
0
 10
-554.236168
 20
87.4820348856
 30
0.0
  0
VERTEX
  8
0
 10
-554.283270118
 20
87.465260196
 30
0.0
  0
VERTEX
  8
0
 10
-554.33035211
 20
87.4484291028
 30
0.0
  0
VERTEX
  8
0
 10
-554.37741391
 20
87.4315416304
 30
0.0
  0
VERTEX
  8
0
 10
-554.424455449
 20
87.4145978028
 30
0.0
  0
VERTEX
  8
0
 10
-554.47147666
 20
87.3975976444
 30
0.0
  0
VERTEX
  8
0
 10
-554.518477476
 20
87.3805411796
 30
0.0
  0
VERTEX
  8
0
 10
-554.565457829
 20
87.3634284328
 30
0.0
  0
VERTEX
  8
0
 10
-554.612417653
 20
87.3462594287
 30
0.0
  0
VERTEX
  8
0
 10
-554.659356878
 20
87.3290341917
 30
0.0
  0
VERTEX
  8
0
 10
-554.706275439
 20
87.3117527468
 30
0.0
  0
VERTEX
  8
0
 10
-554.753173268
 20
87.2944151185
 30
0.0
  0
VERTEX
  8
0
 10
-554.800050298
 20
87.2770213319
 30
0.0
  0
VERTEX
  8
0
 10
-554.84690646
 20
87.2595714118
 30
0.0
  0
VERTEX
  8
0
 10
-554.893741689
 20
87.2420653833
 30
0.0
  0
VERTEX
  8
0
 10
-554.940555917
 20
87.2245032715
 30
0.0
  0
VERTEX
  8
0
 10
-554.987349077
 20
87.2068851016
 30
0.0
  0
VERTEX
  8
0
 10
-555.034121101
 20
87.1892108989
 30
0.0
  0
VERTEX
  8
0
 10
-555.080871923
 20
87.1714806887
 30
0.0
  0
VERTEX
  8
0
 10
-555.127601475
 20
87.1536944964
 30
0.0
  0
VERTEX
  8
0
 10
-555.174309691
 20
87.1358523477
 30
0.0
  0
VERTEX
  8
0
 10
-555.220996504
 20
87.117954268
 30
0.0
  0
VERTEX
  8
0
 10
-555.267661845
 20
87.100000283
 30
0.0
  0
VERTEX
  8
0
 10
-555.31430565
 20
87.0819904186
 30
0.0
  0
VERTEX
  8
0
 10
-555.36092785
 20
87.0639247005
 30
0.0
  0
VERTEX
  8
0
 10
-555.407528378
 20
87.0458031546
 30
0.0
  0
VERTEX
  8
0
 10
-555.454107169
 20
87.027625807
 30
0.0
  0
VERTEX
  8
0
 10
-555.500664155
 20
87.0093926838
 30
0.0
  0
VERTEX
  8
0
 10
-555.547199269
 20
86.991103811
 30
0.0
  0
VERTEX
  8
0
 10
-555.593712444
 20
86.9727592149
 30
0.0
  0
VERTEX
  8
0
 10
-555.640203615
 20
86.9543589219
 30
0.0
  0
VERTEX
  8
0
 10
-555.686672713
 20
86.9359029583
 30
0.0
  0
VERTEX
  8
0
 10
-555.733119673
 20
86.9173913506
 30
0.0
  0
VERTEX
  8
0
 10
-555.779544428
 20
86.8988241254
 30
0.0
  0
VERTEX
  8
0
 10
-555.82594691
 20
86.8802013093
 30
0.0
  0
VERTEX
  8
0
 10
-555.872327055
 20
86.861522929
 30
0.0
  0
VERTEX
  8
0
 10
-555.918684795
 20
86.8427890113
 30
0.0
  0
VERTEX
  8
0
 10
-555.965020063
 20
86.8239995831
 30
0.0
  0
VERTEX
  8
0
 10
-556.011332793
 20
86.8051546713
 30
0.0
  0
VERTEX
  8
0
 10
-556.05762292
 20
86.786254303
 30
0.0
  0
VERTEX
  8
0
 10
-556.103890375
 20
86.7672985053
 30
0.0
  0
VERTEX
  8
0
 10
-556.150135093
 20
86.7482873054
 30
0.0
  0
VERTEX
  8
0
 10
-556.196357008
 20
86.7292207305
 30
0.0
  0
VERTEX
  8
0
 10
-556.242556054
 20
86.710098808
 30
0.0
  0
VERTEX
  8
0
 10
-556.288732163
 20
86.6909215654
 30
0.0
  0
VERTEX
  8
0
 10
-556.33488527
 20
86.6716890301
 30
0.0
  0
VERTEX
  8
0
 10
-556.381015309
 20
86.6524012298
 30
0.0
  0
VERTEX
  8
0
 10
-556.427122213
 20
86.6330581921
 30
0.0
  0
VERTEX
  8
0
 10
-556.473205916
 20
86.6136599447
 30
0.0
  0
VERTEX
  8
0
 10
-556.519266352
 20
86.5942065155
 30
0.0
  0
VERTEX
  8
0
 10
-556.565303455
 20
86.5746979324
 30
0.0
  0
VERTEX
  8
0
 10
-556.61131716
 20
86.5551342234
 30
0.0
  0
VERTEX
  8
0
 10
-556.657307399
 20
86.5355154165
 30
0.0
  0
VERTEX
  8
0
 10
-556.703274108
 20
86.5158415399
 30
0.0
  0
VERTEX
  8
0
 10
-556.749217219
 20
86.4961126218
 30
0.0
  0
VERTEX
  8
0
 10
-556.795136668
 20
86.4763286905
 30
0.0
  0
VERTEX
  8
0
 10
-556.841032388
 20
86.4564897744
 30
0.0
  0
VERTEX
  8
0
 10
-556.886904313
 20
86.436595902
 30
0.0
  0
VERTEX
  8
0
 10
-556.932752378
 20
86.4166471017
 30
0.0
  0
VERTEX
  8
0
 10
-556.978576517
 20
86.3966434023
 30
0.0
  0
VERTEX
  8
0
 10
-557.024376664
 20
86.3765848324
 30
0.0
  0
VERTEX
  8
0
 10
-557.070152754
 20
86.3564714207
 30
0.0
  0
VERTEX
  8
0
 10
-557.11590472
 20
86.3363031962
 30
0.0
  0
VERTEX
  8
0
 10
-557.161632497
 20
86.3160801878
 30
0.0
  0
VERTEX
  8
0
 10
-557.20733602
 20
86.2958024244
 30
0.0
  0
VERTEX
  8
0
 10
-557.253015223
 20
86.2754699352
 30
0.0
  0
VERTEX
  8
0
 10
-557.298670041
 20
86.2550827493
 30
0.0
  0
VERTEX
  8
0
 10
-557.344300407
 20
86.234640896
 30
0.0
  0
VERTEX
  8
0
 10
-557.389906257
 20
86.2141444046
 30
0.0
  0
VERTEX
  8
0
 10
-557.435487525
 20
86.1935933046
 30
0.0
  0
VERTEX
  8
0
 10
-557.481044146
 20
86.1729876253
 30
0.0
  0
VERTEX
  8
0
 10
-557.526576054
 20
86.1523273963
 30
0.0
  0
VERTEX
  8
0
 10
-557.572083184
 20
86.1316126474
 30
0.0
  0
VERTEX
  8
0
 10
-557.61756547
 20
86.1108434082
 30
0.0
  0
VERTEX
  8
0
 10
-557.663022848
 20
86.0900197084
 30
0.0
  0
VERTEX
  8
0
 10
-557.708455253
 20
86.0691415781
 30
0.0
  0
VERTEX
  8
0
 10
-557.753862618
 20
86.048209047
 30
0.0
  0
VERTEX
  8
0
 10
-557.79924488
 20
86.0272221453
 30
0.0
  0
VERTEX
  8
0
 10
-557.844601972
 20
86.0061809031
 30
0.0
  0
VERTEX
  8
0
 10
-557.88993383
 20
85.9850853505
 30
0.0
  0
VERTEX
  8
0
 10
-557.935240389
 20
85.9639355179
 30
0.0
  0
VERTEX
  8
0
 10
-557.980521584
 20
85.9427314354
 30
0.0
  0
VERTEX
  8
0
 10
-558.025777349
 20
85.9214731337
 30
0.0
  0
VERTEX
  8
0
 10
-558.071007621
 20
85.9001606431
 30
0.0
  0
VERTEX
  8
0
 10
-558.116212333
 20
85.8787939942
 30
0.0
  0
VERTEX
  8
0
 10
-558.161391422
 20
85.8573732177
 30
0.0
  0
VERTEX
  8
0
 10
-558.206544821
 20
85.8358983443
 30
0.0
  0
VERTEX
  8
0
 10
-558.251672468
 20
85.8143694049
 30
0.0
  0
VERTEX
  8
0
 10
-558.296774296
 20
85.7927864303
 30
0.0
  0
VERTEX
  8
0
 10
-558.341850241
 20
85.7711494514
 30
0.0
  0
VERTEX
  8
0
 10
-558.386900239
 20
85.7494584994
 30
0.0
  0
VERTEX
  8
0
 10
-558.431924225
 20
85.7277136052
 30
0.0
  0
VERTEX
  8
0
 10
-558.476922133
 20
85.7059148002
 30
0.0
  0
VERTEX
  8
0
 10
-558.521893901
 20
85.6840621156
 30
0.0
  0
VERTEX
  8
0
 10
-558.566839463
 20
85.6621555827
 30
0.0
  0
VERTEX
  8
0
 10
-558.611758754
 20
85.640195233
 30
0.0
  0
VERTEX
  8
0
 10
-558.656651711
 20
85.618181098
 30
0.0
  0
VERTEX
  8
0
 10
-558.701518268
 20
85.5961132092
 30
0.0
  0
VERTEX
  8
0
 10
-558.746358362
 20
85.5739915983
 30
0.0
  0
VERTEX
  8
0
 10
-558.791171929
 20
85.5518162971
 30
0.0
  0
VERTEX
  8
0
 10
-558.835958903
 20
85.5295873373
 30
0.0
  0
VERTEX
  8
0
 10
-558.88071922
 20
85.5073047508
 30
0.0
  0
VERTEX
  8
0
 10
-558.925452818
 20
85.4849685697
 30
0.0
  0
VERTEX
  8
0
 10
-558.97015963
 20
85.4625788259
 30
0.0
  0
VERTEX
  8
0
 10
-559.014839593
 20
85.4401355516
 30
0.0
  0
VERTEX
  8
0
 10
-559.059492644
 20
85.4176387789
 30
0.0
  0
VERTEX
  8
0
 10
-559.104118717
 20
85.3950885402
 30
0.0
  0
VERTEX
  8
0
 10
-559.14871775
 20
85.3724848678
 30
0.0
  0
VERTEX
  8
0
 10
-559.193289677
 20
85.3498277941
 30
0.0
  0
VERTEX
  8
0
 10
-559.237834436
 20
85.3271173516
 30
0.0
  0
VERTEX
  8
0
 10
-559.282351961
 20
85.3043535729
 30
0.0
  0
VERTEX
  8
0
 10
-559.32684219
 20
85.2815364906
 30
0.0
  0
VERTEX
  8
0
 10
-559.371305058
 20
85.2586661376
 30
0.0
  0
VERTEX
  8
0
 10
-559.415740502
 20
85.2357425465
 30
0.0
  0
VERTEX
  8
0
 10
-559.460148458
 20
85.2127657503
 30
0.0
  0
VERTEX
  8
0
 10
-559.504528862
 20
85.189735782
 30
0.0
  0
VERTEX
  8
0
 10
-559.548881651
 20
85.1666526745
 30
0.0
  0
VERTEX
  8
0
 10
-559.59320676
 20
85.143516461
 30
0.0
  0
VERTEX
  8
0
 10
-559.637504127
 20
85.1203271747
 30
0.0
  0
VERTEX
  8
0
 10
-559.681773687
 20
85.0970848489
 30
0.0
  0
VERTEX
  8
0
 10
-559.726015378
 20
85.0737895168
 30
0.0
  0
VERTEX
  8
0
 10
-559.770229136
 20
85.0504412119
 30
0.0
  0
VERTEX
  8
0
 10
-559.814414897
 20
85.0270399678
 30
0.0
  0
VERTEX
  8
0
 10
-559.858572598
 20
85.0035858179
 30
0.0
  0
VERTEX
  8
0
 10
-559.902702175
 20
84.9800787959
 30
0.0
  0
VERTEX
  8
0
 10
-559.946803566
 20
84.9565189356
 30
0.0
  0
VERTEX
  8
0
 10
-559.990876707
 20
84.9329062707
 30
0.0
  0
VERTEX
  8
0
 10
-560.034921535
 20
84.9092408352
 30
0.0
  0
VERTEX
  8
0
 10
-560.078937987
 20
84.8855226629
 30
0.0
  0
VERTEX
  8
0
 10
-560.122925999
 20
84.8617517878
 30
0.0
  0
VERTEX
  8
0
 10
-560.166885508
 20
84.8379282442
 30
0.0
  0
VERTEX
  8
0
 10
-560.210816452
 20
84.8140520661
 30
0.0
  0
VERTEX
  8
0
 10
-560.254718767
 20
84.7901232879
 30
0.0
  0
VERTEX
  8
0
 10
-560.29859239
 20
84.7661419438
 30
0.0
  0
VERTEX
  8
0
 10
-560.342437259
 20
84.7421080682
 30
0.0
  0
VERTEX
  8
0
 10
-560.386253311
 20
84.7180216957
 30
0.0
  0
VERTEX
  8
0
 10
-560.430040482
 20
84.6938828607
 30
0.0
  0
VERTEX
  8
0
 10
-560.47379871
 20
84.6696915979
 30
0.0
  0
VERTEX
  8
0
 10
-560.517527931
 20
84.6454479421
 30
0.0
  0
VERTEX
  8
0
 10
-560.561228085
 20
84.6211519279
 30
0.0
  0
VERTEX
  8
0
 10
-560.604899107
 20
84.5968035903
 30
0.0
  0
VERTEX
  8
0
 10
-560.648540935
 20
84.5724029641
 30
0.0
  0
VERTEX
  8
0
 10
-560.692153506
 20
84.5479500844
 30
0.0
  0
VERTEX
  8
0
 10
-560.735736758
 20
84.5234449863
 30
0.0
  0
VERTEX
  8
0
 10
-560.779290628
 20
84.4988877049
 30
0.0
  0
VERTEX
  8
0
 10
-560.822815055
 20
84.4742782754
 30
0.0
  0
VERTEX
  8
0
 10
-560.866309974
 20
84.4496167331
 30
0.0
  0
VERTEX
  8
0
 10
-560.909775325
 20
84.4249031135
 30
0.0
  0
VERTEX
  8
0
 10
-560.953211044
 20
84.4001374519
 30
0.0
  0
VERTEX
  8
0
 10
-560.99661707
 20
84.3753197839
 30
0.0
  0
VERTEX
  8
0
 10
-561.03999334
 20
84.3504501452
 30
0.0
  0
VERTEX
  8
0
 10
-561.083339791
 20
84.3255285713
 30
0.0
  0
VERTEX
  8
0
 10
-561.126656362
 20
84.300555098
 30
0.0
  0
VERTEX
  8
0
 10
-561.169942991
 20
84.2755297612
 30
0.0
  0
VERTEX
  8
0
 10
-561.213199615
 20
84.2504525967
 30
0.0
  0
VERTEX
  8
0
 10
-561.256426172
 20
84.2253236406
 30
0.0
  0
VERTEX
  8
0
 10
-561.299622601
 20
84.2001429288
 30
0.0
  0
VERTEX
  8
0
 10
-561.342788839
 20
84.1749104976
 30
0.0
  0
VERTEX
  8
0
 10
-561.385924825
 20
84.149626383
 30
0.0
  0
VERTEX
  8
0
 10
-561.429030496
 20
84.1242906214
 30
0.0
  0
VERTEX
  8
0
 10
-561.472105791
 20
84.0989032492
 30
0.0
  0
VERTEX
  8
0
 10
-561.515150648
 20
84.0734643026
 30
0.0
  0
VERTEX
  8
0
 10
-561.558165005
 20
84.0479738183
 30
0.0
  0
VERTEX
  8
0
 10
-561.6011488
 20
84.0224318328
 30
0.0
  0
VERTEX
  8
0
 10
-561.644101972
 20
83.9968383827
 30
0.0
  0
VERTEX
  8
0
 10
-561.68702446
 20
83.9711935048
 30
0.0
  0
VERTEX
  8
0
 10
-561.729916201
 20
83.9454972358
 30
0.0
  0
VERTEX
  8
0
 10
-561.772777134
 20
83.9197496126
 30
0.0
  0
VERTEX
  8
0
 10
-561.815607198
 20
83.8939506721
 30
0.0
  0
VERTEX
  8
0
 10
-561.858406331
 20
83.8681004514
 30
0.0
  0
VERTEX
  8
0
 10
-561.901174472
 20
83.8421989875
 30
0.0
  0
VERTEX
  8
0
 10
-561.943911559
 20
83.8162463177
 30
0.0
  0
VERTEX
  8
0
 10
-561.986617532
 20
83.790242479
 30
0.0
  0
VERTEX
  8
0
 10
-562.029292328
 20
83.7641875089
 30
0.0
  0
VERTEX
  8
0
 10
-562.071935887
 20
83.7380814446
 30
0.0
  0
VERTEX
  8
0
 10
-562.114548147
 20
83.7119243237
 30
0.0
  0
VERTEX
  8
0
 10
-562.157129048
 20
83.6857161837
 30
0.0
  0
VERTEX
  8
0
 10
-562.199678528
 20
83.6594570622
 30
0.0
  0
VERTEX
  8
0
 10
-562.242196526
 20
83.6331469968
 30
0.0
  0
VERTEX
  8
0
 10
-562.284682981
 20
83.6067860253
 30
0.0
  0
VERTEX
  8
0
 10
-562.327137833
 20
83.5803741855
 30
0.0
  0
VERTEX
  8
0
 10
-562.369561019
 20
83.5539115152
 30
0.0
  0
VERTEX
  8
0
 10
-562.411952481
 20
83.5273980526
 30
0.0
  0
VERTEX
  8
0
 10
-562.454312156
 20
83.5008338355
 30
0.0
  0
VERTEX
  8
0
 10
-562.496639984
 20
83.4742189021
 30
0.0
  0
VERTEX
  8
0
 10
-562.538935904
 20
83.4475532906
 30
0.0
  0
VERTEX
  8
0
 10
-562.581199856
 20
83.4208370392
 30
0.0
  0
VERTEX
  8
0
 10
-562.623431778
 20
83.3940701863
 30
0.0
  0
VERTEX
  8
0
 10
-562.665631611
 20
83.3672527702
 30
0.0
  0
VERTEX
  8
0
 10
-562.707799294
 20
83.3403848295
 30
0.0
  0
VERTEX
  8
0
 10
-562.749934766
 20
83.3134664026
 30
0.0
  0
VERTEX
  8
0
 10
-562.792037967
 20
83.2864975282
 30
0.0
  0
VERTEX
  8
0
 10
-562.834108836
 20
83.259478245
 30
0.0
  0
VERTEX
  8
0
 10
-562.876147313
 20
83.2324085917
 30
0.0
  0
VERTEX
  8
0
 10
-562.918153338
 20
83.2052886071
 30
0.0
  0
VERTEX
  8
0
 10
-562.960126851
 20
83.1781183303
 30
0.0
  0
VERTEX
  8
0
 10
-563.002067791
 20
83.1508978001
 30
0.0
  0
VERTEX
  8
0
 10
-563.043976098
 20
83.1236270556
 30
0.0
  0
VERTEX
  8
0
 10
-563.085851712
 20
83.0963061359
 30
0.0
  0
VERTEX
  8
0
 10
-563.127694573
 20
83.0689350802
 30
0.0
  0
VERTEX
  8
0
 10
-563.16950462
 20
83.0415139278
 30
0.0
  0
VERTEX
  8
0
 10
-563.211281795
 20
83.014042718
 30
0.0
  0
VERTEX
  8
0
 10
-563.253026037
 20
82.9865214902
 30
0.0
  0
VERTEX
  8
0
 10
-563.294737286
 20
82.958950284
 30
0.0
  0
VERTEX
  8
0
 10
-563.336415482
 20
82.9313291388
 30
0.0
  0
VERTEX
  8
0
 10
-563.378060566
 20
82.9036580942
 30
0.0
  0
VERTEX
  8
0
 10
-563.419672477
 20
82.8759371901
 30
0.0
  0
VERTEX
  8
0
 10
-563.461251157
 20
82.8481664661
 30
0.0
  0
VERTEX
  8
0
 10
-563.502796545
 20
82.820345962
 30
0.0
  0
VERTEX
  8
0
 10
-563.544308581
 20
82.7924757179
 30
0.0
  0
VERTEX
  8
0
 10
-563.585787207
 20
82.7645557736
 30
0.0
  0
VERTEX
  8
0
 10
-563.627232363
 20
82.7365861693
 30
0.0
  0
VERTEX
  8
0
 10
-563.668643989
 20
82.708566945
 30
0.0
  0
VERTEX
  8
0
 10
-563.710022026
 20
82.6804981409
 30
0.0
  0
VERTEX
  8
0
 10
-563.751366415
 20
82.6523797974
 30
0.0
  0
VERTEX
  8
0
 10
-563.792677095
 20
82.6242119547
 30
0.0
  0
VERTEX
  8
0
 10
-563.833954009
 20
82.5959946533
 30
0.0
  0
VERTEX
  8
0
 10
-563.875197096
 20
82.5677279336
 30
0.0
  0
VERTEX
  8
0
 10
-563.916406298
 20
82.5394118361
 30
0.0
  0
VERTEX
  8
0
 10
-563.957581556
 20
82.5110464016
 30
0.0
  0
VERTEX
  8
0
 10
-563.99872281
 20
82.4826316707
 30
0.0
  0
VERTEX
  8
0
 10
-564.039830001
 20
82.4541676841
 30
0.0
  0
VERTEX
  8
0
 10
-564.08090307
 20
82.4256544828
 30
0.0
  0
VERTEX
  8
0
 10
-564.121941959
 20
82.3970921075
 30
0.0
  0
VERTEX
  8
0
 10
-564.162946609
 20
82.3684805993
 30
0.0
  0
VERTEX
  8
0
 10
-564.203916961
 20
82.3398199992
 30
0.0
  0
VERTEX
  8
0
 10
-564.244852955
 20
82.3111103484
 30
0.0
  0
VERTEX
  8
0
 10
-564.285754534
 20
82.2823516879
 30
0.0
  0
VERTEX
  8
0
 10
-564.326621639
 20
82.2535440592
 30
0.0
  0
VERTEX
  8
0
 10
-564.36745421
 20
82.2246875034
 30
0.0
  0
VERTEX
  8
0
 10
-564.40825219
 20
82.195782062
 30
0.0
  0
VERTEX
  8
0
 10
-564.44901552
 20
82.1668277765
 30
0.0
  0
VERTEX
  8
0
 10
-564.489744141
 20
82.1378246884
 30
0.0
  0
VERTEX
  8
0
 10
-564.530437995
 20
82.1087728393
 30
0.0
  0
VERTEX
  8
0
 10
-564.571097024
 20
82.0796722709
 30
0.0
  0
VERTEX
  8
0
 10
-564.611721169
 20
82.0505230249
 30
0.0
  0
VERTEX
  8
0
 10
-564.652310372
 20
82.0213251431
 30
0.0
  0
VERTEX
  8
0
 10
-564.692864574
 20
81.9920786675
 30
0.0
  0
VERTEX
  8
0
 10
-564.733383719
 20
81.9627836399
 30
0.0
  0
VERTEX
  8
0
 10
-564.773867747
 20
81.9334401025
 30
0.0
  0
VERTEX
  8
0
 10
-564.8143166
 20
81.9040480972
 30
0.0
  0
VERTEX
  8
0
 10
-564.854730221
 20
81.8746076663
 30
0.0
  0
VERTEX
  8
0
 10
-564.895108551
 20
81.8451188521
 30
0.0
  0
VERTEX
  8
0
 10
-564.935451532
 20
81.8155816967
 30
0.0
  0
VERTEX
  8
0
 10
-564.975759107
 20
81.7859962426
 30
0.0
  0
VERTEX
  8
0
 10
-565.016031218
 20
81.7563625322
 30
0.0
  0
VERTEX
  8
0
 10
-565.056267807
 20
81.7266806081
 30
0.0
  0
VERTEX
  8
0
 10
-565.096468816
 20
81.6969505128
 30
0.0
  0
VERTEX
  8
0
 10
-565.136634188
 20
81.6671722889
 30
0.0
  0
VERTEX
  8
0
 10
-565.176763864
 20
81.6373459792
 30
0.0
  0
VERTEX
  8
0
 10
-565.216857788
 20
81.6074716265
 30
0.0
  0
VERTEX
  8
0
 10
-565.256915902
 20
81.5775492736
 30
0.0
  0
VERTEX
  8
0
 10
-565.296938149
 20
81.5475789635
 30
0.0
  0
VERTEX
  8
0
 10
-565.33692447
 20
81.517560739
 30
0.0
  0
VERTEX
  8
0
 10
-565.376874809
 20
81.4874946434
 30
0.0
  0
VERTEX
  8
0
 10
-565.416789109
 20
81.4573807198
 30
0.0
  0
VERTEX
  8
0
 10
-565.456667311
 20
81.4272190112
 30
0.0
  0
VERTEX
  8
0
 10
-565.49650936
 20
81.3970095611
 30
0.0
  0
VERTEX
  8
0
 10
-565.536315197
 20
81.3667524127
 30
0.0
  0
VERTEX
  8
0
 10
-565.576084766
 20
81.3364476095
 30
0.0
  0
VERTEX
  8
0
 10
-565.615818009
 20
81.3060951949
 30
0.0
  0
VERTEX
  8
0
 10
-565.65551487
 20
81.2756952124
 30
0.0
  0
VERTEX
  8
0
 10
-565.695175292
 20
81.2452477057
 30
0.0
  0
VERTEX
  8
0
 10
-565.734799217
 20
81.2147527185
 30
0.0
  0
VERTEX
  8
0
 10
-565.774386589
 20
81.1842102944
 30
0.0
  0
VERTEX
  8
0
 10
-565.813937351
 20
81.1536204774
 30
0.0
  0
VERTEX
  8
0
 10
-565.853451447
 20
81.1229833113
 30
0.0
  0
VERTEX
  8
0
 10
-565.892928819
 20
81.09229884
 30
0.0
  0
VERTEX
  8
0
 10
-565.932369412
 20
81.0615671076
 30
0.0
  0
VERTEX
  8
0
 10
-565.971773167
 20
81.0307881581
 30
0.0
  0
VERTEX
  8
0
 10
-566.01114003
 20
80.9999620358
 30
0.0
  0
VERTEX
  8
0
 10
-566.050469943
 20
80.9690887847
 30
0.0
  0
VERTEX
  8
0
 10
-566.089762851
 20
80.9381684493
 30
0.0
  0
VERTEX
  8
0
 10
-566.129018696
 20
80.9072010739
 30
0.0
  0
VERTEX
  8
0
 10
-566.168237422
 20
80.8761867028
 30
0.0
  0
VERTEX
  8
0
 10
-566.207418973
 20
80.8451253807
 30
0.0
  0
VERTEX
  8
0
 10
-566.246563293
 20
80.814017152
 30
0.0
  0
VERTEX
  8
0
 10
-566.285670326
 20
80.7828620613
 30
0.0
  0
VERTEX
  8
0
 10
-566.324740016
 20
80.7516601535
 30
0.0
  0
VERTEX
  8
0
 10
-566.363772306
 20
80.7204114731
 30
0.0
  0
VERTEX
  8
0
 10
-566.402767141
 20
80.6891160651
 30
0.0
  0
VERTEX
  8
0
 10
-566.441724464
 20
80.6577739744
 30
0.0
  0
VERTEX
  8
0
 10
-566.480644221
 20
80.6263852459
 30
0.0
  0
VERTEX
  8
0
 10
-566.519526354
 20
80.5949499246
 30
0.0
  0
VERTEX
  8
0
 10
-566.558370808
 20
80.5634680557
 30
0.0
  0
VERTEX
  8
0
 10
-566.597177528
 20
80.5319396842
 30
0.0
  0
VERTEX
  8
0
 10
-566.635946457
 20
80.5003648555
 30
0.0
  0
VERTEX
  8
0
 10
-566.674677541
 20
80.4687436148
 30
0.0
  0
VERTEX
  8
0
 10
-566.713370723
 20
80.4370760075
 30
0.0
  0
VERTEX
  8
0
 10
-566.752025948
 20
80.4053620791
 30
0.0
  0
VERTEX
  8
0
 10
-566.790643161
 20
80.3736018749
 30
0.0
  0
VERTEX
  8
0
 10
-566.829222306
 20
80.3417954406
 30
0.0
  0
VERTEX
  8
0
 10
-566.867763328
 20
80.3099428218
 30
0.0
  0
VERTEX
  8
0
 10
-566.906266172
 20
80.2780440642
 30
0.0
  0
VERTEX
  8
0
 10
-566.944730782
 20
80.2460992136
 30
0.0
  0
VERTEX
  8
0
 10
-566.983157103
 20
80.2141083157
 30
0.0
  0
VERTEX
  8
0
 10
-567.02154508
 20
80.1820714165
 30
0.0
  0
VERTEX
  8
0
 10
-567.059894658
 20
80.149988562
 30
0.0
  0
VERTEX
  8
0
 10
-567.098205783
 20
80.1178597981
 30
0.0
  0
VERTEX
  8
0
 10
-567.136478398
 20
80.0856851709
 30
0.0
  0
VERTEX
  8
0
 10
-567.174712449
 20
80.0534647267
 30
0.0
  0
VERTEX
  8
0
 10
-567.212907881
 20
80.0211985116
 30
0.0
  0
VERTEX
  8
0
 10
-567.25106464
 20
79.9888865719
 30
0.0
  0
VERTEX
  8
0
 10
-567.289182671
 20
79.956528954
 30
0.0
  0
VERTEX
  8
0
 10
-567.327261919
 20
79.9241257042
 30
0.0
  0
VERTEX
  8
0
 10
-567.365302329
 20
79.8916768691
 30
0.0
  0
VERTEX
  8
0
 10
-567.403303847
 20
79.8591824953
 30
0.0
  0
VERTEX
  8
0
 10
-567.441266418
 20
79.8266426293
 30
0.0
  0
VERTEX
  8
0
 10
-567.479189988
 20
79.7940573177
 30
0.0
  0
VERTEX
  8
0
 10
-567.517074503
 20
79.7614266075
 30
0.0
  0
VERTEX
  8
0
 10
-567.554919908
 20
79.7287505453
 30
0.0
  0
VERTEX
  8
0
 10
-567.592726148
 20
79.6960291781
 30
0.0
  0
VERTEX
  8
0
 10
-567.630493171
 20
79.6632625528
 30
0.0
  0
VERTEX
  8
0
 10
-567.66822092
 20
79.6304507163
 30
0.0
  0
VERTEX
  8
0
 10
-567.705909343
 20
79.5975937158
 30
0.0
  0
VERTEX
  8
0
 10
-567.743558385
 20
79.5646915984
 30
0.0
  0
VERTEX
  8
0
 10
-567.781167993
 20
79.5317444113
 30
0.0
  0
VERTEX
  8
0
 10
-567.818738111
 20
79.4987522018
 30
0.0
  0
VERTEX
  8
0
 10
-567.856268687
 20
79.4657150172
 30
0.0
  0
VERTEX
  8
0
 10
-567.893759667
 20
79.4326329048
 30
0.0
  0
VERTEX
  8
0
 10
-567.931210996
 20
79.3995059122
 30
0.0
  0
VERTEX
  8
0
 10
-567.968622621
 20
79.3663340868
 30
0.0
  0
VERTEX
  8
0
 10
-568.005994489
 20
79.3331174763
 30
0.0
  0
VERTEX
  8
0
 10
-568.043326545
 20
79.2998561283
 30
0.0
  0
VERTEX
  8
0
 10
-568.080618737
 20
79.2665500906
 30
0.0
  0
VERTEX
  8
0
 10
-568.11787101
 20
79.2331994108
 30
0.0
  0
VERTEX
  8
0
 10
-568.155083311
 20
79.1998041368
 30
0.0
  0
VERTEX
  8
0
 10
-568.192255587
 20
79.1663643166
 30
0.0
  0
VERTEX
  8
0
 10
-568.229387785
 20
79.1328799982
 30
0.0
  0
VERTEX
  8
0
 10
-568.266479851
 20
79.0993512294
 30
0.0
  0
VERTEX
  8
0
 10
-568.303531733
 20
79.0657780586
 30
0.0
  0
VERTEX
  8
0
 10
-568.340543376
 20
79.0321605337
 30
0.0
  0
VERTEX
  8
0
 10
-568.377514728
 20
78.9984987031
 30
0.0
  0
VERTEX
  8
0
 10
-568.414445735
 20
78.964792615
 30
0.0
  0
VERTEX
  8
0
 10
-568.451336346
 20
78.9310423178
 30
0.0
  0
VERTEX
  8
0
 10
-568.488186506
 20
78.8972478599
 30
0.0
  0
VERTEX
  8
0
 10
-568.524996163
 20
78.8634092898
 30
0.0
  0
VERTEX
  8
0
 10
-568.561765265
 20
78.829526656
 30
0.0
  0
VERTEX
  8
0
 10
-568.598493758
 20
78.7956000071
 30
0.0
  0
VERTEX
  8
0
 10
-568.63518159
 20
78.7616293919
 30
0.0
  0
VERTEX
  8
0
 10
-568.671828708
 20
78.7276148589
 30
0.0
  0
VERTEX
  8
0
 10
-568.708435059
 20
78.6935564571
 30
0.0
  0
VERTEX
  8
0
 10
-568.745000592
 20
78.6594542353
 30
0.0
  0
VERTEX
  8
0
 10
-568.781525253
 20
78.6253082424
 30
0.0
  0
VERTEX
  8
0
 10
-568.81800899
 20
78.5911185274
 30
0.0
  0
VERTEX
  8
0
 10
-568.854451751
 20
78.5568851393
 30
0.0
  0
VERTEX
  8
0
 10
-568.890853484
 20
78.5226081272
 30
0.0
  0
VERTEX
  8
0
 10
-568.927214136
 20
78.4882875404
 30
0.0
  0
VERTEX
  8
0
 10
-568.963533655
 20
78.4539234281
 30
0.0
  0
VERTEX
  8
0
 10
-568.99981199
 20
78.4195158395
 30
0.0
  0
VERTEX
  8
0
 10
-569.036049087
 20
78.385064824
 30
0.0
  0
VERTEX
  8
0
 10
-569.072244896
 20
78.350570431
 30
0.0
  0
VERTEX
  8
0
 10
-569.108399363
 20
78.3160327101
 30
0.0
  0
VERTEX
  8
0
 10
-569.144512438
 20
78.2814517107
 30
0.0
  0
VERTEX
  8
0
 10
-569.180584069
 20
78.2468274825
 30
0.0
  0
VERTEX
  8
0
 10
-569.216614203
 20
78.2121600751
 30
0.0
  0
VERTEX
  8
0
 10
-569.252602789
 20
78.1774495383
 30
0.0
  0
VERTEX
  8
0
 10
-569.288549776
 20
78.1426959219
 30
0.0
  0
VERTEX
  8
0
 10
-569.324455111
 20
78.1078992757
 30
0.0
  0
VERTEX
  8
0
 10
-569.360318744
 20
78.0730596496
 30
0.0
  0
VERTEX
  8
0
 10
-569.396140623
 20
78.0381770937
 30
0.0
  0
VERTEX
  8
0
 10
-569.431920696
 20
78.0032516579
 30
0.0
  0
VERTEX
  8
0
 10
-569.467658912
 20
77.9682833924
 30
0.0
  0
VERTEX
  8
0
 10
-569.503355221
 20
77.9332723473
 30
0.0
  0
VERTEX
  8
0
 10
-569.539009569
 20
77.8982185729
 30
0.0
  0
VERTEX
  8
0
 10
-569.574621908
 20
77.8631221194
 30
0.0
  0
VERTEX
  8
0
 10
-569.610192185
 20
77.8279830372
 30
0.0
  0
VERTEX
  8
0
 10
-569.645720349
 20
77.7928013767
 30
0.0
  0
VERTEX
  8
0
 10
-569.68120635
 20
77.7575771884
 30
0.0
  0
VERTEX
  8
0
 10
-569.716650137
 20
77.7223105227
 30
0.0
  0
VERTEX
  8
0
 10
-569.752051658
 20
77.6870014304
 30
0.0
  0
VERTEX
  8
0
 10
-569.787410863
 20
77.651649962
 30
0.0
  0
VERTEX
  8
0
 10
-569.822727701
 20
77.6162561682
 30
0.0
  0
VERTEX
  8
0
 10
-569.858002122
 20
77.5808200999
 30
0.0
  0
VERTEX
  8
0
 10
-569.893234075
 20
77.5453418078
 30
0.0
  0
VERTEX
  8
0
 10
-569.928423509
 20
77.5098213429
 30
0.0
  0
VERTEX
  8
0
 10
-569.963570374
 20
77.4742587562
 30
0.0
  0
VERTEX
  8
0
 10
-569.998674619
 20
77.4386540985
 30
0.0
  0
VERTEX
  8
0
 10
-570.033736195
 20
77.4030074211
 30
0.0
  0
VERTEX
  8
0
 10
-570.068755051
 20
77.367318775
 30
0.0
  0
VERTEX
  8
0
 10
-570.103731136
 20
77.3315882114
 30
0.0
  0
VERTEX
  8
0
 10
-570.1386644
 20
77.2958157817
 30
0.0
  0
VERTEX
  8
0
 10
-570.173554794
 20
77.260001537
 30
0.0
  0
VERTEX
  8
0
 10
-570.208402267
 20
77.2241455289
 30
0.0
  0
VERTEX
  8
0
 10
-570.243206769
 20
77.1882478087
 30
0.0
  0
VERTEX
  8
0
 10
-570.277968251
 20
77.1523084279
 30
0.0
  0
VERTEX
  8
0
 10
-570.312686662
 20
77.1163274381
 30
0.0
  0
VERTEX
  8
0
 10
-570.347361953
 20
77.0803048909
 30
0.0
  0
VERTEX
  8
0
 10
-570.381994074
 20
77.044240838
 30
0.0
  0
VERTEX
  8
0
 10
-570.416582975
 20
77.0081353312
 30
0.0
  0
VERTEX
  8
0
 10
-570.451128607
 20
76.9719884221
 30
0.0
  0
VERTEX
  8
0
 10
-570.485630919
 20
76.9358001627
 30
0.0
  0
VERTEX
  8
0
 10
-570.520089864
 20
76.8995706048
 30
0.0
  0
VERTEX
  8
0
 10
-570.55450539
 20
76.8632998006
 30
0.0
  0
VERTEX
  8
0
 10
-570.588877449
 20
76.8269878019
 30
0.0
  0
VERTEX
  8
0
 10
-570.623205992
 20
76.7906346608
 30
0.0
  0
VERTEX
  8
0
 10
-570.657490969
 20
76.7542404297
 30
0.0
  0
VERTEX
  8
0
 10
-570.691732331
 20
76.7178051605
 30
0.0
  0
VERTEX
  8
0
 10
-570.725930028
 20
76.6813289056
 30
0.0
  0
VERTEX
  8
0
 10
-570.760084013
 20
76.6448117174
 30
0.0
  0
VERTEX
  8
0
 10
-570.794194235
 20
76.6082536482
 30
0.0
  0
VERTEX
  8
0
 10
-570.828260647
 20
76.5716547505
 30
0.0
  0
VERTEX
  8
0
 10
-570.862283198
 20
76.5350150767
 30
0.0
  0
VERTEX
  8
0
 10
-570.896261841
 20
76.4983346795
 30
0.0
  0
VERTEX
  8
0
 10
-570.930196526
 20
76.4616136114
 30
0.0
  0
VERTEX
  8
0
 10
-570.964087205
 20
76.4248519251
 30
0.0
  0
VERTEX
  8
0
 10
-570.997933829
 20
76.3880496734
 30
0.0
  0
VERTEX
  8
0
 10
-571.03173635
 20
76.351206909
 30
0.0
  0
VERTEX
  8
0
 10
-571.065494719
 20
76.3143236849
 30
0.0
  0
VERTEX
  8
0
 10
-571.099208888
 20
76.2774000538
 30
0.0
  0
VERTEX
  8
0
 10
-571.132878808
 20
76.2404360689
 30
0.0
  0
VERTEX
  8
0
 10
-571.166504431
 20
76.2034317831
 30
0.0
  0
VERTEX
  8
0
 10
-571.200085709
 20
76.1663872495
 30
0.0
  0
VERTEX
  8
0
 10
-571.233622594
 20
76.1293025212
 30
0.0
  0
VERTEX
  8
0
 10
-571.267115037
 20
76.0921776514
 30
0.0
  0
VERTEX
  8
0
 10
-571.300562991
 20
76.0550126935
 30
0.0
  0
VERTEX
  8
0
 10
-571.333966407
 20
76.0178077007
 30
0.0
  0
VERTEX
  8
0
 10
-571.367325237
 20
75.9805627263
 30
0.0
  0
VERTEX
  8
0
 10
-571.400639435
 20
75.9432778239
 30
0.0
  0
VERTEX
  8
0
 10
-571.433908951
 20
75.9059530469
 30
0.0
  0
VERTEX
  8
0
 10
-571.467133739
 20
75.8685884488
 30
0.0
  0
VERTEX
  8
0
 10
-571.50031375
 20
75.8311840833
 30
0.0
  0
VERTEX
  8
0
 10
-571.533448937
 20
75.793740004
 30
0.0
  0
VERTEX
  8
0
 10
-571.566539253
 20
75.7562562646
 30
0.0
  0
VERTEX
  8
0
 10
-571.599584649
 20
75.718732919
 30
0.0
  0
VERTEX
  8
0
 10
-571.632585079
 20
75.6811700208
 30
0.0
  0
VERTEX
  8
0
 10
-571.665540496
 20
75.6435676241
 30
0.0
  0
VERTEX
  8
0
 10
-571.698450851
 20
75.6059257827
 30
0.0
  0
VERTEX
  8
0
 10
-571.731316098
 20
75.5682445506
 30
0.0
  0
VERTEX
  8
0
 10
-571.764136189
 20
75.530523982
 30
0.0
  0
VERTEX
  8
0
 10
-571.796911078
 20
75.4927641309
 30
0.0
  0
VERTEX
  8
0
 10
-571.829640717
 20
75.4549650515
 30
0.0
  0
VERTEX
  8
0
 10
-571.86232506
 20
75.417126798
 30
0.0
  0
VERTEX
  8
0
 10
-571.89496406
 20
75.3792494247
 30
0.0
  0
VERTEX
  8
0
 10
-571.927557669
 20
75.3413329859
 30
0.0
  0
VERTEX
  8
0
 10
-571.960105842
 20
75.303377536
 30
0.0
  0
VERTEX
  8
0
 10
-571.99260853
 20
75.2653831296
 30
0.0
  0
VERTEX
  8
0
 10
-572.025065689
 20
75.227349821
 30
0.0
  0
VERTEX
  8
0
 10
-572.057477271
 20
75.1892776648
 30
0.0
  0
VERTEX
  8
0
 10
-572.089843229
 20
75.1511667157
 30
0.0
  0
VERTEX
  8
0
 10
-572.122163518
 20
75.1130170284
 30
0.0
  0
VERTEX
  8
0
 10
-572.15443809
 20
75.0748286575
 30
0.0
  0
VERTEX
  8
0
 10
-572.1866669
 20
75.0366016578
 30
0.0
  0
VERTEX
  8
0
 10
-572.218849902
 20
74.9983360842
 30
0.0
  0
VERTEX
  8
0
 10
-572.250987048
 20
74.9600319916
 30
0.0
  0
VERTEX
  8
0
 10
-572.283078294
 20
74.9216894349
 30
0.0
  0
VERTEX
  8
0
 10
-572.315123592
 20
74.8833084691
 30
0.0
  0
VERTEX
  8
0
 10
-572.347122898
 20
74.8448891494
 30
0.0
  0
VERTEX
  8
0
 10
-572.379076165
 20
74.8064315307
 30
0.0
  0
VERTEX
  8
0
 10
-572.410983347
 20
74.7679356683
 30
0.0
  0
VERTEX
  8
0
 10
-572.442844399
 20
74.7294016173
 30
0.0
  0
VERTEX
  8
0
 10
-572.474659275
 20
74.6908294332
 30
0.0
  0
VERTEX
  8
0
 10
-572.506427929
 20
74.6522191712
 30
0.0
  0
VERTEX
  8
0
 10
-572.538150315
 20
74.6135708866
 30
0.0
  0
VERTEX
  8
0
 10
-572.569826389
 20
74.574884635
 30
0.0
  0
VERTEX
  8
0
 10
-572.601456104
 20
74.5361604719
 30
0.0
  0
VERTEX
  8
0
 10
-572.633039416
 20
74.4973984527
 30
0.0
  0
VERTEX
  8
0
 10
-572.664576278
 20
74.4585986331
 30
0.0
  0
VERTEX
  8
0
 10
-572.696066647
 20
74.4197610688
 30
0.0
  0
VERTEX
  8
0
 10
-572.727510475
 20
74.3808858154
 30
0.0
  0
VERTEX
  8
0
 10
-572.75890772
 20
74.3419729288
 30
0.0
  0
VERTEX
  8
0
 10
-572.790258335
 20
74.3030224648
 30
0.0
  0
VERTEX
  8
0
 10
-572.821562275
 20
74.2640344791
 30
0.0
  0
VERTEX
  8
0
 10
-572.852819496
 20
74.2250090279
 30
0.0
  0
VERTEX
  8
0
 10
-572.884029952
 20
74.185946167
 30
0.0
  0
VERTEX
  8
0
 10
-572.9151936
 20
74.1468459525
 30
0.0
  0
VERTEX
  8
0
 10
-572.946310394
 20
74.1077084404
 30
0.0
  0
VERTEX
  8
0
 10
-572.977380289
 20
74.068533687
 30
0.0
  0
VERTEX
  8
0
 10
-573.008403241
 20
74.0293217484
 30
0.0
  0
VERTEX
  8
0
 10
-573.039379206
 20
73.9900726809
 30
0.0
  0
VERTEX
  8
0
 10
-573.070308139
 20
73.9507865408
 30
0.0
  0
VERTEX
  8
0
 10
-573.101189996
 20
73.9114633844
 30
0.0
  0
VERTEX
  8
0
 10
-573.132024732
 20
73.8721032681
 30
0.0
  0
VERTEX
  8
0
 10
-573.162812303
 20
73.8327062485
 30
0.0
  0
VERTEX
  8
0
 10
-573.193552666
 20
73.793272382
 30
0.0
  0
VERTEX
  8
0
 10
-573.224245775
 20
73.7538017252
 30
0.0
  0
VERTEX
  8
0
 10
-573.254891587
 20
73.7142943347
 30
0.0
  0
VERTEX
  8
0
 10
-573.285490058
 20
73.6747502672
 30
0.0
  0
VERTEX
  8
0
 10
-573.316041144
 20
73.6351695795
 30
0.0
  0
VERTEX
  8
0
 10
-573.346544801
 20
73.5955523282
 30
0.0
  0
VERTEX
  8
0
 10
-573.377000986
 20
73.5558985703
 30
0.0
  0
VERTEX
  8
0
 10
-573.407409654
 20
73.5162083626
 30
0.0
  0
VERTEX
  8
0
 10
-573.437770763
 20
73.4764817621
 30
0.0
  0
VERTEX
  8
0
 10
-573.468084268
 20
73.4367188257
 30
0.0
  0
VERTEX
  8
0
 10
-573.498350126
 20
73.3969196105
 30
0.0
  0
VERTEX
  8
0
 10
-573.528568294
 20
73.3570841737
 30
0.0
  0
VERTEX
  8
0
 10
-573.558738728
 20
73.3172125722
 30
0.0
  0
VERTEX
  8
0
 10
-573.588861385
 20
73.2773048634
 30
0.0
  0
VERTEX
  8
0
 10
-573.618936222
 20
73.2373611044
 30
0.0
  0
VERTEX
  8
0
 10
-573.648963196
 20
73.1973813527
 30
0.0
  0
VERTEX
  8
0
 10
-573.678942263
 20
73.1573656655
 30
0.0
  0
VERTEX
  8
0
 10
-573.708873381
 20
73.1173141002
 30
0.0
  0
VERTEX
  8
0
 10
-573.738756507
 20
73.0772267143
 30
0.0
  0
VERTEX
  8
0
 10
-573.768591597
 20
73.0371035653
 30
0.0
  0
VERTEX
  8
0
 10
-573.79837861
 20
72.9969447108
 30
0.0
  0
VERTEX
  8
0
 10
-573.828117501
 20
72.9567502084
 30
0.0
  0
VERTEX
  8
0
 10
-573.857808229
 20
72.9165201157
 30
0.0
  0
VERTEX
  8
0
 10
-573.887450752
 20
72.8762544904
 30
0.0
  0
VERTEX
  8
0
 10
-573.917045025
 20
72.8359533904
 30
0.0
  0
VERTEX
  8
0
 10
-573.946591008
 20
72.7956168734
 30
0.0
  0
VERTEX
  8
0
 10
-573.976088658
 20
72.7552449972
 30
0.0
  0
VERTEX
  8
0
 10
-574.005537931
 20
72.7148378199
 30
0.0
  0
VERTEX
  8
0
 10
-574.034938787
 20
72.6743953994
 30
0.0
  0
VERTEX
  8
0
 10
-574.064291183
 20
72.6339177936
 30
0.0
  0
VERTEX
  8
0
 10
-574.093595076
 20
72.5934050607
 30
0.0
  0
VERTEX
  8
0
 10
-574.122850425
 20
72.5528572587
 30
0.0
  0
VERTEX
  8
0
 10
-574.152057188
 20
72.5122744459
 30
0.0
  0
VERTEX
  8
0
 10
-574.181215323
 20
72.4716566805
 30
0.0
  0
VERTEX
  8
0
 10
-574.210324788
 20
72.4310040207
 30
0.0
  0
VERTEX
  8
0
 10
-574.239385542
 20
72.3903165248
 30
0.0
  0
VERTEX
  8
0
 10
-574.268397541
 20
72.3495942512
 30
0.0
  0
VERTEX
  8
0
 10
-574.297360746
 20
72.3088372584
 30
0.0
  0
VERTEX
  8
0
 10
-574.326275115
 20
72.2680456048
 30
0.0
  0
VERTEX
  8
0
 10
-574.355140605
 20
72.2272193489
 30
0.0
  0
VERTEX
  8
0
 10
-574.383957176
 20
72.1863585492
 30
0.0
  0
VERTEX
  8
0
 10
-574.412724786
 20
72.1454632645
 30
0.0
  0
VERTEX
  8
0
 10
-574.441443394
 20
72.1045335533
 30
0.0
  0
VERTEX
  8
0
 10
-574.470112959
 20
72.0635694745
 30
0.0
  0
VERTEX
  8
0
 10
-574.498733439
 20
72.0225710867
 30
0.0
  0
VERTEX
  8
0
 10
-574.527304794
 20
71.9815384487
 30
0.0
  0
VERTEX
  8
0
 10
-574.555826982
 20
71.9404716195
 30
0.0
  0
VERTEX
  8
0
 10
-574.584299964
 20
71.8993706579
 30
0.0
  0
VERTEX
  8
0
 10
-574.612723697
 20
71.8582356229
 30
0.0
  0
VERTEX
  8
0
 10
-574.641098141
 20
71.8170665735
 30
0.0
  0
VERTEX
  8
0
 10
-574.669423255
 20
71.7758635688
 30
0.0
  0
VERTEX
  8
0
 10
-574.697698999
 20
71.7346266679
 30
0.0
  0
VERTEX
  8
0
 10
-574.725925332
 20
71.6933559299
 30
0.0
  0
VERTEX
  8
0
 10
-574.754102214
 20
71.652051414
 30
0.0
  0
VERTEX
  8
0
 10
-574.782229604
 20
71.6107131795
 30
0.0
  0
VERTEX
  8
0
 10
-574.810307462
 20
71.5693412858
 30
0.0
  0
VERTEX
  8
0
 10
-574.838335748
 20
71.527935792
 30
0.0
  0
VERTEX
  8
0
 10
-574.866314421
 20
71.4864967578
 30
0.0
  0
VERTEX
  8
0
 10
-574.894243441
 20
71.4450242424
 30
0.0
  0
VERTEX
  8
0
 10
-574.922122768
 20
71.4035183054
 30
0.0
  0
VERTEX
  8
0
 10
-574.949952363
 20
71.3619790063
 30
0.0
  0
VERTEX
  8
0
 10
-574.977732185
 20
71.3204064047
 30
0.0
  0
VERTEX
  8
0
 10
-575.005462194
 20
71.2788005603
 30
0.0
  0
VERTEX
  8
0
 10
-575.033142351
 20
71.2371615328
 30
0.0
  0
VERTEX
  8
0
 10
-575.060772615
 20
71.1954893818
 30
0.0
  0
VERTEX
  8
0
 10
-575.088352949
 20
71.1537841671
 30
0.0
  0
VERTEX
  8
0
 10
-575.11588331
 20
71.1120459487
 30
0.0
  0
VERTEX
  8
0
 10
-575.143363661
 20
71.0702747863
 30
0.0
  0
VERTEX
  8
0
 10
-575.170793962
 20
71.0284707399
 30
0.0
  0
VERTEX
  8
0
 10
-575.198174174
 20
70.9866338694
 30
0.0
  0
VERTEX
  8
0
 10
-575.225504256
 20
70.9447642349
 30
0.0
  0
VERTEX
  8
0
 10
-575.252784171
 20
70.9028618965
 30
0.0
  0
VERTEX
  8
0
 10
-575.280013878
 20
70.8609269142
 30
0.0
  0
VERTEX
  8
0
 10
-575.307193339
 20
70.8189593482
 30
0.0
  0
VERTEX
  8
0
 10
-575.334322515
 20
70.7769592587
 30
0.0
  0
VERTEX
  8
0
 10
-575.361401367
 20
70.7349267059
 30
0.0
  0
VERTEX
  8
0
 10
-575.388429855
 20
70.6928617502
 30
0.0
  0
VERTEX
  8
0
 10
-575.415407942
 20
70.650764452
 30
0.0
  0
VERTEX
  8
0
 10
-575.442335589
 20
70.6086348715
 30
0.0
  0
VERTEX
  8
0
 10
-575.469212756
 20
70.5664730692
 30
0.0
  0
VERTEX
  8
0
 10
-575.496039406
 20
70.5242791057
 30
0.0
  0
VERTEX
  8
0
 10
-575.5228155
 20
70.4820530414
 30
0.0
  0
VERTEX
  8
0
 10
-575.549540999
 20
70.4397949369
 30
0.0
  0
VERTEX
  8
0
 10
-575.576215865
 20
70.3975048528
 30
0.0
  0
VERTEX
  8
0
 10
-575.602840061
 20
70.3551828499
 30
0.0
  0
VERTEX
  8
0
 10
-575.629413546
 20
70.3128289887
 30
0.0
  0
VERTEX
  8
0
 10
-575.655936285
 20
70.2704433302
 30
0.0
  0
VERTEX
  8
0
 10
-575.682408238
 20
70.228025935
 30
0.0
  0
VERTEX
  8
0
 10
-575.708829367
 20
70.1855768641
 30
0.0
  0
VERTEX
  8
0
 10
-575.735199635
 20
70.1430961783
 30
0.0
  0
VERTEX
  8
0
 10
-575.761519004
 20
70.1005839386
 30
0.0
  0
VERTEX
  8
0
 10
-575.787787436
 20
70.0580402059
 30
0.0
  0
VERTEX
  8
0
 10
-575.814004893
 20
70.0154650413
 30
0.0
  0
VERTEX
  8
0
 10
-575.840171338
 20
69.9728585058
 30
0.0
  0
VERTEX
  8
0
 10
-575.866286733
 20
69.9302206607
 30
0.0
  0
VERTEX
  8
0
 10
-575.892351041
 20
69.887551567
 30
0.0
  0
VERTEX
  8
0
 10
-575.918364224
 20
69.8448512859
 30
0.0
  0
VERTEX
  8
0
 10
-575.944326245
 20
69.8021198788
 30
0.0
  0
VERTEX
  8
0
 10
-575.970237067
 20
69.7593574069
 30
0.0
  0
VERTEX
  8
0
 10
-575.996096653
 20
69.7165639316
 30
0.0
  0
VERTEX
  8
0
 10
-576.021904965
 20
69.6737395142
 30
0.0
  0
VERTEX
  8
0
 10
-576.047661966
 20
69.6308842162
 30
0.0
  0
VERTEX
  8
0
 10
-576.073367621
 20
69.587998099
 30
0.0
  0
VERTEX
  8
0
 10
-576.099021891
 20
69.5450812243
 30
0.0
  0
VERTEX
  8
0
 10
-576.124624739
 20
69.5021336534
 30
0.0
  0
VERTEX
  8
0
 10
-576.15017613
 20
69.4591554482
 30
0.0
  0
VERTEX
  8
0
 10
-576.175676026
 20
69.4161466702
 30
0.0
  0
VERTEX
  8
0
 10
-576.201124392
 20
69.3731073811
 30
0.0
  0
VERTEX
  8
0
 10
-576.226521189
 20
69.3300376426
 30
0.0
  0
VERTEX
  8
0
 10
-576.251866383
 20
69.2869375166
 30
0.0
  0
VERTEX
  8
0
 10
-576.277159936
 20
69.2438070648
 30
0.0
  0
VERTEX
  8
0
 10
-576.302401813
 20
69.2006463493
 30
0.0
  0
VERTEX
  8
0
 10
-576.327591976
 20
69.1574554317
 30
0.0
  0
VERTEX
  8
0
 10
-576.352730391
 20
69.1142343742
 30
0.0
  0
VERTEX
  8
0
 10
-576.37781702
 20
69.0709832387
 30
0.0
  0
VERTEX
  8
0
 10
-576.402851829
 20
69.0277020873
 30
0.0
  0
VERTEX
  8
0
 10
-576.42783478
 20
68.9843909821
 30
0.0
  0
VERTEX
  8
0
 10
-576.452765839
 20
68.9410499851
 30
0.0
  0
VERTEX
  8
0
 10
-576.477644969
 20
68.8976791586
 30
0.0
  0
VERTEX
  8
0
 10
-576.502472135
 20
68.8542785648
 30
0.0
  0
VERTEX
  8
0
 10
-576.5272473
 20
68.8108482659
 30
0.0
  0
VERTEX
  8
0
 10
-576.551970431
 20
68.7673883243
 30
0.0
  0
VERTEX
  8
0
 10
-576.57664149
 20
68.7238988023
 30
0.0
  0
VERTEX
  8
0
 10
-576.601260443
 20
68.6803797622
 30
0.0
  0
VERTEX
  8
0
 10
-576.625827255
 20
68.6368312666
 30
0.0
  0
VERTEX
  8
0
 10
-576.65034189
 20
68.5932533778
 30
0.0
  0
VERTEX
  8
0
 10
-576.674804312
 20
68.5496461585
 30
0.0
  0
VERTEX
  8
0
 10
-576.699214488
 20
68.5060096711
 30
0.0
  0
VERTEX
  8
0
 10
-576.723572381
 20
68.4623439783
 30
0.0
  0
VERTEX
  8
0
 10
-576.747877958
 20
68.4186491426
 30
0.0
  0
VERTEX
  8
0
 10
-576.772131182
 20
68.3749252269
 30
0.0
  0
VERTEX
  8
0
 10
-576.79633202
 20
68.3311722937
 30
0.0
  0
VERTEX
  8
0
 10
-576.820480436
 20
68.2873904059
 30
0.0
  0
VERTEX
  8
0
 10
-576.844576396
 20
68.2435796263
 30
0.0
  0
VERTEX
  8
0
 10
-576.868619865
 20
68.1997400177
 30
0.0
  0
VERTEX
  8
0
 10
-576.892610809
 20
68.155871643
 30
0.0
  0
VERTEX
  8
0
 10
-576.916549194
 20
68.1119745652
 30
0.0
  0
VERTEX
  8
0
 10
-576.940434985
 20
68.0680488471
 30
0.0
  0
VERTEX
  8
0
 10
-576.964268147
 20
68.024094552
 30
0.0
  0
VERTEX
  8
0
 10
-576.988048647
 20
67.9801117427
 30
0.0
  0
VERTEX
  8
0
 10
-577.011776451
 20
67.9361004823
 30
0.0
  0
VERTEX
  8
0
 10
-577.035451524
 20
67.8920608342
 30
0.0
  0
VERTEX
  8
0
 10
-577.059073833
 20
67.8479928613
 30
0.0
  0
VERTEX
  8
0
 10
-577.082643343
 20
67.8038966269
 30
0.0
  0
VERTEX
  8
0
 10
-577.106160021
 20
67.7597721943
 30
0.0
  0
VERTEX
  8
0
 10
-577.129623833
 20
67.7156196267
 30
0.0
  0
VERTEX
  8
0
 10
-577.153034746
 20
67.6714389876
 30
0.0
  0
VERTEX
  8
0
 10
-577.176392725
 20
67.6272303402
 30
0.0
  0
VERTEX
  8
0
 10
-577.199697738
 20
67.5829937481
 30
0.0
  0
VERTEX
  8
0
 10
-577.222949751
 20
67.5387292747
 30
0.0
  0
VERTEX
  8
0
 10
-577.24614873
 20
67.4944369834
 30
0.0
  0
VERTEX
  8
0
 10
-577.269294642
 20
67.4501169378
 30
0.0
  0
VERTEX
  8
0
 10
-577.292387454
 20
67.4057692015
 30
0.0
  0
VERTEX
  8
0
 10
-577.315427134
 20
67.3613938381
 30
0.0
  0
VERTEX
  8
0
 10
-577.338413647
 20
67.3169909113
 30
0.0
  0
VERTEX
  8
0
 10
-577.361346961
 20
67.2725604847
 30
0.0
  0
VERTEX
  8
0
 10
-577.384227043
 20
67.2281026222
 30
0.0
  0
VERTEX
  8
0
 10
-577.407053861
 20
67.1836173874
 30
0.0
  0
VERTEX
  8
0
 10
-577.42982738
 20
67.1391048442
 30
0.0
  0
VERTEX
  8
0
 10
-577.45254757
 20
67.0945650565
 30
0.0
  0
VERTEX
  8
0
 10
-577.475214396
 20
67.0499980881
 30
0.0
  0
VERTEX
  8
0
 10
-577.497827828
 20
67.005404003
 30
0.0
  0
VERTEX
  8
0
 10
-577.520387831
 20
66.9607828651
 30
0.0
  0
VERTEX
  8
0
 10
-577.542894375
 20
66.9161347385
 30
0.0
  0
VERTEX
  8
0
 10
-577.565347426
 20
66.8714596873
 30
0.0
  0
VERTEX
  8
0
 10
-577.587746952
 20
66.8267577754
 30
0.0
  0
VERTEX
  8
0
 10
-577.610092921
 20
66.782029067
 30
0.0
  0
VERTEX
  8
0
 10
-577.632385302
 20
66.7372736264
 30
0.0
  0
VERTEX
  8
0
 10
-577.654624062
 20
66.6924915176
 30
0.0
  0
VERTEX
  8
0
 10
-577.676809169
 20
66.647682805
 30
0.0
  0
VERTEX
  8
0
 10
-577.698940591
 20
66.6028475528
 30
0.0
  0
VERTEX
  8
0
 10
-577.721018297
 20
66.5579858254
 30
0.0
  0
VERTEX
  8
0
 10
-577.743042256
 20
66.513097687
 30
0.0
  0
VERTEX
  8
0
 10
-577.765012434
 20
66.4681832022
 30
0.0
  0
VERTEX
  8
0
 10
-577.786928802
 20
66.4232424352
 30
0.0
  0
VERTEX
  8
0
 10
-577.808791327
 20
66.3782754507
 30
0.0
  0
VERTEX
  8
0
 10
-577.830599978
 20
66.3332823131
 30
0.0
  0
VERTEX
  8
0
 10
-577.852354724
 20
66.2882630869
 30
0.0
  0
VERTEX
  8
0
 10
-577.874055534
 20
66.2432178367
 30
0.0
  0
VERTEX
  8
0
 10
-577.895702376
 20
66.1981466272
 30
0.0
  0
VERTEX
  8
0
 10
-577.917295219
 20
66.153049523
 30
0.0
  0
VERTEX
  8
0
 10
-577.938834033
 20
66.1079265887
 30
0.0
  0
VERTEX
  8
0
 10
-577.960318787
 20
66.0627778893
 30
0.0
  0
VERTEX
  8
0
 10
-577.981749449
 20
66.0176034893
 30
0.0
  0
VERTEX
  8
0
 10
-578.00312599
 20
65.9724034536
 30
0.0
  0
VERTEX
  8
0
 10
-578.024448377
 20
65.927177847
 30
0.0
  0
VERTEX
  8
0
 10
-578.045716582
 20
65.8819267345
 30
0.0
  0
VERTEX
  8
0
 10
-578.066930572
 20
65.836650181
 30
0.0
  0
VERTEX
  8
0
 10
-578.088090319
 20
65.7913482513
 30
0.0
  0
VERTEX
  8
0
 10
-578.10919579
 20
65.7460210105
 30
0.0
  0
VERTEX
  8
0
 10
-578.130246957
 20
65.7006685236
 30
0.0
  0
VERTEX
  8
0
 10
-578.151243789
 20
65.6552908556
 30
0.0
  0
VERTEX
  8
0
 10
-578.172186256
 20
65.6098880717
 30
0.0
  0
VERTEX
  8
0
 10
-578.193074328
 20
65.564460237
 30
0.0
  0
VERTEX
  8
0
 10
-578.213907974
 20
65.5190074167
 30
0.0
  0
VERTEX
  8
0
 10
-578.234687166
 20
65.473529676
 30
0.0
  0
VERTEX
  8
0
 10
-578.255411872
 20
65.42802708
 30
0.0
  0
VERTEX
  8
0
 10
-578.276082064
 20
65.3824996941
 30
0.0
  0
VERTEX
  8
0
 10
-578.296697712
 20
65.3369475836
 30
0.0
  0
VERTEX
  8
0
 10
-578.317258786
 20
65.2913708139
 30
0.0
  0
VERTEX
  8
0
 10
-578.337765257
 20
65.2457694503
 30
0.0
  0
VERTEX
  8
0
 10
-578.358217095
 20
65.2001435582
 30
0.0
  0
VERTEX
  8
0
 10
-578.37861427
 20
65.1544932031
 30
0.0
  0
VERTEX
  8
0
 10
-578.398956755
 20
65.1088184505
 30
0.0
  0
VERTEX
  8
0
 10
-578.419244519
 20
65.0631193659
 30
0.0
  0
VERTEX
  8
0
 10
-578.439477533
 20
65.0173960149
 30
0.0
  0
VERTEX
  8
0
 10
-578.459655769
 20
64.971648463
 30
0.0
  0
VERTEX
  8
0
 10
-578.479779197
 20
64.9258767759
 30
0.0
  0
VERTEX
  8
0
 10
-578.499847789
 20
64.8800810192
 30
0.0
  0
VERTEX
  8
0
 10
-578.519861515
 20
64.8342612587
 30
0.0
  0
VERTEX
  8
0
 10
-578.539820348
 20
64.78841756
 30
0.0
  0
VERTEX
  8
0
 10
-578.559724258
 20
64.742549989
 30
0.0
  0
VERTEX
  8
0
 10
-578.579573216
 20
64.6966586114
 30
0.0
  0
VERTEX
  8
0
 10
-578.599367196
 20
64.6507434931
 30
0.0
  0
VERTEX
  8
0
 10
-578.619106167
 20
64.6048046999
 30
0.0
  0
VERTEX
  8
0
 10
-578.638790102
 20
64.5588422977
 30
0.0
  0
VERTEX
  8
0
 10
-578.658418972
 20
64.5128563526
 30
0.0
  0
VERTEX
  8
0
 10
-578.677992749
 20
64.4668469303
 30
0.0
  0
VERTEX
  8
0
 10
-578.697511406
 20
64.420814097
 30
0.0
  0
VERTEX
  8
0
 10
-578.716974914
 20
64.3747579187
 30
0.0
  0
VERTEX
  8
0
 10
-578.736383245
 20
64.3286784615
 30
0.0
  0
VERTEX
  8
0
 10
-578.755736372
 20
64.2825757914
 30
0.0
  0
VERTEX
  8
0
 10
-578.775034266
 20
64.2364499746
 30
0.0
  0
VERTEX
  8
0
 10
-578.7942769
 20
64.1903010772
 30
0.0
  0
VERTEX
  8
0
 10
-578.813464247
 20
64.1441291655
 30
0.0
  0
VERTEX
  8
0
 10
-578.832596279
 20
64.0979343058
 30
0.0
  0
VERTEX
  8
0
 10
-578.851672968
 20
64.0517165641
 30
0.0
  0
VERTEX
  8
0
 10
-578.870694287
 20
64.005476007
 30
0.0
  0
VERTEX
  8
0
 10
-578.889660208
 20
63.9592127007
 30
0.0
  0
VERTEX
  8
0
 10
-578.908570706
 20
63.9129267115
 30
0.0
  0
VERTEX
  8
0
 10
-578.927425751
 20
63.8666181059
 30
0.0
  0
VERTEX
  8
0
 10
-578.946225318
 20
63.8202869503
 30
0.0
  0
VERTEX
  8
0
 10
-578.96496938
 20
63.7739333112
 30
0.0
  0
VERTEX
  8
0
 10
-578.983657909
 20
63.727557255
 30
0.0
  0
VERTEX
  8
0
 10
-579.002290879
 20
63.6811588484
 30
0.0
  0
VERTEX
  8
0
 10
-579.020868262
 20
63.6347381578
 30
0.0
  0
VERTEX
  8
0
 10
-579.039390033
 20
63.5882952498
 30
0.0
  0
VERTEX
  8
0
 10
-579.057856165
 20
63.5418301911
 30
0.0
  0
VERTEX
  8
0
 10
-579.076266631
 20
63.4953430484
 30
0.0
  0
VERTEX
  8
0
 10
-579.094621405
 20
63.4488338883
 30
0.0
  0
VERTEX
  8
0
 10
-579.112920461
 20
63.4023027775
 30
0.0
  0
VERTEX
  8
0
 10
-579.131163771
 20
63.3557497828
 30
0.0
  0
VERTEX
  8
0
 10
-579.149351311
 20
63.3091749709
 30
0.0
  0
VERTEX
  8
0
 10
-579.167483054
 20
63.2625784088
 30
0.0
  0
VERTEX
  8
0
 10
-579.185558974
 20
63.2159601632
 30
0.0
  0
VERTEX
  8
0
 10
-579.203579045
 20
63.1693203009
 30
0.0
  0
VERTEX
  8
0
 10
-579.221543241
 20
63.122658889
 30
0.0
  0
VERTEX
  8
0
 10
-579.239451536
 20
63.0759759944
 30
0.0
  0
VERTEX
  8
0
 10
-579.257303905
 20
63.029271684
 30
0.0
  0
VERTEX
  8
0
 10
-579.275100323
 20
62.9825460248
 30
0.0
  0
VERTEX
  8
0
 10
-579.292840763
 20
62.9357990838
 30
0.0
  0
VERTEX
  8
0
 10
-579.3105252
 20
62.8890309282
 30
0.0
  0
VERTEX
  8
0
 10
-579.328153609
 20
62.842241625
 30
0.0
  0
VERTEX
  8
0
 10
-579.345725965
 20
62.7954312413
 30
0.0
  0
VERTEX
  8
0
 10
-579.363242241
 20
62.7485998442
 30
0.0
  0
VERTEX
  8
0
 10
-579.380702414
 20
62.7017475011
 30
0.0
  0
VERTEX
  8
0
 10
-579.398106459
 20
62.654874279
 30
0.0
  0
VERTEX
  8
0
 10
-579.415454349
 20
62.6079802452
 30
0.0
  0
VERTEX
  8
0
 10
-579.43274606
 20
62.561065467
 30
0.0
  0
VERTEX
  8
0
 10
-579.449981568
 20
62.5141300117
 30
0.0
  0
VERTEX
  8
0
 10
-579.467160848
 20
62.4671739466
 30
0.0
  0
VERTEX
  8
0
 10
-579.484283875
 20
62.4201973391
 30
0.0
  0
VERTEX
  8
0
 10
-579.501350624
 20
62.3732002566
 30
0.0
  0
VERTEX
  8
0
 10
-579.518361072
 20
62.3261827664
 30
0.0
  0
VERTEX
  8
0
 10
-579.535315193
 20
62.2791449361
 30
0.0
  0
VERTEX
  8
0
 10
-579.552212963
 20
62.2320868331
 30
0.0
  0
VERTEX
  8
0
 10
-579.569054359
 20
62.185008525
 30
0.0
  0
VERTEX
  8
0
 10
-579.585839355
 20
62.1379100792
 30
0.0
  0
VERTEX
  8
0
 10
-579.602567928
 20
62.0907915633
 30
0.0
  0
VERTEX
  8
0
 10
-579.619240055
 20
62.043653045
 30
0.0
  0
VERTEX
  8
0
 10
-579.63585571
 20
61.9964945917
 30
0.0
  0
VERTEX
  8
0
 10
-579.65241487
 20
61.9493162713
 30
0.0
  0
VERTEX
  8
0
 10
-579.668917511
 20
61.9021181514
 30
0.0
  0
VERTEX
  8
0
 10
-579.68536361
 20
61.8549002996
 30
0.0
  0
VERTEX
  8
0
 10
-579.701753143
 20
61.8076627838
 30
0.0
  0
VERTEX
  8
0
 10
-579.718086087
 20
61.7604056716
 30
0.0
  0
VERTEX
  8
0
 10
-579.734362418
 20
61.7131290309
 30
0.0
  0
VERTEX
  8
0
 10
-579.750582113
 20
61.6658329296
 30
0.0
  0
VERTEX
  8
0
 10
-579.766745148
 20
61.6185174353
 30
0.0
  0
VERTEX
  8
0
 10
-579.7828515
 20
61.5711826161
 30
0.0
  0
VERTEX
  8
0
 10
-579.798901147
 20
61.5238285398
 30
0.0
  0
VERTEX
  8
0
 10
-579.814894065
 20
61.4764552744
 30
0.0
  0
VERTEX
  8
0
 10
-579.830830231
 20
61.4290628878
 30
0.0
  0
VERTEX
  8
0
 10
-579.846709623
 20
61.381651448
 30
0.0
  0
VERTEX
  8
0
 10
-579.862532217
 20
61.334221023
 30
0.0
  0
VERTEX
  8
0
 10
-579.878297991
 20
61.2867716809
 30
0.0
  0
VERTEX
  8
0
 10
-579.894006923
 20
61.2393034897
 30
0.0
  0
VERTEX
  8
0
 10
-579.909658989
 20
61.1918165175
 30
0.0
  0
VERTEX
  8
0
 10
-579.925254167
 20
61.1443108325
 30
0.0
  0
VERTEX
  8
0
 10
-579.940792436
 20
61.0967865027
 30
0.0
  0
VERTEX
  8
0
 10
-579.956273772
 20
61.0492435965
 30
0.0
  0
VERTEX
  8
0
 10
-579.971698153
 20
61.0016821819
 30
0.0
  0
VERTEX
  8
0
 10
-579.987065558
 20
60.9541023272
 30
0.0
  0
VERTEX
  8
0
 10
-580.002375964
 20
60.9065041007
 30
0.0
  0
VERTEX
  8
0
 10
-580.017629349
 20
60.8588875706
 30
0.0
  0
VERTEX
  8
0
 10
-580.032825692
 20
60.8112528053
 30
0.0
  0
VERTEX
  8
0
 10
-580.04796497
 20
60.7635998731
 30
0.0
  0
VERTEX
  8
0
 10
-580.063047163
 20
60.7159288423
 30
0.0
  0
VERTEX
  8
0
 10
-580.078072247
 20
60.6682397813
 30
0.0
  0
VERTEX
  8
0
 10
-580.093040203
 20
60.6205327586
 30
0.0
  0
VERTEX
  8
0
 10
-580.107951007
 20
60.5728078426
 30
0.0
  0
VERTEX
  8
0
 10
-580.122804639
 20
60.5250651017
 30
0.0
  0
VERTEX
  8
0
 10
-580.137601078
 20
60.4773046045
 30
0.0
  0
VERTEX
  8
0
 10
-580.152340303
 20
60.4295264194
 30
0.0
  0
VERTEX
  8
0
 10
-580.167022291
 20
60.381730615
 30
0.0
  0
VERTEX
  8
0
 10
-580.181647022
 20
60.3339172598
 30
0.0
  0
VERTEX
  8
0
 10
-580.196214476
 20
60.2860864225
 30
0.0
  0
VERTEX
  8
0
 10
-580.210724631
 20
60.2382381717
 30
0.0
  0
VERTEX
  8
0
 10
-580.225177466
 20
60.190372576
 30
0.0
  0
VERTEX
  8
0
 10
-580.239572961
 20
60.142489704
 30
0.0
  0
VERTEX
  8
0
 10
-580.253911095
 20
60.0945896245
 30
0.0
  0
VERTEX
  8
0
 10
-580.268191848
 20
60.0466724062
 30
0.0
  0
VERTEX
  8
0
 10
-580.282415198
 20
59.9987381178
 30
0.0
  0
VERTEX
  8
0
 10
-580.296581126
 20
59.9507868281
 30
0.0
  0
VERTEX
  8
0
 10
-580.310689611
 20
59.9028186059
 30
0.0
  0
VERTEX
  8
0
 10
-580.324740633
 20
59.8548335199
 30
0.0
  0
VERTEX
  8
0
 10
-580.338734173
 20
59.8068316391
 30
0.0
  0
VERTEX
  8
0
 10
-580.352670208
 20
59.7588130322
 30
0.0
  0
VERTEX
  8
0
 10
-580.366548721
 20
59.7107777682
 30
0.0
  0
VERTEX
  8
0
 10
-580.380369691
 20
59.662725916
 30
0.0
  0
VERTEX
  8
0
 10
-580.394133097
 20
59.6146575445
 30
0.0
  0
VERTEX
  8
0
 10
-580.407838921
 20
59.5665727226
 30
0.0
  0
VERTEX
  8
0
 10
-580.421487143
 20
59.5184715194
 30
0.0
  0
VERTEX
  8
0
 10
-580.435077742
 20
59.4703540038
 30
0.0
  0
VERTEX
  8
0
 10
-580.4486107
 20
59.4222202449
 30
0.0
  0
VERTEX
  8
0
 10
-580.462085998
 20
59.3740703118
 30
0.0
  0
VERTEX
  8
0
 10
-580.475503615
 20
59.3259042734
 30
0.0
  0
VERTEX
  8
0
 10
-580.488863533
 20
59.277722199
 30
0.0
  0
VERTEX
  8
0
 10
-580.502165732
 20
59.2295241575
 30
0.0
  0
VERTEX
  8
0
 10
-580.515410193
 20
59.1813102182
 30
0.0
  0
VERTEX
  8
0
 10
-580.528596898
 20
59.1330804502
 30
0.0
  0
VERTEX
  8
0
 10
-580.541725827
 20
59.0848349228
 30
0.0
  0
VERTEX
  8
0
 10
-580.554796962
 20
59.0365737051
 30
0.0
  0
VERTEX
  8
0
 10
-580.567810283
 20
58.9882968663
 30
0.0
  0
VERTEX
  8
0
 10
-580.580765773
 20
58.9400044757
 30
0.0
  0
VERTEX
  8
0
 10
-580.593663412
 20
58.8916966026
 30
0.0
  0
VERTEX
  8
0
 10
-580.606503183
 20
58.8433733163
 30
0.0
  0
VERTEX
  8
0
 10
-580.619285066
 20
58.7950346862
 30
0.0
  0
VERTEX
  8
0
 10
-580.632009043
 20
58.7466807815
 30
0.0
  0
VERTEX
  8
0
 10
-580.644675097
 20
58.6983116716
 30
0.0
  0
VERTEX
  8
0
 10
-580.657283208
 20
58.6499274259
 30
0.0
  0
VERTEX
  8
0
 10
-580.669833359
 20
58.6015281138
 30
0.0
  0
VERTEX
  8
0
 10
-580.682325532
 20
58.5531138048
 30
0.0
  0
VERTEX
  8
0
 10
-580.694759709
 20
58.5046845683
 30
0.0
  0
VERTEX
  8
0
 10
-580.707135872
 20
58.4562404737
 30
0.0
  0
VERTEX
  8
0
 10
-580.719454003
 20
58.4077815907
 30
0.0
  0
VERTEX
  8
0
 10
-580.731714084
 20
58.3593079886
 30
0.0
  0
VERTEX
  8
0
 10
-580.743916099
 20
58.3108197371
 30
0.0
  0
VERTEX
  8
0
 10
-580.756060029
 20
58.2623169056
 30
0.0
  0
VERTEX
  8
0
 10
-580.768145858
 20
58.2137995638
 30
0.0
  0
VERTEX
  8
0
 10
-580.780173567
 20
58.1652677813
 30
0.0
  0
VERTEX
  8
0
 10
-580.79214314
 20
58.1167216277
 30
0.0
  0
VERTEX
  8
0
 10
-580.804054558
 20
58.0681611726
 30
0.0
  0
VERTEX
  8
0
 10
-580.815907807
 20
58.0195864857
 30
0.0
  0
VERTEX
  8
0
 10
-580.827702867
 20
57.9709976367
 30
0.0
  0
VERTEX
  8
0
 10
-580.839439723
 20
57.9223946952
 30
0.0
  0
VERTEX
  8
0
 10
-580.851118357
 20
57.8737777311
 30
0.0
  0
VERTEX
  8
0
 10
-580.862738753
 20
57.825146814
 30
0.0
  0
VERTEX
  8
0
 10
-580.874300894
 20
57.7765020137
 30
0.0
  0
VERTEX
  8
0
 10
-580.885804764
 20
57.7278434
 30
0.0
  0
VERTEX
  8
0
 10
-580.897250346
 20
57.6791710428
 30
0.0
  0
VERTEX
  8
0
 10
-580.908637623
 20
57.6304850117
 30
0.0
  0
VERTEX
  8
0
 10
-580.919966579
 20
57.5817853767
 30
0.0
  0
VERTEX
  8
0
 10
-580.931237198
 20
57.5330722076
 30
0.0
  0
VERTEX
  8
0
 10
-580.942449464
 20
57.4843455743
 30
0.0
  0
VERTEX
  8
0
 10
-580.953603361
 20
57.4356055468
 30
0.0
  0
VERTEX
  8
0
 10
-580.964698873
 20
57.3868521948
 30
0.0
  0
VERTEX
  8
0
 10
-580.975735983
 20
57.3380855885
 30
0.0
  0
VERTEX
  8
0
 10
-580.986714676
 20
57.2893057976
 30
0.0
  0
VERTEX
  8
0
 10
-580.997634937
 20
57.2405128923
 30
0.0
  0
VERTEX
  8
0
 10
-581.008496749
 20
57.1917069424
 30
0.0
  0
VERTEX
  8
0
 10
-581.019300097
 20
57.1428880181
 30
0.0
  0
VERTEX
  8
0
 10
-581.030044966
 20
57.0940561893
 30
0.0
  0
VERTEX
  8
0
 10
-581.040731339
 20
57.0452115262
 30
0.0
  0
VERTEX
  8
0
 10
-581.051359202
 20
56.9963540986
 30
0.0
  0
VERTEX
  8
0
 10
-581.06192854
 20
56.9474839769
 30
0.0
  0
VERTEX
  8
0
 10
-581.072439337
 20
56.898601231
 30
0.0
  0
VERTEX
  8
0
 10
-581.082891579
 20
56.8497059311
 30
0.0
  0
VERTEX
  8
0
 10
-581.093285249
 20
56.8007981473
 30
0.0
  0
VERTEX
  8
0
 10
-581.103620334
 20
56.7518779499
 30
0.0
  0
VERTEX
  8
0
 10
-581.113896818
 20
56.7029454088
 30
0.0
  0
VERTEX
  8
0
 10
-581.124114688
 20
56.6540005945
 30
0.0
  0
VERTEX
  8
0
 10
-581.134273927
 20
56.6050435771
 30
0.0
  0
VERTEX
  8
0
 10
-581.144374522
 20
56.5560744267
 30
0.0
  0
VERTEX
  8
0
 10
-581.154416458
 20
56.5070932137
 30
0.0
  0
VERTEX
  8
0
 10
-581.16439972
 20
56.4581000084
 30
0.0
  0
VERTEX
  8
0
 10
-581.174324295
 20
56.4090948809
 30
0.0
  0
VERTEX
  8
0
 10
-581.184190168
 20
56.3600779017
 30
0.0
  0
VERTEX
  8
0
 10
-581.193997325
 20
56.311049141
 30
0.0
  0
VERTEX
  8
0
 10
-581.203745751
 20
56.2620086692
 30
0.0
  0
VERTEX
  8
0
 10
-581.213435434
 20
56.2129565565
 30
0.0
  0
VERTEX
  8
0
 10
-581.223066358
 20
56.1638928735
 30
0.0
  0
VERTEX
  8
0
 10
-581.232638511
 20
56.1148176904
 30
0.0
  0
VERTEX
  8
0
 10
-581.242151878
 20
56.0657310777
 30
0.0
  0
VERTEX
  8
0
 10
-581.251606446
 20
56.0166331058
 30
0.0
  0
VERTEX
  8
0
 10
-581.261002201
 20
55.9675238451
 30
0.0
  0
VERTEX
  8
0
 10
-581.27033913
 20
55.918403366
 30
0.0
  0
VERTEX
  8
0
 10
-581.279617219
 20
55.8692717391
 30
0.0
  0
VERTEX
  8
0
 10
-581.288836456
 20
55.8201290348
 30
0.0
  0
VERTEX
  8
0
 10
-581.297996826
 20
55.7709753237
 30
0.0
  0
VERTEX
  8
0
 10
-581.307098316
 20
55.7218106761
 30
0.0
  0
VERTEX
  8
0
 10
-581.316140915
 20
55.6726351627
 30
0.0
  0
VERTEX
  8
0
 10
-581.325124608
 20
55.6234488541
 30
0.0
  0
VERTEX
  8
0
 10
-581.334049382
 20
55.5742518206
 30
0.0
  0
VERTEX
  8
0
 10
-581.342915226
 20
55.525044133
 30
0.0
  0
VERTEX
  8
0
 10
-581.351722126
 20
55.4758258619
 30
0.0
  0
VERTEX
  8
0
 10
-581.360470069
 20
55.4265970778
 30
0.0
  0
VERTEX
  8
0
 10
-581.369159044
 20
55.3773578513
 30
0.0
  0
VERTEX
  8
0
 10
-581.377789037
 20
55.3281082531
 30
0.0
  0
VERTEX
  8
0
 10
-581.386360036
 20
55.2788483539
 30
0.0
  0
VERTEX
  8
0
 10
-581.394872029
 20
55.2295782242
 30
0.0
  0
VERTEX
  8
0
 10
-581.403325004
 20
55.1802979349
 30
0.0
  0
VERTEX
  8
0
 10
-581.411718948
 20
55.1310075566
 30
0.0
  0
VERTEX
  8
0
 10
-581.42005385
 20
55.0817071599
 30
0.0
  0
VERTEX
  8
0
 10
-581.428329698
 20
55.0323968157
 30
0.0
  0
VERTEX
  8
0
 10
-581.436546479
 20
54.9830765946
 30
0.0
  0
VERTEX
  8
0
 10
-581.444704182
 20
54.9337465674
 30
0.0
  0
VERTEX
  8
0
 10
-581.452802796
 20
54.8844068049
 30
0.0
  0
VERTEX
  8
0
 10
-581.460842308
 20
54.8350573779
 30
0.0
  0
VERTEX
  8
0
 10
-581.468822707
 20
54.7856983571
 30
0.0
  0
VERTEX
  8
0
 10
-581.476743981
 20
54.7363298134
 30
0.0
  0
VERTEX
  8
0
 10
-581.48460612
 20
54.6869518175
 30
0.0
  0
VERTEX
  8
0
 10
-581.492409112
 20
54.6375644404
 30
0.0
  0
VERTEX
  8
0
 10
-581.500152945
 20
54.5881677528
 30
0.0
  0
VERTEX
  8
0
 10
-581.50783761
 20
54.5387618257
 30
0.0
  0
VERTEX
  8
0
 10
-581.515463094
 20
54.4893467298
 30
0.0
  0
VERTEX
  8
0
 10
-581.523029386
 20
54.4399225362
 30
0.0
  0
VERTEX
  8
0
 10
-581.530536477
 20
54.3904893156
 30
0.0
  0
VERTEX
  8
0
 10
-581.537984354
 20
54.3410471391
 30
0.0
  0
VERTEX
  8
0
 10
-581.545373008
 20
54.2915960775
 30
0.0
  0
VERTEX
  8
0
 10
-581.552702428
 20
54.2421362017
 30
0.0
  0
VERTEX
  8
0
 10
-581.559972603
 20
54.1926675828
 30
0.0
  0
VERTEX
  8
0
 10
-581.567183522
 20
54.1431902917
 30
0.0
  0
VERTEX
  8
0
 10
-581.574335177
 20
54.0937043993
 30
0.0
  0
VERTEX
  8
0
 10
-581.581427555
 20
54.0442099767
 30
0.0
  0
VERTEX
  8
0
 10
-581.588460648
 20
53.9947070949
 30
0.0
  0
VERTEX
  8
0
 10
-581.595434444
 20
53.9451958249
 30
0.0
  0
VERTEX
  8
0
 10
-581.602348935
 20
53.8956762376
 30
0.0
  0
VERTEX
  8
0
 10
-581.60920411
 20
53.8461484042
 30
0.0
  0
VERTEX
  8
0
 10
-581.615999958
 20
53.7966123957
 30
0.0
  0
VERTEX
  8
0
 10
-581.622736472
 20
53.7470682831
 30
0.0
  0
VERTEX
  8
0
 10
-581.62941364
 20
53.6975161376
 30
0.0
  0
VERTEX
  8
0
 10
-581.636031453
 20
53.6479560302
 30
0.0
  0
VERTEX
  8
0
 10
-581.642589902
 20
53.598388032
 30
0.0
  0
VERTEX
  8
0
 10
-581.649088978
 20
53.5488122141
 30
0.0
  0
VERTEX
  8
0
 10
-581.65552867
 20
53.4992286476
 30
0.0
  0
VERTEX
  8
0
 10
-581.66190897
 20
53.4496374037
 30
0.0
  0
VERTEX
  8
0
 10
-581.668229869
 20
53.4000385535
 30
0.0
  0
VERTEX
  8
0
 10
-581.674491358
 20
53.3504321682
 30
0.0
  0
VERTEX
  8
0
 10
-581.680693426
 20
53.3008183189
 30
0.0
  0
VERTEX
  8
0
 10
-581.686836067
 20
53.2511970768
 30
0.0
  0
VERTEX
  8
0
 10
-581.69291927
 20
53.2015685131
 30
0.0
  0
VERTEX
  8
0
 10
-581.698943028
 20
53.151932699
 30
0.0
  0
VERTEX
  8
0
 10
-581.704907331
 20
53.1022897056
 30
0.0
  0
VERTEX
  8
0
 10
-581.710812171
 20
53.0526396042
 30
0.0
  0
VERTEX
  8
0
 10
-581.71665754
 20
53.0029824661
 30
0.0
  0
VERTEX
  8
0
 10
-581.722443428
 20
52.9533183624
 30
0.0
  0
VERTEX
  8
0
 10
-581.728169828
 20
52.9036473644
 30
0.0
  0
VERTEX
  8
0
 10
-581.733836732
 20
52.8539695434
 30
0.0
  0
VERTEX
  8
0
 10
-581.739444132
 20
52.8042849706
 30
0.0
  0
VERTEX
  8
0
 10
-581.744992018
 20
52.7545937173
 30
0.0
  0
VERTEX
  8
0
 10
-581.750480384
 20
52.7048958548
 30
0.0
  0
VERTEX
  8
0
 10
-581.755909222
 20
52.6551914543
 30
0.0
  0
VERTEX
  8
0
 10
-581.761278523
 20
52.6054805873
 30
0.0
  0
VERTEX
  8
0
 10
-581.766588281
 20
52.5557633249
 30
0.0
  0
VERTEX
  8
0
 10
-581.771838487
 20
52.5060397386
 30
0.0
  0
VERTEX
  8
0
 10
-581.777029134
 20
52.4563098996
 30
0.0
  0
VERTEX
  8
0
 10
-581.782160214
 20
52.4065738793
 30
0.0
  0
VERTEX
  8
0
 10
-581.78723172
 20
52.356831749
 30
0.0
  0
VERTEX
  8
0
 10
-581.792243646
 20
52.3070835801
 30
0.0
  0
VERTEX
  8
0
 10
-581.797195983
 20
52.257329444
 30
0.0
  0
VERTEX
  8
0
 10
-581.802088724
 20
52.207569412
 30
0.0
  0
VERTEX
  8
0
 10
-581.806921863
 20
52.1578035556
 30
0.0
  0
VERTEX
  8
0
 10
-581.811695393
 20
52.108031946
 30
0.0
  0
VERTEX
  8
0
 10
-581.816409306
 20
52.0582546548
 30
0.0
  0
VERTEX
  8
0
 10
-581.821063596
 20
52.0084717533
 30
0.0
  0
VERTEX
  8
0
 10
-581.825658257
 20
51.9586833129
 30
0.0
  0
VERTEX
  8
0
 10
-581.830193281
 20
51.9088894051
 30
0.0
  0
VERTEX
  8
0
 10
-581.834668662
 20
51.8590901013
 30
0.0
  0
VERTEX
  8
0
 10
-581.839084395
 20
51.8092854729
 30
0.0
  0
VERTEX
  8
0
 10
-581.843440471
 20
51.7594755913
 30
0.0
  0
VERTEX
  8
0
 10
-581.847736886
 20
51.7096605282
 30
0.0
  0
VERTEX
  8
0
 10
-581.851973633
 20
51.6598403548
 30
0.0
  0
VERTEX
  8
0
 10
-581.856150706
 20
51.6100151426
 30
0.0
  0
VERTEX
  8
0
 10
-581.860268099
 20
51.5601849633
 30
0.0
  0
VERTEX
  8
0
 10
-581.864325806
 20
51.5103498881
 30
0.0
  0
VERTEX
  8
0
 10
-581.868323821
 20
51.4605099887
 30
0.0
  0
VERTEX
  8
0
 10
-581.872262139
 20
51.4106653364
 30
0.0
  0
VERTEX
  8
0
 10
-581.876140753
 20
51.3608160029
 30
0.0
  0
VERTEX
  8
0
 10
-581.879959659
 20
51.3109620597
 30
0.0
  0
VERTEX
  8
0
 10
-581.88371885
 20
51.2611035781
 30
0.0
  0
VERTEX
  8
0
 10
-581.887418322
 20
51.2112406299
 30
0.0
  0
VERTEX
  8
0
 10
-581.89105807
 20
51.1613732864
 30
0.0
  0
VERTEX
  8
0
 10
-581.894638087
 20
51.1115016193
 30
0.0
  0
VERTEX
  8
0
 10
-581.898158368
 20
51.0616257001
 30
0.0
  0
VERTEX
  8
0
 10
-581.90161891
 20
51.0117456004
 30
0.0
  0
VERTEX
  8
0
 10
-581.905019706
 20
50.9618613916
 30
0.0
  0
VERTEX
  8
0
 10
-581.908360752
 20
50.9119731453
 30
0.0
  0
VERTEX
  8
0
 10
-581.911642043
 20
50.8620809332
 30
0.0
  0
VERTEX
  8
0
 10
-581.914863575
 20
50.8121848268
 30
0.0
  0
VERTEX
  8
0
 10
-581.918025342
 20
50.7622848976
 30
0.0
  0
VERTEX
  8
0
 10
-581.92112734
 20
50.7123812174
 30
0.0
  0
VERTEX
  8
0
 10
-581.924169565
 20
50.6624738575
 30
0.0
  0
VERTEX
  8
0
 10
-581.927152013
 20
50.6125628897
 30
0.0
  0
VERTEX
  8
0
 10
-581.930074679
 20
50.5626483855
 30
0.0
  0
VERTEX
  8
0
 10
-581.932937558
 20
50.5127304166
 30
0.0
  0
VERTEX
  8
0
 10
-581.935740648
 20
50.4628090545
 30
0.0
  0
VERTEX
  8
0
 10
-581.938483943
 20
50.4128843709
 30
0.0
  0
VERTEX
  8
0
 10
-581.94116744
 20
50.3629564374
 30
0.0
  0
VERTEX
  8
0
 10
-581.943791135
 20
50.3130253256
 30
0.0
  0
VERTEX
  8
0
 10
-581.946355024
 20
50.2630911072
 30
0.0
  0
VERTEX
  8
0
 10
-581.948859104
 20
50.2131538537
 30
0.0
  0
VERTEX
  8
0
 10
-581.951303371
 20
50.1632136368
 30
0.0
  0
VERTEX
  8
0
 10
-581.953687821
 20
50.1132705282
 30
0.0
  0
VERTEX
  8
0
 10
-581.956012451
 20
50.0633245995
 30
0.0
  0
VERTEX
  8
0
 10
-581.958277258
 20
50.0133759223
 30
0.0
  0
VERTEX
  8
0
 10
-581.960482239
 20
49.9634245684
 30
0.0
  0
VERTEX
  8
0
 10
-581.96262739
 20
49.9134706093
 30
0.0
  0
VERTEX
  8
0
 10
-581.964712708
 20
49.8635141167
 30
0.0
  0
VERTEX
  8
0
 10
-581.96673819
 20
49.8135551623
 30
0.0
  0
VERTEX
  8
0
 10
-581.968703834
 20
49.7635938178
 30
0.0
  0
VERTEX
  8
0
 10
-581.970609636
 20
49.7136301548
 30
0.0
  0
VERTEX
  8
0
 10
-581.972455593
 20
49.663664245
 30
0.0
  0
VERTEX
  8
0
 10
-581.974241704
 20
49.6136961601
 30
0.0
  0
VERTEX
  8
0
 10
-581.975967966
 20
49.5637259718
 30
0.0
  0
VERTEX
  8
0
 10
-581.977634375
 20
49.5137537517
 30
0.0
  0
VERTEX
  8
0
 10
-581.979240931
 20
49.4637795715
 30
0.0
  0
VERTEX
  8
0
 10
-581.980787629
 20
49.413803503
 30
0.0
  0
VERTEX
  8
0
 10
-581.982274469
 20
49.3638256178
 30
0.0
  0
VERTEX
  8
0
 10
-581.983701448
 20
49.3138459877
 30
0.0
  0
VERTEX
  8
0
 10
-581.985068564
 20
49.2638646842
 30
0.0
  0
VERTEX
  8
0
 10
-581.986375815
 20
49.2138817792
 30
0.0
  0
VERTEX
  8
0
 10
-581.987623199
 20
49.1638973442
 30
0.0
  0
VERTEX
  8
0
 10
-581.988810714
 20
49.1139114511
 30
0.0
  0
VERTEX
  8
0
 10
-581.989938359
 20
49.0639241716
 30
0.0
  0
VERTEX
  8
0
 10
-581.991006132
 20
49.0139355773
 30
0.0
  0
VERTEX
  8
0
 10
-581.992014032
 20
48.9639457399
 30
0.0
  0
VERTEX
  8
0
 10
-581.992962056
 20
48.9139547312
 30
0.0
  0
VERTEX
  8
0
 10
-581.993850205
 20
48.8639626229
 30
0.0
  0
VERTEX
  8
0
 10
-581.994678475
 20
48.8139694867
 30
0.0
  0
VERTEX
  8
0
 10
-581.995446867
 20
48.7639753943
 30
0.0
  0
VERTEX
  8
0
 10
-581.99615538
 20
48.7139804174
 30
0.0
  0
VERTEX
  8
0
 10
-581.996804011
 20
48.6639846278
 30
0.0
  0
VERTEX
  8
0
 10
-581.99739276
 20
48.6139880972
 30
0.0
  0
VERTEX
  8
0
 10
-581.997921627
 20
48.5639908972
 30
0.0
  0
VERTEX
  8
0
 10
-581.99839061
 20
48.5139930997
 30
0.0
  0
VERTEX
  8
0
 10
-581.99879971
 20
48.4639947764
 30
0.0
  0
VERTEX
  8
0
 10
-581.999148924
 20
48.4139959989
 30
0.0
  0
VERTEX
  8
0
 10
-581.999438254
 20
48.363996839
 30
0.0
  0
VERTEX
  8
0
 10
-581.999667698
 20
48.3139973684
 30
0.0
  0
VERTEX
  8
0
 10
-581.999837256
 20
48.2639976589
 30
0.0
  0
VERTEX
  8
0
 10
-581.999946927
 20
48.2139977822
 30
0.0
  0
VERTEX
  8
0
 10
-581.999996713
 20
48.16399781
 30
0.0
  0
VERTEX
  8
0
 10
-582.0
 20
48.1474312212
 30
0.0
  0
SEQEND
  8
0
  0
POLYLINE
  8
0
 62
7
 70
0
 66
1
 10
0.0
 20
0.0
 30
0.0
  0
VERTEX
  8
0
 10
-582.0
 20
-48.1474312212
 30
0.0
  0
VERTEX
  8
0
 10
-581.999970057
 20
-48.1974312092
 30
0.0
  0
VERTEX
  8
0
 10
-581.999880227
 20
-48.2474311255
 30
0.0
  0
VERTEX
  8
0
 10
-581.999730511
 20
-48.2974308984
 30
0.0
  0
VERTEX
  8
0
 10
-581.99952091
 20
-48.3474304561
 30
0.0
  0
VERTEX
  8
0
 10
-581.999251422
 20
-48.3974297269
 30
0.0
  0
VERTEX
  8
0
 10
-581.998922049
 20
-48.447428639
 30
0.0
  0
VERTEX
  8
0
 10
-581.998532792
 20
-48.4974271208
 30
0.0
  0
VERTEX
  8
0
 10
-581.99808365
 20
-48.5474251005
 30
0.0
  0
VERTEX
  8
0
 10
-581.997574624
 20
-48.5974225063
 30
0.0
  0
VERTEX
  8
0
 10
-581.997005716
 20
-48.6474192667
 30
0.0
  0
VERTEX
  8
0
 10
-581.996376925
 20
-48.6974153097
 30
0.0
  0
VERTEX
  8
0
 10
-581.995688253
 20
-48.7474105638
 30
0.0
  0
VERTEX
  8
0
 10
-581.994939701
 20
-48.7974049572
 30
0.0
  0
VERTEX
  8
0
 10
-581.99413127
 20
-48.8473984182
 30
0.0
  0
VERTEX
  8
0
 10
-581.993262961
 20
-48.897390875
 30
0.0
  0
VERTEX
  8
0
 10
-581.992334775
 20
-48.947382256
 30
0.0
  0
VERTEX
  8
0
 10
-581.991346714
 20
-48.9973724894
 30
0.0
  0
VERTEX
  8
0
 10
-581.990298779
 20
-49.0473615036
 30
0.0
  0
VERTEX
  8
0
 10
-581.989190971
 20
-49.0973492267
 30
0.0
  0
VERTEX
  8
0
 10
-581.988023292
 20
-49.1473355871
 30
0.0
  0
VERTEX
  8
0
 10
-581.986795744
 20
-49.1973205131
 30
0.0
  0
VERTEX
  8
0
 10
-581.985508329
 20
-49.247303933
 30
0.0
  0
VERTEX
  8
0
 10
-581.984161048
 20
-49.297285775
 30
0.0
  0
VERTEX
  8
0
 10
-581.982753904
 20
-49.3472659676
 30
0.0
  0
VERTEX
  8
0
 10
-581.981286898
 20
-49.3972444389
 30
0.0
  0
VERTEX
  8
0
 10
-581.979760032
 20
-49.4472211173
 30
0.0
  0
VERTEX
  8
0
 10
-581.978173309
 20
-49.497195931
 30
0.0
  0
VERTEX
  8
0
 10
-581.976526731
 20
-49.5471688085
 30
0.0
  0
VERTEX
  8
0
 10
-581.9748203
 20
-49.5971396779
 30
0.0
  0
VERTEX
  8
0
 10
-581.973054018
 20
-49.6471084677
 30
0.0
  0
VERTEX
  8
0
 10
-581.971227889
 20
-49.6970751061
 30
0.0
  0
VERTEX
  8
0
 10
-581.969341915
 20
-49.7470395215
 30
0.0
  0
VERTEX
  8
0
 10
-581.967396099
 20
-49.7970016421
 30
0.0
  0
VERTEX
  8
0
 10
-581.965390443
 20
-49.8469613964
 30
0.0
  0
VERTEX
  8
0
 10
-581.96332495
 20
-49.8969187126
 30
0.0
  0
VERTEX
  8
0
 10
-581.961199623
 20
-49.946873519
 30
0.0
  0
VERTEX
  8
0
 10
-581.959014466
 20
-49.9968257441
 30
0.0
  0
VERTEX
  8
0
 10
-581.956769481
 20
-50.0467753161
 30
0.0
  0
VERTEX
  8
0
 10
-581.954464672
 20
-50.0967221634
 30
0.0
  0
VERTEX
  8
0
 10
-581.952100041
 20
-50.1466662143
 30
0.0
  0
VERTEX
  8
0
 10
-581.949675593
 20
-50.1966073973
 30
0.0
  0
VERTEX
  8
0
 10
-581.947191331
 20
-50.2465456405
 30
0.0
  0
VERTEX
  8
0
 10
-581.944647258
 20
-50.2964808725
 30
0.0
  0
VERTEX
  8
0
 10
-581.942043378
 20
-50.3464130216
 30
0.0
  0
VERTEX
  8
0
 10
-581.939379695
 20
-50.3963420161
 30
0.0
  0
VERTEX
  8
0
 10
-581.936656212
 20
-50.4462677845
 30
0.0
  0
VERTEX
  8
0
 10
-581.933872934
 20
-50.496190255
 30
0.0
  0
VERTEX
  8
0
 10
-581.931029865
 20
-50.5461093561
 30
0.0
  0
VERTEX
  8
0
 10
-581.928127008
 20
-50.5960250162
 30
0.0
  0
VERTEX
  8
0
 10
-581.925164367
 20
-50.6459371636
 30
0.0
  0
VERTEX
  8
0
 10
-581.922141948
 20
-50.6958457269
 30
0.0
  0
VERTEX
  8
0
 10
-581.919059754
 20
-50.7457506342
 30
0.0
  0
VERTEX
  8
0
 10
-581.915917789
 20
-50.7956518142
 30
0.0
  0
VERTEX
  8
0
 10
-581.912716059
 20
-50.8455491951
 30
0.0
  0
VERTEX
  8
0
 10
-581.909454568
 20
-50.8954427055
 30
0.0
  0
VERTEX
  8
0
 10
-581.90613332
 20
-50.9453322737
 30
0.0
  0
VERTEX
  8
0
 10
-581.90275232
 20
-50.9952178281
 30
0.0
  0
VERTEX
  8
0
 10
-581.899311574
 20
-51.0450992973
 30
0.0
  0
VERTEX
  8
0
 10
-581.895811085
 20
-51.0949766096
 30
0.0
  0
VERTEX
  8
0
 10
-581.89225086
 20
-51.1448496934
 30
0.0
  0
VERTEX
  8
0
 10
-581.888630903
 20
-51.1947184774
 30
0.0
  0
VERTEX
  8
0
 10
-581.884951219
 20
-51.2445828898
 30
0.0
  0
VERTEX
  8
0
 10
-581.881211814
 20
-51.2944428592
 30
0.0
  0
VERTEX
  8
0
 10
-581.877412692
 20
-51.3442983141
 30
0.0
  0
VERTEX
  8
0
 10
-581.873553861
 20
-51.3941491829
 30
0.0
  0
VERTEX
  8
0
 10
-581.869635324
 20
-51.4439953941
 30
0.0
  0
VERTEX
  8
0
 10
-581.865657088
 20
-51.4938368762
 30
0.0
  0
VERTEX
  8
0
 10
-581.861619158
 20
-51.5436735577
 30
0.0
  0
VERTEX
  8
0
 10
-581.85752154
 20
-51.5935053671
 30
0.0
  0
VERTEX
  8
0
 10
-581.853364241
 20
-51.643332233
 30
0.0
  0
VERTEX
  8
0
 10
-581.849147265
 20
-51.6931540838
 30
0.0
  0
VERTEX
  8
0
 10
-581.844870619
 20
-51.7429708481
 30
0.0
  0
VERTEX
  8
0
 10
-581.84053431
 20
-51.7927824543
 30
0.0
  0
VERTEX
  8
0
 10
-581.836138343
 20
-51.8425888312
 30
0.0
  0
VERTEX
  8
0
 10
-581.831682724
 20
-51.8923899071
 30
0.0
  0
VERTEX
  8
0
 10
-581.827167461
 20
-51.9421856107
 30
0.0
  0
VERTEX
  8
0
 10
-581.822592559
 20
-51.9919758706
 30
0.0
  0
VERTEX
  8
0
 10
-581.817958025
 20
-52.0417606152
 30
0.0
  0
VERTEX
  8
0
 10
-581.813263866
 20
-52.0915397732
 30
0.0
  0
VERTEX
  8
0
 10
-581.808510089
 20
-52.1413132732
 30
0.0
  0
VERTEX
  8
0
 10
-581.803696699
 20
-52.1910810437
 30
0.0
  0
VERTEX
  8
0
 10
-581.798823705
 20
-52.2408430134
 30
0.0
  0
VERTEX
  8
0
 10
-581.793891114
 20
-52.290599111
 30
0.0
  0
VERTEX
  8
0
 10
-581.788898931
 20
-52.3403492649
 30
0.0
  0
VERTEX
  8
0
 10
-581.783847165
 20
-52.3900934038
 30
0.0
  0
VERTEX
  8
0
 10
-581.778735823
 20
-52.4398314565
 30
0.0
  0
VERTEX
  8
0
 10
-581.773564911
 20
-52.4895633514
 30
0.0
  0
VERTEX
  8
0
 10
-581.768334438
 20
-52.5392890174
 30
0.0
  0
VERTEX
  8
0
 10
-581.763044411
 20
-52.589008383
 30
0.0
  0
VERTEX
  8
0
 10
-581.757694838
 20
-52.6387213769
 30
0.0
  0
VERTEX
  8
0
 10
-581.752285725
 20
-52.6884279278
 30
0.0
  0
VERTEX
  8
0
 10
-581.746817082
 20
-52.7381279645
 30
0.0
  0
VERTEX
  8
0
 10
-581.741288916
 20
-52.7878214155
 30
0.0
  0
VERTEX
  8
0
 10
-581.735701234
 20
-52.8375082097
 30
0.0
  0
VERTEX
  8
0
 10
-581.730054045
 20
-52.8871882757
 30
0.0
  0
VERTEX
  8
0
 10
-581.724347357
 20
-52.9368615422
 30
0.0
  0
VERTEX
  8
0
 10
-581.718581178
 20
-52.9865279381
 30
0.0
  0
VERTEX
  8
0
 10
-581.712755516
 20
-53.036187392
 30
0.0
  0
VERTEX
  8
0
 10
-581.70687038
 20
-53.0858398328
 30
0.0
  0
VERTEX
  8
0
 10
-581.700925778
 20
-53.1354851892
 30
0.0
  0
VERTEX
  8
0
 10
-581.694921718
 20
-53.1851233899
 30
0.0
  0
VERTEX
  8
0
 10
-581.68885821
 20
-53.2347543638
 30
0.0
  0
VERTEX
  8
0
 10
-581.682735262
 20
-53.2843780397
 30
0.0
  0
VERTEX
  8
0
 10
-581.676552883
 20
-53.3339943463
 30
0.0
  0
VERTEX
  8
0
 10
-581.670311081
 20
-53.3836032126
 30
0.0
  0
VERTEX
  8
0
 10
-581.664009866
 20
-53.4332045673
 30
0.0
  0
VERTEX
  8
0
 10
-581.657649246
 20
-53.4827983393
 30
0.0
  0
VERTEX
  8
0
 10
-581.651229231
 20
-53.5323844574
 30
0.0
  0
VERTEX
  8
0
 10
-581.64474983
 20
-53.5819628505
 30
0.0
  0
VERTEX
  8
0
 10
-581.638211052
 20
-53.6315334475
 30
0.0
  0
VERTEX
  8
0
 10
-581.631612907
 20
-53.6810961773
 30
0.0
  0
VERTEX
  8
0
 10
-581.624955404
 20
-53.7306509687
 30
0.0
  0
VERTEX
  8
0
 10
-581.618238553
 20
-53.7801977507
 30
0.0
  0
VERTEX
  8
0
 10
-581.611462363
 20
-53.8297364522
 30
0.0
  0
VERTEX
  8
0
 10
-581.604626843
 20
-53.8792670022
 30
0.0
  0
VERTEX
  8
0
 10
-581.597732005
 20
-53.9287893295
 30
0.0
  0
VERTEX
  8
0
 10
-581.590777857
 20
-53.9783033632
 30
0.0
  0
VERTEX
  8
0
 10
-581.58376441
 20
-54.0278090322
 30
0.0
  0
VERTEX
  8
0
 10
-581.576691674
 20
-54.0773062654
 30
0.0
  0
VERTEX
  8
0
 10
-581.569559658
 20
-54.126794992
 30
0.0
  0
VERTEX
  8
0
 10
-581.562368374
 20
-54.1762751408
 30
0.0
  0
VERTEX
  8
0
 10
-581.555117831
 20
-54.225746641
 30
0.0
  0
VERTEX
  8
0
 10
-581.54780804
 20
-54.2752094215
 30
0.0
  0
VERTEX
  8
0
 10
-581.540439011
 20
-54.3246634114
 30
0.0
  0
VERTEX
  8
0
 10
-581.533010755
 20
-54.3741085397
 30
0.0
  0
VERTEX
  8
0
 10
-581.525523282
 20
-54.4235447355
 30
0.0
  0
VERTEX
  8
0
 10
-581.517976604
 20
-54.4729719279
 30
0.0
  0
VERTEX
  8
0
 10
-581.510370731
 20
-54.522390046
 30
0.0
  0
VERTEX
  8
0
 10
-581.502705674
 20
-54.5717990189
 30
0.0
  0
VERTEX
  8
0
 10
-581.494981444
 20
-54.6211987756
 30
0.0
  0
VERTEX
  8
0
 10
-581.487198052
 20
-54.6705892455
 30
0.0
  0
VERTEX
  8
0
 10
-581.479355509
 20
-54.7199703575
 30
0.0
  0
VERTEX
  8
0
 10
-581.471453827
 20
-54.7693420408
 30
0.0
  0
VERTEX
  8
0
 10
-581.463493016
 20
-54.8187042247
 30
0.0
  0
VERTEX
  8
0
 10
-581.455473089
 20
-54.8680568383
 30
0.0
  0
VERTEX
  8
0
 10
-581.447394057
 20
-54.9173998108
 30
0.0
  0
VERTEX
  8
0
 10
-581.439255931
 20
-54.9667330715
 30
0.0
  0
VERTEX
  8
0
 10
-581.431058722
 20
-55.0160565495
 30
0.0
  0
VERTEX
  8
0
 10
-581.422802444
 20
-55.065370174
 30
0.0
  0
VERTEX
  8
0
 10
-581.414487107
 20
-55.1146738745
 30
0.0
  0
VERTEX
  8
0
 10
-581.406112724
 20
-55.16396758
 30
0.0
  0
VERTEX
  8
0
 10
-581.397679307
 20
-55.21325122
 30
0.0
  0
VERTEX
  8
0
 10
-581.389186867
 20
-55.2625247237
 30
0.0
  0
VERTEX
  8
0
 10
-581.380635417
 20
-55.3117880204
 30
0.0
  0
VERTEX
  8
0
 10
-581.372024969
 20
-55.3610410395
 30
0.0
  0
VERTEX
  8
0
 10
-581.363355535
 20
-55.4102837103
 30
0.0
  0
VERTEX
  8
0
 10
-581.354627129
 20
-55.4595159621
 30
0.0
  0
VERTEX
  8
0
 10
-581.345839762
 20
-55.5087377244
 30
0.0
  0
VERTEX
  8
0
 10
-581.336993447
 20
-55.5579489264
 30
0.0
  0
VERTEX
  8
0
 10
-581.328088196
 20
-55.6071494978
 30
0.0
  0
VERTEX
  8
0
 10
-581.319124023
 20
-55.6563393677
 30
0.0
  0
VERTEX
  8
0
 10
-581.310100941
 20
-55.7055184657
 30
0.0
  0
VERTEX
  8
0
 10
-581.301018962
 20
-55.7546867213
 30
0.0
  0
VERTEX
  8
0
 10
-581.291878099
 20
-55.8038440639
 30
0.0
  0
VERTEX
  8
0
 10
-581.282678365
 20
-55.8529904229
 30
0.0
  0
VERTEX
  8
0
 10
-581.273419775
 20
-55.9021257279
 30
0.0
  0
VERTEX
  8
0
 10
-581.26410234
 20
-55.9512499084
 30
0.0
  0
VERTEX
  8
0
 10
-581.254726074
 20
-56.0003628939
 30
0.0
  0
VERTEX
  8
0
 10
-581.245290991
 20
-56.0494646139
 30
0.0
  0
VERTEX
  8
0
 10
-581.235797105
 20
-56.0985549981
 30
0.0
  0
VERTEX
  8
0
 10
-581.226244428
 20
-56.147633976
 30
0.0
  0
VERTEX
  8
0
 10
-581.216632975
 20
-56.1967014771
 30
0.0
  0
VERTEX
  8
0
 10
-581.206962759
 20
-56.2457574312
 30
0.0
  0
VERTEX
  8
0
 10
-581.197233795
 20
-56.2948017678
 30
0.0
  0
VERTEX
  8
0
 10
-581.187446096
 20
-56.3438344166
 30
0.0
  0
VERTEX
  8
0
 10
-581.177599676
 20
-56.3928553072
 30
0.0
  0
VERTEX
  8
0
 10
-581.167694549
 20
-56.4418643693
 30
0.0
  0
VERTEX
  8
0
 10
-581.15773073
 20
-56.4908615326
 30
0.0
  0
VERTEX
  8
0
 10
-581.147708233
 20
-56.5398467268
 30
0.0
  0
VERTEX
  8
0
 10
-581.137627072
 20
-56.5888198817
 30
0.0
  0
VERTEX
  8
0
 10
-581.127487262
 20
-56.6377809269
 30
0.0
  0
VERTEX
  8
0
 10
-581.117288817
 20
-56.6867297923
 30
0.0
  0
VERTEX
  8
0
 10
-581.107031752
 20
-56.7356664076
 30
0.0
  0
VERTEX
  8
0
 10
-581.096716082
 20
-56.7845907027
 30
0.0
  0
VERTEX
  8
0
 10
-581.086341821
 20
-56.8335026073
 30
0.0
  0
VERTEX
  8
0
 10
-581.075908984
 20
-56.8824020513
 30
0.0
  0
VERTEX
  8
0
 10
-581.065417587
 20
-56.9312889645
 30
0.0
  0
VERTEX
  8
0
 10
-581.054867644
 20
-56.9801632768
 30
0.0
  0
VERTEX
  8
0
 10
-581.04425917
 20
-57.0290249181
 30
0.0
  0
VERTEX
  8
0
 10
-581.033592181
 20
-57.0778738182
 30
0.0
  0
VERTEX
  8
0
 10
-581.022866692
 20
-57.1267099072
 30
0.0
  0
VERTEX
  8
0
 10
-581.012082719
 20
-57.175533115
 30
0.0
  0
VERTEX
  8
0
 10
-581.001240276
 20
-57.2243433714
 30
0.0
  0
VERTEX
  8
0
 10
-580.99033938
 20
-57.2731406066
 30
0.0
  0
VERTEX
  8
0
 10
-580.979380045
 20
-57.3219247504
 30
0.0
  0
VERTEX
  8
0
 10
-580.968362288
 20
-57.370695733
 30
0.0
  0
VERTEX
  8
0
 10
-580.957286125
 20
-57.4194534843
 30
0.0
  0
VERTEX
  8
0
 10
-580.946151572
 20
-57.4681979344
 30
0.0
  0
VERTEX
  8
0
 10
-580.934958643
 20
-57.5169290133
 30
0.0
  0
VERTEX
  8
0
 10
-580.923707357
 20
-57.5656466513
 30
0.0
  0
VERTEX
  8
0
 10
-580.912397727
 20
-57.6143507783
 30
0.0
  0
VERTEX
  8
0
 10
-580.901029772
 20
-57.6630413245
 30
0.0
  0
VERTEX
  8
0
 10
-580.889603507
 20
-57.7117182201
 30
0.0
  0
VERTEX
  8
0
 10
-580.878118948
 20
-57.7603813952
 30
0.0
  0
VERTEX
  8
0
 10
-580.866576112
 20
-57.80903078
 30
0.0
  0
VERTEX
  8
0
 10
-580.854975016
 20
-57.8576663048
 30
0.0
  0
VERTEX
  8
0
 10
-580.843315676
 20
-57.9062878997
 30
0.0
  0
VERTEX
  8
0
 10
-580.831598109
 20
-57.954895495
 30
0.0
  0
VERTEX
  8
0
 10
-580.819822332
 20
-58.0034890211
 30
0.0
  0
VERTEX
  8
0
 10
-580.807988361
 20
-58.052068408
 30
0.0
  0
VERTEX
  8
0
 10
-580.796096214
 20
-58.1006335863
 30
0.0
  0
VERTEX
  8
0
 10
-580.784145908
 20
-58.1491844862
 30
0.0
  0
VERTEX
  8
0
 10
-580.772137459
 20
-58.197721038
 30
0.0
  0
VERTEX
  8
0
 10
-580.760070886
 20
-58.2462431722
 30
0.0
  0
VERTEX
  8
0
 10
-580.747946204
 20
-58.2947508191
 30
0.0
  0
VERTEX
  8
0
 10
-580.735763433
 20
-58.3432439091
 30
0.0
  0
VERTEX
  8
0
 10
-580.723522589
 20
-58.3917223727
 30
0.0
  0
VERTEX
  8
0
 10
-580.711223689
 20
-58.4401861403
 30
0.0
  0
VERTEX
  8
0
 10
-580.698866752
 20
-58.4886351425
 30
0.0
  0
VERTEX
  8
0
 10
-580.686451795
 20
-58.5370693096
 30
0.0
  0
VERTEX
  8
0
 10
-580.673978836
 20
-58.5854885723
 30
0.0
  0
VERTEX
  8
0
 10
-580.661447893
 20
-58.633892861
 30
0.0
  0
VERTEX
  8
0
 10
-580.648858984
 20
-58.6822821064
 30
0.0
  0
VERTEX
  8
0
 10
-580.636212127
 20
-58.7306562389
 30
0.0
  0
VERTEX
  8
0
 10
-580.623507339
 20
-58.7790151893
 30
0.0
  0
VERTEX
  8
0
 10
-580.61074464
 20
-58.8273588881
 30
0.0
  0
VERTEX
  8
0
 10
-580.597924048
 20
-58.875687266
 30
0.0
  0
VERTEX
  8
0
 10
-580.58504558
 20
-58.9240002536
 30
0.0
  0
VERTEX
  8
0
 10
-580.572109256
 20
-58.9722977817
 30
0.0
  0
VERTEX
  8
0
 10
-580.559115094
 20
-59.0205797809
 30
0.0
  0
VERTEX
  8
0
 10
-580.546063113
 20
-59.0688461821
 30
0.0
  0
VERTEX
  8
0
 10
-580.53295333
 20
-59.1170969159
 30
0.0
  0
VERTEX
  8
0
 10
-580.519785767
 20
-59.1653319132
 30
0.0
  0
VERTEX
  8
0
 10
-580.50656044
 20
-59.2135511047
 30
0.0
  0
VERTEX
  8
0
 10
-580.493277369
 20
-59.2617544212
 30
0.0
  0
VERTEX
  8
0
 10
-580.479936573
 20
-59.3099417937
 30
0.0
  0
VERTEX
  8
0
 10
-580.466538071
 20
-59.358113153
 30
0.0
  0
VERTEX
  8
0
 10
-580.453081883
 20
-59.40626843
 30
0.0
  0
VERTEX
  8
0
 10
-580.439568028
 20
-59.4544075556
 30
0.0
  0
VERTEX
  8
0
 10
-580.425996524
 20
-59.5025304607
 30
0.0
  0
VERTEX
  8
0
 10
-580.412367393
 20
-59.5506370764
 30
0.0
  0
VERTEX
  8
0
 10
-580.398680652
 20
-59.5987273335
 30
0.0
  0
VERTEX
  8
0
 10
-580.384936322
 20
-59.6468011632
 30
0.0
  0
VERTEX
  8
0
 10
-580.371134423
 20
-59.6948584964
 30
0.0
  0
VERTEX
  8
0
 10
-580.357274974
 20
-59.7428992643
 30
0.0
  0
VERTEX
  8
0
 10
-580.343357995
 20
-59.7909233978
 30
0.0
  0
VERTEX
  8
0
 10
-580.329383506
 20
-59.8389308282
 30
0.0
  0
VERTEX
  8
0
 10
-580.315351528
 20
-59.8869214864
 30
0.0
  0
VERTEX
  8
0
 10
-580.30126208
 20
-59.9348953038
 30
0.0
  0
VERTEX
  8
0
 10
-580.287115182
 20
-59.9828522114
 30
0.0
  0
VERTEX
  8
0
 10
-580.272910855
 20
-60.0307921405
 30
0.0
  0
VERTEX
  8
0
 10
-580.25864912
 20
-60.0787150223
 30
0.0
  0
VERTEX
  8
0
 10
-580.244329996
 20
-60.126620788
 30
0.0
  0
VERTEX
  8
0
 10
-580.229953504
 20
-60.174509369
 30
0.0
  0
VERTEX
  8
0
 10
-580.215519665
 20
-60.2223806965
 30
0.0
  0
VERTEX
  8
0
 10
-580.2010285
 20
-60.2702347018
 30
0.0
  0
VERTEX
  8
0
 10
-580.186480029
 20
-60.3180713164
 30
0.0
  0
VERTEX
  8
0
 10
-580.171874273
 20
-60.3658904715
 30
0.0
  0
VERTEX
  8
0
 10
-580.157211253
 20
-60.4136920986
 30
0.0
  0
VERTEX
  8
0
 10
-580.142490991
 20
-60.4614761292
 30
0.0
  0
VERTEX
  8
0
 10
-580.127713507
 20
-60.5092424945
 30
0.0
  0
VERTEX
  8
0
 10
-580.112878822
 20
-60.5569911263
 30
0.0
  0
VERTEX
  8
0
 10
-580.097986958
 20
-60.6047219558
 30
0.0
  0
VERTEX
  8
0
 10
-580.083037936
 20
-60.6524349147
 30
0.0
  0
VERTEX
  8
0
 10
-580.068031778
 20
-60.7001299346
 30
0.0
  0
VERTEX
  8
0
 10
-580.052968505
 20
-60.7478069469
 30
0.0
  0
VERTEX
  8
0
 10
-580.037848139
 20
-60.7954658833
 30
0.0
  0
VERTEX
  8
0
 10
-580.022670701
 20
-60.8431066755
 30
0.0
  0
VERTEX
  8
0
 10
-580.007436213
 20
-60.8907292551
 30
0.0
  0
VERTEX
  8
0
 10
-579.992144697
 20
-60.9383335537
 30
0.0
  0
VERTEX
  8
0
 10
-579.976796175
 20
-60.9859195031
 30
0.0
  0
VERTEX
  8
0
 10
-579.96139067
 20
-61.033487035
 30
0.0
  0
VERTEX
  8
0
 10
-579.945928202
 20
-61.0810360812
 30
0.0
  0
VERTEX
  8
0
 10
-579.930408795
 20
-61.1285665735
 30
0.0
  0
VERTEX
  8
0
 10
-579.91483247
 20
-61.1760784437
 30
0.0
  0
VERTEX
  8
0
 10
-579.89919925
 20
-61.2235716236
 30
0.0
  0
VERTEX
  8
0
 10
-579.883509157
 20
-61.271046045
 30
0.0
  0
VERTEX
  8
0
 10
-579.867762214
 20
-61.31850164
 30
0.0
  0
VERTEX
  8
0
 10
-579.851958444
 20
-61.3659383404
 30
0.0
  0
VERTEX
  8
0
 10
-579.836097869
 20
-61.4133560781
 30
0.0
  0
VERTEX
  8
0
 10
-579.820180511
 20
-61.4607547852
 30
0.0
  0
VERTEX
  8
0
 10
-579.804206395
 20
-61.5081343936
 30
0.0
  0
VERTEX
  8
0
 10
-579.788175541
 20
-61.5554948354
 30
0.0
  0
VERTEX
  8
0
 10
-579.772087975
 20
-61.6028360426
 30
0.0
  0
VERTEX
  8
0
 10
-579.755943718
 20
-61.6501579474
 30
0.0
  0
VERTEX
  8
0
 10
-579.739742794
 20
-61.6974604817
 30
0.0
  0
VERTEX
  8
0
 10
-579.723485225
 20
-61.7447435779
 30
0.0
  0
VERTEX
  8
0
 10
-579.707171037
 20
-61.792007168
 30
0.0
  0
VERTEX
  8
0
 10
-579.690800251
 20
-61.8392511842
 30
0.0
  0
VERTEX
  8
0
 10
-579.674372891
 20
-61.8864755588
 30
0.0
  0
VERTEX
  8
0
 10
-579.657888981
 20
-61.933680224
 30
0.0
  0
VERTEX
  8
0
 10
-579.641348545
 20
-61.9808651121
 30
0.0
  0
VERTEX
  8
0
 10
-579.624751606
 20
-62.0280301555
 30
0.0
  0
VERTEX
  8
0
 10
-579.608098188
 20
-62.0751752864
 30
0.0
  0
VERTEX
  8
0
 10
-579.591388315
 20
-62.1223004372
 30
0.0
  0
VERTEX
  8
0
 10
-579.57462201
 20
-62.1694055403
 30
0.0
  0
VERTEX
  8
0
 10
-579.557799299
 20
-62.2164905282
 30
0.0
  0
VERTEX
  8
0
 10
-579.540920205
 20
-62.2635553333
 30
0.0
  0
VERTEX
  8
0
 10
-579.523984752
 20
-62.3105998881
 30
0.0
  0
VERTEX
  8
0
 10
-579.506992964
 20
-62.357624125
 30
0.0
  0
VERTEX
  8
0
 10
-579.489944867
 20
-62.4046279767
 30
0.0
  0
VERTEX
  8
0
 10
-579.472840484
 20
-62.4516113757
 30
0.0
  0
VERTEX
  8
0
 10
-579.45567984
 20
-62.4985742546
 30
0.0
  0
VERTEX
  8
0
 10
-579.438462959
 20
-62.5455165461
 30
0.0
  0
VERTEX
  8
0
 10
-579.421189867
 20
-62.5924381827
 30
0.0
  0
VERTEX
  8
0
 10
-579.403860588
 20
-62.6393390972
 30
0.0
  0
VERTEX
  8
0
 10
-579.386475146
 20
-62.6862192223
 30
0.0
  0
VERTEX
  8
0
 10
-579.369033568
 20
-62.7330784908
 30
0.0
  0
VERTEX
  8
0
 10
-579.351535877
 20
-62.7799168354
 30
0.0
  0
VERTEX
  8
0
 10
-579.3339821
 20
-62.8267341889
 30
0.0
  0
VERTEX
  8
0
 10
-579.31637226
 20
-62.8735304842
 30
0.0
  0
VERTEX
  8
0
 10
-579.298706384
 20
-62.9203056542
 30
0.0
  0
VERTEX
  8
0
 10
-579.280984497
 20
-62.9670596316
 30
0.0
  0
VERTEX
  8
0
 10
-579.263206624
 20
-63.0137923496
 30
0.0
  0
VERTEX
  8
0
 10
-579.24537279
 20
-63.060503741
 30
0.0
  0
VERTEX
  8
0
 10
-579.227483022
 20
-63.1071937387
 30
0.0
  0
VERTEX
  8
0
 10
-579.209537344
 20
-63.153862276
 30
0.0
  0
VERTEX
  8
0
 10
-579.191535784
 20
-63.2005092857
 30
0.0
  0
VERTEX
  8
0
 10
-579.173478366
 20
-63.247134701
 30
0.0
  0
VERTEX
  8
0
 10
-579.155365116
 20
-63.293738455
 30
0.0
  0
VERTEX
  8
0
 10
-579.137196061
 20
-63.3403204808
 30
0.0
  0
VERTEX
  8
0
 10
-579.118971226
 20
-63.3868807116
 30
0.0
  0
VERTEX
  8
0
 10
-579.100690637
 20
-63.4334190806
 30
0.0
  0
VERTEX
  8
0
 10
-579.082354322
 20
-63.4799355211
 30
0.0
  0
VERTEX
  8
0
 10
-579.063962305
 20
-63.5264299663
 30
0.0
  0
VERTEX
  8
0
 10
-579.045514615
 20
-63.5729023495
 30
0.0
  0
VERTEX
  8
0
 10
-579.027011276
 20
-63.6193526041
 30
0.0
  0
VERTEX
  8
0
 10
-579.008452315
 20
-63.6657806634
 30
0.0
  0
VERTEX
  8
0
 10
-578.98983776
 20
-63.7121864608
 30
0.0
  0
VERTEX
  8
0
 10
-578.971167637
 20
-63.7585699298
 30
0.0
  0
VERTEX
  8
0
 10
-578.952441972
 20
-63.8049310037
 30
0.0
  0
VERTEX
  8
0
 10
-578.933660792
 20
-63.8512696162
 30
0.0
  0
VERTEX
  8
0
 10
-578.914824126
 20
-63.8975857007
 30
0.0
  0
VERTEX
  8
0
 10
-578.895931998
 20
-63.9438791907
 30
0.0
  0
VERTEX
  8
0
 10
-578.876984437
 20
-63.99015002
 30
0.0
  0
VERTEX
  8
0
 10
-578.85798147
 20
-64.036398122
 30
0.0
  0
VERTEX
  8
0
 10
-578.838923124
 20
-64.0826234305
 30
0.0
  0
VERTEX
  8
0
 10
-578.819809426
 20
-64.1288258791
 30
0.0
  0
VERTEX
  8
0
 10
-578.800640404
 20
-64.1750054015
 30
0.0
  0
VERTEX
  8
0
 10
-578.781416085
 20
-64.2211619316
 30
0.0
  0
VERTEX
  8
0
 10
-578.762136497
 20
-64.267295403
 30
0.0
  0
VERTEX
  8
0
 10
-578.742801668
 20
-64.3134057497
 30
0.0
  0
VERTEX
  8
0
 10
-578.723411625
 20
-64.3594929054
 30
0.0
  0
VERTEX
  8
0
 10
-578.703966395
 20
-64.4055568041
 30
0.0
  0
VERTEX
  8
0
 10
-578.684466008
 20
-64.4515973797
 30
0.0
  0
VERTEX
  8
0
 10
-578.664910491
 20
-64.497614566
 30
0.0
  0
VERTEX
  8
0
 10
-578.645299871
 20
-64.5436082972
 30
0.0
  0
VERTEX
  8
0
 10
-578.625634178
 20
-64.5895785072
 30
0.0
  0
VERTEX
  8
0
 10
-578.605913439
 20
-64.6355251301
 30
0.0
  0
VERTEX
  8
0
 10
-578.586137683
 20
-64.6814481
 30
0.0
  0
VERTEX
  8
0
 10
-578.566306937
 20
-64.7273473509
 30
0.0
  0
VERTEX
  8
0
 10
-578.546421231
 20
-64.7732228171
 30
0.0
  0
VERTEX
  8
0
 10
-578.526480593
 20
-64.8190744327
 30
0.0
  0
VERTEX
  8
0
 10
-578.506485052
 20
-64.864902132
 30
0.0
  0
VERTEX
  8
0
 10
-578.486434635
 20
-64.9107058492
 30
0.0
  0
VERTEX
  8
0
 10
-578.466329373
 20
-64.9564855186
 30
0.0
  0
VERTEX
  8
0
 10
-578.446169294
 20
-65.0022410745
 30
0.0
  0
VERTEX
  8
0
 10
-578.425954426
 20
-65.0479724513
 30
0.0
  0
VERTEX
  8
0
 10
-578.405684799
 20
-65.0936795834
 30
0.0
  0
VERTEX
  8
0
 10
-578.385360442
 20
-65.1393624053
 30
0.0
  0
VERTEX
  8
0
 10
-578.364981384
 20
-65.1850208513
 30
0.0
  0
VERTEX
  8
0
 10
-578.344547654
 20
-65.230654856
 30
0.0
  0
VERTEX
  8
0
 10
-578.324059282
 20
-65.2762643539
 30
0.0
  0
VERTEX
  8
0
 10
-578.303516296
 20
-65.3218492796
 30
0.0
  0
VERTEX
  8
0
 10
-578.282918727
 20
-65.3674095677
 30
0.0
  0
VERTEX
  8
0
 10
-578.262266604
 20
-65.4129451529
 30
0.0
  0
VERTEX
  8
0
 10
-578.241559957
 20
-65.4584559698
 30
0.0
  0
VERTEX
  8
0
 10
-578.220798815
 20
-65.5039419531
 30
0.0
  0
VERTEX
  8
0
 10
-578.199983208
 20
-65.5494030376
 30
0.0
  0
VERTEX
  8
0
 10
-578.179113165
 20
-65.594839158
 30
0.0
  0
VERTEX
  8
0
 10
-578.158188718
 20
-65.6402502492
 30
0.0
  0
VERTEX
  8
0
 10
-578.137209896
 20
-65.6856362461
 30
0.0
  0
VERTEX
  8
0
 10
-578.116176728
 20
-65.7309970835
 30
0.0
  0
VERTEX
  8
0
 10
-578.095089246
 20
-65.7763326964
 30
0.0
  0
VERTEX
  8
0
 10
-578.073947479
 20
-65.8216430196
 30
0.0
  0
VERTEX
  8
0
 10
-578.052751458
 20
-65.8669279883
 30
0.0
  0
VERTEX
  8
0
 10
-578.031501213
 20
-65.9121875374
 30
0.0
  0
VERTEX
  8
0
 10
-578.010196775
 20
-65.9574216021
 30
0.0
  0
VERTEX
  8
0
 10
-577.988838173
 20
-66.0026301174
 30
0.0
  0
VERTEX
  8
0
 10
-577.96742544
 20
-66.0478130185
 30
0.0
  0
VERTEX
  8
0
 10
-577.945958605
 20
-66.0929702406
 30
0.0
  0
VERTEX
  8
0
 10
-577.9244377
 20
-66.1381017188
 30
0.0
  0
VERTEX
  8
0
 10
-577.902862755
 20
-66.1832073885
 30
0.0
  0
VERTEX
  8
0
 10
-577.8812338
 20
-66.2282871849
 30
0.0
  0
VERTEX
  8
0
 10
-577.859550868
 20
-66.2733410434
 30
0.0
  0
VERTEX
  8
0
 10
-577.83781399
 20
-66.3183688993
 30
0.0
  0
VERTEX
  8
0
 10
-577.816023196
 20
-66.3633706881
 30
0.0
  0
VERTEX
  8
0
 10
-577.794178517
 20
-66.4083463451
 30
0.0
  0
VERTEX
  8
0
 10
-577.772279986
 20
-66.4532958059
 30
0.0
  0
VERTEX
  8
0
 10
-577.750327633
 20
-66.498219006
 30
0.0
  0
VERTEX
  8
0
 10
-577.72832149
 20
-66.5431158809
 30
0.0
  0
VERTEX
  8
0
 10
-577.706261589
 20
-66.5879863663
 30
0.0
  0
VERTEX
  8
0
 10
-577.684147961
 20
-66.6328303977
 30
0.0
  0
VERTEX
  8
0
 10
-577.661980638
 20
-66.6776479108
 30
0.0
  0
VERTEX
  8
0
 10
-577.639759651
 20
-66.7224388414
 30
0.0
  0
VERTEX
  8
0
 10
-577.617485033
 20
-66.7672031252
 30
0.0
  0
VERTEX
  8
0
 10
-577.595156816
 20
-66.8119406979
 30
0.0
  0
VERTEX
  8
0
 10
-577.572775031
 20
-66.8566514954
 30
0.0
  0
VERTEX
  8
0
 10
-577.550339711
 20
-66.9013354535
 30
0.0
  0
VERTEX
  8
0
 10
-577.527850888
 20
-66.9459925082
 30
0.0
  0
VERTEX
  8
0
 10
-577.505308594
 20
-66.9906225954
 30
0.0
  0
VERTEX
  8
0
 10
-577.482712862
 20
-67.035225651
 30
0.0
  0
VERTEX
  8
0
 10
-577.460063723
 20
-67.0798016111
 30
0.0
  0
VERTEX
  8
0
 10
-577.437361211
 20
-67.1243504117
 30
0.0
  0
VERTEX
  8
0
 10
-577.414605357
 20
-67.168871989
 30
0.0
  0
VERTEX
  8
0
 10
-577.391796195
 20
-67.213366279
 30
0.0
  0
VERTEX
  8
0
 10
-577.368933758
 20
-67.2578332179
 30
0.0
  0
VERTEX
  8
0
 10
-577.346018078
 20
-67.3022727419
 30
0.0
  0
VERTEX
  8
0
 10
-577.323049187
 20
-67.3466847873
 30
0.0
  0
VERTEX
  8
0
 10
-577.30002712
 20
-67.3910692904
 30
0.0
  0
VERTEX
  8
0
 10
-577.276951909
 20
-67.4354261875
 30
0.0
  0
VERTEX
  8
0
 10
-577.253823586
 20
-67.479755415
 30
0.0
  0
VERTEX
  8
0
 10
-577.230642186
 20
-67.5240569092
 30
0.0
  0
VERTEX
  8
0
 10
-577.207407741
 20
-67.5683306066
 30
0.0
  0
VERTEX
  8
0
 10
-577.184120286
 20
-67.6125764437
 30
0.0
  0
VERTEX
  8
0
 10
-577.160779852
 20
-67.6567943571
 30
0.0
  0
VERTEX
  8
0
 10
-577.137386474
 20
-67.7009842833
 30
0.0
  0
VERTEX
  8
0
 10
-577.113940186
 20
-67.7451461588
 30
0.0
  0
VERTEX
  8
0
 10
-577.09044102
 20
-67.7892799204
 30
0.0
  0
VERTEX
  8
0
 10
-577.066889011
 20
-67.8333855048
 30
0.0
  0
VERTEX
  8
0
 10
-577.043284192
 20
-67.8774628486
 30
0.0
  0
VERTEX
  8
0
 10
-577.019626598
 20
-67.9215118887
 30
0.0
  0
VERTEX
  8
0
 10
-576.995916262
 20
-67.9655325618
 30
0.0
  0
VERTEX
  8
0
 10
-576.972153218
 20
-68.0095248048
 30
0.0
  0
VERTEX
  8
0
 10
-576.9483375
 20
-68.0534885546
 30
0.0
  0
VERTEX
  8
0
 10
-576.924469143
 20
-68.0974237482
 30
0.0
  0
VERTEX
  8
0
 10
-576.900548181
 20
-68.1413303224
 30
0.0
  0
VERTEX
  8
0
 10
-576.876574648
 20
-68.1852082143
 30
0.0
  0
VERTEX
  8
0
 10
-576.852548578
 20
-68.229057361
 30
0.0
  0
VERTEX
  8
0
 10
-576.828470006
 20
-68.2728776995
 30
0.0
  0
VERTEX
  8
0
 10
-576.804338966
 20
-68.3166691671
 30
0.0
  0
VERTEX
  8
0
 10
-576.780155493
 20
-68.3604317008
 30
0.0
  0
VERTEX
  8
0
 10
-576.755919623
 20
-68.4041652379
 30
0.0
  0
VERTEX
  8
0
 10
-576.731631388
 20
-68.4478697156
 30
0.0
  0
VERTEX
  8
0
 10
-576.707290825
 20
-68.4915450714
 30
0.0
  0
VERTEX
  8
0
 10
-576.682897969
 20
-68.5351912424
 30
0.0
  0
VERTEX
  8
0
 10
-576.658452853
 20
-68.5788081661
 30
0.0
  0
VERTEX
  8
0
 10
-576.633955514
 20
-68.6223957799
 30
0.0
  0
VERTEX
  8
0
 10
-576.609405987
 20
-68.6659540214
 30
0.0
  0
VERTEX
  8
0
 10
-576.584804306
 20
-68.7094828279
 30
0.0
  0
VERTEX
  8
0
 10
-576.560150507
 20
-68.7529821371
 30
0.0
  0
VERTEX
  8
0
 10
-576.535444625
 20
-68.7964518865
 30
0.0
  0
VERTEX
  8
0
 10
-576.510686697
 20
-68.8398920139
 30
0.0
  0
VERTEX
  8
0
 10
-576.485876756
 20
-68.8833024568
 30
0.0
  0
VERTEX
  8
0
 10
-576.46101484
 20
-68.9266831531
 30
0.0
  0
VERTEX
  8
0
 10
-576.436100983
 20
-68.9700340404
 30
0.0
  0
VERTEX
  8
0
 10
-576.411135221
 20
-69.0133550566
 30
0.0
  0
VERTEX
  8
0
 10
-576.38611759
 20
-69.0566461396
 30
0.0
  0
VERTEX
  8
0
 10
-576.361048127
 20
-69.0999072272
 30
0.0
  0
VERTEX
  8
0
 10
-576.335926866
 20
-69.1431382573
 30
0.0
  0
VERTEX
  8
0
 10
-576.310753845
 20
-69.1863391681
 30
0.0
  0
VERTEX
  8
0
 10
-576.285529098
 20
-69.2295098974
 30
0.0
  0
VERTEX
  8
0
 10
-576.260252663
 20
-69.2726503834
 30
0.0
  0
VERTEX
  8
0
 10
-576.234924576
 20
-69.3157605641
 30
0.0
  0
VERTEX
  8
0
 10
-576.209544872
 20
-69.3588403778
 30
0.0
  0
VERTEX
  8
0
 10
-576.184113589
 20
-69.4018897626
 30
0.0
  0
VERTEX
  8
0
 10
-576.158630762
 20
-69.4449086567
 30
0.0
  0
VERTEX
  8
0
 10
-576.133096429
 20
-69.4878969985
 30
0.0
  0
VERTEX
  8
0
 10
-576.107510626
 20
-69.5308547263
 30
0.0
  0
VERTEX
  8
0
 10
-576.08187339
 20
-69.5737817785
 30
0.0
  0
VERTEX
  8
0
 10
-576.056184757
 20
-69.6166780934
 30
0.0
  0
VERTEX
  8
0
 10
-576.030444764
 20
-69.6595436096
 30
0.0
  0
VERTEX
  8
0
 10
-576.004653448
 20
-69.7023782655
 30
0.0
  0
VERTEX
  8
0
 10
-575.978810847
 20
-69.7451819998
 30
0.0
  0
VERTEX
  8
0
 10
-575.952916997
 20
-69.7879547509
 30
0.0
  0
VERTEX
  8
0
 10
-575.926971936
 20
-69.8306964576
 30
0.0
  0
VERTEX
  8
0
 10
-575.9009757
 20
-69.8734070585
 30
0.0
  0
VERTEX
  8
0
 10
-575.874928327
 20
-69.9160864923
 30
0.0
  0
VERTEX
  8
0
 10
-575.848829855
 20
-69.9587346979
 30
0.0
  0
VERTEX
  8
0
 10
-575.82268032
 20
-70.001351614
 30
0.0
  0
VERTEX
  8
0
 10
-575.796479761
 20
-70.0439371795
 30
0.0
  0
VERTEX
  8
0
 10
-575.770228215
 20
-70.0864913333
 30
0.0
  0
VERTEX
  8
0
 10
-575.743925719
 20
-70.1290140145
 30
0.0
  0
VERTEX
  8
0
 10
-575.717572311
 20
-70.1715051618
 30
0.0
  0
VERTEX
  8
0
 10
-575.691168029
 20
-70.2139647145
 30
0.0
  0
VERTEX
  8
0
 10
-575.664712912
 20
-70.2563926116
 30
0.0
  0
VERTEX
  8
0
 10
-575.638206996
 20
-70.2987887923
 30
0.0
  0
VERTEX
  8
0
 10
-575.61165032
 20
-70.3411531956
 30
0.0
  0
VERTEX
  8
0
 10
-575.585042922
 20
-70.3834857609
 30
0.0
  0
VERTEX
  8
0
 10
-575.558384841
 20
-70.4257864274
 30
0.0
  0
VERTEX
  8
0
 10
-575.531676114
 20
-70.4680551345
 30
0.0
  0
VERTEX
  8
0
 10
-575.504916779
 20
-70.5102918214
 30
0.0
  0
VERTEX
  8
0
 10
-575.478106876
 20
-70.5524964277
 30
0.0
  0
VERTEX
  8
0
 10
-575.451246442
 20
-70.5946688927
 30
0.0
  0
VERTEX
  8
0
 10
-575.424335517
 20
-70.636809156
 30
0.0
  0
VERTEX
  8
0
 10
-575.397374138
 20
-70.6789171571
 30
0.0
  0
VERTEX
  8
0
 10
-575.370362345
 20
-70.7209928356
 30
0.0
  0
VERTEX
  8
0
 10
-575.343300176
 20
-70.7630361311
 30
0.0
  0
VERTEX
  8
0
 10
-575.316187669
 20
-70.8050469834
 30
0.0
  0
VERTEX
  8
0
 10
-575.289024865
 20
-70.8470253322
 30
0.0
  0
VERTEX
  8
0
 10
-575.261811802
 20
-70.8889711172
 30
0.0
  0
VERTEX
  8
0
 10
-575.234548518
 20
-70.9308842782
 30
0.0
  0
VERTEX
  8
0
 10
-575.207235054
 20
-70.9727647552
 30
0.0
  0
VERTEX
  8
0
 10
-575.179871447
 20
-71.0146124881
 30
0.0
  0
VERTEX
  8
0
 10
-575.152457738
 20
-71.0564274168
 30
0.0
  0
VERTEX
  8
0
 10
-575.124993966
 20
-71.0982094814
 30
0.0
  0
VERTEX
  8
0
 10
-575.09748017
 20
-71.1399586218
 30
0.0
  0
VERTEX
  8
0
 10
-575.06991639
 20
-71.1816747783
 30
0.0
  0
VERTEX
  8
0
 10
-575.042302664
 20
-71.2233578909
 30
0.0
  0
VERTEX
  8
0
 10
-575.014639034
 20
-71.2650079
 30
0.0
  0
VERTEX
  8
0
 10
-574.986925538
 20
-71.3066247456
 30
0.0
  0
VERTEX
  8
0
 10
-574.959162216
 20
-71.3482083682
 30
0.0
  0
VERTEX
  8
0
 10
-574.931349109
 20
-71.3897587081
 30
0.0
  0
VERTEX
  8
0
 10
-574.903486255
 20
-71.4312757056
 30
0.0
  0
VERTEX
  8
0
 10
-574.875573695
 20
-71.4727593012
 30
0.0
  0
VERTEX
  8
0
 10
-574.847611469
 20
-71.5142094354
 30
0.0
  0
VERTEX
  8
0
 10
-574.819599617
 20
-71.5556260488
 30
0.0
  0
VERTEX
  8
0
 10
-574.79153818
 20
-71.5970090819
 30
0.0
  0
VERTEX
  8
0
 10
-574.763427197
 20
-71.6383584753
 30
0.0
  0
VERTEX
  8
0
 10
-574.735266709
 20
-71.6796741698
 30
0.0
  0
VERTEX
  8
0
 10
-574.707056756
 20
-71.720956106
 30
0.0
  0
VERTEX
  8
0
 10
-574.678797379
 20
-71.7622042248
 30
0.0
  0
VERTEX
  8
0
 10
-574.650488618
 20
-71.8034184669
 30
0.0
  0
VERTEX
  8
0
 10
-574.622130514
 20
-71.8445987733
 30
0.0
  0
VERTEX
  8
0
 10
-574.593723107
 20
-71.8857450849
 30
0.0
  0
VERTEX
  8
0
 10
-574.565266439
 20
-71.9268573427
 30
0.0
  0
VERTEX
  8
0
 10
-574.53676055
 20
-71.9679354876
 30
0.0
  0
VERTEX
  8
0
 10
-574.508205481
 20
-72.0089794607
 30
0.0
  0
VERTEX
  8
0
 10
-574.479601273
 20
-72.0499892032
 30
0.0
  0
VERTEX
  8
0
 10
-574.450947967
 20
-72.0909646562
 30
0.0
  0
VERTEX
  8
0
 10
-574.422245604
 20
-72.131905761
 30
0.0
  0
VERTEX
  8
0
 10
-574.393494225
 20
-72.1728124588
 30
0.0
  0
VERTEX
  8
0
 10
-574.364693872
 20
-72.2136846909
 30
0.0
  0
VERTEX
  8
0
 10
-574.335844586
 20
-72.2545223988
 30
0.0
  0
VERTEX
  8
0
 10
-574.306946408
 20
-72.2953255237
 30
0.0
  0
VERTEX
  8
0
 10
-574.277999379
 20
-72.3360940072
 30
0.0
  0
VERTEX
  8
0
 10
-574.249003542
 20
-72.3768277909
 30
0.0
  0
VERTEX
  8
0
 10
-574.219958938
 20
-72.4175268162
 30
0.0
  0
VERTEX
  8
0
 10
-574.190865608
 20
-72.4581910247
 30
0.0
  0
VERTEX
  8
0
 10
-574.161723594
 20
-72.4988203583
 30
0.0
  0
VERTEX
  8
0
 10
-574.132532939
 20
-72.5394147584
 30
0.0
  0
VERTEX
  8
0
 10
-574.103293683
 20
-72.579974167
 30
0.0
  0
VERTEX
  8
0
 10
-574.074005869
 20
-72.6204985259
 30
0.0
  0
VERTEX
  8
0
 10
-574.044669539
 20
-72.6609877768
 30
0.0
  0
VERTEX
  8
0
 10
-574.015284735
 20
-72.7014418618
 30
0.0
  0
VERTEX
  8
0
 10
-573.985851499
 20
-72.7418607227
 30
0.0
  0
VERTEX
  8
0
 10
-573.956369873
 20
-72.7822443017
 30
0.0
  0
VERTEX
  8
0
 10
-573.9268399
 20
-72.8225925407
 30
0.0
  0
VERTEX
  8
0
 10
-573.897261622
 20
-72.8629053819
 30
0.0
  0
VERTEX
  8
0
 10
-573.867635081
 20
-72.9031827675
 30
0.0
  0
VERTEX
  8
0
 10
-573.837960321
 20
-72.9434246397
 30
0.0
  0
VERTEX
  8
0
 10
-573.808237382
 20
-72.9836309407
 30
0.0
  0
VERTEX
  8
0
 10
-573.778466309
 20
-73.0238016129
 30
0.0
  0
VERTEX
  8
0
 10
-573.748647144
 20
-73.0639365986
 30
0.0
  0
VERTEX
  8
0
 10
-573.718779929
 20
-73.1040358403
 30
0.0
  0
VERTEX
  8
0
 10
-573.688864708
 20
-73.1440992805
 30
0.0
  0
VERTEX
  8
0
 10
-573.658901523
 20
-73.1841268616
 30
0.0
  0
VERTEX
  8
0
 10
-573.628890417
 20
-73.2241185263
 30
0.0
  0
VERTEX
  8
0
 10
-573.598831434
 20
-73.2640742171
 30
0.0
  0
VERTEX
  8
0
 10
-573.568724617
 20
-73.3039938768
 30
0.0
  0
VERTEX
  8
0
 10
-573.538570008
 20
-73.3438774481
 30
0.0
  0
VERTEX
  8
0
 10
-573.508367651
 20
-73.3837248738
 30
0.0
  0
VERTEX
  8
0
 10
-573.478117589
 20
-73.4235360967
 30
0.0
  0
VERTEX
  8
0
 10
-573.447819866
 20
-73.4633110598
 30
0.0
  0
VERTEX
  8
0
 10
-573.417474525
 20
-73.5030497058
 30
0.0
  0
VERTEX
  8
0
 10
-573.38708161
 20
-73.5427519779
 30
0.0
  0
VERTEX
  8
0
 10
-573.356641164
 20
-73.5824178191
 30
0.0
  0
VERTEX
  8
0
 10
-573.326153231
 20
-73.6220471725
 30
0.0
  0
VERTEX
  8
0
 10
-573.295617855
 20
-73.6616399812
 30
0.0
  0
VERTEX
  8
0
 10
-573.265035079
 20
-73.7011961884
 30
0.0
  0
VERTEX
  8
0
 10
-573.234404948
 20
-73.7407157374
 30
0.0
  0
VERTEX
  8
0
 10
-573.203727505
 20
-73.7801985715
 30
0.0
  0
VERTEX
  8
0
 10
-573.173002794
 20
-73.8196446341
 30
0.0
  0
VERTEX
  8
0
 10
-573.14223086
 20
-73.8590538685
 30
0.0
  0
VERTEX
  8
0
 10
-573.111411746
 20
-73.8984262183
 30
0.0
  0
VERTEX
  8
0
 10
-573.080545497
 20
-73.9377616269
 30
0.0
  0
VERTEX
  8
0
 10
-573.049632157
 20
-73.977060038
 30
0.0
  0
VERTEX
  8
0
 10
-573.01867177
 20
-74.0163213951
 30
0.0
  0
VERTEX
  8
0
 10
-572.987664381
 20
-74.0555456419
 30
0.0
  0
VERTEX
  8
0
 10
-572.956610035
 20
-74.0947327221
 30
0.0
  0
VERTEX
  8
0
 10
-572.925508775
 20
-74.1338825797
 30
0.0
  0
VERTEX
  8
0
 10
-572.894360647
 20
-74.1729951582
 30
0.0
  0
VERTEX
  8
0
 10
-572.863165695
 20
-74.2120704018
 30
0.0
  0
VERTEX
  8
0
 10
-572.831923963
 20
-74.2511082543
 30
0.0
  0
VERTEX
  8
0
 10
-572.800635498
 20
-74.2901086596
 30
0.0
  0
VERTEX
  8
0
 10
-572.769300343
 20
-74.329071562
 30
0.0
  0
VERTEX
  8
0
 10
-572.737918543
 20
-74.3679969054
 30
0.0
  0
VERTEX
  8
0
 10
-572.706490144
 20
-74.406884634
 30
0.0
  0
VERTEX
  8
0
 10
-572.675015191
 20
-74.4457346921
 30
0.0
  0
VERTEX
  8
0
 10
-572.643493728
 20
-74.4845470239
 30
0.0
  0
VERTEX
  8
0
 10
-572.611925802
 20
-74.5233215737
 30
0.0
  0
VERTEX
  8
0
 10
-572.580311456
 20
-74.5620582859
 30
0.0
  0
VERTEX
  8
0
 10
-572.548650738
 20
-74.600757105
 30
0.0
  0
VERTEX
  8
0
 10
-572.516943691
 20
-74.6394179753
 30
0.0
  0
VERTEX
  8
0
 10
-572.485190362
 20
-74.6780408416
 30
0.0
  0
VERTEX
  8
0
 10
-572.453390796
 20
-74.7166256483
 30
0.0
  0
VERTEX
  8
0
 10
-572.421545039
 20
-74.7551723401
 30
0.0
  0
VERTEX
  8
0
 10
-572.389653136
 20
-74.7936808616
 30
0.0
  0
VERTEX
  8
0
 10
-572.357715133
 20
-74.8321511578
 30
0.0
  0
VERTEX
  8
0
 10
-572.325731077
 20
-74.8705831733
 30
0.0
  0
VERTEX
  8
0
 10
-572.293701012
 20
-74.9089768531
 30
0.0
  0
VERTEX
  8
0
 10
-572.261624985
 20
-74.947332142
 30
0.0
  0
VERTEX
  8
0
 10
-572.229503042
 20
-74.9856489851
 30
0.0
  0
VERTEX
  8
0
 10
-572.197335228
 20
-75.0239273274
 30
0.0
  0
VERTEX
  8
0
 10
-572.165121591
 20
-75.0621671139
 30
0.0
  0
VERTEX
  8
0
 10
-572.132862176
 20
-75.1003682898
 30
0.0
  0
VERTEX
  8
0
 10
-572.100557029
 20
-75.1385308003
 30
0.0
  0
VERTEX
  8
0
 10
-572.068206198
 20
-75.1766545907
 30
0.0
  0
VERTEX
  8
0
 10
-572.035809727
 20
-75.2147396062
 30
0.0
  0
VERTEX
  8
0
 10
-572.003367665
 20
-75.2527857923
 30
0.0
  0
VERTEX
  8
0
 10
-571.970880056
 20
-75.2907930943
 30
0.0
  0
VERTEX
  8
0
 10
-571.938346949
 20
-75.3287614578
 30
0.0
  0
VERTEX
  8
0
 10
-571.905768389
 20
-75.3666908282
 30
0.0
  0
VERTEX
  8
0
 10
-571.873144424
 20
-75.4045811511
 30
0.0
  0
VERTEX
  8
0
 10
-571.840475099
 20
-75.4424323723
 30
0.0
  0
VERTEX
  8
0
 10
-571.807760463
 20
-75.4802444373
 30
0.0
  0
VERTEX
  8
0
 10
-571.775000561
 20
-75.518017292
 30
0.0
  0
VERTEX
  8
0
 10
-571.742195441
 20
-75.5557508822
 30
0.0
  0
VERTEX
  8
0
 10
-571.709345151
 20
-75.5934451537
 30
0.0
  0
VERTEX
  8
0
 10
-571.676449736
 20
-75.6311000524
 30
0.0
  0
VERTEX
  8
0
 10
-571.643509245
 20
-75.6687155244
 30
0.0
  0
VERTEX
  8
0
 10
-571.610523724
 20
-75.7062915157
 30
0.0
  0
VERTEX
  8
0
 10
-571.577493221
 20
-75.7438279723
 30
0.0
  0
VERTEX
  8
0
 10
-571.544417783
 20
-75.7813248405
 30
0.0
  0
VERTEX
  8
0
 10
-571.511297458
 20
-75.8187820664
 30
0.0
  0
VERTEX
  8
0
 10
-571.478132294
 20
-75.8561995963
 30
0.0
  0
VERTEX
  8
0
 10
-571.444922337
 20
-75.8935773765
 30
0.0
  0
VERTEX
  8
0
 10
-571.411667635
 20
-75.9309153535
 30
0.0
  0
VERTEX
  8
0
 10
-571.378368236
 20
-75.9682134735
 30
0.0
  0
VERTEX
  8
0
 10
-571.345024189
 20
-76.0054716832
 30
0.0
  0
VERTEX
  8
0
 10
-571.31163554
 20
-76.0426899291
 30
0.0
  0
VERTEX
  8
0
 10
-571.278202338
 20
-76.0798681578
 30
0.0
  0
VERTEX
  8
0
 10
-571.24472463
 20
-76.1170063159
 30
0.0
  0
VERTEX
  8
0
 10
-571.211202465
 20
-76.1541043502
 30
0.0
  0
VERTEX
  8
0
 10
-571.177635891
 20
-76.1911622075
 30
0.0
  0
VERTEX
  8
0
 10
-571.144024955
 20
-76.2281798346
 30
0.0
  0
VERTEX
  8
0
 10
-571.110369707
 20
-76.2651571784
 30
0.0
  0
VERTEX
  8
0
 10
-571.076670194
 20
-76.3020941858
 30
0.0
  0
VERTEX
  8
0
 10
-571.042926464
 20
-76.3389908039
 30
0.0
  0
VERTEX
  8
0
 10
-571.009138567
 20
-76.3758469797
 30
0.0
  0
VERTEX
  8
0
 10
-570.97530655
 20
-76.4126626604
 30
0.0
  0
VERTEX
  8
0
 10
-570.941430462
 20
-76.4494377932
 30
0.0
  0
VERTEX
  8
0
 10
-570.907510353
 20
-76.4861723252
 30
0.0
  0
VERTEX
  8
0
 10
-570.873546269
 20
-76.5228662038
 30
0.0
  0
VERTEX
  8
0
 10
-570.839538261
 20
-76.5595193764
 30
0.0
  0
VERTEX
  8
0
 10
-570.805486376
 20
-76.5961317904
 30
0.0
  0
VERTEX
  8
0
 10
-570.771390664
 20
-76.6327033932
 30
0.0
  0
VERTEX
  8
0
 10
-570.737251174
 20
-76.6692341324
 30
0.0
  0
VERTEX
  8
0
 10
-570.703067954
 20
-76.7057239555
 30
0.0
  0
VERTEX
  8
0
 10
-570.668841054
 20
-76.7421728103
 30
0.0
  0
VERTEX
  8
0
 10
-570.634570523
 20
-76.7785806445
 30
0.0
  0
VERTEX
  8
0
 10
-570.600256409
 20
-76.8149474058
 30
0.0
  0
VERTEX
  8
0
 10
-570.565898763
 20
-76.851273042
 30
0.0
  0
VERTEX
  8
0
 10
-570.531497633
 20
-76.8875575011
 30
0.0
  0
VERTEX
  8
0
 10
-570.497053069
 20
-76.9238007309
 30
0.0
  0
VERTEX
  8
0
 10
-570.462565121
 20
-76.9600026796
 30
0.0
  0
VERTEX
  8
0
 10
-570.428033836
 20
-76.9961632951
 30
0.0
  0
VERTEX
  8
0
 10
-570.393459266
 20
-77.0322825256
 30
0.0
  0
VERTEX
  8
0
 10
-570.35884146
 20
-77.0683603192
 30
0.0
  0
VERTEX
  8
0
 10
-570.324180467
 20
-77.1043966243
 30
0.0
  0
VERTEX
  8
0
 10
-570.289476338
 20
-77.1403913891
 30
0.0
  0
VERTEX
  8
0
 10
-570.254729121
 20
-77.176344562
 30
0.0
  0
VERTEX
  8
0
 10
-570.219938868
 20
-77.2122560914
 30
0.0
  0
VERTEX
  8
0
 10
-570.185105626
 20
-77.2481259257
 30
0.0
  0
VERTEX
  8
0
 10
-570.150229448
 20
-77.2839540136
 30
0.0
  0
VERTEX
  8
0
 10
-570.115310382
 20
-77.3197403037
 30
0.0
  0
VERTEX
  8
0
 10
-570.08034848
 20
-77.3554847445
 30
0.0
  0
VERTEX
  8
0
 10
-570.04534379
 20
-77.3911872849
 30
0.0
  0
VERTEX
  8
0
 10
-570.010296363
 20
-77.4268478735
 30
0.0
  0
VERTEX
  8
0
 10
-569.97520625
 20
-77.4624664593
 30
0.0
  0
VERTEX
  8
0
 10
-569.9400735
 20
-77.4980429912
 30
0.0
  0
VERTEX
  8
0
 10
-569.904898165
 20
-77.533577418
 30
0.0
  0
VERTEX
  8
0
 10
-569.869680295
 20
-77.5690696889
 30
0.0
  0
VERTEX
  8
0
 10
-569.834419939
 20
-77.604519753
 30
0.0
  0
VERTEX
  8
0
 10
-569.79911715
 20
-77.6399275593
 30
0.0
  0
VERTEX
  8
0
 10
-569.763771976
 20
-77.675293057
 30
0.0
  0
VERTEX
  8
0
 10
-569.72838447
 20
-77.7106161955
 30
0.0
  0
VERTEX
  8
0
 10
-569.692954682
 20
-77.7458969241
 30
0.0
  0
VERTEX
  8
0
 10
-569.657482663
 20
-77.7811351921
 30
0.0
  0
VERTEX
  8
0
 10
-569.621968463
 20
-77.816330949
 30
0.0
  0
VERTEX
  8
0
 10
-569.586412133
 20
-77.8514841444
 30
0.0
  0
VERTEX
  8
0
 10
-569.550813725
 20
-77.8865947277
 30
0.0
  0
VERTEX
  8
0
 10
-569.51517329
 20
-77.9216626486
 30
0.0
  0
VERTEX
  8
0
 10
-569.479490879
 20
-77.9566878568
 30
0.0
  0
VERTEX
  8
0
 10
-569.443766542
 20
-77.9916703021
 30
0.0
  0
VERTEX
  8
0
 10
-569.408000332
 20
-78.0266099343
 30
0.0
  0
VERTEX
  8
0
 10
-569.372192299
 20
-78.0615067033
 30
0.0
  0
VERTEX
  8
0
 10
-569.336342495
 20
-78.0963605589
 30
0.0
  0
VERTEX
  8
0
 10
-569.300450971
 20
-78.1311714512
 30
0.0
  0
VERTEX
  8
0
 10
-569.264517779
 20
-78.1659393303
 30
0.0
  0
VERTEX
  8
0
 10
-569.22854297
 20
-78.2006641463
 30
0.0
  0
VERTEX
  8
0
 10
-569.192526597
 20
-78.2353458493
 30
0.0
  0
VERTEX
  8
0
 10
-569.15646871
 20
-78.2699843896
 30
0.0
  0
VERTEX
  8
0
 10
-569.120369361
 20
-78.3045797176
 30
0.0
  0
VERTEX
  8
0
 10
-569.084228602
 20
-78.3391317835
 30
0.0
  0
VERTEX
  8
0
 10
-569.048046485
 20
-78.3736405379
 30
0.0
  0
VERTEX
  8
0
 10
-569.011823063
 20
-78.4081059312
 30
0.0
  0
VERTEX
  8
0
 10
-568.975558385
 20
-78.442527914
 30
0.0
  0
VERTEX
  8
0
 10
-568.939252506
 20
-78.4769064369
 30
0.0
  0
VERTEX
  8
0
 10
-568.902905477
 20
-78.5112414506
 30
0.0
  0
VERTEX
  8
0
 10
-568.86651735
 20
-78.5455329058
 30
0.0
  0
VERTEX
  8
0
 10
-568.830088177
 20
-78.5797807533
 30
0.0
  0
VERTEX
  8
0
 10
-568.79361801
 20
-78.613984944
 30
0.0
  0
VERTEX
  8
0
 10
-568.757106903
 20
-78.6481454289
 30
0.0
  0
VERTEX
  8
0
 10
-568.720554907
 20
-78.6822621589
 30
0.0
  0
VERTEX
  8
0
 10
-568.683962074
 20
-78.7163350851
 30
0.0
  0
VERTEX
  8
0
 10
-568.647328457
 20
-78.7503641586
 30
0.0
  0
VERTEX
  8
0
 10
-568.61065411
 20
-78.7843493306
 30
0.0
  0
VERTEX
  8
0
 10
-568.573939083
 20
-78.8182905523
 30
0.0
  0
VERTEX
  8
0
 10
-568.537183431
 20
-78.8521877751
 30
0.0
  0
VERTEX
  8
0
 10
-568.500387205
 20
-78.8860409503
 30
0.0
  0
VERTEX
  8
0
 10
-568.463550459
 20
-78.9198500293
 30
0.0
  0
VERTEX
  8
0
 10
-568.426673245
 20
-78.9536149637
 30
0.0
  0
VERTEX
  8
0
 10
-568.389755616
 20
-78.9873357051
 30
0.0
  0
VERTEX
  8
0
 10
-568.352797626
 20
-79.0210122049
 30
0.0
  0
VERTEX
  8
0
 10
-568.315799326
 20
-79.054644415
 30
0.0
  0
VERTEX
  8
0
 10
-568.278760771
 20
-79.0882322871
 30
0.0
  0
VERTEX
  8
0
 10
-568.241682014
 20
-79.121775773
 30
0.0
  0
VERTEX
  8
0
 10
-568.204563107
 20
-79.1552748246
 30
0.0
  0
VERTEX
  8
0
 10
-568.167404104
 20
-79.1887293938
 30
0.0
  0
VERTEX
  8
0
 10
-568.130205058
 20
-79.2221394327
 30
0.0
  0
VERTEX
  8
0
 10
-568.092966023
 20
-79.2555048932
 30
0.0
  0
VERTEX
  8
0
 10
-568.055687052
 20
-79.2888257276
 30
0.0
  0
VERTEX
  8
0
 10
-568.018368198
 20
-79.322101888
 30
0.0
  0
VERTEX
  8
0
 10
-567.981009515
 20
-79.3553333268
 30
0.0
  0
VERTEX
  8
0
 10
-567.943611057
 20
-79.3885199961
 30
0.0
  0
VERTEX
  8
0
 10
-567.906172877
 20
-79.4216618485
 30
0.0
  0
VERTEX
  8
0
 10
-567.868695029
 20
-79.4547588364
 30
0.0
  0
VERTEX
  8
0
 10
-567.831177567
 20
-79.4878109123
 30
0.0
  0
VERTEX
  8
0
 10
-567.793620544
 20
-79.5208180287
 30
0.0
  0
VERTEX
  8
0
 10
-567.756024015
 20
-79.5537801384
 30
0.0
  0
VERTEX
  8
0
 10
-567.718388032
 20
-79.5866971941
 30
0.0
  0
VERTEX
  8
0
 10
-567.680712652
 20
-79.6195691485
 30
0.0
  0
VERTEX
  8
0
 10
-567.642997926
 20
-79.6523959544
 30
0.0
  0
VERTEX
  8
0
 10
-567.60524391
 20
-79.6851775648
 30
0.0
  0
VERTEX
  8
0
 10
-567.567450658
 20
-79.7179139327
 30
0.0
  0
VERTEX
  8
0
 10
-567.529618224
 20
-79.7506050111
 30
0.0
  0
VERTEX
  8
0
 10
-567.491746661
 20
-79.7832507531
 30
0.0
  0
VERTEX
  8
0
 10
-567.453836025
 20
-79.8158511118
 30
0.0
  0
VERTEX
  8
0
 10
-567.41588637
 20
-79.8484060405
 30
0.0
  0
VERTEX
  8
0
 10
-567.377897751
 20
-79.8809154926
 30
0.0
  0
VERTEX
  8
0
 10
-567.339870221
 20
-79.9133794212
 30
0.0
  0
VERTEX
  8
0
 10
-567.301803835
 20
-79.94579778
 30
0.0
  0
VERTEX
  8
0
 10
-567.263698648
 20
-79.9781705224
 30
0.0
  0
VERTEX
  8
0
 10
-567.225554715
 20
-80.0104976018
 30
0.0
  0
VERTEX
  8
0
 10
-567.18737209
 20
-80.0427789721
 30
0.0
  0
VERTEX
  8
0
 10
-567.149150829
 20
-80.0750145868
 30
0.0
  0
VERTEX
  8
0
 10
-567.110890985
 20
-80.1072043997
 30
0.0
  0
VERTEX
  8
0
 10
-567.072592614
 20
-80.1393483647
 30
0.0
  0
VERTEX
  8
0
 10
-567.034255771
 20
-80.1714464356
 30
0.0
  0
VERTEX
  8
0
 10
-566.99588051
 20
-80.2034985663
 30
0.0
  0
VERTEX
  8
0
 10
-566.957466888
 20
-80.235504711
 30
0.0
  0
VERTEX
  8
0
 10
-566.919014958
 20
-80.2674648236
 30
0.0
  0
VERTEX
  8
0
 10
-566.880524776
 20
-80.2993788583
 30
0.0
  0
VERTEX
  8
0
 10
-566.841996398
 20
-80.3312467695
 30
0.0
  0
VERTEX
  8
0
 10
-566.803429878
 20
-80.3630685112
 30
0.0
  0
VERTEX
  8
0
 10
-566.764825272
 20
-80.3948440379
 30
0.0
  0
VERTEX
  8
0
 10
-566.726182635
 20
-80.4265733041
 30
0.0
  0
VERTEX
  8
0
 10
-566.687502023
 20
-80.4582562641
 30
0.0
  0
VERTEX
  8
0
 10
-566.648783491
 20
-80.4898928725
 30
0.0
  0
VERTEX
  8
0
 10
-566.610027095
 20
-80.521483084
 30
0.0
  0
VERTEX
  8
0
 10
-566.571232891
 20
-80.5530268532
 30
0.0
  0
VERTEX
  8
0
 10
-566.532400933
 20
-80.5845241349
 30
0.0
  0
VERTEX
  8
0
 10
-566.493531278
 20
-80.6159748839
 30
0.0
  0
VERTEX
  8
0
 10
-566.454623981
 20
-80.6473790551
 30
0.0
  0
VERTEX
  8
0
 10
-566.415679099
 20
-80.6787366034
 30
0.0
  0
VERTEX
  8
0
 10
-566.376696686
 20
-80.7100474838
 30
0.0
  0
VERTEX
  8
0
 10
-566.3376768
 20
-80.7413116515
 30
0.0
  0
VERTEX
  8
0
 10
-566.298619496
 20
-80.7725290615
 30
0.0
  0
VERTEX
  8
0
 10
-566.25952483
 20
-80.8036996691
 30
0.0
  0
VERTEX
  8
0
 10
-566.220392858
 20
-80.8348234297
 30
0.0
  0
VERTEX
  8
0
 10
-566.181223636
 20
-80.8659002984
 30
0.0
  0
VERTEX
  8
0
 10
-566.142017221
 20
-80.8969302308
 30
0.0
  0
VERTEX
  8
0
 10
-566.102773668
 20
-80.9279131823
 30
0.0
  0
VERTEX
  8
0
 10
-566.063493035
 20
-80.9588491085
 30
0.0
  0
VERTEX
  8
0
 10
-566.024175376
 20
-80.9897379649
 30
0.0
  0
VERTEX
  8
0
 10
-565.98482075
 20
-81.0205797074
 30
0.0
  0
VERTEX
  8
0
 10
-565.945429212
 20
-81.0513742917
 30
0.0
  0
VERTEX
  8
0
 10
-565.906000818
 20
-81.0821216735
 30
0.0
  0
VERTEX
  8
0
 10
-565.866535626
 20
-81.1128218088
 30
0.0
  0
VERTEX
  8
0
 10
-565.827033692
 20
-81.1434746535
 30
0.0
  0
VERTEX
  8
0
 10
-565.787495072
 20
-81.1740801636
 30
0.0
  0
VERTEX
  8
0
 10
-565.747919824
 20
-81.2046382953
 30
0.0
  0
VERTEX
  8
0
 10
-565.708308003
 20
-81.2351490047
 30
0.0
  0
VERTEX
  8
0
 10
-565.668659668
 20
-81.2656122481
 30
0.0
  0
VERTEX
  8
0
 10
-565.628974874
 20
-81.2960279816
 30
0.0
  0
VERTEX
  8
0
 10
-565.589253679
 20
-81.3263961618
 30
0.0
  0
VERTEX
  8
0
 10
-565.54949614
 20
-81.356716745
 30
0.0
  0
VERTEX
  8
0
 10
-565.509702313
 20
-81.3869896878
 30
0.0
  0
VERTEX
  8
0
 10
-565.469872256
 20
-81.4172149467
 30
0.0
  0
VERTEX
  8
0
 10
-565.430006026
 20
-81.4473924783
 30
0.0
  0
VERTEX
  8
0
 10
-565.390103681
 20
-81.4775222394
 30
0.0
  0
VERTEX
  8
0
 10
-565.350165276
 20
-81.5076041868
 30
0.0
  0
VERTEX
  8
0
 10
-565.310190871
 20
-81.5376382772
 30
0.0
  0
VERTEX
  8
0
 10
-565.270180521
 20
-81.5676244676
 30
0.0
  0
VERTEX
  8
0
 10
-565.230134284
 20
-81.5975627151
 30
0.0
  0
VERTEX
  8
0
 10
-565.190052219
 20
-81.6274529765
 30
0.0
  0
VERTEX
  8
0
 10
-565.149934382
 20
-81.6572952091
 30
0.0
  0
VERTEX
  8
0
 10
-565.109780831
 20
-81.6870893701
 30
0.0
  0
VERTEX
  8
0
 10
-565.069591623
 20
-81.7168354167
 30
0.0
  0
VERTEX
  8
0
 10
-565.029366817
 20
-81.7465333062
 30
0.0
  0
VERTEX
  8
0
 10
-564.989106469
 20
-81.776182996
 30
0.0
  0
VERTEX
  8
0
 10
-564.948810638
 20
-81.8057844436
 30
0.0
  0
VERTEX
  8
0
 10
-564.908479381
 20
-81.8353376066
 30
0.0
  0
VERTEX
  8
0
 10
-564.868112757
 20
-81.8648424425
 30
0.0
  0
VERTEX
  8
0
 10
-564.827710823
 20
-81.894298909
 30
0.0
  0
VERTEX
  8
0
 10
-564.787273637
 20
-81.9237069639
 30
0.0
  0
VERTEX
  8
0
 10
-564.746801257
 20
-81.9530665649
 30
0.0
  0
VERTEX
  8
0
 10
-564.706293741
 20
-81.98237767
 30
0.0
  0
VERTEX
  8
0
 10
-564.665751148
 20
-82.0116402371
 30
0.0
  0
VERTEX
  8
0
 10
-564.625173535
 20
-82.0408542242
 30
0.0
  0
VERTEX
  8
0
 10
-564.584560961
 20
-82.0700195894
 30
0.0
  0
VERTEX
  8
0
 10
-564.543913484
 20
-82.0991362909
 30
0.0
  0
VERTEX
  8
0
 10
-564.503231162
 20
-82.1282042869
 30
0.0
  0
VERTEX
  8
0
 10
-564.462514054
 20
-82.1572235357
 30
0.0
  0
VERTEX
  8
0
 10
-564.421762218
 20
-82.1861939956
 30
0.0
  0
VERTEX
  8
0
 10
-564.380975712
 20
-82.2151156252
 30
0.0
  0
VERTEX
  8
0
 10
-564.340154596
 20
-82.2439883829
 30
0.0
  0
VERTEX
  8
0
 10
-564.299298927
 20
-82.2728122274
 30
0.0
  0
VERTEX
  8
0
 10
-564.258408764
 20
-82.3015871171
 30
0.0
  0
VERTEX
  8
0
 10
-564.217484166
 20
-82.330313011
 30
0.0
  0
VERTEX
  8
0
 10
-564.176525191
 20
-82.3589898677
 30
0.0
  0
VERTEX
  8
0
 10
-564.135531899
 20
-82.3876176462
 30
0.0
  0
VERTEX
  8
0
 10
-564.094504348
 20
-82.4161963053
 30
0.0
  0
VERTEX
  8
0
 10
-564.053442597
 20
-82.444725804
 30
0.0
  0
VERTEX
  8
0
 10
-564.012346705
 20
-82.4732061016
 30
0.0
  0
VERTEX
  8
0
 10
-563.97121673
 20
-82.501637157
 30
0.0
  0
VERTEX
  8
0
 10
-563.930052733
 20
-82.5300189294
 30
0.0
  0
VERTEX
  8
0
 10
-563.888854771
 20
-82.5583513783
 30
0.0
  0
VERTEX
  8
0
 10
-563.847622905
 20
-82.5866344629
 30
0.0
  0
VERTEX
  8
0
 10
-563.806357192
 20
-82.6148681427
 30
0.0
  0
VERTEX
  8
0
 10
-563.765057693
 20
-82.6430523771
 30
0.0
  0
VERTEX
  8
0
 10
-563.723724466
 20
-82.6711871258
 30
0.0
  0
VERTEX
  8
0
 10
-563.682357572
 20
-82.6992723483
 30
0.0
  0
VERTEX
  8
0
 10
-563.640957068
 20
-82.7273080044
 30
0.0
  0
VERTEX
  8
0
 10
-563.599523015
 20
-82.7552940539
 30
0.0
  0
VERTEX
  8
0
 10
-563.558055473
 20
-82.7832304565
 30
0.0
  0
VERTEX
  8
0
 10
-563.516554499
 20
-82.8111171723
 30
0.0
  0
VERTEX
  8
0
 10
-563.475020155
 20
-82.8389541613
 30
0.0
  0
VERTEX
  8
0
 10
-563.4334525
 20
-82.8667413834
 30
0.0
  0
VERTEX
  8
0
 10
-563.391851592
 20
-82.8944787989
 30
0.0
  0
VERTEX
  8
0
 10
-563.350217493
 20
-82.9221663679
 30
0.0
  0
VERTEX
  8
0
 10
-563.308550261
 20
-82.9498040507
 30
0.0
  0
VERTEX
  8
0
 10
-563.266849957
 20
-82.9773918077
 30
0.0
  0
VERTEX
  8
0
 10
-563.22511664
 20
-83.0049295993
 30
0.0
  0
VERTEX
  8
0
 10
-563.183350371
 20
-83.032417386
 30
0.0
  0
VERTEX
  8
0
 10
-563.141551208
 20
-83.0598551284
 30
0.0
  0
VERTEX
  8
0
 10
-563.099719213
 20
-83.0872427871
 30
0.0
  0
VERTEX
  8
0
 10
-563.057854444
 20
-83.1145803228
 30
0.0
  0
VERTEX
  8
0
 10
-563.015956963
 20
-83.1418676962
 30
0.0
  0
VERTEX
  8
0
 10
-562.974026828
 20
-83.1691048684
 30
0.0
  0
VERTEX
  8
0
 10
-562.932064102
 20
-83.1962918001
 30
0.0
  0
VERTEX
  8
0
 10
-562.890068842
 20
-83.2234284524
 30
0.0
  0
VERTEX
  8
0
 10
-562.848041111
 20
-83.2505147863
 30
0.0
  0
VERTEX
  8
0
 10
-562.805980967
 20
-83.277550763
 30
0.0
  0
VERTEX
  8
0
 10
-562.763888472
 20
-83.3045363438
 30
0.0
  0
VERTEX
  8
0
 10
-562.721763686
 20
-83.3314714898
 30
0.0
  0
VERTEX
  8
0
 10
-562.679606669
 20
-83.3583561625
 30
0.0
  0
VERTEX
  8
0
 10
-562.637417482
 20
-83.3851903232
 30
0.0
  0
VERTEX
  8
0
 10
-562.595196185
 20
-83.4119739336
 30
0.0
  0
VERTEX
  8
0
 10
-562.552942839
 20
-83.4387069551
 30
0.0
  0
VERTEX
  8
0
 10
-562.510657504
 20
-83.4653893495
 30
0.0
  0
VERTEX
  8
0
 10
-562.468340242
 20
-83.4920210784
 30
0.0
  0
VERTEX
  8
0
 10
-562.425991112
 20
-83.5186021036
 30
0.0
  0
VERTEX
  8
0
 10
-562.383610175
 20
-83.545132387
 30
0.0
  0
VERTEX
  8
0
 10
-562.341197493
 20
-83.5716118906
 30
0.0
  0
VERTEX
  8
0
 10
-562.298753127
 20
-83.5980405764
 30
0.0
  0
VERTEX
  8
0
 10
-562.256277136
 20
-83.6244184064
 30
0.0
  0
VERTEX
  8
0
 10
-562.213769582
 20
-83.6507453428
 30
0.0
  0
VERTEX
  8
0
 10
-562.171230527
 20
-83.6770213478
 30
0.0
  0
VERTEX
  8
0
 10
-562.12866003
 20
-83.7032463838
 30
0.0
  0
VERTEX
  8
0
 10
-562.086058153
 20
-83.7294204131
 30
0.0
  0
VERTEX
  8
0
 10
-562.043424958
 20
-83.7555433982
 30
0.0
  0
VERTEX
  8
0
 10
-562.000760505
 20
-83.7816153015
 30
0.0
  0
VERTEX
  8
0
 10
-561.958064855
 20
-83.8076360858
 30
0.0
  0
VERTEX
  8
0
 10
-561.915338071
 20
-83.8336057137
 30
0.0
  0
VERTEX
  8
0
 10
-561.872580212
 20
-83.8595241478
 30
0.0
  0
VERTEX
  8
0
 10
-561.829791341
 20
-83.8853913512
 30
0.0
  0
VERTEX
  8
0
 10
-561.786971518
 20
-83.9112072865
 30
0.0
  0
VERTEX
  8
0
 10
-561.744120806
 20
-83.9369719168
 30
0.0
  0
VERTEX
  8
0
 10
-561.701239266
 20
-83.9626852052
 30
0.0
  0
VERTEX
  8
0
 10
-561.658326959
 20
-83.9883471147
 30
0.0
  0
VERTEX
  8
0
 10
-561.615383947
 20
-84.0139576085
 30
0.0
  0
VERTEX
  8
0
 10
-561.572410291
 20
-84.0395166499
 30
0.0
  0
VERTEX
  8
0
 10
-561.529406053
 20
-84.0650242023
 30
0.0
  0
VERTEX
  8
0
 10
-561.486371295
 20
-84.090480229
 30
0.0
  0
VERTEX
  8
0
 10
-561.443306078
 20
-84.1158846935
 30
0.0
  0
VERTEX
  8
0
 10
-561.400210465
 20
-84.1412375594
 30
0.0
  0
VERTEX
  8
0
 10
-561.357084516
 20
-84.1665387903
 30
0.0
  0
VERTEX
  8
0
 10
-561.313928295
 20
-84.1917883499
 30
0.0
  0
VERTEX
  8
0
 10
-561.270741863
 20
-84.2169862019
 30
0.0
  0
VERTEX
  8
0
 10
-561.227525281
 20
-84.2421323103
 30
0.0
  0
VERTEX
  8
0
 10
-561.184278612
 20
-84.267226639
 30
0.0
  0
VERTEX
  8
0
 10
-561.141001918
 20
-84.292269152
 30
0.0
  0
VERTEX
  8
0
 10
-561.097695261
 20
-84.3172598132
 30
0.0
  0
VERTEX
  8
0
 10
-561.054358703
 20
-84.342198587
 30
0.0
  0
VERTEX
  8
0
 10
-561.010992306
 20
-84.3670854375
 30
0.0
  0
VERTEX
  8
0
 10
-560.967596133
 20
-84.391920329
 30
0.0
  0
VERTEX
  8
0
 10
-560.924170245
 20
-84.4167032259
 30
0.0
  0
VERTEX
  8
0
 10
-560.880714705
 20
-84.4414340926
 30
0.0
  0
VERTEX
  8
0
 10
-560.837229576
 20
-84.4661128937
 30
0.0
  0
VERTEX
  8
0
 10
-560.793714919
 20
-84.4907395937
 30
0.0
  0
VERTEX
  8
0
 10
-560.750170797
 20
-84.5153141573
 30
0.0
  0
VERTEX
  8
0
 10
-560.706597274
 20
-84.5398365493
 30
0.0
  0
VERTEX
  8
0
 10
-560.66299441
 20
-84.5643067345
 30
0.0
  0
VERTEX
  8
0
 10
-560.619362268
 20
-84.5887246778
 30
0.0
  0
VERTEX
  8
0
 10
-560.575700912
 20
-84.6130903442
 30
0.0
  0
VERTEX
  8
0
 10
-560.532010404
 20
-84.6374036987
 30
0.0
  0
VERTEX
  8
0
 10
-560.488290807
 20
-84.6616647063
 30
0.0
  0
VERTEX
  8
0
 10
-560.444542183
 20
-84.6858733325
 30
0.0
  0
VERTEX
  8
0
 10
-560.400764594
 20
-84.7100295423
 30
0.0
  0
VERTEX
  8
0
 10
-560.356958105
 20
-84.7341333011
 30
0.0
  0
VERTEX
  8
0
 10
-560.313122777
 20
-84.7581845744
 30
0.0
  0
VERTEX
  8
0
 10
-560.269258674
 20
-84.7821833277
 30
0.0
  0
VERTEX
  8
0
 10
-560.225365859
 20
-84.8061295265
 30
0.0
  0
VERTEX
  8
0
 10
-560.181444393
 20
-84.8300231365
 30
0.0
  0
VERTEX
  8
0
 10
-560.137494342
 20
-84.8538641233
 30
0.0
  0
VERTEX
  8
0
 10
-560.093515767
 20
-84.8776524529
 30
0.0
  0
VERTEX
  8
0
 10
-560.049508731
 20
-84.9013880911
 30
0.0
  0
VERTEX
  8
0
 10
-560.005473298
 20
-84.9250710038
 30
0.0
  0
VERTEX
  8
0
 10
-559.961409531
 20
-84.948701157
 30
0.0
  0
VERTEX
  8
0
 10
-559.917317493
 20
-84.9722785169
 30
0.0
  0
VERTEX
  8
0
 10
-559.873197248
 20
-84.9958030496
 30
0.0
  0
VERTEX
  8
0
 10
-559.829048858
 20
-85.0192747215
 30
0.0
  0
VERTEX
  8
0
 10
-559.784872387
 20
-85.0426934987
 30
0.0
  0
VERTEX
  8
0
 10
-559.740667899
 20
-85.0660593477
 30
0.0
  0
VERTEX
  8
0
 10
-559.696435456
 20
-85.0893722351
 30
0.0
  0
VERTEX
  8
0
 10
-559.652175123
 20
-85.1126321273
 30
0.0
  0
VERTEX
  8
0
 10
-559.607886962
 20
-85.1358389909
 30
0.0
  0
VERTEX
  8
0
 10
-559.563571037
 20
-85.1589927928
 30
0.0
  0
VERTEX
  8
0
 10
-559.519227413
 20
-85.1820934997
 30
0.0
  0
VERTEX
  8
0
 10
-559.474856152
 20
-85.2051410784
 30
0.0
  0
VERTEX
  8
0
 10
-559.430457318
 20
-85.2281354958
 30
0.0
  0
VERTEX
  8
0
 10
-559.386030974
 20
-85.2510767191
 30
0.0
  0
VERTEX
  8
0
 10
-559.341577186
 20
-85.2739647152
 30
0.0
  0
VERTEX
  8
0
 10
-559.297096015
 20
-85.2967994514
 30
0.0
  0
VERTEX
  8
0
 10
-559.252587527
 20
-85.3195808949
 30
0.0
  0
VERTEX
  8
0
 10
-559.208051784
 20
-85.342309013
 30
0.0
  0
VERTEX
  8
0
 10
-559.163488852
 20
-85.3649837731
 30
0.0
  0
VERTEX
  8
0
 10
-559.118898793
 20
-85.3876051427
 30
0.0
  0
VERTEX
  8
0
 10
-559.074281672
 20
-85.4101730892
 30
0.0
  0
VERTEX
  8
0
 10
-559.029637553
 20
-85.4326875805
 30
0.0
  0
VERTEX
  8
0
 10
-558.984966499
 20
-85.4551485841
 30
0.0
  0
VERTEX
  8
0
 10
-558.940268576
 20
-85.4775560678
 30
0.0
  0
VERTEX
  8
0
 10
-558.895543846
 20
-85.4999099995
 30
0.0
  0
VERTEX
  8
0
 10
-558.850792375
 20
-85.5222103471
 30
0.0
  0
VERTEX
  8
0
 10
-558.806014226
 20
-85.5444570786
 30
0.0
  0
VERTEX
  8
0
 10
-558.761209463
 20
-85.5666501622
 30
0.0
  0
VERTEX
  8
0
 10
-558.716378151
 20
-85.5887895659
 30
0.0
  0
VERTEX
  8
0
 10
-558.671520355
 20
-85.610875258
 30
0.0
  0
VERTEX
  8
0
 10
-558.626636138
 20
-85.6329072069
 30
0.0
  0
VERTEX
  8
0
 10
-558.581725565
 20
-85.6548853809
 30
0.0
  0
VERTEX
  8
0
 10
-558.5367887
 20
-85.6768097485
 30
0.0
  0
VERTEX
  8
0
 10
-558.491825608
 20
-85.6986802782
 30
0.0
  0
VERTEX
  8
0
 10
-558.446836354
 20
-85.7204969387
 30
0.0
  0
VERTEX
  8
0
 10
-558.401821001
 20
-85.7422596987
 30
0.0
  0
VERTEX
  8
0
 10
-558.356779615
 20
-85.7639685269
 30
0.0
  0
VERTEX
  8
0
 10
-558.31171226
 20
-85.7856233923
 30
0.0
  0
VERTEX
  8
0
 10
-558.266619
 20
-85.8072242637
 30
0.0
  0
VERTEX
  8
0
 10
-558.221499901
 20
-85.8287711101
 30
0.0
  0
VERTEX
  8
0
 10
-558.176355027
 20
-85.8502639007
 30
0.0
  0
VERTEX
  8
0
 10
-558.131184443
 20
-85.8717026046
 30
0.0
  0
VERTEX
  8
0
 10
-558.085988213
 20
-85.8930871911
 30
0.0
  0
VERTEX
  8
0
 10
-558.040766403
 20
-85.9144176294
 30
0.0
  0
VERTEX
  8
0
 10
-557.995519078
 20
-85.935693889
 30
0.0
  0
VERTEX
  8
0
 10
-557.950246301
 20
-85.9569159394
 30
0.0
  0
VERTEX
  8
0
 10
-557.904948139
 20
-85.9780837501
 30
0.0
  0
VERTEX
  8
0
 10
-557.859624656
 20
-85.9991972908
 30
0.0
  0
VERTEX
  8
0
 10
-557.814275918
 20
-86.0202565311
 30
0.0
  0
VERTEX
  8
0
 10
-557.768901988
 20
-86.0412614409
 30
0.0
  0
VERTEX
  8
0
 10
-557.723502933
 20
-86.06221199
 30
0.0
  0
VERTEX
  8
0
 10
-557.678078818
 20
-86.0831081484
 30
0.0
  0
VERTEX
  8
0
 10
-557.632629707
 20
-86.103949886
 30
0.0
  0
VERTEX
  8
0
 10
-557.587155666
 20
-86.124737173
 30
0.0
  0
VERTEX
  8
0
 10
-557.54165676
 20
-86.1454699796
 30
0.0
  0
VERTEX
  8
0
 10
-557.496133055
 20
-86.1661482761
 30
0.0
  0
VERTEX
  8
0
 10
-557.450584615
 20
-86.1867720327
 30
0.0
  0
VERTEX
  8
0
 10
-557.405011506
 20
-86.2073412198
 30
0.0
  0
VERTEX
  8
0
 10
-557.359413794
 20
-86.2278558081
 30
0.0
  0
VERTEX
  8
0
 10
-557.313791543
 20
-86.248315768
 30
0.0
  0
VERTEX
  8
0
 10
-557.26814482
 20
-86.2687210701
 30
0.0
  0
VERTEX
  8
0
 10
-557.22247369
 20
-86.2890716853
 30
0.0
  0
VERTEX
  8
0
 10
-557.176778217
 20
-86.3093675843
 30
0.0
  0
VERTEX
  8
0
 10
-557.131058469
 20
-86.329608738
 30
0.0
  0
VERTEX
  8
0
 10
-557.08531451
 20
-86.3497951174
 30
0.0
  0
VERTEX
  8
0
 10
-557.039546406
 20
-86.3699266935
 30
0.0
  0
VERTEX
  8
0
 10
-556.993754222
 20
-86.3900034374
 30
0.0
  0
VERTEX
  8
0
 10
-556.947938025
 20
-86.4100253204
 30
0.0
  0
VERTEX
  8
0
 10
-556.902097881
 20
-86.4299923136
 30
0.0
  0
VERTEX
  8
0
 10
-556.856233854
 20
-86.4499043886
 30
0.0
  0
VERTEX
  8
0
 10
-556.81034601
 20
-86.4697615166
 30
0.0
  0
VERTEX
  8
0
 10
-556.764434416
 20
-86.4895636692
 30
0.0
  0
VERTEX
  8
0
 10
-556.718499138
 20
-86.5093108181
 30
0.0
  0
VERTEX
  8
0
 10
-556.672540241
 20
-86.5290029348
 30
0.0
  0
VERTEX
  8
0
 10
-556.62655779
 20
-86.5486399912
 30
0.0
  0
VERTEX
  8
0
 10
-556.580551853
 20
-86.568221959
 30
0.0
  0
VERTEX
  8
0
 10
-556.534522496
 20
-86.5877488102
 30
0.0
  0
VERTEX
  8
0
 10
-556.488469783
 20
-86.6072205167
 30
0.0
  0
VERTEX
  8
0
 10
-556.442393781
 20
-86.6266370507
 30
0.0
  0
VERTEX
  8
0
 10
-556.396294557
 20
-86.6459983842
 30
0.0
  0
VERTEX
  8
0
 10
-556.350172177
 20
-86.6653044895
 30
0.0
  0
VERTEX
  8
0
 10
-556.304026706
 20
-86.6845553389
 30
0.0
  0
VERTEX
  8
0
 10
-556.25785821
 20
-86.7037509048
 30
0.0
  0
VERTEX
  8
0
 10
-556.211666757
 20
-86.7228911596
 30
0.0
  0
VERTEX
  8
0
 10
-556.165452412
 20
-86.741976076
 30
0.0
  0
VERTEX
  8
0
 10
-556.119215242
 20
-86.7610056264
 30
0.0
  0
VERTEX
  8
0
 10
-556.072955313
 20
-86.7799797836
 30
0.0
  0
VERTEX
  8
0
 10
-556.026672691
 20
-86.7988985204
 30
0.0
  0
VERTEX
  8
0
 10
-555.980367443
 20
-86.8177618097
 30
0.0
  0
VERTEX
  8
0
 10
-555.934039634
 20
-86.8365696244
 30
0.0
  0
VERTEX
  8
0
 10
-555.887689333
 20
-86.8553219375
 30
0.0
  0
VERTEX
  8
0
 10
-555.841316604
 20
-86.874018722
 30
0.0
  0
VERTEX
  8
0
 10
-555.794921515
 20
-86.8926599513
 30
0.0
  0
VERTEX
  8
0
 10
-555.748504133
 20
-86.9112455985
 30
0.0
  0
VERTEX
  8
0
 10
-555.702064523
 20
-86.929775637
 30
0.0
  0
VERTEX
  8
0
 10
-555.655602752
 20
-86.9482500402
 30
0.0
  0
VERTEX
  8
0
 10
-555.609118888
 20
-86.9666687816
 30
0.0
  0
VERTEX
  8
0
 10
-555.562612996
 20
-86.9850318347
 30
0.0
  0
VERTEX
  8
0
 10
-555.516085143
 20
-87.0033391733
 30
0.0
  0
VERTEX
  8
0
 10
-555.469535397
 20
-87.0215907711
 30
0.0
  0
VERTEX
  8
0
 10
-555.422963824
 20
-87.0397866018
 30
0.0
  0
VERTEX
  8
0
 10
-555.37637049
 20
-87.0579266394
 30
0.0
  0
VERTEX
  8
0
 10
-555.329755463
 20
-87.0760108579
 30
0.0
  0
VERTEX
  8
0
 10
-555.283118809
 20
-87.0940392313
 30
0.0
  0
VERTEX
  8
0
 10
-555.236460596
 20
-87.1120117338
 30
0.0
  0
VERTEX
  8
0
 10
-555.18978089
 20
-87.1299283395
 30
0.0
  0
VERTEX
  8
0
 10
-555.143079759
 20
-87.1477890228
 30
0.0
  0
VERTEX
  8
0
 10
-555.096357268
 20
-87.165593758
 30
0.0
  0
VERTEX
  8
0
 10
-555.049613486
 20
-87.1833425197
 30
0.0
  0
VERTEX
  8
0
 10
-555.00284848
 20
-87.2010352823
 30
0.0
  0
VERTEX
  8
0
 10
-554.956062315
 20
-87.2186720205
 30
0.0
  0
VERTEX
  8
0
 10
-554.909255061
 20
-87.2362527089
 30
0.0
  0
VERTEX
  8
0
 10
-554.862426783
 20
-87.2537773223
 30
0.0
  0
VERTEX
  8
0
 10
-554.815577548
 20
-87.2712458357
 30
0.0
  0
VERTEX
  8
0
 10
-554.768707425
 20
-87.2886582239
 30
0.0
  0
VERTEX
  8
0
 10
-554.721816481
 20
-87.306014462
 30
0.0
  0
VERTEX
  8
0
 10
-554.674904781
 20
-87.323314525
 30
0.0
  0
VERTEX
  8
0
 10
-554.627972395
 20
-87.3405583882
 30
0.0
  0
VERTEX
  8
0
 10
-554.581019389
 20
-87.3577460268
 30
0.0
  0
VERTEX
  8
0
 10
-554.53404583
 20
-87.3748774161
 30
0.0
  0
VERTEX
  8
0
 10
-554.487051787
 20
-87.3919525316
 30
0.0
  0
VERTEX
  8
0
 10
-554.440037326
 20
-87.4089713488
 30
0.0
  0
VERTEX
  8
0
 10
-554.393002514
 20
-87.4259338433
 30
0.0
  0
VERTEX
  8
0
 10
-554.34594742
 20
-87.4428399907
 30
0.0
  0
VERTEX
  8
0
 10
-554.298872111
 20
-87.4596897668
 30
0.0
  0
VERTEX
  8
0
 10
-554.251776654
 20
-87.4764831474
 30
0.0
  0
VERTEX
  8
0
 10
-554.204661117
 20
-87.4932201084
 30
0.0
  0
VERTEX
  8
0
 10
-554.157525567
 20
-87.5099006258
 30
0.0
  0
VERTEX
  8
0
 10
-554.110370073
 20
-87.5265246757
 30
0.0
  0
VERTEX
  8
0
 10
-554.063194701
 20
-87.5430922343
 30
0.0
  0
VERTEX
  8
0
 10
-554.015999519
 20
-87.5596032777
 30
0.0
  0
VERTEX
  8
0
 10
-553.968784596
 20
-87.5760577822
 30
0.0
  0
VERTEX
  8
0
 10
-553.921549999
 20
-87.5924557244
 30
0.0
  0
VERTEX
  8
0
 10
-553.874295795
 20
-87.6087970806
 30
0.0
  0
VERTEX
  8
0
 10
-553.827022052
 20
-87.6250818274
 30
0.0
  0
VERTEX
  8
0
 10
-553.779728839
 20
-87.6413099415
 30
0.0
  0
VERTEX
  8
0
 10
-553.732416223
 20
-87.6574813995
 30
0.0
  0
VERTEX
  8
0
 10
-553.685084272
 20
-87.6735961783
 30
0.0
  0
VERTEX
  8
0
 10
-553.637733053
 20
-87.6896542547
 30
0.0
  0
VERTEX
  8
0
 10
-553.590362636
 20
-87.7056556058
 30
0.0
  0
VERTEX
  8
0
 10
-553.542973087
 20
-87.7216002085
 30
0.0
  0
VERTEX
  8
0
 10
-553.495564475
 20
-87.73748804
 30
0.0
  0
VERTEX
  8
0
 10
-553.448136867
 20
-87.7533190774
 30
0.0
  0
VERTEX
  8
0
 10
-553.400690332
 20
-87.7690932982
 30
0.0
  0
VERTEX
  8
0
 10
-553.353224939
 20
-87.7848106796
 30
0.0
  0
VERTEX
  8
0
 10
-553.305740754
 20
-87.8004711992
 30
0.0
  0
VERTEX
  8
0
 10
-553.258237845
 20
-87.8160748343
 30
0.0
  0
VERTEX
  8
0
 10
-553.210716283
 20
-87.8316215628
 30
0.0
  0
VERTEX
  8
0
 10
-553.163176133
 20
-87.8471113621
 30
0.0
  0
VERTEX
  8
0
 10
-553.115617465
 20
-87.8625442103
 30
0.0
  0
VERTEX
  8
0
 10
-553.068040347
 20
-87.877920085
 30
0.0
  0
VERTEX
  8
0
 10
-553.020444847
 20
-87.8932389642
 30
0.0
  0
VERTEX
  8
0
 10
-552.972831033
 20
-87.908500826
 30
0.0
  0
VERTEX
  8
0
 10
-552.925198973
 20
-87.9237056485
 30
0.0
  0
VERTEX
  8
0
 10
-552.877548737
 20
-87.9388534098
 30
0.0
  0
VERTEX
  8
0
 10
-552.829880392
 20
-87.9539440883
 30
0.0
  0
VERTEX
  8
0
 10
-552.782194007
 20
-87.9689776622
 30
0.0
  0
VERTEX
  8
0
 10
-552.734489649
 20
-87.98395411
 30
0.0
  0
VERTEX
  8
0
 10
-552.686767388
 20
-87.9988734103
 30
0.0
  0
VERTEX
  8
0
 10
-552.639027292
 20
-88.0137355416
 30
0.0
  0
VERTEX
  8
0
 10
-552.59126943
 20
-88.0285404826
 30
0.0
  0
VERTEX
  8
0
 10
-552.54349387
 20
-88.043288212
 30
0.0
  0
VERTEX
  8
0
 10
-552.49570068
 20
-88.0579787088
 30
0.0
  0
VERTEX
  8
0
 10
-552.447889929
 20
-88.0726119517
 30
0.0
  0
VERTEX
  8
0
 10
-552.400061685
 20
-88.08718792
 30
0.0
  0
VERTEX
  8
0
 10
-552.352216018
 20
-88.1017065925
 30
0.0
  0
VERTEX
  8
0
 10
-552.304352996
 20
-88.1161679486
 30
0.0
  0
VERTEX
  8
0
 10
-552.256472688
 20
-88.1305719674
 30
0.0
  0
VERTEX
  8
0
 10
-552.208575162
 20
-88.1449186283
 30
0.0
  0
VERTEX
  8
0
 10
-552.160660486
 20
-88.1592079108
 30
0.0
  0
VERTEX
  8
0
 10
-552.112728731
 20
-88.1734397942
 30
0.0
  0
VERTEX
  8
0
 10
-552.064779964
 20
-88.1876142582
 30
0.0
  0
VERTEX
  8
0
 10
-552.016814254
 20
-88.2017312825
 30
0.0
  0
VERTEX
  8
0
 10
-551.96883167
 20
-88.2157908468
 30
0.0
  0
VERTEX
  8
0
 10
-551.920832281
 20
-88.229792931
 30
0.0
  0
VERTEX
  8
0
 10
-551.872816156
 20
-88.2437375149
 30
0.0
  0
VERTEX
  8
0
 10
-551.824783363
 20
-88.2576245786
 30
0.0
  0
VERTEX
  8
0
 10
-551.776733972
 20
-88.2714541021
 30
0.0
  0
VERTEX
  8
0
 10
-551.728668051
 20
-88.2852260656
 30
0.0
  0
VERTEX
  8
0
 10
-551.68058567
 20
-88.2989404493
 30
0.0
  0
VERTEX
  8
0
 10
-551.632486897
 20
-88.3125972336
 30
0.0
  0
VERTEX
  8
0
 10
-551.584371802
 20
-88.3261963988
 30
0.0
  0
VERTEX
  8
0
 10
-551.536240453
 20
-88.3397379255
 30
0.0
  0
VERTEX
  8
0
 10
-551.48809292
 20
-88.3532217943
 30
0.0
  0
VERTEX
  8
0
 10
-551.439929271
 20
-88.3666479857
 30
0.0
  0
VERTEX
  8
0
 10
-551.391749575
 20
-88.3800164806
 30
0.0
  0
VERTEX
  8
0
 10
-551.343553903
 20
-88.3933272597
 30
0.0
  0
VERTEX
  8
0
 10
-551.295342322
 20
-88.406580304
 30
0.0
  0
VERTEX
  8
0
 10
-551.247114902
 20
-88.4197755944
 30
0.0
  0
VERTEX
  8
0
 10
-551.198871713
 20
-88.4329131121
 30
0.0
  0
VERTEX
  8
0
 10
-551.150612823
 20
-88.4459928381
 30
0.0
  0
VERTEX
  8
0
 10
-551.102338301
 20
-88.4590147537
 30
0.0
  0
VERTEX
  8
0
 10
-551.054048218
 20
-88.4719788402
 30
0.0
  0
VERTEX
  8
0
 10
-551.005742641
 20
-88.4848850791
 30
0.0
  0
VERTEX
  8
0
 10
-550.957421642
 20
-88.4977334518
 30
0.0
  0
VERTEX
  8
0
 10
-550.909085288
 20
-88.5105239398
 30
0.0
  0
VERTEX
  8
0
 10
-550.860733649
 20
-88.5232565249
 30
0.0
  0
VERTEX
  8
0
 10
-550.812366795
 20
-88.5359311888
 30
0.0
  0
VERTEX
  8
0
 10
-550.763984794
 20
-88.5485479132
 30
0.0
  0
VERTEX
  8
0
 10
-550.715587717
 20
-88.5611066802
 30
0.0
  0
VERTEX
  8
0
 10
-550.667175633
 20
-88.5736074716
 30
0.0
  0
VERTEX
  8
0
 10
-550.61874861
 20
-88.5860502695
 30
0.0
  0
VERTEX
  8
0
 10
-550.57030672
 20
-88.5984350562
 30
0.0
  0
VERTEX
  8
0
 10
-550.52185003
 20
-88.6107618137
 30
0.0
  0
VERTEX
  8
0
 10
-550.473378612
 20
-88.6230305245
 30
0.0
  0
VERTEX
  8
0
 10
-550.424892533
 20
-88.6352411709
 30
0.0
  0
VERTEX
  8
0
 10
-550.376391864
 20
-88.6473937355
 30
0.0
  0
VERTEX
  8
0
 10
-550.327876675
 20
-88.6594882007
 30
0.0
  0
VERTEX
  8
0
 10
-550.279347034
 20
-88.6715245492
 30
0.0
  0
VERTEX
  8
0
 10
-550.230803012
 20
-88.6835027639
 30
0.0
  0
VERTEX
  8
0
 10
-550.182244678
 20
-88.6954228274
 30
0.0
  0
VERTEX
  8
0
 10
-550.133672102
 20
-88.7072847227
 30
0.0
  0
VERTEX
  8
0
 10
-550.085085354
 20
-88.7190884328
 30
0.0
  0
VERTEX
  8
0
 10
-550.036484502
 20
-88.7308339407
 30
0.0
  0
VERTEX
  8
0
 10
-549.987869618
 20
-88.7425212296
 30
0.0
  0
VERTEX
  8
0
 10
-549.93924077
 20
-88.7541502827
 30
0.0
  0
VERTEX
  8
0
 10
-549.890598029
 20
-88.7657210833
 30
0.0
  0
VERTEX
  8
0
 10
-549.841941464
 20
-88.7772336149
 30
0.0
  0
VERTEX
  8
0
 10
-549.793271145
 20
-88.788687861
 30
0.0
  0
VERTEX
  8
0
 10
-549.744587142
 20
-88.800083805
 30
0.0
  0
VERTEX
  8
0
 10
-549.695889525
 20
-88.8114214306
 30
0.0
  0
VERTEX
  8
0
 10
-549.647178363
 20
-88.8227007216
 30
0.0
  0
VERTEX
  8
0
 10
-549.598453726
 20
-88.8339216619
 30
0.0
  0
VERTEX
  8
0
 10
-549.549715685
 20
-88.8450842352
 30
0.0
  0
VERTEX
  8
0
 10
-549.500964309
 20
-88.8561884256
 30
0.0
  0
VERTEX
  8
0
 10
-549.452199668
 20
-88.8672342172
 30
0.0
  0
VERTEX
  8
0
 10
-549.403421833
 20
-88.8782215941
 30
0.0
  0
VERTEX
  8
0
 10
-549.354630872
 20
-88.8891505406
 30
0.0
  0
VERTEX
  8
0
 10
-549.305826857
 20
-88.9000210409
 30
0.0
  0
VERTEX
  8
0
 10
-549.257009856
 20
-88.9108330795
 30
0.0
  0
VERTEX
  8
0
 10
-549.208179941
 20
-88.9215866409
 30
0.0
  0
VERTEX
  8
0
 10
-549.159337181
 20
-88.9322817096
 30
0.0
  0
VERTEX
  8
0
 10
-549.110481646
 20
-88.9429182703
 30
0.0
  0
VERTEX
  8
0
 10
-549.061613407
 20
-88.9534963077
 30
0.0
  0
VERTEX
  8
0
 10
-549.012732533
 20
-88.9640158067
 30
0.0
  0
VERTEX
  8
0
 10
-548.963839095
 20
-88.9744767522
 30
0.0
  0
VERTEX
  8
0
 10
-548.914933162
 20
-88.9848791292
 30
0.0
  0
VERTEX
  8
0
 10
-548.866014805
 20
-88.9952229227
 30
0.0
  0
VERTEX
  8
0
 10
-548.817084094
 20
-89.0055081179
 30
0.0
  0
VERTEX
  8
0
 10
-548.7681411
 20
-89.0157347001
 30
0.0
  0
VERTEX
  8
0
 10
-548.719185891
 20
-89.0259026545
 30
0.0
  0
VERTEX
  8
0
 10
-548.67021854
 20
-89.0360119667
 30
0.0
  0
VERTEX
  8
0
 10
-548.621239115
 20
-89.046062622
 30
0.0
  0
VERTEX
  8
0
 10
-548.572247688
 20
-89.0560546061
 30
0.0
  0
VERTEX
  8
0
 10
-548.523244328
 20
-89.0659879047
 30
0.0
  0
VERTEX
  8
0
 10
-548.474229106
 20
-89.0758625034
 30
0.0
  0
VERTEX
  8
0
 10
-548.425202092
 20
-89.0856783882
 30
0.0
  0
VERTEX
  8
0
 10
-548.376163356
 20
-89.0954355449
 30
0.0
  0
VERTEX
  8
0
 10
-548.32711297
 20
-89.1051339595
 30
0.0
  0
VERTEX
  8
0
 10
-548.278051002
 20
-89.1147736182
 30
0.0
  0
VERTEX
  8
0
 10
-548.228977523
 20
-89.1243545071
 30
0.0
  0
VERTEX
  8
0
 10
-548.179892605
 20
-89.1338766125
 30
0.0
  0
VERTEX
  8
0
 10
-548.130796317
 20
-89.1433399206
 30
0.0
  0
VERTEX
  8
0
 10
-548.08168873
 20
-89.152744418
 30
0.0
  0
VERTEX
  8
0
 10
-548.032569914
 20
-89.1620900912
 30
0.0
  0
VERTEX
  8
0
 10
-547.983439939
 20
-89.1713769266
 30
0.0
  0
VERTEX
  8
0
 10
-547.934298877
 20
-89.180604911
 30
0.0
  0
VERTEX
  8
0
 10
-547.885146797
 20
-89.1897740313
 30
0.0
  0
VERTEX
  8
0
 10
-547.835983771
 20
-89.1988842741
 30
0.0
  0
VERTEX
  8
0
 10
-547.786809868
 20
-89.2079356265
 30
0.0
  0
VERTEX
  8
0
 10
-547.737625159
 20
-89.2169280754
 30
0.0
  0
VERTEX
  8
0
 10
-547.688429715
 20
-89.225861608
 30
0.0
  0
VERTEX
  8
0
 10
-547.639223607
 20
-89.2347362114
 30
0.0
  0
VERTEX
  8
0
 10
-547.590006904
 20
-89.243551873
 30
0.0
  0
VERTEX
  8
0
 10
-547.540779678
 20
-89.25230858
 30
0.0
  0
VERTEX
  8
0
 10
-547.491541999
 20
-89.2610063199
 30
0.0
  0
VERTEX
  8
0
 10
-547.442293938
 20
-89.2696450803
 30
0.0
  0
VERTEX
  8
0
 10
-547.393035566
 20
-89.2782248486
 30
0.0
  0
VERTEX
  8
0
 10
-547.343766952
 20
-89.2867456127
 30
0.0
  0
VERTEX
  8
0
 10
-547.294488168
 20
-89.2952073603
 30
0.0
  0
VERTEX
  8
0
 10
-547.245199285
 20
-89.3036100793
 30
0.0
  0
VERTEX
  8
0
 10
-547.195900373
 20
-89.3119537576
 30
0.0
  0
VERTEX
  8
0
 10
-547.146591503
 20
-89.3202383832
 30
0.0
  0
VERTEX
  8
0
 10
-547.097272745
 20
-89.3284639443
 30
0.0
  0
VERTEX
  8
0
 10
-547.047944171
 20
-89.336630429
 30
0.0
  0
VERTEX
  8
0
 10
-546.998605851
 20
-89.3447378257
 30
0.0
  0
VERTEX
  8
0
 10
-546.949257856
 20
-89.3527861227
 30
0.0
  0
VERTEX
  8
0
 10
-546.899900257
 20
-89.3607753084
 30
0.0
  0
VERTEX
  8
0
 10
-546.850533124
 20
-89.3687053715
 30
0.0
  0
VERTEX
  8
0
 10
-546.801156528
 20
-89.3765763005
 30
0.0
  0
VERTEX
  8
0
 10
-546.751770541
 20
-89.3843880841
 30
0.0
  0
VERTEX
  8
0
 10
-546.702375233
 20
-89.3921407111
 30
0.0
  0
VERTEX
  8
0
 10
-546.652970675
 20
-89.3998341704
 30
0.0
  0
VERTEX
  8
0
 10
-546.603556937
 20
-89.4074684511
 30
0.0
  0
VERTEX
  8
0
 10
-546.554134091
 20
-89.415043542
 30
0.0
  0
VERTEX
  8
0
 10
-546.504702208
 20
-89.4225594324
 30
0.0
  0
VERTEX
  8
0
 10
-546.455261358
 20
-89.4300161115
 30
0.0
  0
VERTEX
  8
0
 10
-546.405811612
 20
-89.4374135685
 30
0.0
  0
VERTEX
  8
0
 10
-546.356353042
 20
-89.4447517929
 30
0.0
  0
VERTEX
  8
0
 10
-546.306885718
 20
-89.4520307741
 30
0.0
  0
VERTEX
  8
0
 10
-546.257409712
 20
-89.4592505017
 30
0.0
  0
VERTEX
  8
0
 10
-546.207925093
 20
-89.4664109654
 30
0.0
  0
VERTEX
  8
0
 10
-546.158431934
 20
-89.4735121548
 30
0.0
  0
VERTEX
  8
0
 10
-546.108930305
 20
-89.4805540598
 30
0.0
  0
VERTEX
  8
0
 10
-546.059420277
 20
-89.4875366703
 30
0.0
  0
VERTEX
  8
0
 10
-546.009901922
 20
-89.4944599762
 30
0.0
  0
VERTEX
  8
0
 10
-545.960375309
 20
-89.5013239677
 30
0.0
  0
VERTEX
  8
0
 10
-545.910840511
 20
-89.5081286348
 30
0.0
  0
VERTEX
  8
0
 10
-545.861297599
 20
-89.5148739678
 30
0.0
  0
VERTEX
  8
0
 10
-545.811746643
 20
-89.5215599571
 30
0.0
  0
VERTEX
  8
0
 10
-545.762187714
 20
-89.5281865931
 30
0.0
  0
VERTEX
  8
0
 10
-545.712620884
 20
-89.5347538661
 30
0.0
  0
VERTEX
  8
0
 10
-545.663046224
 20
-89.5412617669
 30
0.0
  0
VERTEX
  8
0
 10
-545.613463805
 20
-89.5477102861
 30
0.0
  0
VERTEX
  8
0
 10
-545.563873698
 20
-89.5540994144
 30
0.0
  0
VERTEX
  8
0
 10
-545.514275974
 20
-89.5604291427
 30
0.0
  0
VERTEX
  8
0
 10
-545.464670704
 20
-89.5666994619
 30
0.0
  0
VERTEX
  8
0
 10
-545.415057959
 20
-89.572910363
 30
0.0
  0
VERTEX
  8
0
 10
-545.365437811
 20
-89.579061837
 30
0.0
  0
VERTEX
  8
0
 10
-545.315810331
 20
-89.5851538753
 30
0.0
  0
VERTEX
  8
0
 10
-545.26617559
 20
-89.5911864689
 30
0.0
  0
VERTEX
  8
0
 10
-545.21653366
 20
-89.5971596093
 30
0.0
  0
VERTEX
  8
0
 10
-545.16688461
 20
-89.6030732879
 30
0.0
  0
VERTEX
  8
0
 10
-545.117228513
 20
-89.6089274962
 30
0.0
  0
VERTEX
  8
0
 10
-545.067565441
 20
-89.6147222258
 30
0.0
  0
VERTEX
  8
0
 10
-545.017895463
 20
-89.6204574685
 30
0.0
  0
VERTEX
  8
0
 10
-544.968218651
 20
-89.6261332159
 30
0.0
  0
VERTEX
  8
0
 10
-544.918535078
 20
-89.6317494599
 30
0.0
  0
VERTEX
  8
0
 10
-544.868844813
 20
-89.6373061925
 30
0.0
  0
VERTEX
  8
0
 10
-544.819147928
 20
-89.6428034058
 30
0.0
  0
VERTEX
  8
0
 10
-544.769444495
 20
-89.6482410917
 30
0.0
  0
VERTEX
  8
0
 10
-544.719734584
 20
-89.6536192426
 30
0.0
  0
VERTEX
  8
0
 10
-544.670018268
 20
-89.6589378506
 30
0.0
  0
VERTEX
  8
0
 10
-544.620295617
 20
-89.6641969083
 30
0.0
  0
VERTEX
  8
0
 10
-544.570566703
 20
-89.6693964079
 30
0.0
  0
VERTEX
  8
0
 10
-544.520831597
 20
-89.6745363422
 30
0.0
  0
VERTEX
  8
0
 10
-544.47109037
 20
-89.6796167036
 30
0.0
  0
VERTEX
  8
0
 10
-544.421343094
 20
-89.6846374849
 30
0.0
  0
VERTEX
  8
0
 10
-544.371589841
 20
-89.689598679
 30
0.0
  0
VERTEX
  8
0
 10
-544.32183068
 20
-89.6945002786
 30
0.0
  0
VERTEX
  8
0
 10
-544.272065685
 20
-89.6993422768
 30
0.0
  0
VERTEX
  8
0
 10
-544.222294926
 20
-89.7041246666
 30
0.0
  0
VERTEX
  8
0
 10
-544.172518475
 20
-89.7088474412
 30
0.0
  0
VERTEX
  8
0
 10
-544.122736403
 20
-89.7135105937
 30
0.0
  0
VERTEX
  8
0
 10
-544.072948781
 20
-89.7181141175
 30
0.0
  0
VERTEX
  8
0
 10
-544.023155681
 20
-89.722658006
 30
0.0
  0
VERTEX
  8
0
 10
-543.973357175
 20
-89.7271422527
 30
0.0
  0
VERTEX
  8
0
 10
-543.923553334
 20
-89.731566851
 30
0.0
  0
VERTEX
  8
0
 10
-543.873744228
 20
-89.7359317948
 30
0.0
  0
VERTEX
  8
0
 10
-543.823929931
 20
-89.7402370777
 30
0.0
  0
VERTEX
  8
0
 10
-543.774110512
 20
-89.7444826935
 30
0.0
  0
VERTEX
  8
0
 10
-543.724286045
 20
-89.7486686362
 30
0.0
  0
VERTEX
  8
0
 10
-543.674456599
 20
-89.7527948998
 30
0.0
  0
VERTEX
  8
0
 10
-543.624622247
 20
-89.7568614782
 30
0.0
  0
VERTEX
  8
0
 10
-543.57478306
 20
-89.7608683658
 30
0.0
  0
VERTEX
  8
0
 10
-543.52493911
 20
-89.7648155567
 30
0.0
  0
VERTEX
  8
0
 10
-543.475090467
 20
-89.7687030453
 30
0.0
  0
VERTEX
  8
0
 10
-543.425237205
 20
-89.772530826
 30
0.0
  0
VERTEX
  8
0
 10
-543.375379393
 20
-89.7762988934
 30
0.0
  0
VERTEX
  8
0
 10
-543.325517104
 20
-89.7800072419
 30
0.0
  0
VERTEX
  8
0
 10
-543.27565041
 20
-89.7836558664
 30
0.0
  0
VERTEX
  8
0
 10
-543.225779381
 20
-89.7872447615
 30
0.0
  0
VERTEX
  8
0
 10
-543.175904089
 20
-89.7907739221
 30
0.0
  0
VERTEX
  8
0
 10
-543.126024606
 20
-89.7942433431
 30
0.0
  0
VERTEX
  8
0
 10
-543.076141003
 20
-89.7976530196
 30
0.0
  0
VERTEX
  8
0
 10
-543.026253353
 20
-89.8010029467
 30
0.0
  0
VERTEX
  8
0
 10
-542.976361726
 20
-89.8042931196
 30
0.0
  0
VERTEX
  8
0
 10
-542.926466193
 20
-89.8075235335
 30
0.0
  0
VERTEX
  8
0
 10
-542.876566828
 20
-89.8106941839
 30
0.0
  0
VERTEX
  8
0
 10
-542.826663701
 20
-89.8138050661
 30
0.0
  0
VERTEX
  8
0
 10
-542.776756883
 20
-89.8168561757
 30
0.0
  0
VERTEX
  8
0
 10
-542.726846447
 20
-89.8198475084
 30
0.0
  0
VERTEX
  8
0
 10
-542.676932464
 20
-89.8227790598
 30
0.0
  0
VERTEX
  8
0
 10
-542.627015006
 20
-89.8256508257
 30
0.0
  0
VERTEX
  8
0
 10
-542.577094143
 20
-89.8284628021
 30
0.0
  0
VERTEX
  8
0
 10
-542.527169949
 20
-89.8312149848
 30
0.0
  0
VERTEX
  8
0
 10
-542.477242494
 20
-89.83390737
 30
0.0
  0
VERTEX
  8
0
 10
-542.42731185
 20
-89.8365399537
 30
0.0
  0
VERTEX
  8
0
 10
-542.377378089
 20
-89.8391127322
 30
0.0
  0
VERTEX
  8
0
 10
-542.327441282
 20
-89.8416257018
 30
0.0
  0
VERTEX
  8
0
 10
-542.277501501
 20
-89.844078859
 30
0.0
  0
VERTEX
  8
0
 10
-542.227558817
 20
-89.8464722001
 30
0.0
  0
VERTEX
  8
0
 10
-542.177613303
 20
-89.8488057217
 30
0.0
  0
VERTEX
  8
0
 10
-542.12766503
 20
-89.8510794206
 30
0.0
  0
VERTEX
  8
0
 10
-542.077714069
 20
-89.8532932933
 30
0.0
  0
VERTEX
  8
0
 10
-542.027760493
 20
-89.8554473369
 30
0.0
  0
VERTEX
  8
0
 10
-541.977804373
 20
-89.8575415481
 30
0.0
  0
VERTEX
  8
0
 10
-541.92784578
 20
-89.859575924
 30
0.0
  0
VERTEX
  8
0
 10
-541.877884786
 20
-89.8615504616
 30
0.0
  0
VERTEX
  8
0
 10
-541.827921463
 20
-89.8634651581
 30
0.0
  0
VERTEX
  8
0
 10
-541.777955882
 20
-89.8653200109
 30
0.0
  0
VERTEX
  8
0
 10
-541.727988116
 20
-89.8671150171
 30
0.0
  0
VERTEX
  8
0
 10
-541.678018236
 20
-89.8688501742
 30
0.0
  0
VERTEX
  8
0
 10
-541.628046313
 20
-89.8705254798
 30
0.0
  0
VERTEX
  8
0
 10
-541.57807242
 20
-89.8721409314
 30
0.0
  0
VERTEX
  8
0
 10
-541.528096628
 20
-89.8736965268
 30
0.0
  0
VERTEX
  8
0
 10
-541.478119008
 20
-89.8751922636
 30
0.0
  0
VERTEX
  8
0
 10
-541.428139633
 20
-89.8766281398
 30
0.0
  0
VERTEX
  8
0
 10
-541.378158573
 20
-89.8780041533
 30
0.0
  0
VERTEX
  8
0
 10
-541.328175902
 20
-89.8793203021
 30
0.0
  0
VERTEX
  8
0
 10
-541.27819169
 20
-89.8805765843
 30
0.0
  0
VERTEX
  8
0
 10
-541.228206009
 20
-89.8817729981
 30
0.0
  0
VERTEX
  8
0
 10
-541.178218931
 20
-89.8829095418
 30
0.0
  0
VERTEX
  8
0
 10
-541.128230527
 20
-89.8839862139
 30
0.0
  0
VERTEX
  8
0
 10
-541.1116675
 20
-89.8843297442
 30
0.0
  0
SEQEND
  8
0
  0
LINE
  8
0
 62
7
 10
-732.0
 20
8.50549870668
 30
0.0
 11
-732.0
 21
46.4015198309
 31
0.0
  0
LINE
  8
0
 62
7
 10
-732.0
 20
46.4015198309
 30
0.0
 11
-754.210083
 21
46.4015198309
 31
0.0
  0
LINE
  8
0
 62
7
 10
-754.210083
 20
46.4015198309
 30
0.0
 11
-754.210083
 21
116.401519831
 31
0.0
  0
LINE
  8
0
 62
7
 10
-754.210083
 20
116.401519831
 30
0.0
 11
-732.0
 21
116.401519831
 31
0.0
  0
LINE
  8
0
 62
7
 10
-732.0
 20
116.401519831
 30
0.0
 11
-732.0
 21
175.0
 31
0.0
  0
LINE
  8
0
 62
7
 10
-732.0
 20
175.0
 30
0.0
 11
3.41060513165e-13
 21
200.0
 31
0.0
  0
LINE
  8
0
 62
7
 10
0.0
 20
200.0
 30
0.0
 11
0.0
 21
101.0
 31
0.0
  0
LINE
  8
0
 62
7
 10
0.0
 20
101.0
 30
0.0
 11
-541.1116675
 21
89.8843297442
 31
0.0
  0
LINE
  8
0
 62
7
 10
-582.0
 20
48.1474312212
 30
0.0
 11
-582.0
 21
-48.1474312212
 31
0.0
  0
LINE
  8
0
 62
7
 10
-541.1116675
 20
-89.8843297442
 30
0.0
 11
-1.13686837722e-13
 21
-101.0
 31
0.0
  0
LINE
  8
0
 62
7
 10
0.0
 20
-101.0
 30
0.0
 11
0.0
 21
-200.0
 31
0.0
  0
LINE
  8
0
 62
7
 10
0.0
 20
-200.0
 30
0.0
 11
-732.0
 21
-175.0
 31
0.0
  0
LINE
  8
0
 62
7
 10
-732.0
 20
-175.0
 30
0.0
 11
-732.0
 21
-116.401519831
 31
0.0
  0
LINE
  8
0
 62
7
 10
-732.0
 20
-116.401519831
 30
0.0
 11
-755.876221
 21
-116.401519831
 31
0.0
  0
LINE
  8
0
 62
7
 10
-755.876221
 20
-116.401519831
 30
0.0
 11
-755.876221
 21
-46.4015198309
 31
0.0
  0
LINE
  8
0
 62
7
 10
-755.876221
 20
-46.4015198309
 30
0.0
 11
-732.0
 21
-46.4015198309
 31
0.0
  0
LINE
  8
0
 62
7
 10
-732.0
 20
-46.4015198309
 30
0.0
 11
-732.0
 21
-8.50022695249
 31
0.0
  0
LINE
  8
0
 62
7
 10
-632.0
 20
-8.50022695249
 30
0.0
 11
-732.0
 21
-8.50022695249
 31
0.0
  0
LINE
  8
0
 62
7
 10
-632.0
 20
8.50549870668
 30
0.0
 11
-632.0
 21
-8.50022695249
 31
0.0
  0
LINE
  8
0
 62
7
 10
-732.0
 20
8.50549870668
 30
0.0
 11
-632.0
 21
8.50549870668
 31
0.0
  0
ENDBLK
  0
ENDSEC
  0
SECTION
  2
ENTITIES
  0
INSERT
  2
SKETCH
  8
0
 62
7
 10
0.0
 20
0.0
 30
0.0
  0
ENDSEC
  0
EOF
