  0
SECTION
  2
HEADER
  9
$ACADVER
  1
AC1009
  9
$INSBASE
 10
0.0
 20
0.0
 30
0.0
  9
$EXTMIN
 10
0.0
 20
0.0
 30
0.0
  9
$EXTMAX
 10
0.0
 20
0.0
 30
0.0
  0
ENDSEC
  0
SECTION
  2
TABLES
  0
TABLE
  2
VPORT
 70
0
  0
ENDTAB
  0
TABLE
  2
LTYPE
 70
1
  0
LTYPE
  2
CONTINUOUS
 70
0
  3
Solid line
 72
65
 73
0
 40
0.0
  0
ENDTAB
  0
TABLE
  2
LAYER
 70
1
  0
LAYER
  2
0
 70
64
 62
7
  6
continuous
  0
ENDTAB
  0
TABLE
  2
STYLE
 70
1
  0
STYLE
  2
STANDARD
 70
0
 40
0
 41
1.0
 50
0.0
 71
0
 42
1
 3
ARIAL.TTF
 4

  0
ENDTAB
  0
TABLE
  2
VIEW
 70
0
  0
ENDTAB
  0
ENDSEC
  0
SECTION
  2
BLOCKS
  0
BLOCK
  8
0
  2
SHAPE2DVIEW
 70
0
 10
0.0
 20
0.0
 30
0.0
  3
SHAPE2DVIEW
  0
LINE
  8
0
 62
0
 10
0.0
 20
1200.0
 30
0.0
 11
600.0
 21
1200.0
 31
0.0
  0
LINE
  8
0
 62
0
 10
0.0
 20
0.0
 30
0.0
 11
0.0
 21
1200.0
 31
0.0
  0
LINE
  8
0
 62
0
 10
600.0
 20
1200.0
 30
0.0
 11
600.0
 21
0.0
 31
0.0
  0
LINE
  8
0
 62
0
 10
600.0
 20
0.0
 30
0.0
 11
0.0
 21
0.0
 31
0.0
  0
LINE
  8
0
 62
0
 10
247.3
 20
123.19719686
 30
0.0
 11
247.3
 21
108.80280314
 31
0.0
  0
ARC
  8
0
 62
0
 10
246.713333333
 20
107.786666667
 30
0.0
 40
1.17333333333
 50
-90.0
 51
60.0
  0
ARC
  8
0
 62
0
 10
246.713333333
 20
107.786666667
 30
0.0
 40
1.17333333333
 50
-150.0
 51
-90.0
  0
LINE
  8
0
 62
0
 10
245.69719686
 20
107.2
 30
0.0
 11
179.30280314
 21
107.2
 31
0.0
  0
ARC
  8
0
 62
0
 10
178.286666667
 20
107.786666667
 30
0.0
 40
1.17333333333
 50
-90.0
 51
-30.0
  0
ARC
  8
0
 62
0
 10
178.286666667
 20
107.786666667
 30
0.0
 40
1.17333333333
 50
120.0
 51
-90.0
  0
LINE
  8
0
 62
0
 10
177.7
 20
123.19719686
 30
0.0
 11
177.7
 21
108.80280314
 31
0.0
  0
ARC
  8
0
 62
0
 10
178.286666667
 20
124.213333333
 30
0.0
 40
1.17333333333
 50
30.0
 51
-120.0
  0
LINE
  8
0
 62
0
 10
245.69719686
 20
124.8
 30
0.0
 11
179.30280314
 21
124.8
 31
0.0
  0
ARC
  8
0
 62
0
 10
246.713333333
 20
124.213333333
 30
0.0
 40
1.17333333333
 50
-60.0
 51
150.0
  0
ARC
  8
0
 62
0
 10
178.286666667
 20
1057.78666667
 30
0.0
 40
1.17333333333
 50
-90.0
 51
-30.0
  0
ARC
  8
0
 62
0
 10
178.286666667
 20
1057.78666667
 30
0.0
 40
1.17333333333
 50
120.0
 51
-90.0
  0
LINE
  8
0
 62
0
 10
177.7
 20
1073.19719686
 30
0.0
 11
177.7
 21
1058.80280314
 31
0.0
  0
ARC
  8
0
 62
0
 10
178.286666667
 20
1074.21333333
 30
0.0
 40
1.17333333333
 50
30.0
 51
-120.0
  0
LINE
  8
0
 62
0
 10
245.69719686
 20
1074.8
 30
0.0
 11
179.30280314
 21
1074.8
 31
0.0
  0
ARC
  8
0
 62
0
 10
246.713333333
 20
1074.21333333
 30
0.0
 40
1.17333333333
 50
-60.0
 51
150.0
  0
LINE
  8
0
 62
0
 10
247.3
 20
1073.19719686
 30
0.0
 11
247.3
 21
1058.80280314
 31
0.0
  0
ARC
  8
0
 62
0
 10
246.713333333
 20
1057.78666667
 30
0.0
 40
1.17333333333
 50
-90.0
 51
60.0
  0
ARC
  8
0
 62
0
 10
246.713333333
 20
1057.78666667
 30
0.0
 40
1.17333333333
 50
-150.0
 51
-90.0
  0
LINE
  8
0
 62
0
 10
245.69719686
 20
1057.2
 30
0.0
 11
179.30280314
 21
1057.2
 31
0.0
  0
LINE
  8
0
 62
0
 10
420.69719686
 20
124.8
 30
0.0
 11
354.30280314
 21
124.8
 31
0.0
  0
ARC
  8
0
 62
0
 10
421.713333333
 20
124.213333333
 30
0.0
 40
1.17333333333
 50
-60.0
 51
150.0
  0
LINE
  8
0
 62
0
 10
422.3
 20
123.19719686
 30
0.0
 11
422.3
 21
108.80280314
 31
0.0
  0
ARC
  8
0
 62
0
 10
421.713333333
 20
107.786666667
 30
0.0
 40
1.17333333333
 50
-90.0
 51
60.0
  0
ARC
  8
0
 62
0
 10
421.713333333
 20
107.786666667
 30
0.0
 40
1.17333333333
 50
-150.0
 51
-90.0
  0
LINE
  8
0
 62
0
 10
420.69719686
 20
107.2
 30
0.0
 11
354.30280314
 21
107.2
 31
0.0
  0
ARC
  8
0
 62
0
 10
353.286666667
 20
107.786666667
 30
0.0
 40
1.17333333333
 50
-90.0
 51
-30.0
  0
ARC
  8
0
 62
0
 10
353.286666667
 20
107.786666667
 30
0.0
 40
1.17333333333
 50
120.0
 51
-90.0
  0
LINE
  8
0
 62
0
 10
352.7
 20
123.19719686
 30
0.0
 11
352.7
 21
108.80280314
 31
0.0
  0
ARC
  8
0
 62
0
 10
353.286666667
 20
124.213333333
 30
0.0
 40
1.17333333333
 50
30.0
 51
-120.0
  0
LINE
  8
0
 62
0
 10
422.3
 20
1073.19719686
 30
0.0
 11
422.3
 21
1058.80280314
 31
0.0
  0
ARC
  8
0
 62
0
 10
421.713333333
 20
1057.78666667
 30
0.0
 40
1.17333333333
 50
-90.0
 51
60.0
  0
ARC
  8
0
 62
0
 10
421.713333333
 20
1057.78666667
 30
0.0
 40
1.17333333333
 50
-150.0
 51
-90.0
  0
LINE
  8
0
 62
0
 10
420.69719686
 20
1057.2
 30
0.0
 11
354.30280314
 21
1057.2
 31
0.0
  0
ARC
  8
0
 62
0
 10
353.286666667
 20
1057.78666667
 30
0.0
 40
1.17333333333
 50
-90.0
 51
-30.0
  0
ARC
  8
0
 62
0
 10
353.286666667
 20
1057.78666667
 30
0.0
 40
1.17333333333
 50
120.0
 51
-90.0
  0
LINE
  8
0
 62
0
 10
352.7
 20
1073.19719686
 30
0.0
 11
352.7
 21
1058.80280314
 31
0.0
  0
ARC
  8
0
 62
0
 10
353.286666667
 20
1074.21333333
 30
0.0
 40
1.17333333333
 50
30.0
 51
-120.0
  0
LINE
  8
0
 62
0
 10
420.69719686
 20
1074.8
 30
0.0
 11
354.30280314
 21
1074.8
 31
0.0
  0
ARC
  8
0
 62
0
 10
421.713333333
 20
1074.21333333
 30
0.0
 40
1.17333333333
 50
-60.0
 51
150.0
  0
ENDBLK
  0
BLOCK
  8
0
  2
SHAPE2DVIEW001
 70
0
 10
0.0
 20
0.0
 30
0.0
  3
SHAPE2DVIEW001
  0
LINE
  8
0
 62
0
 10
147.5
 20
1228.0
 30
0.0
 11
252.5
 21
1228.0
 31
0.0
  0
LINE
  8
0
 62
0
 10
147.5
 20
1228.0
 30
0.0
 11
147.5
 21
1210.0
 31
0.0
  0
LINE
  8
0
 62
0
 10
147.5
 20
1210.0
 30
0.0
 11
77.5
 21
1210.0
 31
0.0
  0
LINE
  8
0
 62
0
 10
322.5
 20
1228.0
 30
0.0
 11
375.0
 21
1228.0
 31
0.0
  0
LINE
  8
0
 62
0
 10
375.0
 20
1228.0
 30
0.0
 11
400.0
 21
1960.0
 31
0.0
  0
LINE
  8
0
 62
0
 10
100.0
 20
1960.0
 30
0.0
 11
2.84217094304e-14
 21
1960.0
 31
0.0
  0
LINE
  8
0
 62
0
 10
121.918691386
 20
1401.64166846
 30
0.0
 11
100.0
 21
1960.0
 31
0.0
  0
LINE
  8
0
 62
0
 10
2.84217094304e-14
 20
1960.0
 30
0.0
 11
25.0
 21
1228.0
 31
0.0
  0
ARC
  8
0
 62
0
 10
156.891754976
 20
1403.01455706
 30
0.0
 40
35.0
 50
-177.751974054
 51
-90.0
  0
LINE
  8
0
 62
0
 10
25.0
 20
1228.0
 30
0.0
 11
77.5
 21
1228.0
 31
0.0
  0
LINE
  8
0
 62
0
 10
243.108245024
 20
1368.01455706
 30
0.0
 11
156.891754976
 21
1368.01455706
 31
0.0
  0
ARC
  8
0
 62
0
 10
243.108245024
 20
1403.01455706
 30
0.0
 40
35.0
 50
-90.0
 51
-2.24802594562
  0
LINE
  8
0
 62
0
 10
300.0
 20
1960.0
 30
0.0
 11
278.081308614
 21
1401.64166846
 31
0.0
  0
LINE
  8
0
 62
0
 10
400.0
 20
1960.0
 30
0.0
 11
300.0
 21
1960.0
 31
0.0
  0
LINE
  8
0
 62
0
 10
77.5
 20
1228.0
 30
0.0
 11
77.5
 21
1210.0
 31
0.0
  0
LINE
  8
0
 62
0
 10
252.5
 20
1228.0
 30
0.0
 11
252.5
 21
1210.0
 31
0.0
  0
LINE
  8
0
 62
0
 10
322.5
 20
1228.0
 30
0.0
 11
322.5
 21
1210.0
 31
0.0
  0
LINE
  8
0
 62
0
 10
322.5
 20
1210.0
 30
0.0
 11
252.5
 21
1210.0
 31
0.0
  0
CIRCLE
  8
0
 62
0
 10
85.995476
 20
1308.01455706
 30
0.0
 40
40.0
  0
CIRCLE
  8
0
 62
0
 10
314.004524
 20
1308.01455706
 30
0.0
 40
40.0
  0
LINE
  8
0
 62
0
 10
147.5
 20
1228.0
 30
0.0
 11
252.5
 21
1228.0
 31
0.0
  0
ARC
  8
0
 62
0
 10
156.891754976
 20
1403.01455706
 30
0.0
 40
35.0
 50
-177.751974054
 51
-90.0
  0
LINE
  8
0
 62
0
 10
25.0
 20
1228.0
 30
0.0
 11
77.5
 21
1228.0
 31
0.0
  0
ARC
  8
0
 62
0
 10
243.108245024
 20
1403.01455706
 30
0.0
 40
35.0
 50
-90.0
 51
-2.24802594562
  0
CIRCLE
  8
0
 62
0
 10
85.995476
 20
1308.01455706
 30
0.0
 40
40.0
  0
ENDBLK
  0
ENDSEC
  0
SECTION
  2
ENTITIES
  0
INSERT
  2
SHAPE2DVIEW
  8
0
 62
0
 10
0.0
 20
0.0
 30
0.0
  0
INSERT
  2
SHAPE2DVIEW001
  8
0
 62
0
 10
0.0
 20
0.0
 30
0.0
  0
ENDSEC
  0
EOF
